<svg xmlns="http://www.w3.org/2000/svg" xmlns:xlink="http://www.w3.org/1999/xlink" contentStyleType="text/css" data-diagram-type="SEQUENCE" height="2154.6875px" preserveAspectRatio="none" style="width:2100px;height:2154px;background:#FFFFFF;" version="1.1" viewBox="0 0 2100 2154" width="2100px" zoomAndPan="magnify"><?plantuml 1.2026.4?><defs/><g><g class="title" data-source-line="17"><rect fill="#EBF8FF" height="53.0334" rx="7.8125" ry="7.8125" style="stroke:#CBD5E0;stroke-width:1.5625;" width="1042.7231" x="523.1829" y="15.625"/><text fill="#1A365D" font-family="Segoe UI" font-size="28.125" font-weight="700" lengthAdjust="spacing" textLength="1027.0981" x="530.9954" y="53.7872">Diagramme de sequence - Acheteur envoie une RFQ groupee a un fournisseur</text></g><rect fill="#F7FAFC" height="1321.4111" rx="7.8125" ry="7.8125" style="stroke:#CBD5E0;stroke-width:2.3438;" width="2059.4013" x="15.625" y="521.933"/><path d="M15.625,635.3119 L2075.0263,635.3119 L2075.0263,1835.5316 A7.8125,7.8125 0 0 1 2067.2138,1843.3441 L23.4375,1843.3441 A7.8125,7.8125 0 0 1 15.625,1835.5316 L15.625,635.3119" fill="#F7FAFC" style="stroke:none;stroke-width:1.5625;"/><rect fill="#F7FAFC" height="676.77" rx="7.8125" ry="7.8125" style="stroke:#CBD5E0;stroke-width:2.3438;" width="2028.1513" x="31.25" y="1155.6366"/><path d="M31.25,1269.0155 L2059.4013,1269.0155 L2059.4013,1824.5941 A7.8125,7.8125 0 0 1 2051.5888,1832.4066 L39.0625,1832.4066 A7.8125,7.8125 0 0 1 31.25,1824.5941 L31.25,1269.0155" fill="#F7FAFC" style="stroke:none;stroke-width:1.5625;"/><rect fill="#F7FAFC" height="156.0364" rx="7.8125" ry="7.8125" style="stroke:#CBD5E0;stroke-width:2.3438;" width="1089.4371" x="763.7783" y="1366.8304"/><g class="participant-lifeline" data-entity-uid="part1" data-qualified-name="buyer" data-source-line="5" id="part1-lifeline"><g><title>Acheteur</title><rect fill="#000000" fill-opacity="0.00000" height="1827.0508" width="12.5" x="88.5708" y="198.8007"/><line style="stroke:#2B6CB0;stroke-width:0.7813;stroke-dasharray:7.8125,7.8125;" x1="93.75" x2="93.75" y1="198.8007" y2="2025.8514"/></g></g><g class="participant-lifeline" data-entity-uid="part2" data-qualified-name="supplier" data-source-line="6" id="part2-lifeline"><g><title>Fournisseur</title><rect fill="#000000" fill-opacity="0.00000" height="1827.0508" width="12.5" x="212.1529" y="198.8007"/><line style="stroke:#2B6CB0;stroke-width:0.7813;stroke-dasharray:7.8125,7.8125;" x1="217.7666" x2="217.7666" y1="198.8007" y2="2025.8514"/></g></g><g class="participant-lifeline" data-entity-uid="part3" data-qualified-name="UI" data-source-line="8" id="part3-lifeline"><g><title>Frontend</title><rect fill="#000000" fill-opacity="0.00000" height="1827.0508" width="12.5" x="401.7986" y="198.8007"/><line style="stroke:#2B6CB0;stroke-width:0.7813;stroke-dasharray:7.8125,7.8125;" x1="406.9057" x2="406.9057" y1="198.8007" y2="2025.8514"/></g></g><g class="participant-lifeline" data-entity-uid="part4" data-qualified-name="Ctrl" data-source-line="9" id="part4-lifeline"><g><title>RFQController</title><rect fill="#000000" fill-opacity="0.00000" height="1827.0508" width="12.5" x="653.6251" y="198.8007"/><line style="stroke:#2B6CB0;stroke-width:0.7813;stroke-dasharray:7.8125,7.8125;" x1="659.7759" x2="659.7759" y1="198.8007" y2="2025.8514"/></g></g><g class="participant-lifeline" data-entity-uid="part5" data-qualified-name="UC" data-source-line="10" id="part5-lifeline"><g><title>CreateGroupedRFQUseCase</title><rect fill="#000000" fill-opacity="0.00000" height="1827.0508" width="12.5" x="905.1693" y="198.8007"/><line style="stroke:#2B6CB0;stroke-width:0.7813;stroke-dasharray:7.8125,7.8125;" x1="910.6533" x2="910.6533" y1="198.8007" y2="2025.8514"/></g></g><g class="participant-lifeline" data-entity-uid="part6" data-qualified-name="SnapSvc" data-source-line="11" id="part6-lifeline"><g><title>ProductSnapshotService</title><rect fill="#000000" fill-opacity="0.00000" height="1827.0508" width="12.5" x="1211.6756" y="198.8007"/><line style="stroke:#2B6CB0;stroke-width:0.7813;stroke-dasharray:7.8125,7.8125;" x1="1217.0223" x2="1217.0223" y1="198.8007" y2="2025.8514"/></g></g><g class="participant-lifeline" data-entity-uid="part7" data-qualified-name="ProdRepo" data-source-line="12" id="part7-lifeline"><g><title>ProductRepository</title><rect fill="#000000" fill-opacity="0.00000" height="1827.0508" width="12.5" x="1425.7275" y="198.8007"/><line style="stroke:#2B6CB0;stroke-width:0.7813;stroke-dasharray:7.8125,7.8125;" x1="1431.329" x2="1431.329" y1="198.8007" y2="2025.8514"/></g></g><g class="participant-lifeline" data-entity-uid="part8" data-qualified-name="SuppRepo" data-source-line="13" id="part8-lifeline"><g><title>SupplierRepository</title><rect fill="#000000" fill-opacity="0.00000" height="1827.0508" width="12.5" x="1603.7113" y="198.8007"/><line style="stroke:#2B6CB0;stroke-width:0.7813;stroke-dasharray:7.8125,7.8125;" x1="1609.1885" x2="1609.1885" y1="198.8007" y2="2025.8514"/></g></g><g class="participant-lifeline" data-entity-uid="part9" data-qualified-name="RFQRepo" data-source-line="14" id="part9-lifeline"><g><title>RFQRepository</title><rect fill="#000000" fill-opacity="0.00000" height="1827.0508" width="12.5" x="1766.3498" y="198.8007"/><line style="stroke:#2B6CB0;stroke-width:0.7813;stroke-dasharray:7.8125,7.8125;" x1="1771.6717" x2="1771.6717" y1="198.8007" y2="2025.8514"/></g></g><g class="participant-lifeline" data-entity-uid="part10" data-qualified-name="Notif" data-source-line="15" id="part10-lifeline"><g><title>NotificationService</title><rect fill="#000000" fill-opacity="0.00000" height="1827.0508" width="12.5" x="1942.2459" y="198.8007"/><line style="stroke:#2B6CB0;stroke-width:0.7813;stroke-dasharray:7.8125,7.8125;" x1="1946.9654" x2="1946.9654" y1="198.8007" y2="2025.8514"/></g></g><g class="participant participant-head" data-entity-uid="part1" data-qualified-name="buyer" data-source-line="5" id="part1-head"><text fill="#1A365D" font-family="Segoe UI" font-size="20.3125" font-weight="700" lengthAdjust="spacing" textLength="86.5166" x="46.875" y="193.7027">Acheteur</text><ellipse cx="94.8208" cy="91.3147" fill="#FF6B6B" rx="12.5" ry="12.5" style="stroke:#2B6CB0;stroke-width:0.7813;"/><path d="M94.8208,103.8147 L94.8208,146.0022 M74.5083,116.3147 L115.1333,116.3147 M94.8208,146.0022 L74.5083,169.4397 M94.8208,146.0022 L115.1333,169.4397" fill="none" style="stroke:#2B6CB0;stroke-width:0.7813;"/></g><g class="participant participant-tail" data-entity-uid="part1" data-qualified-name="buyer" data-source-line="5" id="part1-tail"><text fill="#1A365D" font-family="Segoe UI" font-size="20.3125" font-weight="700" lengthAdjust="spacing" textLength="86.5166" x="46.875" y="2046.2082">Acheteur</text><ellipse cx="94.8208" cy="2064.5874" fill="#FF6B6B" rx="12.5" ry="12.5" style="stroke:#2B6CB0;stroke-width:0.7813;"/><path d="M94.8208,2077.0874 L94.8208,2119.2749 M74.5083,2089.5874 L115.1333,2089.5874 M94.8208,2119.2749 L74.5083,2142.7124 M94.8208,2119.2749 L115.1333,2142.7124" fill="none" style="stroke:#2B6CB0;stroke-width:0.7813;"/></g><g class="participant participant-head" data-entity-uid="part2" data-qualified-name="supplier" data-source-line="6" id="part2-head"><text fill="#1A365D" font-family="Segoe UI" font-size="20.3125" font-weight="700" lengthAdjust="spacing" textLength="110.6476" x="158.3916" y="193.7027">Fournisseur</text><ellipse cx="218.4029" cy="91.3147" fill="#4ECDC4" rx="12.5" ry="12.5" style="stroke:#2B6CB0;stroke-width:0.7813;"/><path d="M218.4029,103.8147 L218.4029,146.0022 M198.0904,116.3147 L238.7154,116.3147 M218.4029,146.0022 L198.0904,169.4397 M218.4029,146.0022 L238.7154,169.4397" fill="none" style="stroke:#2B6CB0;stroke-width:0.7813;"/></g><g class="participant participant-tail" data-entity-uid="part2" data-qualified-name="supplier" data-source-line="6" id="part2-tail"><text fill="#1A365D" font-family="Segoe UI" font-size="20.3125" font-weight="700" lengthAdjust="spacing" textLength="110.6476" x="158.3916" y="2046.2082">Fournisseur</text><ellipse cx="218.4029" cy="2064.5874" fill="#4ECDC4" rx="12.5" ry="12.5" style="stroke:#2B6CB0;stroke-width:0.7813;"/><path d="M218.4029,2077.0874 L218.4029,2119.2749 M198.0904,2089.5874 L238.7154,2089.5874 M218.4029,2119.2749 L198.0904,2142.7124 M218.4029,2119.2749 L238.7154,2142.7124" fill="none" style="stroke:#2B6CB0;stroke-width:0.7813;"/></g><g class="participant participant-head" data-entity-uid="part3" data-qualified-name="UI" data-source-line="8" id="part3-head"><rect fill="#EDF2F7" height="46.814" rx="7.8125" ry="7.8125" style="stroke:#2B6CB0;stroke-width:0.7813;" width="102.2858" x="356.9057" y="150.4242"/><text fill="#2D3748" font-family="Segoe UI" font-size="18.75" font-weight="700" lengthAdjust="spacing" textLength="80.4108" x="367.8432" y="181.5948">Frontend</text></g><g class="participant participant-tail" data-entity-uid="part3" data-qualified-name="UI" data-source-line="8" id="part3-tail"><rect fill="#EDF2F7" height="46.814" rx="7.8125" ry="7.8125" style="stroke:#2B6CB0;stroke-width:0.7813;" width="102.2858" x="356.9057" y="2024.2889"/><text fill="#2D3748" font-family="Segoe UI" font-size="18.75" font-weight="700" lengthAdjust="spacing" textLength="80.4108" x="367.8432" y="2055.4596">Frontend</text></g><g class="participant participant-head" data-entity-uid="part4" data-qualified-name="Ctrl" data-source-line="9" id="part4-head"><rect fill="#B3D4FF" height="46.814" rx="7.8125" ry="7.8125" style="stroke:#2B6CB0;stroke-width:0.7813;" width="147.0734" x="586.3384" y="150.4242"/><text fill="#2D3748" font-family="Segoe UI" font-size="18.75" font-weight="700" lengthAdjust="spacing" textLength="125.1984" x="597.2759" y="181.5948">RFQController</text></g><g class="participant participant-tail" data-entity-uid="part4" data-qualified-name="Ctrl" data-source-line="9" id="part4-tail"><rect fill="#B3D4FF" height="46.814" rx="7.8125" ry="7.8125" style="stroke:#2B6CB0;stroke-width:0.7813;" width="147.0734" x="586.3384" y="2024.2889"/><text fill="#2D3748" font-family="Segoe UI" font-size="18.75" font-weight="700" lengthAdjust="spacing" textLength="125.1984" x="597.2759" y="2055.4596">RFQController</text></g><g class="participant participant-head" data-entity-uid="part5" data-qualified-name="UC" data-source-line="10" id="part5-head"><rect fill="#B2F5EA" height="46.814" rx="7.8125" ry="7.8125" style="stroke:#2B6CB0;stroke-width:0.7813;" width="264.032" x="779.4033" y="150.4242"/><text fill="#2D3748" font-family="Segoe UI" font-size="18.75" font-weight="700" lengthAdjust="spacing" textLength="242.157" x="790.3408" y="181.5948">CreateGroupedRFQUseCase</text></g><g class="participant participant-tail" data-entity-uid="part5" data-qualified-name="UC" data-source-line="10" id="part5-tail"><rect fill="#B2F5EA" height="46.814" rx="7.8125" ry="7.8125" style="stroke:#2B6CB0;stroke-width:0.7813;" width="264.032" x="779.4033" y="2024.2889"/><text fill="#2D3748" font-family="Segoe UI" font-size="18.75" font-weight="700" lengthAdjust="spacing" textLength="242.157" x="790.3408" y="2055.4596">CreateGroupedRFQUseCase</text></g><g class="participant participant-head" data-entity-uid="part6" data-qualified-name="SnapSvc" data-source-line="11" id="part6-head"><rect fill="#B2F5EA" height="46.814" rx="7.8125" ry="7.8125" style="stroke:#2B6CB0;stroke-width:0.7813;" width="236.1816" x="1099.8348" y="150.4242"/><text fill="#2D3748" font-family="Segoe UI" font-size="18.75" font-weight="700" lengthAdjust="spacing" textLength="214.3066" x="1110.7723" y="181.5948">ProductSnapshotService</text></g><g class="participant participant-tail" data-entity-uid="part6" data-qualified-name="SnapSvc" data-source-line="11" id="part6-tail"><rect fill="#B2F5EA" height="46.814" rx="7.8125" ry="7.8125" style="stroke:#2B6CB0;stroke-width:0.7813;" width="236.1816" x="1099.8348" y="2024.2889"/><text fill="#2D3748" font-family="Segoe UI" font-size="18.75" font-weight="700" lengthAdjust="spacing" textLength="214.3066" x="1110.7723" y="2055.4596">ProductSnapshotService</text></g><g class="participant participant-head" data-entity-uid="part7" data-qualified-name="ProdRepo" data-source-line="12" id="part7-head"><text fill="#2D3748" font-family="Segoe UI" font-size="17.1875" font-weight="700" lengthAdjust="spacing" textLength="151.297" x="1351.6415" y="194.487">ProductRepository</text><path d="M1403.8525,119.6899 C1403.8525,104.0649 1431.9775,104.0649 1431.9775,104.0649 C1431.9775,104.0649 1460.1025,104.0649 1460.1025,119.6899 L1460.1025,160.3149 C1460.1025,175.9399 1431.9775,175.9399 1431.9775,175.9399 C1431.9775,175.9399 1403.8525,175.9399 1403.8525,160.3149 L1403.8525,119.6899" fill="#81E6D9" style="stroke:#319795;stroke-width:0.7813;"/><path d="M1403.8525,119.6899 C1403.8525,135.3149 1431.9775,135.3149 1431.9775,135.3149 C1431.9775,135.3149 1460.1025,135.3149 1460.1025,119.6899" fill="none" style="stroke:#319795;stroke-width:0.7813;"/></g><g class="participant participant-tail" data-entity-uid="part7" data-qualified-name="ProdRepo" data-source-line="12" id="part7-tail"><text fill="#2D3748" font-family="Segoe UI" font-size="17.1875" font-weight="700" lengthAdjust="spacing" textLength="151.297" x="1351.6415" y="2042.836">ProductRepository</text><path d="M1403.8525,2062.7747 C1403.8525,2047.1497 1431.9775,2047.1497 1431.9775,2047.1497 C1431.9775,2047.1497 1460.1025,2047.1497 1460.1025,2062.7747 L1460.1025,2103.3997 C1460.1025,2119.0247 1431.9775,2119.0247 1431.9775,2119.0247 C1431.9775,2119.0247 1403.8525,2119.0247 1403.8525,2103.3997 L1403.8525,2062.7747" fill="#81E6D9" style="stroke:#319795;stroke-width:0.7813;"/><path d="M1403.8525,2062.7747 C1403.8525,2078.3997 1431.9775,2078.3997 1431.9775,2078.3997 C1431.9775,2078.3997 1460.1025,2078.3997 1460.1025,2062.7747" fill="none" style="stroke:#319795;stroke-width:0.7813;"/></g><g class="participant participant-head" data-entity-uid="part8" data-qualified-name="SuppRepo" data-source-line="13" id="part8-head"><text fill="#2D3748" font-family="Segoe UI" font-size="17.1875" font-weight="700" lengthAdjust="spacing" textLength="154.6707" x="1527.9385" y="194.487">SupplierRepository</text><path d="M1581.8363,119.6899 C1581.8363,104.0649 1609.9613,104.0649 1609.9613,104.0649 C1609.9613,104.0649 1638.0863,104.0649 1638.0863,119.6899 L1638.0863,160.3149 C1638.0863,175.9399 1609.9613,175.9399 1609.9613,175.9399 C1609.9613,175.9399 1581.8363,175.9399 1581.8363,160.3149 L1581.8363,119.6899" fill="#81E6D9" style="stroke:#319795;stroke-width:0.7813;"/><path d="M1581.8363,119.6899 C1581.8363,135.3149 1609.9613,135.3149 1609.9613,135.3149 C1609.9613,135.3149 1638.0863,135.3149 1638.0863,119.6899" fill="none" style="stroke:#319795;stroke-width:0.7813;"/></g><g class="participant participant-tail" data-entity-uid="part8" data-qualified-name="SuppRepo" data-source-line="13" id="part8-tail"><text fill="#2D3748" font-family="Segoe UI" font-size="17.1875" font-weight="700" lengthAdjust="spacing" textLength="154.6707" x="1527.9385" y="2042.836">SupplierRepository</text><path d="M1581.8363,2062.7747 C1581.8363,2047.1497 1609.9613,2047.1497 1609.9613,2047.1497 C1609.9613,2047.1497 1638.0863,2047.1497 1638.0863,2062.7747 L1638.0863,2103.3997 C1638.0863,2119.0247 1609.9613,2119.0247 1609.9613,2119.0247 C1609.9613,2119.0247 1581.8363,2119.0247 1581.8363,2103.3997 L1581.8363,2062.7747" fill="#81E6D9" style="stroke:#319795;stroke-width:0.7813;"/><path d="M1581.8363,2062.7747 C1581.8363,2078.3997 1609.9613,2078.3997 1609.9613,2078.3997 C1609.9613,2078.3997 1638.0863,2078.3997 1638.0863,2062.7747" fill="none" style="stroke:#319795;stroke-width:0.7813;"/></g><g class="participant participant-head" data-entity-uid="part9" data-qualified-name="RFQRepo" data-source-line="14" id="part9-head"><text fill="#2D3748" font-family="Segoe UI" font-size="17.1875" font-weight="700" lengthAdjust="spacing" textLength="120.6062" x="1707.6092" y="194.487">RFQRepository</text><path d="M1744.4748,119.6899 C1744.4748,104.0649 1772.5998,104.0649 1772.5998,104.0649 C1772.5998,104.0649 1800.7248,104.0649 1800.7248,119.6899 L1800.7248,160.3149 C1800.7248,175.9399 1772.5998,175.9399 1772.5998,175.9399 C1772.5998,175.9399 1744.4748,175.9399 1744.4748,160.3149 L1744.4748,119.6899" fill="#81E6D9" style="stroke:#319795;stroke-width:0.7813;"/><path d="M1744.4748,119.6899 C1744.4748,135.3149 1772.5998,135.3149 1772.5998,135.3149 C1772.5998,135.3149 1800.7248,135.3149 1800.7248,119.6899" fill="none" style="stroke:#319795;stroke-width:0.7813;"/></g><g class="participant participant-tail" data-entity-uid="part9" data-qualified-name="RFQRepo" data-source-line="14" id="part9-tail"><text fill="#2D3748" font-family="Segoe UI" font-size="17.1875" font-weight="700" lengthAdjust="spacing" textLength="120.6062" x="1707.6092" y="2042.836">RFQRepository</text><path d="M1744.4748,2062.7747 C1744.4748,2047.1497 1772.5998,2047.1497 1772.5998,2047.1497 C1772.5998,2047.1497 1800.7248,2047.1497 1800.7248,2062.7747 L1800.7248,2103.3997 C1800.7248,2119.0247 1772.5998,2119.0247 1772.5998,2119.0247 C1772.5998,2119.0247 1744.4748,2119.0247 1744.4748,2103.3997 L1744.4748,2062.7747" fill="#81E6D9" style="stroke:#319795;stroke-width:0.7813;"/><path d="M1744.4748,2062.7747 C1744.4748,2078.3997 1772.5998,2078.3997 1772.5998,2078.3997 C1772.5998,2078.3997 1800.7248,2078.3997 1800.7248,2062.7747" fill="none" style="stroke:#319795;stroke-width:0.7813;"/></g><g class="participant participant-head" data-entity-uid="part10" data-qualified-name="Notif" data-source-line="15" id="part10-head"><rect fill="#FBD38D" height="46.814" rx="7.8125" ry="7.8125" style="stroke:#2B6CB0;stroke-width:0.7813;" width="190.5609" x="1853.2154" y="150.4242"/><text fill="#2D3748" font-family="Segoe UI" font-size="18.75" font-weight="700" lengthAdjust="spacing" textLength="168.6859" x="1864.1529" y="181.5948">NotificationService</text></g><g class="participant participant-tail" data-entity-uid="part10" data-qualified-name="Notif" data-source-line="15" id="part10-tail"><rect fill="#FBD38D" height="46.814" rx="7.8125" ry="7.8125" style="stroke:#2B6CB0;stroke-width:0.7813;" width="190.5609" x="1853.2154" y="2024.2889"/><text fill="#2D3748" font-family="Segoe UI" font-size="18.75" font-weight="700" lengthAdjust="spacing" textLength="168.6859" x="1864.1529" y="2055.4596">NotificationService</text></g><g class="message" data-entity-1="part1" data-entity-2="part3" data-source-line="20" id="msg1"><polygon fill="#2B6CB0" points="389.2986,238.3331,404.9236,244.5831,389.2986,250.8331,395.5486,244.5831" style="stroke:#2B6CB0;stroke-width:1.5625;stroke-linejoin:miter;stroke-miterlimit:10;"/><line style="stroke:#2B6CB0;stroke-width:2.3438;" x1="94.8208" x2="398.6736" y1="244.5831" y2="244.5831"/><text fill="#4A5568" font-family="Segoe UI" font-size="15.625" font-weight="700" lengthAdjust="spacing" textLength="8.9874" x="105.7583" y="237.5366">1</text><text fill="#4A5568" font-family="Segoe UI" font-size="15.625" lengthAdjust="spacing" textLength="260.4904" x="120.9957" y="237.5366">selectionner plusieurs produits favoris</text></g><g class="message" data-entity-1="part1" data-entity-2="part3" data-source-line="21" id="msg2"><polygon fill="#2B6CB0" points="389.2986,280.9906,404.9236,287.2406,389.2986,293.4906,395.5486,287.2406" style="stroke:#2B6CB0;stroke-width:1.5625;stroke-linejoin:miter;stroke-miterlimit:10;"/><line style="stroke:#2B6CB0;stroke-width:2.3438;" x1="94.8208" x2="398.6736" y1="287.2406" y2="287.2406"/><text fill="#4A5568" font-family="Segoe UI" font-size="15.625" font-weight="700" lengthAdjust="spacing" textLength="8.9874" x="105.7583" y="280.1941">2</text><text fill="#4A5568" font-family="Segoe UI" font-size="15.625" lengthAdjust="spacing" textLength="220.5048" x="120.9957" y="280.1941">cliquer sur "Creer RFQ groupee"</text></g><g class="message" data-entity-1="part3" data-entity-2="part4" data-source-line="22" id="msg3"><polygon fill="#2B6CB0" points="641.1251,323.6481,656.7501,329.8981,641.1251,336.1481,647.3751,329.8981" style="stroke:#2B6CB0;stroke-width:1.5625;stroke-linejoin:miter;stroke-miterlimit:10;"/><line style="stroke:#2B6CB0;stroke-width:2.3438;" x1="408.0486" x2="650.5001" y1="329.8981" y2="329.8981"/><text fill="#4A5568" font-family="Segoe UI" font-size="15.625" font-weight="700" lengthAdjust="spacing" textLength="8.9874" x="418.9861" y="322.8516">3</text><text fill="#4A5568" font-family="Segoe UI" font-size="15.625" lengthAdjust="spacing" textLength="192.8711" x="434.2236" y="322.8516">createGroupedRFQ(request)</text></g><g class="message" data-entity-1="part4" data-entity-2="part5" data-source-line="23" id="msg4"><polygon fill="#2B6CB0" points="892.6693,366.3055,908.2943,372.5555,892.6693,378.8055,898.9193,372.5555" style="stroke:#2B6CB0;stroke-width:1.5625;stroke-linejoin:miter;stroke-miterlimit:10;"/><line style="stroke:#2B6CB0;stroke-width:2.3438;" x1="659.8751" x2="902.0443" y1="372.5555" y2="372.5555"/><text fill="#4A5568" font-family="Segoe UI" font-size="15.625" font-weight="700" lengthAdjust="spacing" textLength="8.9874" x="670.8126" y="365.509">4</text><text fill="#4A5568" font-family="Segoe UI" font-size="15.625" lengthAdjust="spacing" textLength="114.212" x="686.05" y="365.509">execute(request)</text></g><g class="message" data-entity-1="part5" data-entity-2="part5" data-source-line="24" id="msg5"><line style="stroke:#2B6CB0;stroke-width:2.3438;" x1="911.4193" x2="977.0443" y1="415.213" y2="415.213"/><line style="stroke:#2B6CB0;stroke-width:2.3438;" x1="977.0443" x2="977.0443" y1="415.213" y2="435.5255"/><line style="stroke:#2B6CB0;stroke-width:2.3438;" x1="912.9818" x2="977.0443" y1="435.5255" y2="435.5255"/><polygon fill="#2B6CB0" points="928.6068,429.2755,912.9818,435.5255,928.6068,441.7755,922.3568,435.5255" style="stroke:#2B6CB0;stroke-width:1.5625;stroke-linejoin:miter;stroke-miterlimit:10;"/><text fill="#4A5568" font-family="Segoe UI" font-size="15.625" font-weight="700" lengthAdjust="spacing" textLength="8.9874" x="922.3568" y="408.1665">5</text><text fill="#4A5568" font-family="Segoe UI" font-size="15.625" lengthAdjust="spacing" textLength="178.5431" x="937.5942" y="408.1665">verifier acheteur connecte</text></g><g class="message" data-entity-1="part5" data-entity-2="part5" data-source-line="25" id="msg6"><line style="stroke:#2B6CB0;stroke-width:2.3438;" x1="911.4193" x2="977.0443" y1="478.183" y2="478.183"/><line style="stroke:#2B6CB0;stroke-width:2.3438;" x1="977.0443" x2="977.0443" y1="478.183" y2="498.4955"/><line style="stroke:#2B6CB0;stroke-width:2.3438;" x1="912.9818" x2="977.0443" y1="498.4955" y2="498.4955"/><polygon fill="#2B6CB0" points="928.6068,492.2455,912.9818,498.4955,928.6068,504.7455,922.3568,498.4955" style="stroke:#2B6CB0;stroke-width:1.5625;stroke-linejoin:miter;stroke-miterlimit:10;"/><text fill="#4A5568" font-family="Segoe UI" font-size="15.625" font-weight="700" lengthAdjust="spacing" textLength="8.9874" x="922.3568" y="471.1365">6</text><text fill="#4A5568" font-family="Segoe UI" font-size="15.625" lengthAdjust="spacing" textLength="123.4589" x="937.5942" y="471.1365">verifier KYC valide</text></g><path d="M23.4375,521.933 L108.6517,521.933 L108.6517,534.3719 L93.0267,549.9969 L15.625,549.9969 L15.625,529.7455 A7.8125,7.8125 0 0 1 23.4375,521.933" fill="#F7FAFC" style="stroke:#CBD5E0;stroke-width:2.3438;"/><rect fill="none" height="1321.4111" rx="7.8125" ry="7.8125" style="stroke:#CBD5E0;stroke-width:2.3438;" width="2059.4013" x="15.625" y="521.933"/><text fill="#000000" font-family="Segoe UI" font-size="18.75" font-weight="700" lengthAdjust="spacing" textLength="22.7142" x="39.0625" y="543.7286">alt</text><text fill="#2D3748" font-family="Segoe UI" font-size="15.625" font-weight="700" lengthAdjust="spacing" textLength="102.9968" x="132.0892" y="541.9189">[KYC invalide]</text><g class="message" data-entity-1="part5" data-entity-2="part4" data-source-line="28" id="msg7"><polygon fill="#2B6CB0" points="677.0626,573.9044,661.4376,580.1544,677.0626,586.4044,670.8126,580.1544" style="stroke:#2B6CB0;stroke-width:1.5625;stroke-linejoin:miter;stroke-miterlimit:10;"/><line style="stroke:#2B6CB0;stroke-width:2.3438;stroke-dasharray:3.125,3.125;" x1="667.6876" x2="909.8568" y1="580.1544" y2="580.1544"/><text fill="#4A5568" font-family="Segoe UI" font-size="15.625" font-weight="700" lengthAdjust="spacing" textLength="8.9874" x="686.4376" y="573.1079">7</text><text fill="#4A5568" font-family="Segoe UI" font-size="15.625" lengthAdjust="spacing" textLength="146.3089" x="701.675" y="573.1079">erreur KYC incomplet</text></g><g class="message" data-entity-1="part4" data-entity-2="part3" data-source-line="29" id="msg8"><polygon fill="#2B6CB0" points="425.2361,616.5619,409.6111,622.8119,425.2361,629.0619,418.9861,622.8119" style="stroke:#2B6CB0;stroke-width:1.5625;stroke-linejoin:miter;stroke-miterlimit:10;"/><line style="stroke:#2B6CB0;stroke-width:2.3438;stroke-dasharray:3.125,3.125;" x1="415.8611" x2="658.3126" y1="622.8119" y2="622.8119"/><text fill="#4A5568" font-family="Segoe UI" font-size="15.625" font-weight="700" lengthAdjust="spacing" textLength="8.9874" x="434.6111" y="615.7654">8</text><text fill="#4A5568" font-family="Segoe UI" font-size="15.625" lengthAdjust="spacing" textLength="189.9109" x="449.8486" y="615.7654">demander finalisation profil</text></g><line style="stroke:#CBD5E0;stroke-width:1.5625;stroke-dasharray:3.125,3.125;" x1="15.625" x2="2075.0263" y1="636.8744" y2="636.8744"/><text fill="#2D3748" font-family="Segoe UI" font-size="15.625" font-weight="700" lengthAdjust="spacing" textLength="89.1037" x="23.4375" y="653.7354">[KYC valide]</text><g class="message" data-entity-1="part5" data-entity-2="part7" data-source-line="31" id="msg9"><polygon fill="#2B6CB0" points="1413.2275,683.1268,1428.8525,689.3768,1413.2275,695.6268,1419.4775,689.3768" style="stroke:#2B6CB0;stroke-width:1.5625;stroke-linejoin:miter;stroke-miterlimit:10;"/><line style="stroke:#2B6CB0;stroke-width:2.3438;" x1="911.4193" x2="1422.6025" y1="689.3768" y2="689.3768"/><text fill="#4A5568" font-family="Segoe UI" font-size="15.625" font-weight="700" lengthAdjust="spacing" textLength="8.9874" x="922.3568" y="682.3303">9</text><text fill="#4A5568" font-family="Segoe UI" font-size="15.625" lengthAdjust="spacing" textLength="229.3015" x="937.5942" y="682.3303">findSelectedProducts(productIds)</text></g><g class="message" data-entity-1="part7" data-entity-2="part5" data-source-line="32" id="msg10"><polygon fill="#2B6CB0" points="928.6068,725.7843,912.9818,732.0343,928.6068,738.2843,922.3568,732.0343" style="stroke:#2B6CB0;stroke-width:1.5625;stroke-linejoin:miter;stroke-miterlimit:10;"/><line style="stroke:#2B6CB0;stroke-width:2.3438;stroke-dasharray:3.125,3.125;" x1="919.2318" x2="1430.415" y1="732.0343" y2="732.0343"/><text fill="#4A5568" font-family="Segoe UI" font-size="15.625" font-weight="700" lengthAdjust="spacing" textLength="17.9749" x="937.9818" y="724.9878">10</text><text fill="#4A5568" font-family="Segoe UI" font-size="15.625" lengthAdjust="spacing" textLength="60.9589" x="962.2066" y="724.9878">products</text></g><g class="message" data-entity-1="part5" data-entity-2="part8" data-source-line="33" id="msg11"><polygon fill="#2B6CB0" points="1591.2113,768.4418,1606.8363,774.6918,1591.2113,780.9418,1597.4613,774.6918" style="stroke:#2B6CB0;stroke-width:1.5625;stroke-linejoin:miter;stroke-miterlimit:10;"/><line style="stroke:#2B6CB0;stroke-width:2.3438;" x1="911.4193" x2="1600.5863" y1="774.6918" y2="774.6918"/><text fill="#4A5568" font-family="Segoe UI" font-size="15.625" font-weight="700" lengthAdjust="spacing" textLength="17.9749" x="922.3568" y="767.6453">11</text><text fill="#4A5568" font-family="Segoe UI" font-size="15.625" lengthAdjust="spacing" textLength="134.3994" x="946.5816" y="767.6453">findById(supplierId)</text></g><g class="message" data-entity-1="part8" data-entity-2="part5" data-source-line="34" id="msg12"><polygon fill="#2B6CB0" points="928.6068,811.0992,912.9818,817.3492,928.6068,823.5992,922.3568,817.3492" style="stroke:#2B6CB0;stroke-width:1.5625;stroke-linejoin:miter;stroke-miterlimit:10;"/><line style="stroke:#2B6CB0;stroke-width:2.3438;stroke-dasharray:3.125,3.125;" x1="919.2318" x2="1608.3988" y1="817.3492" y2="817.3492"/><text fill="#4A5568" font-family="Segoe UI" font-size="15.625" font-weight="700" lengthAdjust="spacing" textLength="17.9749" x="937.9818" y="810.3027">12</text><text fill="#4A5568" font-family="Segoe UI" font-size="15.625" lengthAdjust="spacing" textLength="55.0156" x="962.2066" y="810.3027">supplier</text></g><g class="message" data-entity-1="part5" data-entity-2="part5" data-source-line="35" id="msg13"><line style="stroke:#2B6CB0;stroke-width:2.3438;" x1="911.4193" x2="977.0443" y1="860.0067" y2="860.0067"/><line style="stroke:#2B6CB0;stroke-width:2.3438;" x1="977.0443" x2="977.0443" y1="860.0067" y2="880.3192"/><line style="stroke:#2B6CB0;stroke-width:2.3438;" x1="912.9818" x2="977.0443" y1="880.3192" y2="880.3192"/><polygon fill="#2B6CB0" points="928.6068,874.0692,912.9818,880.3192,928.6068,886.5692,922.3568,880.3192" style="stroke:#2B6CB0;stroke-width:1.5625;stroke-linejoin:miter;stroke-miterlimit:10;"/><text fill="#4A5568" font-family="Segoe UI" font-size="15.625" font-weight="700" lengthAdjust="spacing" textLength="17.9749" x="922.3568" y="852.9602">13</text><text fill="#4A5568" font-family="Segoe UI" font-size="15.625" lengthAdjust="spacing" textLength="260.4065" x="946.5816" y="852.9602">verifier meme fournisseur destinataire</text></g><g class="message" data-entity-1="part5" data-entity-2="part5" data-source-line="36" id="msg14"><line style="stroke:#2B6CB0;stroke-width:2.3438;" x1="911.4193" x2="977.0443" y1="922.9767" y2="922.9767"/><line style="stroke:#2B6CB0;stroke-width:2.3438;" x1="977.0443" x2="977.0443" y1="922.9767" y2="943.2892"/><line style="stroke:#2B6CB0;stroke-width:2.3438;" x1="912.9818" x2="977.0443" y1="943.2892" y2="943.2892"/><polygon fill="#2B6CB0" points="928.6068,937.0392,912.9818,943.2892,928.6068,949.5392,922.3568,943.2892" style="stroke:#2B6CB0;stroke-width:1.5625;stroke-linejoin:miter;stroke-miterlimit:10;"/><text fill="#4A5568" font-family="Segoe UI" font-size="15.625" font-weight="700" lengthAdjust="spacing" textLength="17.9749" x="922.3568" y="915.9302">14</text><text fill="#4A5568" font-family="Segoe UI" font-size="15.625" lengthAdjust="spacing" textLength="224.9832" x="946.5816" y="915.9302">verifier chaque produit publiable</text></g><g class="message" data-entity-1="part5" data-entity-2="part5" data-source-line="37" id="msg15"><line style="stroke:#2B6CB0;stroke-width:2.3438;" x1="911.4193" x2="977.0443" y1="985.9467" y2="985.9467"/><line style="stroke:#2B6CB0;stroke-width:2.3438;" x1="977.0443" x2="977.0443" y1="985.9467" y2="1006.2592"/><line style="stroke:#2B6CB0;stroke-width:2.3438;" x1="912.9818" x2="977.0443" y1="1006.2592" y2="1006.2592"/><polygon fill="#2B6CB0" points="928.6068,1000.0092,912.9818,1006.2592,928.6068,1012.5092,922.3568,1006.2592" style="stroke:#2B6CB0;stroke-width:1.5625;stroke-linejoin:miter;stroke-miterlimit:10;"/><text fill="#4A5568" font-family="Segoe UI" font-size="15.625" font-weight="700" lengthAdjust="spacing" textLength="17.9749" x="922.3568" y="978.9001">15</text><text fill="#4A5568" font-family="Segoe UI" font-size="15.625" lengthAdjust="spacing" textLength="176.3611" x="946.5816" y="978.9001">verifier disponibilite stock</text></g><g class="message" data-entity-1="part5" data-entity-2="part5" data-source-line="38" id="msg16"><line style="stroke:#2B6CB0;stroke-width:2.3438;" x1="911.4193" x2="977.0443" y1="1048.9166" y2="1048.9166"/><line style="stroke:#2B6CB0;stroke-width:2.3438;" x1="977.0443" x2="977.0443" y1="1048.9166" y2="1069.2291"/><line style="stroke:#2B6CB0;stroke-width:2.3438;" x1="912.9818" x2="977.0443" y1="1069.2291" y2="1069.2291"/><polygon fill="#2B6CB0" points="928.6068,1062.9791,912.9818,1069.2291,928.6068,1075.4791,922.3568,1069.2291" style="stroke:#2B6CB0;stroke-width:1.5625;stroke-linejoin:miter;stroke-miterlimit:10;"/><text fill="#4A5568" font-family="Segoe UI" font-size="15.625" font-weight="700" lengthAdjust="spacing" textLength="17.9749" x="922.3568" y="1041.8701">16</text><text fill="#4A5568" font-family="Segoe UI" font-size="15.625" lengthAdjust="spacing" textLength="169.9142" x="946.5816" y="1041.8701">verifier contraintes MOQ</text></g><g class="message" data-entity-1="part5" data-entity-2="part5" data-source-line="39" id="msg17"><line style="stroke:#2B6CB0;stroke-width:2.3438;" x1="911.4193" x2="977.0443" y1="1111.8866" y2="1111.8866"/><line style="stroke:#2B6CB0;stroke-width:2.3438;" x1="977.0443" x2="977.0443" y1="1111.8866" y2="1132.1991"/><line style="stroke:#2B6CB0;stroke-width:2.3438;" x1="912.9818" x2="977.0443" y1="1132.1991" y2="1132.1991"/><polygon fill="#2B6CB0" points="928.6068,1125.9491,912.9818,1132.1991,928.6068,1138.4491,922.3568,1132.1991" style="stroke:#2B6CB0;stroke-width:1.5625;stroke-linejoin:miter;stroke-miterlimit:10;"/><text fill="#4A5568" font-family="Segoe UI" font-size="15.625" font-weight="700" lengthAdjust="spacing" textLength="17.9749" x="922.3568" y="1104.8401">17</text><text fill="#4A5568" font-family="Segoe UI" font-size="15.625" lengthAdjust="spacing" textLength="227.2034" x="946.5816" y="1104.8401">verifier stockage si surgeles/froid</text></g><path d="M39.0625,1155.6366 L124.2767,1155.6366 L124.2767,1168.0756 L108.6517,1183.7006 L31.25,1183.7006 L31.25,1163.4491 A7.8125,7.8125 0 0 1 39.0625,1155.6366" fill="#F7FAFC" style="stroke:#CBD5E0;stroke-width:2.3438;"/><rect fill="none" height="676.77" rx="7.8125" ry="7.8125" style="stroke:#CBD5E0;stroke-width:2.3438;" width="2028.1513" x="31.25" y="1155.6366"/><text fill="#000000" font-family="Segoe UI" font-size="18.75" font-weight="700" lengthAdjust="spacing" textLength="22.7142" x="54.6875" y="1177.4323">alt</text><text fill="#2D3748" font-family="Segoe UI" font-size="15.625" font-weight="700" lengthAdjust="spacing" textLength="151.947" x="147.7142" y="1175.6226">[un produit invalide]</text><g class="message" data-entity-1="part5" data-entity-2="part4" data-source-line="42" id="msg18"><polygon fill="#2B6CB0" points="677.0626,1207.608,661.4376,1213.858,677.0626,1220.108,670.8126,1213.858" style="stroke:#2B6CB0;stroke-width:1.5625;stroke-linejoin:miter;stroke-miterlimit:10;"/><line style="stroke:#2B6CB0;stroke-width:2.3438;stroke-dasharray:3.125,3.125;" x1="667.6876" x2="909.8568" y1="1213.858" y2="1213.858"/><text fill="#4A5568" font-family="Segoe UI" font-size="15.625" font-weight="700" lengthAdjust="spacing" textLength="17.9749" x="686.4376" y="1206.8115">18</text><text fill="#4A5568" font-family="Segoe UI" font-size="15.625" lengthAdjust="spacing" textLength="189.8193" x="710.6625" y="1206.8115">erreur de validation produit</text></g><g class="message" data-entity-1="part4" data-entity-2="part3" data-source-line="43" id="msg19"><polygon fill="#2B6CB0" points="425.2361,1250.2655,409.6111,1256.5155,425.2361,1262.7655,418.9861,1256.5155" style="stroke:#2B6CB0;stroke-width:1.5625;stroke-linejoin:miter;stroke-miterlimit:10;"/><line style="stroke:#2B6CB0;stroke-width:2.3438;stroke-dasharray:3.125,3.125;" x1="415.8611" x2="658.3126" y1="1256.5155" y2="1256.5155"/><text fill="#4A5568" font-family="Segoe UI" font-size="15.625" font-weight="700" lengthAdjust="spacing" textLength="17.9749" x="434.6111" y="1249.469">19</text><text fill="#4A5568" font-family="Segoe UI" font-size="15.625" lengthAdjust="spacing" textLength="190.1016" x="458.836" y="1249.469">afficher erreur de validation</text></g><line style="stroke:#CBD5E0;stroke-width:1.5625;stroke-dasharray:3.125,3.125;" x1="31.25" x2="2059.4013" y1="1270.578" y2="1270.578"/><text fill="#2D3748" font-family="Segoe UI" font-size="15.625" font-weight="700" lengthAdjust="spacing" textLength="188.9343" x="39.0625" y="1287.439">[tous les produits valides]</text><g class="message" data-entity-1="part5" data-entity-2="part5" data-source-line="45" id="msg20"><line style="stroke:#2B6CB0;stroke-width:2.3438;" x1="911.4193" x2="977.0443" y1="1323.0804" y2="1323.0804"/><line style="stroke:#2B6CB0;stroke-width:2.3438;" x1="977.0443" x2="977.0443" y1="1323.0804" y2="1343.3929"/><line style="stroke:#2B6CB0;stroke-width:2.3438;" x1="912.9818" x2="977.0443" y1="1343.3929" y2="1343.3929"/><polygon fill="#2B6CB0" points="928.6068,1337.1429,912.9818,1343.3929,928.6068,1349.6429,922.3568,1343.3929" style="stroke:#2B6CB0;stroke-width:1.5625;stroke-linejoin:miter;stroke-miterlimit:10;"/><text fill="#4A5568" font-family="Segoe UI" font-size="15.625" font-weight="700" lengthAdjust="spacing" textLength="17.9749" x="922.3568" y="1316.0339">20</text><text fill="#4A5568" font-family="Segoe UI" font-size="15.625" lengthAdjust="spacing" textLength="186.676" x="946.5816" y="1316.0339">creer RequestForQuotation</text></g><path d="M771.5908,1366.8304 L873.9712,1366.8304 L873.9712,1379.2694 L858.3462,1394.8944 L763.7783,1394.8944 L763.7783,1374.6429 A7.8125,7.8125 0 0 1 771.5908,1366.8304" fill="#F7FAFC" style="stroke:#CBD5E0;stroke-width:2.3438;"/><rect fill="none" height="156.0364" rx="7.8125" ry="7.8125" style="stroke:#CBD5E0;stroke-width:2.3438;" width="1089.4371" x="763.7783" y="1366.8304"/><text fill="#000000" font-family="Segoe UI" font-size="18.75" font-weight="700" lengthAdjust="spacing" textLength="39.8804" x="787.2158" y="1388.6261">loop</text><text fill="#2D3748" font-family="Segoe UI" font-size="15.625" font-weight="700" lengthAdjust="spacing" textLength="250.5341" x="897.4087" y="1386.8164">[pour chaque produit selectionne]</text><g class="message" data-entity-1="part5" data-entity-2="part6" data-source-line="47" id="msg21"><polygon fill="#2B6CB0" points="1199.1756,1418.8019,1214.8006,1425.0519,1199.1756,1431.3019,1205.4256,1425.0519" style="stroke:#2B6CB0;stroke-width:1.5625;stroke-linejoin:miter;stroke-miterlimit:10;"/><line style="stroke:#2B6CB0;stroke-width:2.3438;" x1="911.4193" x2="1208.5506" y1="1425.0519" y2="1425.0519"/><text fill="#4A5568" font-family="Segoe UI" font-size="15.625" font-weight="700" lengthAdjust="spacing" textLength="17.9749" x="922.3568" y="1418.0054">21</text><text fill="#4A5568" font-family="Segoe UI" font-size="15.625" lengthAdjust="spacing" textLength="170.1965" x="946.5816" y="1418.0054">createSnapshot(product)</text></g><g class="message" data-entity-1="part6" data-entity-2="part5" data-source-line="48" id="msg22"><polygon fill="#2B6CB0" points="928.6068,1461.4594,912.9818,1467.7094,928.6068,1473.9594,922.3568,1467.7094" style="stroke:#2B6CB0;stroke-width:1.5625;stroke-linejoin:miter;stroke-miterlimit:10;"/><line style="stroke:#2B6CB0;stroke-width:2.3438;stroke-dasharray:3.125,3.125;" x1="919.2318" x2="1216.3631" y1="1467.7094" y2="1467.7094"/><text fill="#4A5568" font-family="Segoe UI" font-size="15.625" font-weight="700" lengthAdjust="spacing" textLength="17.9749" x="937.9818" y="1460.6628">22</text><text fill="#4A5568" font-family="Segoe UI" font-size="15.625" lengthAdjust="spacing" textLength="118.5303" x="962.2066" y="1460.6628">productSnapshot</text></g><g class="message" data-entity-1="part5" data-entity-2="part9" data-source-line="49" id="msg23"><polygon fill="#2B6CB0" points="1753.8498,1504.1168,1769.4748,1510.3668,1753.8498,1516.6168,1760.0998,1510.3668" style="stroke:#2B6CB0;stroke-width:1.5625;stroke-linejoin:miter;stroke-miterlimit:10;"/><line style="stroke:#2B6CB0;stroke-width:2.3438;" x1="911.4193" x2="1763.2248" y1="1510.3668" y2="1510.3668"/><text fill="#4A5568" font-family="Segoe UI" font-size="15.625" font-weight="700" lengthAdjust="spacing" textLength="17.9749" x="922.3568" y="1503.3203">23</text><text fill="#4A5568" font-family="Segoe UI" font-size="15.625" lengthAdjust="spacing" textLength="371.6888" x="946.5816" y="1503.3203">addRFQLine(snapshot, quantity, packaging, comment)</text></g><g class="message" data-entity-1="part5" data-entity-2="part9" data-source-line="51" id="msg24"><polygon fill="#2B6CB0" points="1753.8498,1557.7118,1769.4748,1563.9618,1753.8498,1570.2118,1760.0998,1563.9618" style="stroke:#2B6CB0;stroke-width:1.5625;stroke-linejoin:miter;stroke-miterlimit:10;"/><line style="stroke:#2B6CB0;stroke-width:2.3438;" x1="911.4193" x2="1763.2248" y1="1563.9618" y2="1563.9618"/><text fill="#4A5568" font-family="Segoe UI" font-size="15.625" font-weight="700" lengthAdjust="spacing" textLength="17.9749" x="922.3568" y="1556.9153">24</text><text fill="#4A5568" font-family="Segoe UI" font-size="15.625" lengthAdjust="spacing" textLength="59.1888" x="946.5816" y="1556.9153">save(rfq)</text></g><g class="message" data-entity-1="part9" data-entity-2="part5" data-source-line="52" id="msg25"><polygon fill="#2B6CB0" points="928.6068,1600.3693,912.9818,1606.6193,928.6068,1612.8693,922.3568,1606.6193" style="stroke:#2B6CB0;stroke-width:1.5625;stroke-linejoin:miter;stroke-miterlimit:10;"/><line style="stroke:#2B6CB0;stroke-width:2.3438;stroke-dasharray:3.125,3.125;" x1="919.2318" x2="1771.0373" y1="1606.6193" y2="1606.6193"/><text fill="#4A5568" font-family="Segoe UI" font-size="15.625" font-weight="700" lengthAdjust="spacing" textLength="17.9749" x="937.9818" y="1599.5728">25</text><text fill="#4A5568" font-family="Segoe UI" font-size="15.625" lengthAdjust="spacing" textLength="60.6308" x="962.2066" y="1599.5728">rfqSaved</text></g><g class="message" data-entity-1="part5" data-entity-2="part10" data-source-line="53" id="msg26"><polygon fill="#2B6CB0" points="1929.7459,1643.0267,1945.3709,1649.2767,1929.7459,1655.5267,1935.9959,1649.2767" style="stroke:#2B6CB0;stroke-width:1.5625;stroke-linejoin:miter;stroke-miterlimit:10;"/><line style="stroke:#2B6CB0;stroke-width:2.3438;" x1="911.4193" x2="1939.1209" y1="1649.2767" y2="1649.2767"/><text fill="#4A5568" font-family="Segoe UI" font-size="15.625" font-weight="700" lengthAdjust="spacing" textLength="17.9749" x="922.3568" y="1642.2302">26</text><text fill="#4A5568" font-family="Segoe UI" font-size="15.625" lengthAdjust="spacing" textLength="166.275" x="946.5816" y="1642.2302">notifySupplier(rfqSaved)</text></g><g class="message" data-entity-1="part10" data-entity-2="part2" data-source-line="54" id="msg27"><polygon fill="#2B6CB0" points="235.5904,1685.6842,219.9654,1691.9342,235.5904,1698.1842,229.3404,1691.9342" style="stroke:#2B6CB0;stroke-width:1.5625;stroke-linejoin:miter;stroke-miterlimit:10;"/><line style="stroke:#2B6CB0;stroke-width:2.3438;" x1="226.2154" x2="1946.9334" y1="1691.9342" y2="1691.9342"/><text fill="#4A5568" font-family="Segoe UI" font-size="15.625" font-weight="700" lengthAdjust="spacing" textLength="17.9749" x="244.9654" y="1684.8877">27</text><text fill="#4A5568" font-family="Segoe UI" font-size="15.625" lengthAdjust="spacing" textLength="133.3847" x="269.1902" y="1684.8877">nouvelle RFQ recue</text></g><g class="message" data-entity-1="part5" data-entity-2="part4" data-source-line="55" id="msg28"><polygon fill="#2B6CB0" points="677.0626,1728.3417,661.4376,1734.5917,677.0626,1740.8417,670.8126,1734.5917" style="stroke:#2B6CB0;stroke-width:1.5625;stroke-linejoin:miter;stroke-miterlimit:10;"/><line style="stroke:#2B6CB0;stroke-width:2.3438;stroke-dasharray:3.125,3.125;" x1="667.6876" x2="909.8568" y1="1734.5917" y2="1734.5917"/><text fill="#4A5568" font-family="Segoe UI" font-size="15.625" font-weight="700" lengthAdjust="spacing" textLength="17.9749" x="686.4376" y="1727.5452">28</text><text fill="#4A5568" font-family="Segoe UI" font-size="15.625" lengthAdjust="spacing" textLength="130.1193" x="710.6625" y="1727.5452">confirmation(rfqId)</text></g><g class="message" data-entity-1="part4" data-entity-2="part3" data-source-line="56" id="msg29"><polygon fill="#2B6CB0" points="425.2361,1770.9991,409.6111,1777.2491,425.2361,1783.4991,418.9861,1777.2491" style="stroke:#2B6CB0;stroke-width:1.5625;stroke-linejoin:miter;stroke-miterlimit:10;"/><line style="stroke:#2B6CB0;stroke-width:2.3438;stroke-dasharray:3.125,3.125;" x1="415.8611" x2="658.3126" y1="1777.2491" y2="1777.2491"/><text fill="#4A5568" font-family="Segoe UI" font-size="15.625" font-weight="700" lengthAdjust="spacing" textLength="17.9749" x="434.6111" y="1770.2026">29</text><text fill="#4A5568" font-family="Segoe UI" font-size="15.625" lengthAdjust="spacing" textLength="129.2496" x="458.836" y="1770.2026">creation confirmee</text></g><g class="message" data-entity-1="part3" data-entity-2="part1" data-source-line="57" id="msg30"><polygon fill="#2B6CB0" points="112.0083,1813.6566,96.3833,1819.9066,112.0083,1826.1566,105.7583,1819.9066" style="stroke:#2B6CB0;stroke-width:1.5625;stroke-linejoin:miter;stroke-miterlimit:10;"/><line style="stroke:#2B6CB0;stroke-width:2.3438;stroke-dasharray:3.125,3.125;" x1="102.6333" x2="406.4861" y1="1819.9066" y2="1819.9066"/><text fill="#4A5568" font-family="Segoe UI" font-size="15.625" font-weight="700" lengthAdjust="spacing" textLength="17.9749" x="121.3833" y="1812.8601">30</text><text fill="#4A5568" font-family="Segoe UI" font-size="15.625" lengthAdjust="spacing" textLength="176.3" x="145.6081" y="1812.8601">afficher confirmation RFQ</text></g><path d="M918.75,1869.9066 L918.75,1993.3441 A7.8125,7.8125 0 0 0 926.5625,2001.1566 L1335.9375,2001.1566 A7.8125,7.8125 0 0 0 1343.75,1993.3441 L1343.75,1877.7191 L1328.125,1862.0941 L926.5625,1862.0941 A7.8125,7.8125 0 0 0 918.75,1869.9066" fill="#FFFFF0" style="stroke:#D69E2E;stroke-width:0.7813;"/><path d="M1328.125,1862.0941 L1328.125,1873.8129 A3.9063,3.9063 0 0 0 1332.0313,1877.7191 L1343.75,1877.7191 L1328.125,1862.0941" fill="#FFFFF0" style="stroke:#D69E2E;stroke-width:0.7813;"/><text fill="#744210" font-family="Segoe UI" font-size="15.625" font-weight="700" lengthAdjust="spacing" textLength="249.8245" x="928.125" y="1886.7676">Contrairement a l'export acheteur</text><text fill="#744210" font-family="Segoe UI" font-size="15.625" lengthAdjust="spacing" textLength="114.8758" x="1177.9495" y="1886.7676">, la RFQ groupee</text><text fill="#744210" font-family="Segoe UI" font-size="15.625" lengthAdjust="spacing" textLength="59.1278" x="928.125" y="1907.55">cree une</text><text fill="#744210" font-family="Segoe UI" font-size="15.625" font-weight="700" lengthAdjust="spacing" textLength="166.3284" x="991.5329" y="1907.55">demande commerciale</text><text fill="#744210" font-family="Segoe UI" font-size="15.625" lengthAdjust="spacing" textLength="159.5612" x="1162.1414" y="1907.55">envoyee au fournisseur</text><text fill="#744210" font-family="Segoe UI" font-size="15.625" lengthAdjust="spacing" textLength="92.6361" x="928.125" y="1928.3325">et attend une</text><text fill="#744210" font-family="Segoe UI" font-size="15.625" font-weight="700" lengthAdjust="spacing" textLength="58.6929" x="1025.0412" y="1928.3325">reponse</text><text fill="#744210" font-family="Segoe UI" font-size="15.625" lengthAdjust="spacing" textLength="3.3875" x="1083.7341" y="1928.3325">.</text><text fill="#744210" font-family="Segoe UI" font-size="15.625" lengthAdjust="spacing" textLength="4.2801" x="928.125" y="1949.115">&#160;</text><text fill="#744210" font-family="Segoe UI" font-size="15.625" lengthAdjust="spacing" textLength="180.4047" x="928.125" y="1969.8975">Chaque RFQLine utilise un</text><text fill="#744210" font-family="Segoe UI" font-size="15.625" font-weight="700" lengthAdjust="spacing" textLength="126.297" x="1112.8098" y="1969.8975">ProductSnapshot</text><text fill="#744210" font-family="Segoe UI" font-size="15.625" lengthAdjust="spacing" textLength="32.6157" x="1243.3868" y="1969.8975">pour</text><text fill="#744210" font-family="Segoe UI" font-size="15.625" lengthAdjust="spacing" textLength="341.4078" x="928.125" y="1990.6799">figer l'etat du produit au moment de la demande.</text><?plantuml-src TLLBRziu4BxpLt2JGnqZST0scsrpA53BqSBeCpLws2CjZMoY5CdmOTJ_lZEa9ClU-63O9h_vvlNDy2-fAnLhuBFPRMNQrkXR7_OAPZQsYZ7_Isehd6ZvT-62hAGLEdnpDJZ-cZ5H1UFunseB0QBZmlDrtEFLPLdUp-_dtNrfejFI-mxYexLA4khkiLWKTupP0pM_A9tH0NHzGTYVItxvk2ZVbFySWtwKJmN2d54AN48MmIb-EN-xk2lBOspXG0JurvbeeKR3dnuAuI7p5sZpflpxyUEnpNTdwbY5bHRMRqrOWTl9AflGsMfN3NQr26ADV8FH3x36Iqnyd_1qIaVyyjthn_l5-v71ggl4YGKTdx70y4_0tSc0FKhZgmcoaPK8qkXn3kaSkpHVl7stO2p8e80lfDXWerlWg0OFpn5q1Vpcq5xGEoE1HmtabMzIHO4BFE7DeSTCn61qRDVW6CjwkFb0dNn0LWKL1QFnqAhe9U8zjrGu6JnlnCuuwK-iAYKn68V2SQcR-7Fa_u8X2A5900W-wVR4KIO-NB448Cu2OV0RgXZWS8kd_TqE75ODlOW-yueYhWAyYFhqNy5tGiaQS21KIF-bxauuWMyEuO5pH9WnE6zMGK1GZgrFk8PMQ1gnHcgayQb_LAL6AWOAXJ3ocJryEEZiWSpgLIerr9qe_SJc7ylQNw7DWBxfy-dk_K0uo30JplVBUjBFxh8caW4naFJt0ybngLf0TOsaWfdwW3a68HsSiQcs0blKQuJRk5PIhDKvU2szDLgkfP81PHnCzUiSCIqG8N7PUFxbszCPL68G6wII9C0DbjNVDix8cg45zJlg8RXHsyyq7aShGOQMabs27qj0D3YtM_J_aXtYamg2YPvZF8S1okxzuB_Bfif3axLU6lSKJUYPE5V6M6vD_5-jH-EQW8CokXNOJrk_9dkDNNNe7dUgiHv_HDelCiozfi7zB3LCV8UyviyHDveC-sjk1JL4wiqrfmSBTESFtmps4fqNEvppvZcZ-lCX9hnP8M9iczVZ0zVqlU-tzAH7Pg8CGlJmdf51t04-IMa_ETmmBoa1TTT8rwRw4-Uo8pmMGAeiQQI3GqUrJ92y84So6PEITvRhGH-6QG1tShCDt3GO3DvDfqLMlmCg8EvmzGf-M-F2iFIcqskkn7ZJeXq9AJq0qsctf78FN2M5WkaqlH5xUXJYqPE0qI1pe7UzCtVO1EtHP4PpL6JXTMtdCU3uUlA4o9Et69sGLj6eaHlC70D7BVCw3h95twr9QM5uc48NwOogGJq5zWS0?></g></svg>