<svg xmlns="http://www.w3.org/2000/svg" xmlns:xlink="http://www.w3.org/1999/xlink" contentStyleType="text/css" data-diagram-type="DESCRIPTION" height="1987.5px" preserveAspectRatio="none" style="width:1332px;height:1987px;background:#FFFFFF;" version="1.1" viewBox="0 0 1332 1987" width="1332.8125px" zoomAndPan="magnify"><?plantuml 1.2026.4?><defs/><g><!--cluster Plateforme B2B FMCG Export--><g class="cluster" data-qualified-name="Plateforme B2B FMCG Export" data-source-line="16" id="ent0002"><rect fill="#EBF8FF" height="1734.375" rx="7.8125" ry="7.8125" style="stroke:#2B6CB0;stroke-width:3.125;" width="948.4375" x="282.8125" y="10.9375"/><text fill="#1A365D" font-family="Segoe UI" font-size="25" font-weight="700" lengthAdjust="spacing" textLength="345.4102" x="584.3262" y="41.04">Plateforme B2B FMCG Export</text></g><!--entity UC_Login--><g class="entity" data-qualified-name="Plateforme B2B FMCG Export.UC_Login" data-source-line="17" id="ent0003"><ellipse cx="1125.6005" cy="1302.7908" fill="#FFFFFF" rx="80.288" ry="22.322" style="stroke:#319795;stroke-width:0.7813;"/><text fill="#2D3748" font-family="Segoe UI" font-size="18.75" lengthAdjust="spacing" textLength="106.9153" x="1072.1429" y="1309.7915">Se connecter</text></g><!--entity UC_KYC--><g class="entity" data-qualified-name="Plateforme B2B FMCG Export.UC_KYC" data-source-line="18" id="ent0004"><ellipse cx="1126.0873" cy="1680.891" fill="#FFFFFF" rx="65.931" ry="37.141" style="stroke:#319795;stroke-width:0.7813;"/><text fill="#2D3748" font-family="Segoe UI" font-size="18.75" lengthAdjust="spacing" textLength="94.1254" x="1079.0246" y="1679.594">Gerer profil</text><text fill="#2D3748" font-family="Segoe UI" font-size="18.75" lengthAdjust="spacing" textLength="54.1443" x="1099.0151" y="1704.5329">et KYC</text></g><!--entity UC_Catalog--><g class="entity" data-qualified-name="Plateforme B2B FMCG Export.UC_Catalog" data-source-line="19" id="ent0005"><ellipse cx="431.1872" cy="113.9519" fill="#FFFFFF" rx="61.656" ry="39.7332" style="stroke:#319795;stroke-width:0.7813;"/><text fill="#2D3748" font-family="Segoe UI" font-size="18.75" lengthAdjust="spacing" textLength="78.9917" x="391.6914" y="108.1663">Consulter</text><text fill="#2D3748" font-family="Segoe UI" font-size="18.75" lengthAdjust="spacing" textLength="81.0791" x="390.6477" y="133.1052">catalogue</text></g><!--entity UC_Search--><g class="entity" data-qualified-name="Plateforme B2B FMCG Export.UC_Search" data-source-line="20" id="ent0006"><ellipse cx="431.2696" cy="248.2011" fill="#FFFFFF" rx="87.5196" ry="39.6074" style="stroke:#319795;stroke-width:0.7813;"/><text fill="#2D3748" font-family="Segoe UI" font-size="18.75" lengthAdjust="spacing" textLength="113.5071" x="374.5161" y="242.2361">Rechercher et</text><text fill="#2D3748" font-family="Segoe UI" font-size="18.75" lengthAdjust="spacing" textLength="118.3136" x="372.1128" y="267.175">filtrer produits</text></g><!--entity UC_Product--><g class="entity" data-qualified-name="Plateforme B2B FMCG Export.UC_Product" data-source-line="21" id="ent0007"><ellipse cx="747.2978" cy="576.3482" fill="#FFFFFF" rx="75.4228" ry="38.067" style="stroke:#319795;stroke-width:0.7813;"/><text fill="#2D3748" font-family="Segoe UI" font-size="18.75" lengthAdjust="spacing" textLength="78.9917" x="707.8019" y="568.1269">Consulter</text><text fill="#2D3748" font-family="Segoe UI" font-size="18.75" lengthAdjust="spacing" textLength="105.6976" x="694.449" y="593.0659">fiche produit</text></g><!--entity UC_Select--><g class="entity" data-qualified-name="Plateforme B2B FMCG Export.UC_Select" data-source-line="22" id="ent0008"><ellipse cx="1126.1271" cy="1418.8965" fill="#FFFFFF" rx="72.2208" ry="37.6465" style="stroke:#319795;stroke-width:0.7813;"/><text fill="#2D3748" font-family="Segoe UI" font-size="18.75" lengthAdjust="spacing" textLength="102.2003" x="1075.0269" y="1416.8181">Selectionner</text><text fill="#2D3748" font-family="Segoe UI" font-size="18.75" lengthAdjust="spacing" textLength="69.0308" x="1091.6117" y="1441.757">produits</text></g><!--entity UC_Favorite--><g class="entity" data-qualified-name="Plateforme B2B FMCG Export.UC_Favorite" data-source-line="23" id="ent0009"><ellipse cx="431.2025" cy="640.2591" fill="#FFFFFF" rx="66.3588" ry="37.1341" style="stroke:#319795;stroke-width:0.7813;"/><text fill="#2D3748" font-family="Segoe UI" font-size="18.75" lengthAdjust="spacing" textLength="94.8029" x="383.8011" y="638.9728">Ajouter aux</text><text fill="#2D3748" font-family="Segoe UI" font-size="18.75" lengthAdjust="spacing" textLength="54.3915" x="404.0068" y="663.9118">favoris</text></g><!--entity UC_Compare--><g class="entity" data-qualified-name="Plateforme B2B FMCG Export.UC_Compare" data-source-line="24" id="ent0010"><ellipse cx="430.9957" cy="382.4355" fill="#FFFFFF" rx="60.6832" ry="38.6855" style="stroke:#319795;stroke-width:0.7813;"/><text fill="#2D3748" font-family="Segoe UI" font-size="18.75" lengthAdjust="spacing" textLength="82.1503" x="389.9205" y="378.7992">Comparer</text><text fill="#2D3748" font-family="Segoe UI" font-size="18.75" lengthAdjust="spacing" textLength="69.0308" x="396.4803" y="403.7381">produits</text></g><!--entity UC_RFQ--><g class="entity" data-qualified-name="Plateforme B2B FMCG Export.UC_RFQ" data-source-line="25" id="ent0011"><ellipse cx="747.7119" cy="1681.5944" fill="#FFFFFF" rx="61.7744" ry="38.6257" style="stroke:#319795;stroke-width:0.7813;"/><text fill="#2D3748" font-family="Segoe UI" font-size="18.75" lengthAdjust="spacing" textLength="83.8989" x="705.7624" y="1678.0462">Creer RFQ</text><text fill="#2D3748" font-family="Segoe UI" font-size="18.75" lengthAdjust="spacing" textLength="69.7906" x="712.8166" y="1702.9852">groupee</text></g><!--entity UC_Quantity--><g class="entity" data-qualified-name="Plateforme B2B FMCG Export.UC_Quantity" data-source-line="26" id="ent0012"><ellipse cx="1125.8696" cy="1550.3719" fill="#FFFFFF" rx="67.2759" ry="38.6532" style="stroke:#319795;stroke-width:0.7813;"/><text fill="#2D3748" font-family="Segoe UI" font-size="18.75" lengthAdjust="spacing" textLength="91.9098" x="1079.9147" y="1546.7832">Renseigner</text><text fill="#2D3748" font-family="Segoe UI" font-size="18.75" lengthAdjust="spacing" textLength="76.8127" x="1087.4633" y="1571.7222">quantites</text></g><!--entity UC_Export--><g class="entity" data-qualified-name="Plateforme B2B FMCG Export.UC_Export" data-source-line="27" id="ent0013"><ellipse cx="747.9078" cy="1417.1657" fill="#FFFFFF" rx="99.4703" ry="36.697" style="stroke:#319795;stroke-width:0.7813;"/><text fill="#2D3748" font-family="Segoe UI" font-size="18.75" lengthAdjust="spacing" textLength="147.6929" x="674.0614" y="1416.5697">Exporter selection</text><text fill="#2D3748" font-family="Segoe UI" font-size="18.75" lengthAdjust="spacing" textLength="69.0308" x="713.3924" y="1441.5087">produits</text></g><!--entity UC_ExportFav--><g class="entity" data-qualified-name="Plateforme B2B FMCG Export.UC_ExportFav" data-source-line="28" id="ent0014"><ellipse cx="431.0826" cy="1681.2754" fill="#FFFFFF" rx="51.3951" ry="38.3066" style="stroke:#319795;stroke-width:0.7813;"/><text fill="#2D3748" font-family="Segoe UI" font-size="18.75" lengthAdjust="spacing" textLength="69.2963" x="396.4345" y="1678.2002">Exporter</text><text fill="#2D3748" font-family="Segoe UI" font-size="18.75" lengthAdjust="spacing" textLength="54.3915" x="403.8869" y="1703.1392">favoris</text></g><!--entity UC_ExportComp--><g class="entity" data-qualified-name="Plateforme B2B FMCG Export.UC_ExportComp" data-source-line="29" id="ent0015"><ellipse cx="431.502" cy="1423.1327" fill="#FFFFFF" rx="119.7833" ry="36.414" style="stroke:#319795;stroke-width:0.7813;"/><text fill="#2D3748" font-family="Segoe UI" font-size="18.75" lengthAdjust="spacing" textLength="180.9448" x="341.0296" y="1422.9913">Exporter comparaison</text><text fill="#2D3748" font-family="Segoe UI" font-size="18.75" lengthAdjust="spacing" textLength="69.0308" x="396.9867" y="1447.9302">produits</text></g><!--entity UC_ExportCatalog--><g class="entity" data-qualified-name="Plateforme B2B FMCG Export.UC_ExportCatalog" data-source-line="30" id="ent0016"><ellipse cx="431.3767" cy="1551.9522" fill="#FFFFFF" rx="123.5642" ry="37.1084" style="stroke:#319795;stroke-width:0.7813;"/><text fill="#2D3748" font-family="Segoe UI" font-size="18.75" lengthAdjust="spacing" textLength="182.8857" x="339.9338" y="1550.7061">Telecharger catalogue</text><text fill="#2D3748" font-family="Segoe UI" font-size="18.75" lengthAdjust="spacing" textLength="103.894" x="379.4297" y="1575.6451">personnalise</text></g><!--entity UC_Sample--><g class="entity" data-qualified-name="Plateforme B2B FMCG Export.UC_Sample" data-source-line="31" id="ent0017"><ellipse cx="747.8632" cy="1548.1556" fill="#FFFFFF" rx="68.1757" ry="39.5619" style="stroke:#319795;stroke-width:0.7813;"/><text fill="#2D3748" font-family="Segoe UI" font-size="18.75" lengthAdjust="spacing" textLength="86.618" x="704.5542" y="1542.1255">Demander</text><text fill="#2D3748" font-family="Segoe UI" font-size="18.75" lengthAdjust="spacing" textLength="90.802" x="702.4622" y="1567.0645">echantillon</text></g><!--entity UC_History--><g class="entity" data-qualified-name="Plateforme B2B FMCG Export.UC_History" data-source-line="32" id="ent0018"><ellipse cx="431.3886" cy="1032.7919" fill="#FFFFFF" rx="85.2948" ry="37.4794" style="stroke:#319795;stroke-width:0.7813;"/><text fill="#2D3748" font-family="Segoe UI" font-size="18.75" lengthAdjust="spacing" textLength="78.9917" x="391.8927" y="1023.6763">Consulter</text><text fill="#2D3748" font-family="Segoe UI" font-size="18.75" lengthAdjust="spacing" textLength="122.6074" x="370.0849" y="1048.6152">historique RFQ</text></g><!--entity UC_Quote--><g class="entity" data-qualified-name="Plateforme B2B FMCG Export.UC_Quote" data-source-line="33" id="ent0019"><ellipse cx="747.8769" cy="1223.1318" fill="#FFFFFF" rx="62.7206" ry="39.5381" style="stroke:#319795;stroke-width:0.7813;"/><text fill="#2D3748" font-family="Segoe UI" font-size="18.75" lengthAdjust="spacing" textLength="78.9917" x="708.381" y="1217.0677">Consulter</text><text fill="#2D3748" font-family="Segoe UI" font-size="18.75" lengthAdjust="spacing" textLength="83.0566" x="706.3486" y="1242.0067">devis recu</text></g><!--entity UC_Message--><g class="entity" data-qualified-name="Plateforme B2B FMCG Export.UC_Message" data-source-line="34" id="ent0020"><ellipse cx="431.2096" cy="771.9881" fill="#FFFFFF" rx="54.6471" ry="39.1756" style="stroke:#319795;stroke-width:0.7813;"/><text fill="#2D3748" font-family="Segoe UI" font-size="18.75" lengthAdjust="spacing" textLength="65.4602" x="398.4795" y="765.402">Envoyer</text><text fill="#2D3748" font-family="Segoe UI" font-size="18.75" lengthAdjust="spacing" textLength="72.2534" x="395.0829" y="790.341">message</text></g><!--entity UC_Negotiate--><g class="entity" data-qualified-name="Plateforme B2B FMCG Export.UC_Negotiate" data-source-line="35" id="ent0021"><ellipse cx="430.9938" cy="903.2253" fill="#FFFFFF" rx="54.4313" ry="37.6003" style="stroke:#319795;stroke-width:0.7813;"/><text fill="#2D3748" font-family="Segoe UI" font-size="18.75" lengthAdjust="spacing" textLength="75.3845" x="393.3015" y="901.2176">Negocier</text><text fill="#2D3748" font-family="Segoe UI" font-size="18.75" lengthAdjust="spacing" textLength="50.2808" x="405.8534" y="926.1566">deviss</text></g><!--entity UC_Accept--><g class="entity" data-qualified-name="Plateforme B2B FMCG Export.UC_Accept" data-source-line="36" id="ent0022"><ellipse cx="431.1134" cy="1162.7249" fill="#FFFFFF" rx="52.9884" ry="37.7249" style="stroke:#319795;stroke-width:0.7813;"/><text fill="#2D3748" font-family="Segoe UI" font-size="18.75" lengthAdjust="spacing" textLength="72.9218" x="394.6525" y="1160.5267">Accepter</text><text fill="#2D3748" font-family="Segoe UI" font-size="18.75" lengthAdjust="spacing" textLength="50.2808" x="405.973" y="1185.4657">deviss</text></g><!--entity UC_Reject--><g class="entity" data-qualified-name="Plateforme B2B FMCG Export.UC_Reject" data-source-line="37" id="ent0023"><ellipse cx="431.1527" cy="1293.8284" fill="#FFFFFF" rx="46.7777" ry="38.3597" style="stroke:#319795;stroke-width:0.7813;"/><text fill="#2D3748" font-family="Segoe UI" font-size="18.75" lengthAdjust="spacing" textLength="61.7798" x="400.2628" y="1290.4265">Refuser</text><text fill="#2D3748" font-family="Segoe UI" font-size="18.75" lengthAdjust="spacing" textLength="50.2808" x="406.0123" y="1315.3654">deviss</text></g><!--entity UC_Review--><g class="entity" data-qualified-name="Plateforme B2B FMCG Export.UC_Review" data-source-line="38" id="ent0024"><ellipse cx="431.563" cy="512.1254" fill="#FFFFFF" rx="43.2817" ry="35.5629" style="stroke:#319795;stroke-width:0.7813;"/><text fill="#2D3748" font-family="Segoe UI" font-size="18.75" lengthAdjust="spacing" textLength="55.1422" x="403.9919" y="509.9904">Laisser</text><text fill="#2D3748" font-family="Segoe UI" font-size="18.75" lengthAdjust="spacing" textLength="31.0181" x="416.0539" y="534.9294">avis</text></g><!--entity Buyer--><g class="entity" data-qualified-name="Buyer" data-source-line="14" id="ent0001"><ellipse cx="112.1078" cy="1812.5" fill="#FF6B6B" rx="12.5" ry="12.5" style="stroke:#2B6CB0;stroke-width:0.7813;"/><path d="M112.1078,1825 L112.1078,1867.1875 M91.7953,1837.5 L132.4203,1837.5 M112.1078,1867.1875 L91.7953,1890.625 M112.1078,1867.1875 L132.4203,1890.625" fill="none" style="stroke:#2B6CB0;stroke-width:0.7813;"/><text fill="#1A365D" font-family="Segoe UI" font-size="20.3125" font-weight="700" lengthAdjust="spacing" textLength="205.4657" x="9.375" y="1914.888">Client B2B / Acheteur</text></g><g class="entity" data-qualified-name="GMN51" data-source-line="72" id="ent0052"><path d="M973.4375,1781.25 L973.4375,1843.5974 A7.8125,7.8125 0 0 0 981.25,1851.4099 L1269.8456,1851.4099 A7.8125,7.8125 0 0 0 1277.6581,1843.5974 L1277.6581,1789.0625 L1262.0331,1773.4375 L981.25,1773.4375 A7.8125,7.8125 0 0 0 973.4375,1781.25" fill="#FFFFF0" style="stroke:#D69E2E;stroke-width:0.7813;"/><path d="M1262.0331,1773.4375 L1262.0331,1785.1563 A3.9063,3.9063 0 0 0 1265.9393,1789.0625 L1277.6581,1789.0625 L1262.0331,1773.4375" fill="#FFFFF0" style="stroke:#D69E2E;stroke-width:1.5625;"/><text fill="#744210" font-family="Segoe UI" font-size="15.625" font-weight="700" lengthAdjust="spacing" textLength="48.4848" x="982.8125" y="1798.111">Export</text><text fill="#744210" font-family="Segoe UI" font-size="15.625" lengthAdjust="spacing" textLength="204.1321" x="1035.5774" y="1798.111">= telechargement d'un fichier</text><text fill="#744210" font-family="Segoe UI" font-size="15.625" lengthAdjust="spacing" textLength="223.732" x="982.8125" y="1818.8934">pour analyse ou partage interne.</text><text fill="#744210" font-family="Segoe UI" font-size="15.625" font-weight="700" lengthAdjust="spacing" textLength="85.0143" x="982.8125" y="1839.6759">Ne cree pas</text><text fill="#744210" font-family="Segoe UI" font-size="15.625" lengthAdjust="spacing" textLength="182.1136" x="1072.1069" y="1839.6759">de demande commerciale.</text></g><g class="entity" data-qualified-name="GMN54" data-source-line="78" id="ent0055"><path d="M940.625,1914.8438 L940.625,1956.4087 A7.8125,7.8125 0 0 0 948.4375,1964.2212 L1302.7145,1964.2212 A7.8125,7.8125 0 0 0 1310.527,1956.4087 L1310.527,1922.6563 L1294.902,1907.0313 L948.4375,1907.0313 A7.8125,7.8125 0 0 0 940.625,1914.8438" fill="#FFFFF0" style="stroke:#D69E2E;stroke-width:0.7813;"/><path d="M1294.902,1907.0313 L1294.902,1918.75 A3.9063,3.9063 0 0 0 1298.8083,1922.6563 L1310.527,1922.6563 L1294.902,1907.0313" fill="#FFFFF0" style="stroke:#D69E2E;stroke-width:1.5625;"/><text fill="#744210" font-family="Segoe UI" font-size="15.625" font-weight="700" lengthAdjust="spacing" textLength="30.1743" x="950" y="1931.7047">RFQ</text><text fill="#744210" font-family="Segoe UI" font-size="15.625" lengthAdjust="spacing" textLength="203.0792" x="984.4543" y="1931.7047">= demande officielle de devis</text><text fill="#744210" font-family="Segoe UI" font-size="15.625" lengthAdjust="spacing" textLength="337.0895" x="950" y="1952.4872">envoyee a un fournisseur avec reponse attendue.</text></g><!--link Buyer to UC_Catalog--><g class="link" data-entity-1="ent0001" data-entity-2="ent0005" data-link-type="dependency" data-source-line="41" id="lnk25"><path d="M43.75,1798.7969 C43.75,1490.8906 43.75,114.0625 43.75,114.0625 C43.75,114.0625 252.2031,114.0625 361.6094,114.0625" fill="none" id="Buyer-to-UC_Catalog" style="stroke:#2B6CB0;stroke-width:2.3438;"/><polygon fill="#2B6CB0" points="369.4219,114.0625,355.3594,107.8125,361.6094,114.0625,355.3594,120.3125,369.4219,114.0625" style="stroke:#2B6CB0;stroke-width:2.3438;stroke-linejoin:miter;stroke-miterlimit:10;"/></g><!--link Buyer to UC_Search--><g class="link" data-entity-1="ent0001" data-entity-2="ent0006" data-link-type="dependency" data-source-line="42" id="lnk26"><path d="M78.125,1799.1719 C78.125,1506.7188 78.125,248.4375 78.125,248.4375 C78.125,248.4375 231.1094,248.4375 335.6875,248.4375" fill="none" id="Buyer-to-UC_Search" style="stroke:#2B6CB0;stroke-width:2.3438;"/><polygon fill="#2B6CB0" points="343.5,248.4375,329.4375,242.1875,335.6875,248.4375,329.4375,254.6875,343.5,248.4375" style="stroke:#2B6CB0;stroke-width:2.3438;stroke-linejoin:miter;stroke-miterlimit:10;"/></g><!--link Buyer to UC_Product--><g class="link" data-entity-1="ent0001" data-entity-2="ent0007" data-link-type="dependency" data-source-line="43" id="lnk27"><path d="M112.5,1798.9844 C112.5,1546.6094 112.5,589.4531 112.5,589.4531 C112.5,589.4531 502.1094,589.4531 668.2188,589.4531" fill="none" id="Buyer-to-UC_Product" style="stroke:#2B6CB0;stroke-width:2.3438;"/><polygon fill="#2B6CB0" points="676.0313,589.4531,661.9688,583.2031,668.2188,589.4531,661.9688,595.7031,676.0313,589.4531" style="stroke:#2B6CB0;stroke-width:2.3438;stroke-linejoin:miter;stroke-miterlimit:10;"/></g><!--link Buyer to UC_RFQ--><g class="link" data-entity-1="ent0001" data-entity-2="ent0011" data-link-type="dependency" data-source-line="44" id="lnk28"><path d="M214.7187,1838.4687 C394.9375,1838.4687 748.4375,1838.4687 748.4375,1838.4687 C748.4375,1838.4687 748.4375,1774.0781 748.4375,1727.5312" fill="none" id="Buyer-to-UC_RFQ" style="stroke:#2B6CB0;stroke-width:2.3438;"/><polygon fill="#2B6CB0" points="748.4375,1719.7187,742.1875,1733.7812,748.4375,1727.5312,754.6875,1733.7812,748.4375,1719.7187" style="stroke:#2B6CB0;stroke-width:2.3438;stroke-linejoin:miter;stroke-miterlimit:10;"/></g><!--link Buyer to UC_Export--><g class="link" data-entity-1="ent0001" data-entity-2="ent0013" data-link-type="dependency" data-source-line="45" id="lnk29"><path d="M214.4531,1825.3906 C376.1719,1825.3906 671.875,1825.3906 671.875,1825.3906 C671.875,1825.3906 671.875,1535.8281 671.875,1448.7188" fill="none" id="Buyer-to-UC_Export" style="stroke:#2B6CB0;stroke-width:2.3438;"/><polygon fill="#2B6CB0" points="671.875,1440.9063,665.625,1454.9688,671.875,1448.7188,678.125,1454.9688,671.875,1440.9063" style="stroke:#2B6CB0;stroke-width:2.3438;stroke-linejoin:miter;stroke-miterlimit:10;"/></g><!--link Buyer to UC_Sample--><g class="link" data-entity-1="ent0001" data-entity-2="ent0017" data-link-type="dependency" data-source-line="46" id="lnk30"><path d="M214.4063,1812.3125 C358.0469,1812.3125 601.5625,1812.3125 601.5625,1812.3125 C601.5625,1812.3125 601.5625,1563.7969 601.5625,1563.7969 C601.5625,1563.7969 637.4375,1563.7969 677.0313,1563.7969" fill="none" id="Buyer-to-UC_Sample" style="stroke:#2B6CB0;stroke-width:2.3438;"/><polygon fill="#2B6CB0" points="684.8438,1563.7969,670.7813,1557.5469,677.0313,1563.7969,670.7813,1570.0469,684.8438,1563.7969" style="stroke:#2B6CB0;stroke-width:2.3438;stroke-linejoin:miter;stroke-miterlimit:10;"/></g><!--link Buyer to UC_History--><g class="link" data-entity-1="ent0001" data-entity-2="ent0018" data-link-type="dependency" data-source-line="47" id="lnk31"><path d="M146.875,1798.5937 C146.875,1607.7188 146.875,1032.8125 146.875,1032.8125 C146.875,1032.8125 254.3438,1032.8125 338.1094,1032.8125" fill="none" id="Buyer-to-UC_History" style="stroke:#2B6CB0;stroke-width:2.3438;"/><polygon fill="#2B6CB0" points="345.9219,1032.8125,331.8594,1026.5625,338.1094,1032.8125,331.8594,1039.0625,345.9219,1032.8125" style="stroke:#2B6CB0;stroke-width:2.3438;stroke-linejoin:miter;stroke-miterlimit:10;"/></g><!--link Buyer to UC_Quote--><g class="link" data-entity-1="ent0001" data-entity-2="ent0019" data-link-type="dependency" data-source-line="48" id="lnk32"><path d="M181.25,1798.8125 C181.25,1640.7188 181.25,1227.7344 181.25,1227.7344 C181.25,1227.7344 530.4688,1227.7344 677.6094,1227.7344" fill="none" id="Buyer-to-UC_Quote" style="stroke:#2B6CB0;stroke-width:2.3438;"/><polygon fill="#2B6CB0" points="685.4219,1227.7344,671.3594,1221.4844,677.6094,1227.7344,671.3594,1233.9844,685.4219,1227.7344" style="stroke:#2B6CB0;stroke-width:2.3438;stroke-linejoin:miter;stroke-miterlimit:10;"/></g><!--link UC_RFQ to UC_Login--><g class="link" data-entity-1="ent0011" data-entity-2="ent0003" data-link-type="dependency" data-source-line="50" id="lnk33"><path d="M806.0469,1668.75 C852.3594,1668.75 909.375,1668.75 909.375,1668.75 C909.375,1668.75 909.375,1316.7188 909.375,1316.7188 C909.375,1316.7188 989.2969,1316.7188 1053.0469,1316.7188" fill="none" id="UC_RFQ-to-UC_Login" style="stroke:#2B6CB0;stroke-width:2.3438;stroke-dasharray:10.9375,10.9375;"/><polygon fill="#2B6CB0" points="1060.8594,1316.7188,1046.7969,1310.4688,1053.0469,1316.7188,1046.7969,1322.9688,1060.8594,1316.7188" style="stroke:#2B6CB0;stroke-width:2.3438;stroke-linejoin:miter;stroke-miterlimit:10;"/><text fill="#4A5568" font-family="Segoe UI" font-size="15.625" lengthAdjust="spacing" textLength="65.6509" x="842.1875" y="1487.0797">&#171;include&#187;</text></g><!--link UC_RFQ to UC_Select--><g class="link" data-entity-1="ent0011" data-entity-2="ent0008" data-link-type="dependency" data-source-line="51" id="lnk34"><path d="M809.3906,1681.25 C869.4062,1681.25 951.5625,1681.25 951.5625,1681.25 C951.5625,1681.25 951.5625,1429.6875 951.5625,1429.6875 C951.5625,1429.6875 1000.4219,1429.6875 1049.1094,1429.6875" fill="none" id="UC_RFQ-to-UC_Select" style="stroke:#2B6CB0;stroke-width:2.3438;stroke-dasharray:10.9375,10.9375;"/><polygon fill="#2B6CB0" points="1056.9219,1429.6875,1042.8594,1423.4375,1049.1094,1429.6875,1042.8594,1435.9375,1056.9219,1429.6875" style="stroke:#2B6CB0;stroke-width:2.3438;stroke-linejoin:miter;stroke-miterlimit:10;"/><text fill="#4A5568" font-family="Segoe UI" font-size="15.625" lengthAdjust="spacing" textLength="65.6509" x="884.375" y="1592.2985">&#171;include&#187;</text></g><!--link UC_RFQ to UC_Quantity--><g class="link" data-entity-1="ent0011" data-entity-2="ent0012" data-link-type="dependency" data-source-line="52" id="lnk35"><path d="M794.6875,1656.25 C816.4219,1656.25 837.5,1656.25 837.5,1656.25 C837.5,1656.25 837.5,1562.7656 837.5,1562.7656 C837.5,1562.7656 969.0625,1562.7656 1053.9844,1562.7656" fill="none" id="UC_RFQ-to-UC_Quantity" style="stroke:#2B6CB0;stroke-width:2.3438;stroke-dasharray:10.9375,10.9375;"/><polygon fill="#2B6CB0" points="1061.7969,1562.7656,1047.7344,1556.5156,1053.9844,1562.7656,1047.7344,1569.0156,1061.7969,1562.7656" style="stroke:#2B6CB0;stroke-width:2.3438;stroke-linejoin:miter;stroke-miterlimit:10;"/><text fill="#4A5568" font-family="Segoe UI" font-size="15.625" lengthAdjust="spacing" textLength="65.6509" x="883.0625" y="1557.7516">&#171;include&#187;</text></g><!--link UC_RFQ to UC_KYC--><g class="link" data-entity-1="ent0011" data-entity-2="ent0004" data-link-type="dependency" data-source-line="53" id="lnk36"><path d="M806.3281,1693.75 C876.2344,1693.75 984.7031,1693.75 1056.0156,1693.75" fill="none" id="UC_RFQ-to-UC_KYC" style="stroke:#2B6CB0;stroke-width:2.3438;stroke-dasharray:10.9375,10.9375;"/><polygon fill="#2B6CB0" points="1063.8281,1693.75,1049.7656,1687.5,1056.0156,1693.75,1049.7656,1700,1063.8281,1693.75" style="stroke:#2B6CB0;stroke-width:2.3438;stroke-linejoin:miter;stroke-miterlimit:10;"/><text fill="#4A5568" font-family="Segoe UI" font-size="15.625" lengthAdjust="spacing" textLength="65.6509" x="867.8906" y="1712.1735">&#171;include&#187;</text></g><!--link UC_Sample to UC_Login--><g class="link" data-entity-1="ent0017" data-entity-2="ent0003" data-link-type="dependency" data-source-line="54" id="lnk37"><path d="M812.8906,1537.2344 C845.5,1537.2344 878.125,1537.2344 878.125,1537.2344 C878.125,1537.2344 878.125,1307.6563 878.125,1307.6563 C878.125,1307.6563 966.4531,1307.6563 1038.9219,1307.6563" fill="none" id="UC_Sample-to-UC_Login" style="stroke:#2B6CB0;stroke-width:2.3438;stroke-dasharray:10.9375,10.9375;"/><polygon fill="#2B6CB0" points="1046.7344,1307.6563,1032.6719,1301.4063,1038.9219,1307.6563,1032.6719,1313.9063,1046.7344,1307.6563" style="stroke:#2B6CB0;stroke-width:2.3438;stroke-linejoin:miter;stroke-miterlimit:10;"/><text fill="#4A5568" font-family="Segoe UI" font-size="15.625" lengthAdjust="spacing" textLength="65.6509" x="879.6875" y="1389.1735">&#171;include&#187;</text></g><!--link UC_Quote to UC_Login--><g class="link" data-entity-1="ent0019" data-entity-2="ent0003" data-link-type="dependency" data-source-line="55" id="lnk38"><path d="M728.125,1261.8906 C728.125,1276.4219 728.125,1289.5313 728.125,1289.5313 C728.125,1289.5313 940.5156,1289.5313 1053.1875,1289.5313" fill="none" id="UC_Quote-to-UC_Login" style="stroke:#2B6CB0;stroke-width:2.3438;stroke-dasharray:10.9375,10.9375;"/><polygon fill="#2B6CB0" points="1061,1289.5313,1046.9375,1283.2813,1053.1875,1289.5313,1046.9375,1295.7813,1061,1289.5313" style="stroke:#2B6CB0;stroke-width:2.3438;stroke-linejoin:miter;stroke-miterlimit:10;"/><text fill="#4A5568" font-family="Segoe UI" font-size="15.625" lengthAdjust="spacing" textLength="65.6509" x="813.5469" y="1284.5172">&#171;include&#187;</text></g><!--link UC_Export to UC_Login--><g class="link" data-entity-1="ent0013" data-entity-2="ent0003" data-link-type="dependency" data-source-line="57" id="lnk39"><path d="M835.9375,1400.2031 C835.9375,1367.4063 835.9375,1298.5938 835.9375,1298.5938 C835.9375,1298.5938 952.9531,1298.5938 1038.7656,1298.5938" fill="none" id="UC_Export-to-UC_Login" style="stroke:#2B6CB0;stroke-width:2.3438;stroke-dasharray:10.9375,10.9375;"/><polygon fill="#2B6CB0" points="1046.5781,1298.5938,1032.5156,1292.3438,1038.7656,1298.5938,1032.5156,1304.8438,1046.5781,1298.5938" style="stroke:#2B6CB0;stroke-width:2.3438;stroke-linejoin:miter;stroke-miterlimit:10;"/><text fill="#4A5568" font-family="Segoe UI" font-size="15.625" lengthAdjust="spacing" textLength="65.6509" x="823.2656" y="1317.0172">&#171;include&#187;</text></g><!--link UC_Export to UC_Select--><g class="link" data-entity-1="ent0013" data-entity-2="ent0008" data-link-type="dependency" data-source-line="58" id="lnk40"><path d="M842.0938,1405.4688 C909.25,1405.4688 990.0625,1405.4688 1050.25,1405.4688" fill="none" id="UC_Export-to-UC_Select" style="stroke:#2B6CB0;stroke-width:2.3438;stroke-dasharray:10.9375,10.9375;"/><polygon fill="#2B6CB0" points="1058.0625,1405.4688,1044,1399.2188,1050.25,1405.4688,1044,1411.7188,1058.0625,1405.4688" style="stroke:#2B6CB0;stroke-width:2.3438;stroke-linejoin:miter;stroke-miterlimit:10;"/><text fill="#4A5568" font-family="Segoe UI" font-size="15.625" lengthAdjust="spacing" textLength="65.6509" x="882.8906" y="1423.8922">&#171;include&#187;</text></g><!--link UC_ExportFav to UC_Export--><g class="link" data-entity-1="ent0014" data-entity-2="ent0013" data-link-type="dependency" data-source-line="59" id="lnk41"><path d="M482.9219,1681.25 C551.5,1681.25 664.0625,1681.25 664.0625,1681.25 C664.0625,1681.25 664.0625,1506.2656 664.0625,1444.8438" fill="none" id="UC_ExportFav-to-UC_Export" style="stroke:#2B6CB0;stroke-width:2.3438;stroke-dasharray:10.9375,10.9375;"/><polygon fill="#2B6CB0" points="664.0625,1437.0313,657.8125,1451.0938,664.0625,1444.8438,670.3125,1451.0938,664.0625,1437.0313" style="stroke:#2B6CB0;stroke-width:2.3438;stroke-linejoin:miter;stroke-miterlimit:10;"/><text fill="#4A5568" font-family="Segoe UI" font-size="15.625" lengthAdjust="spacing" textLength="65.6509" x="596.875" y="1668.1422">&#171;include&#187;</text></g><!--link UC_ExportComp to UC_Export--><g class="link" data-entity-1="ent0015" data-entity-2="ent0013" data-link-type="dependency" data-source-line="60" id="lnk42"><path d="M550.4219,1420.3125 C582.8281,1420.3125 609.75,1420.3125 640.9063,1420.3125" fill="none" id="UC_ExportComp-to-UC_Export" style="stroke:#2B6CB0;stroke-width:2.3438;stroke-dasharray:10.9375,10.9375;"/><polygon fill="#2B6CB0" points="648.7188,1420.3125,634.6563,1414.0625,640.9063,1420.3125,634.6563,1426.5625,648.7188,1420.3125" style="stroke:#2B6CB0;stroke-width:2.3438;stroke-linejoin:miter;stroke-miterlimit:10;"/><text fill="#4A5568" font-family="Segoe UI" font-size="15.625" lengthAdjust="spacing" textLength="65.6509" x="532.375" y="1438.736">&#171;include&#187;</text></g><!--link UC_ExportCatalog to UC_Export--><g class="link" data-entity-1="ent0016" data-entity-2="ent0013" data-link-type="dependency" data-source-line="61" id="lnk43"><path d="M547.7031,1539.3281 C602.6094,1539.3281 656.25,1539.3281 656.25,1539.3281 C656.25,1539.3281 656.25,1471.8438 656.25,1439.4844" fill="none" id="UC_ExportCatalog-to-UC_Export" style="stroke:#2B6CB0;stroke-width:2.3438;stroke-dasharray:10.9375,10.9375;"/><polygon fill="#2B6CB0" points="656.25,1431.6719,650,1445.7344,656.25,1439.4844,662.5,1445.7344,656.25,1431.6719" style="stroke:#2B6CB0;stroke-width:2.3438;stroke-linejoin:miter;stroke-miterlimit:10;"/><text fill="#4A5568" font-family="Segoe UI" font-size="15.625" lengthAdjust="spacing" textLength="65.6509" x="588.6094" y="1557.7516">&#171;include&#187;</text></g><!--link UC_Favorite to UC_Product--><g class="link" data-entity-1="ent0009" data-entity-2="ent0007" data-link-type="dependency" data-source-line="63" id="lnk44"><path d="M466.9375,608.9844 C526.25,608.9844 636.9531,608.9844 699.3281,608.9844" fill="none" id="UC_Favorite-to-UC_Product" style="stroke:#2B6CB0;stroke-width:2.3438;stroke-dasharray:10.9375,10.9375;"/><polygon fill="#2B6CB0" points="707.1406,608.9844,693.0781,602.7344,699.3281,608.9844,693.0781,615.2344,707.1406,608.9844" style="stroke:#2B6CB0;stroke-width:2.3438;stroke-linejoin:miter;stroke-miterlimit:10;"/><text fill="#4A5568" font-family="Segoe UI" font-size="15.625" lengthAdjust="spacing" textLength="62.6602" x="522.9688" y="627.4078">&#171;extend&#187;</text></g><!--link UC_Compare to UC_Product--><g class="link" data-entity-1="ent0010" data-entity-2="ent0007" data-link-type="dependency" data-source-line="64" id="lnk45"><path d="M484.375,402 C484.375,448.25 484.375,562.1094 484.375,562.1094 C484.375,562.1094 591.2969,562.1094 669.2969,562.1094" fill="none" id="UC_Compare-to-UC_Product" style="stroke:#2B6CB0;stroke-width:2.3438;stroke-dasharray:10.9375,10.9375;"/><polygon fill="#2B6CB0" points="677.1094,562.1094,663.0469,555.8594,669.2969,562.1094,663.0469,568.3594,677.1094,562.1094" style="stroke:#2B6CB0;stroke-width:2.3438;stroke-linejoin:miter;stroke-miterlimit:10;"/><text fill="#4A5568" font-family="Segoe UI" font-size="15.625" lengthAdjust="spacing" textLength="62.6602" x="436.625" y="580.5328">&#171;extend&#187;</text></g><!--link UC_Message to UC_Quote--><g class="link" data-entity-1="ent0020" data-entity-2="ent0019" data-link-type="dependency" data-source-line="65" id="lnk46"><path d="M486.2188,771.875 C581.8594,771.875 768.75,771.875 768.75,771.875 C768.75,771.875 768.75,1069.375 768.75,1177.9063" fill="none" id="UC_Message-to-UC_Quote" style="stroke:#2B6CB0;stroke-width:2.3438;stroke-dasharray:10.9375,10.9375;"/><polygon fill="#2B6CB0" points="768.75,1185.7188,775,1171.6563,768.75,1177.9063,762.5,1171.6563,768.75,1185.7188" style="stroke:#2B6CB0;stroke-width:2.3438;stroke-linejoin:miter;stroke-miterlimit:10;"/><text fill="#4A5568" font-family="Segoe UI" font-size="15.625" lengthAdjust="spacing" textLength="62.6602" x="704.6875" y="855.9547">&#171;extend&#187;</text></g><!--link UC_Negotiate to UC_Quote--><g class="link" data-entity-1="ent0021" data-entity-2="ent0019" data-link-type="dependency" data-source-line="66" id="lnk47"><path d="M486.3906,903.125 C572.25,903.125 728.125,903.125 728.125,903.125 C728.125,903.125 728.125,1092.7813 728.125,1177.625" fill="none" id="UC_Negotiate-to-UC_Quote" style="stroke:#2B6CB0;stroke-width:2.3438;stroke-dasharray:10.9375,10.9375;"/><polygon fill="#2B6CB0" points="728.125,1185.4375,734.375,1171.375,728.125,1177.625,721.875,1171.375,728.125,1185.4375" style="stroke:#2B6CB0;stroke-width:2.3438;stroke-linejoin:miter;stroke-miterlimit:10;"/><text fill="#4A5568" font-family="Segoe UI" font-size="15.625" lengthAdjust="spacing" textLength="62.6602" x="664.0625" y="941.8453">&#171;extend&#187;</text></g><!--link UC_Accept to UC_Quote--><g class="link" data-entity-1="ent0022" data-entity-2="ent0019" data-link-type="dependency" data-source-line="67" id="lnk48"><path d="M464.5156,1191.7969 C523.6875,1191.7969 639.1094,1191.7969 701.6563,1191.7969" fill="none" id="UC_Accept-to-UC_Quote" style="stroke:#2B6CB0;stroke-width:2.3438;stroke-dasharray:10.9375,10.9375;"/><polygon fill="#2B6CB0" points="709.4688,1191.7969,695.4063,1185.5469,701.6563,1191.7969,695.4063,1198.0469,709.4688,1191.7969" style="stroke:#2B6CB0;stroke-width:2.3438;stroke-linejoin:miter;stroke-miterlimit:10;"/><text fill="#4A5568" font-family="Segoe UI" font-size="15.625" lengthAdjust="spacing" textLength="62.6602" x="522.9219" y="1210.2203">&#171;extend&#187;</text></g><!--link UC_Reject to UC_Quote--><g class="link" data-entity-1="ent0023" data-entity-2="ent0019" data-link-type="dependency" data-source-line="68" id="lnk49"><path d="M469.9687,1271.875 C558.6094,1271.875 768.75,1271.875 768.75,1271.875 C768.75,1271.875 768.75,1275.1875 768.75,1268.9375" fill="none" id="UC_Reject-to-UC_Quote" style="stroke:#2B6CB0;stroke-width:2.3438;stroke-dasharray:10.9375,10.9375;"/><polygon fill="#2B6CB0" points="768.75,1261.125,762.5,1275.1875,768.75,1268.9375,775,1275.1875,768.75,1261.125" style="stroke:#2B6CB0;stroke-width:2.3438;stroke-linejoin:miter;stroke-miterlimit:10;"/><text fill="#4A5568" font-family="Segoe UI" font-size="15.625" lengthAdjust="spacing" textLength="62.6602" x="560.6719" y="1290.2985">&#171;extend&#187;</text></g><!--link UC_Review to UC_Product--><g class="link" data-entity-1="ent0024" data-entity-2="ent0007" data-link-type="dependency" data-source-line="69" id="lnk50"><path d="M431.25,548.5781 C431.25,562.7812 431.25,575.7813 431.25,575.7813 C431.25,575.7813 570.4531,575.7813 664.0625,575.7813" fill="none" id="UC_Review-to-UC_Product" style="stroke:#2B6CB0;stroke-width:2.3438;stroke-dasharray:10.9375,10.9375;"/><polygon fill="#2B6CB0" points="671.875,575.7813,657.8125,569.5313,664.0625,575.7813,657.8125,582.0313,671.875,575.7813" style="stroke:#2B6CB0;stroke-width:2.3438;stroke-linejoin:miter;stroke-miterlimit:10;"/><text fill="#4A5568" font-family="Segoe UI" font-size="15.625" lengthAdjust="spacing" textLength="62.6602" x="539.5156" y="594.2047">&#171;extend&#187;</text></g><!--link UC_Export to GMN51--><g class="link" data-entity-1="ent0013" data-entity-2="ent0052" data-link-type="association" data-source-line="72" id="lnk53"><path d="M826.5625,1439.7188 C826.5625,1519.875 826.5625,1786.3281 826.5625,1786.3281 C826.5625,1786.3281 899.3281,1786.3281 973.1094,1786.3281" fill="none" id="UC_Export-GMN51" style="stroke:#2B6CB0;stroke-width:2.3438;stroke-dasharray:10.9375,10.9375;"/></g><!--link UC_RFQ to GMN54--><g class="link" data-entity-1="ent0011" data-entity-2="ent0055" data-link-type="association" data-source-line="78" id="lnk56"><path d="M794.7969,1706.25 C858.0469,1706.25 962.5,1706.25 962.5,1706.25 C962.5,1706.25 962.5,1845.0469 962.5,1906.8438" fill="none" id="UC_RFQ-GMN54" style="stroke:#2B6CB0;stroke-width:2.3438;stroke-dasharray:10.9375,10.9375;"/></g><?plantuml-src ZLPTRzCm57tFhp3b0QYqZWrH8JGgDTq24jkqBnwGAY7ZtARU73jpxBA2-EzSnqaMDsl7GzNa-jnpF-nxd1TSCc5J8AFHFbDvhkH-QTO2HeNDHHILTrmMLDESQ626oam0-HCH4YkTWfufeJHvUHYFP_7RrdgpvEnEGbcIGsUZx2xJoigqHf_4oOSamPL4ILFR3gRlnk-FQzir_mtaODoykMp8JoNIw6yK2LWOOXJHF5iQadAN5LSoYYWpI3IO2GxIaFWm9ljaofPWmEe1eIM9xHemKfACut4SHO_b32u4DR1GEeVABpcRVIOd3uNIPb3LQajWj0Jo-Xe8KrAY9-WtZlFRxCUfohZiWZw3nZY5LWikvX8C-Vfzre3niGkTALbQWMHpoQYXGcKM6kZC6xhmAy1wjFiHC7E9_AOEbLfkoiRp6YY2jiHPSFHlN1gF2_VAJ5Ygy9sLpgiVmgrsyTDRPJ40eVO1Wz2Lqhn59zMhWJ2b78_LKzprIW3MWDHNoULSkfDKGDibj8KTaYNmhChvtb9fC6fBVEaDwww3tsOaBvjw-mbvp5DUlKhz0jRxP0nMLKPvkJsAAxxhU-FIMbATEVVcYA0pQ2IHLF0IDWZwn-OOSYfJbwsZmXO8eMIxapGl16mvB4jUub3nUmkk-OtBbygwtkAJmegNJYpiOzzLkFSdSgNM3fkZHj2ihU3CltQXvv0fnblUjblERZWDUQUCGM7wO6yFpya2dtl0AxZTEDQdk5iLaAvu1xRYyCkfaTUKlRr9Ts83OpsCWQqPjy3eJd9Wg8zToEPtAx0rsn4OVSyZpulIFccbYdmaHqUrvayc6mW_rpiXpHJj1A7EzTTzyiyaKoM-2nErhNc6AGHjgwoTs0POksq1kldyJwG_3Jl1KKSS6s1zE2eaF1YGgMUjPV4vM3r3Zxlbsha9QgTdDypFpMwC7vddC6vUTcOUIUVeBtMr25HtEFIFmo7vH4ohXxcxvjDNLX9tfQ548BHG5cyWbCKrpgwo11jcN3EuH5MGCAhOpl4In_i45qkan0-VrEkZa-SShrTEyUCdmhI8h6Qebvc_SuP3_AzoQlpL0ZFX80HuLbGCn44bTa0eSQbYWj8fYijp1Gnria3fn5NZ6c6xWVy1?></g></svg>