<svg xmlns="http://www.w3.org/2000/svg" xmlns:xlink="http://www.w3.org/1999/xlink" contentStyleType="text/css" data-diagram-type="CLASS" height="1079.6875px" preserveAspectRatio="none" style="width:2175px;height:1079px;background:#FFFFFF;" version="1.1" viewBox="0 0 2175 1079" width="2175px" zoomAndPan="magnify"><?plantuml 1.2026.4?><defs/><g><g class="title" data-source-line="15"><rect fill="#EBF8FF" height="53.0334" rx="7.8125" ry="7.8125" style="stroke:#CBD5E0;stroke-width:1.5625;" width="543.2709" x="811.0497" y="7.8125"/><text fill="#1A365D" font-family="Segoe UI" font-size="28.125" font-weight="700" lengthAdjust="spacing" textLength="527.6459" x="818.8622" y="45.9747">Diagramme de classes - Identite et roles</text></g><!--cluster Utilisateurs et roles--><g class="cluster" data-qualified-name="Utilisateurs et roles" data-source-line="19" id="ent0001"><path d="M17.1875,79.5959 L195.2179,79.5959 A11.7188,11.7188 0 0 1 203.0304,87.4084 L213.9679,115.9882 L1151.5625,115.9882 A7.8125,7.8125 0 0 1 1159.375,123.8007 L1159.375,1049.9084 A7.8125,7.8125 0 0 1 1151.5625,1057.7209 L17.1875,1057.7209 A7.8125,7.8125 0 0 1 9.375,1049.9084 L9.375,87.4084 A7.8125,7.8125 0 0 1 17.1875,79.5959" fill="#FAF5FF" style="stroke:#D6BCFA;stroke-width:2.3438;"/><line style="stroke:#D6BCFA;stroke-width:2.3438;" x1="9.375" x2="213.9679" y1="115.9882" y2="115.9882"/><text fill="#2D3748" font-family="Segoe UI" font-size="20.3125" font-weight="700" lengthAdjust="spacing" textLength="184.2804" x="15.625" y="104.6402">Utilisateurs et roles</text><text fill="#2D3748" font-family="Segoe UI" font-size="15.625" font-weight="700" lengthAdjust="spacing" textLength="75.6989" x="552.7756" y="135.9741">&#171;Identity&#187;</text></g><!--cluster Entites liees--><g class="cluster" data-qualified-name="Entites liees" data-source-line="73" id="ent0008"><path d="M1204.6875,834.2834 L1311.1084,834.2834 A11.7188,11.7188 0 0 1 1318.9209,842.0959 L1329.8584,870.6757 L1815.625,870.6757 A7.8125,7.8125 0 0 1 1823.4375,878.4882 L1823.4375,1049.9084 A7.8125,7.8125 0 0 1 1815.625,1057.7209 L1204.6875,1057.7209 A7.8125,7.8125 0 0 1 1196.875,1049.9084 L1196.875,842.0959 A7.8125,7.8125 0 0 1 1204.6875,834.2834" fill="#FFFAF0" style="stroke:#FBD38D;stroke-width:2.3438;"/><line style="stroke:#FBD38D;stroke-width:2.3438;" x1="1196.875" x2="1329.8584" y1="870.6757" y2="870.6757"/><text fill="#2D3748" font-family="Segoe UI" font-size="20.3125" font-weight="700" lengthAdjust="spacing" textLength="112.6709" x="1203.125" y="859.3277">Entites liees</text><text fill="#2D3748" font-family="Segoe UI" font-size="15.625" font-weight="700" lengthAdjust="spacing" textLength="78.1555" x="1477.3285" y="890.6616">&#171;External&#187;</text></g><!--class User--><g class="entity" data-qualified-name="Utilisateurs et roles.User" data-source-line="20" id="ent0002"><rect fill="#FFFFFF" height="362.8296" rx="7.8125" ry="7.8125" style="stroke:#2B6CB0;stroke-width:2.3438;" width="223.1064" x="642.9688" y="156.1584"/><rect fill="#EBF8FF" height="46.875" rx="7.8125" ry="7.8125" style="stroke:#EBF8FF;stroke-width:2.3438;" width="223.1064" x="642.9688" y="156.1584"/><rect fill="#EBF8FF" height="7.8125" style="stroke:#EBF8FF;stroke-width:2.3438;" width="223.1064" x="642.9688" y="195.2209"/><rect fill="none" height="362.8296" rx="7.8125" ry="7.8125" style="stroke:#2B6CB0;stroke-width:2.3438;" width="223.1064" x="642.9688" y="156.1584"/><ellipse cx="733.2268" cy="179.5959" fill="#A9DCDF" rx="15.625" ry="15.625" style="stroke:#181818;stroke-width:1.5625;"/><path d="M735.6682,182.8186 L731.1272,182.8186 L730.6633,183.9661 L731.1272,183.9661 Q731.7863,183.9661 732.0793,184.2346 Q732.3723,184.4788 732.3723,184.9182 Q732.3723,185.3333 732.0793,185.6018 Q731.7863,185.8459 731.1272,185.8459 L728.5881,185.8459 Q727.9045,185.8459 727.636,185.6018 Q727.343,185.3333 727.343,184.8938 Q727.343,184.4788 727.6604,184.2102 Q727.9533,183.9417 728.6369,183.9661 L731.591,176.6174 L730.3703,176.6174 Q729.6867,176.6174 729.3938,176.3733 Q729.1008,176.1047 729.1008,175.6897 Q729.1008,175.2502 729.3938,175.0061 Q729.6867,174.7375 730.3703,174.7375 L734.4231,174.7375 L738.1584,183.9661 Q738.8176,183.9661 739.0129,184.1125 Q739.4524,184.4055 739.4524,184.9182 Q739.4524,185.3333 739.1594,185.6018 Q738.8664,185.8459 738.2072,185.8459 L735.6682,185.8459 Q734.9846,185.8459 734.6916,185.6018 Q734.4231,185.3333 734.4231,184.8938 Q734.4231,184.4788 734.6916,184.2346 Q734.9846,183.9661 735.6682,183.9661 L736.132,183.9661 L735.6682,182.8186 Z M734.9113,180.9387 L733.3977,177.2278 L731.8596,180.9387 L734.9113,180.9387 Z " fill="#000000"/><text fill="#4A5568" font-family="Segoe UI" font-size="15.625" font-style="italic" lengthAdjust="spacing" textLength="30.0903" x="762.9143" y="186.0657">User</text><line style="stroke:#2B6CB0;stroke-width:2.3438;" x1="644.5313" x2="864.5126" y1="203.0334" y2="203.0334"/><g data-visibility-modifier="PRIVATE_FIELD"><rect fill="none" height="9.375" style="stroke:#C82930;stroke-width:1.5625;" width="9.375" x="655.4688" y="217.3309"/></g><text fill="#4A5568" font-family="Segoe UI" font-size="15.625" lengthAdjust="spacing" textLength="57.2357" x="672.6563" y="226.1444">id: UUID</text><g data-visibility-modifier="PRIVATE_FIELD"><rect fill="none" height="9.375" style="stroke:#C82930;stroke-width:1.5625;" width="9.375" x="655.4688" y="238.1134"/></g><text fill="#4A5568" font-family="Segoe UI" font-size="15.625" lengthAdjust="spacing" textLength="114.151" x="672.6563" y="246.9269">firstName: string</text><g data-visibility-modifier="PRIVATE_FIELD"><rect fill="none" height="9.375" style="stroke:#C82930;stroke-width:1.5625;" width="9.375" x="655.4688" y="258.8959"/></g><text fill="#4A5568" font-family="Segoe UI" font-size="15.625" lengthAdjust="spacing" textLength="111.7783" x="672.6563" y="267.7094">lastName: string</text><g data-visibility-modifier="PRIVATE_FIELD"><rect fill="none" height="9.375" style="stroke:#C82930;stroke-width:1.5625;" width="9.375" x="655.4688" y="279.6783"/></g><text fill="#4A5568" font-family="Segoe UI" font-size="15.625" lengthAdjust="spacing" textLength="83.9996" x="672.6563" y="288.4918">email: string</text><g data-visibility-modifier="PRIVATE_FIELD"><rect fill="none" height="9.375" style="stroke:#C82930;stroke-width:1.5625;" width="9.375" x="655.4688" y="300.4608"/></g><text fill="#4A5568" font-family="Segoe UI" font-size="15.625" lengthAdjust="spacing" textLength="146.843" x="672.6563" y="309.2743">passwordHash: string</text><g data-visibility-modifier="PRIVATE_FIELD"><rect fill="none" height="9.375" style="stroke:#C82930;stroke-width:1.5625;" width="9.375" x="655.4688" y="321.2433"/></g><text fill="#4A5568" font-family="Segoe UI" font-size="15.625" lengthAdjust="spacing" textLength="91.0492" x="672.6563" y="330.0568">phone: string</text><g data-visibility-modifier="PRIVATE_FIELD"><rect fill="none" height="9.375" style="stroke:#C82930;stroke-width:1.5625;" width="9.375" x="655.4688" y="342.0258"/></g><text fill="#4A5568" font-family="Segoe UI" font-size="15.625" lengthAdjust="spacing" textLength="121.5897" x="672.6563" y="350.8392">status: UserStatus</text><g data-visibility-modifier="PRIVATE_FIELD"><rect fill="none" height="9.375" style="stroke:#C82930;stroke-width:1.5625;" width="9.375" x="655.4688" y="362.8082"/></g><text fill="#4A5568" font-family="Segoe UI" font-size="15.625" lengthAdjust="spacing" textLength="184.0439" x="672.6563" y="371.6217">languagePreference: string</text><g data-visibility-modifier="PRIVATE_FIELD"><rect fill="none" height="9.375" style="stroke:#C82930;stroke-width:1.5625;" width="9.375" x="655.4688" y="383.5907"/></g><text fill="#4A5568" font-family="Segoe UI" font-size="15.625" lengthAdjust="spacing" textLength="178.8177" x="672.6563" y="392.4042">currencyPreference: string</text><g data-visibility-modifier="PRIVATE_FIELD"><rect fill="none" height="9.375" style="stroke:#C82930;stroke-width:1.5625;" width="9.375" x="655.4688" y="404.3732"/></g><text fill="#4A5568" font-family="Segoe UI" font-size="15.625" lengthAdjust="spacing" textLength="110.7941" x="672.6563" y="413.1866">timezone: string</text><g data-visibility-modifier="PRIVATE_FIELD"><rect fill="none" height="9.375" style="stroke:#C82930;stroke-width:1.5625;" width="9.375" x="655.4688" y="425.1556"/></g><text fill="#4A5568" font-family="Segoe UI" font-size="15.625" lengthAdjust="spacing" textLength="135.8032" x="672.6563" y="433.9691">createdAt: datetime</text><g data-visibility-modifier="PRIVATE_FIELD"><rect fill="none" height="9.375" style="stroke:#C82930;stroke-width:1.5625;" width="9.375" x="655.4688" y="445.9381"/></g><text fill="#4A5568" font-family="Segoe UI" font-size="15.625" lengthAdjust="spacing" textLength="142.2119" x="672.6563" y="454.7516">updatedAt: datetime</text><line style="stroke:#2B6CB0;stroke-width:2.3438;" x1="644.5313" x2="864.5126" y1="464.9231" y2="464.9231"/><g data-visibility-modifier="PUBLIC_METHOD"><ellipse cx="660.1563" cy="483.9081" fill="#84BE84" rx="4.6875" ry="4.6875" style="stroke:#038048;stroke-width:1.5625;"/></g><text fill="#4A5568" font-family="Segoe UI" font-size="15.625" lengthAdjust="spacing" textLength="158.9966" x="672.6563" y="488.0341">authenticate(): boolean</text><g data-visibility-modifier="PUBLIC_METHOD"><ellipse cx="660.1563" cy="504.6906" fill="#84BE84" rx="4.6875" ry="4.6875" style="stroke:#038048;stroke-width:1.5625;"/></g><text fill="#4A5568" font-family="Segoe UI" font-size="15.625" lengthAdjust="spacing" textLength="139.3356" x="672.6563" y="508.8165">updateProfile(): void</text></g><!--class BuyerUser--><g class="entity" data-qualified-name="Utilisateurs et roles.BuyerUser" data-source-line="37" id="ent0003"><rect fill="#FFFFFF" height="196.5698" rx="7.8125" ry="7.8125" style="stroke:#2B6CB0;stroke-width:2.3438;" width="275.1236" x="323.4375" y="612.4084"/><rect fill="#EBF8FF" height="46.875" rx="7.8125" ry="7.8125" style="stroke:#EBF8FF;stroke-width:2.3438;" width="275.1236" x="323.4375" y="612.4084"/><rect fill="#EBF8FF" height="7.8125" style="stroke:#EBF8FF;stroke-width:2.3438;" width="275.1236" x="323.4375" y="651.4709"/><rect fill="none" height="196.5698" rx="7.8125" ry="7.8125" style="stroke:#2B6CB0;stroke-width:2.3438;" width="275.1236" x="323.4375" y="612.4084"/><ellipse cx="419.7838" cy="635.8459" fill="#ADD1B2" rx="15.625" ry="15.625" style="stroke:#181818;stroke-width:1.5625;"/><path d="M422.1031,631.4758 Q422.274,631.2317 422.4693,631.1096 Q422.6891,630.9875 422.9332,630.9875 Q423.3482,630.9875 423.5924,631.2805 Q423.8609,631.5735 423.8609,632.2327 L423.8609,633.844 Q423.8609,634.5032 423.5924,634.7961 Q423.3482,635.0891 422.9332,635.0891 Q422.5426,635.0891 422.3228,634.8694 Q422.1031,634.6741 421.981,634.0881 Q421.9322,633.6975 421.7369,633.5022 Q421.3463,633.0872 420.6627,632.843 Q420.0035,632.5989 419.3199,632.5989 Q418.4898,632.5989 417.7818,632.9651 Q417.0738,633.3313 416.5367,634.1614 Q415.9996,634.967 415.9996,636.1145 L415.9996,637.3352 Q415.9996,638.678 416.9762,639.5813 Q417.9771,640.4846 419.7105,640.4846 Q420.7603,640.4846 421.4928,640.2161 Q421.9078,640.0452 422.3717,639.5569 Q422.6646,639.2639 422.8355,639.1907 Q423.0064,639.093 423.2018,639.093 Q423.5924,639.093 423.8609,639.386 Q424.1539,639.6545 424.1539,640.0452 Q424.1539,640.4358 423.7633,640.8752 Q423.2018,641.51 422.3228,641.8762 Q421.151,642.3645 419.735,642.3645 Q418.0504,642.3645 416.732,641.6809 Q415.6334,641.1438 414.8766,639.9475 Q414.1197,638.7512 414.1197,637.3596 L414.1197,636.0901 Q414.1197,634.6252 414.8033,633.3557 Q415.4869,632.0862 416.6832,631.4026 Q417.9039,630.719 419.2467,630.719 Q420.0768,630.719 420.7848,630.9143 Q421.4928,631.0852 422.1031,631.4758 Z " fill="#000000"/><text fill="#4A5568" font-family="Segoe UI" font-size="15.625" lengthAdjust="spacing" textLength="69.931" x="449.4713" y="642.3157">BuyerUser</text><line style="stroke:#2B6CB0;stroke-width:2.3438;" x1="325" x2="596.9986" y1="659.2834" y2="659.2834"/><g data-visibility-modifier="PRIVATE_FIELD"><rect fill="none" height="9.375" style="stroke:#C82930;stroke-width:1.5625;" width="9.375" x="335.9375" y="673.5809"/></g><text fill="#4A5568" font-family="Segoe UI" font-size="15.625" lengthAdjust="spacing" textLength="151.4893" x="353.125" y="682.3944">companyName: string</text><g data-visibility-modifier="PRIVATE_FIELD"><rect fill="none" height="9.375" style="stroke:#C82930;stroke-width:1.5625;" width="9.375" x="335.9375" y="694.3634"/></g><text fill="#4A5568" font-family="Segoe UI" font-size="15.625" lengthAdjust="spacing" textLength="99.1974" x="353.125" y="703.1769">country: string</text><g data-visibility-modifier="PRIVATE_FIELD"><rect fill="none" height="9.375" style="stroke:#C82930;stroke-width:1.5625;" width="9.375" x="335.9375" y="715.1459"/></g><text fill="#4A5568" font-family="Segoe UI" font-size="15.625" lengthAdjust="spacing" textLength="149.1394" x="353.125" y="723.9594">businessSector: string</text><g data-visibility-modifier="PRIVATE_FIELD"><rect fill="none" height="9.375" style="stroke:#C82930;stroke-width:1.5625;" width="9.375" x="335.9375" y="735.9283"/></g><text fill="#4A5568" font-family="Segoe UI" font-size="15.625" lengthAdjust="spacing" textLength="142.2119" x="353.125" y="744.7418">kycStatus: KYCStatus</text><line style="stroke:#2B6CB0;stroke-width:2.3438;" x1="325" x2="596.9986" y1="754.9133" y2="754.9133"/><g data-visibility-modifier="PUBLIC_METHOD"><ellipse cx="340.625" cy="773.8983" fill="#84BE84" rx="4.6875" ry="4.6875" style="stroke:#038048;stroke-width:1.5625;"/></g><text fill="#4A5568" font-family="Segoe UI" font-size="15.625" lengthAdjust="spacing" textLength="121.2921" x="353.125" y="778.0243">submitKYC(): void</text><g data-visibility-modifier="PUBLIC_METHOD"><ellipse cx="340.625" cy="794.6808" fill="#84BE84" rx="4.6875" ry="4.6875" style="stroke:#038048;stroke-width:1.5625;"/></g><text fill="#4A5568" font-family="Segoe UI" font-size="15.625" lengthAdjust="spacing" textLength="236.0611" x="353.125" y="798.8068">createRFQ(): RequestForQuotation</text></g><!--class SupplierUser--><g class="entity" data-qualified-name="Utilisateurs et roles.SupplierUser" data-source-line="46" id="ent0004"><rect fill="#FFFFFF" height="155.0049" rx="7.8125" ry="7.8125" style="stroke:#2B6CB0;stroke-width:2.3438;" width="201.8814" x="653.9063" y="633.5022"/><rect fill="#EBF8FF" height="46.875" rx="7.8125" ry="7.8125" style="stroke:#EBF8FF;stroke-width:2.3438;" width="201.8814" x="653.9063" y="633.5022"/><rect fill="#EBF8FF" height="7.8125" style="stroke:#EBF8FF;stroke-width:2.3438;" width="201.8814" x="653.9063" y="672.5647"/><rect fill="none" height="155.0049" rx="7.8125" ry="7.8125" style="stroke:#2B6CB0;stroke-width:2.3438;" width="201.8814" x="653.9063" y="633.5022"/><ellipse cx="706.0898" cy="656.9397" fill="#ADD1B2" rx="15.625" ry="15.625" style="stroke:#181818;stroke-width:1.5625;"/><path d="M708.4091,652.5696 Q708.58,652.3254 708.7753,652.2034 Q708.9951,652.0813 709.2392,652.0813 Q709.6542,652.0813 709.8984,652.3743 Q710.1669,652.6672 710.1669,653.3264 L710.1669,654.9377 Q710.1669,655.5969 709.8984,655.8899 Q709.6542,656.1829 709.2392,656.1829 Q708.8486,656.1829 708.6288,655.9631 Q708.4091,655.7678 708.287,655.1819 Q708.2382,654.7913 708.0429,654.5959 Q707.6523,654.1809 706.9687,653.9368 Q706.3095,653.6926 705.6259,653.6926 Q704.7958,653.6926 704.0878,654.0588 Q703.3798,654.425 702.8427,655.2551 Q702.3056,656.0608 702.3056,657.2083 L702.3056,658.429 Q702.3056,659.7717 703.2822,660.675 Q704.2831,661.5784 706.0165,661.5784 Q707.0663,661.5784 707.7988,661.3098 Q708.2138,661.1389 708.6777,660.6506 Q708.9706,660.3577 709.1415,660.2844 Q709.3124,660.1868 709.5078,660.1868 Q709.8984,660.1868 710.1669,660.4797 Q710.4599,660.7483 710.4599,661.1389 Q710.4599,661.5295 710.0693,661.969 Q709.5078,662.6038 708.6288,662.97 Q707.457,663.4583 706.041,663.4583 Q704.3564,663.4583 703.038,662.7747 Q701.9394,662.2375 701.1826,661.0413 Q700.4257,659.845 700.4257,658.4534 L700.4257,657.1838 Q700.4257,655.719 701.1093,654.4495 Q701.7929,653.1799 702.9892,652.4963 Q704.2099,651.8127 705.5527,651.8127 Q706.3828,651.8127 707.0908,652.0081 Q707.7988,652.179 708.4091,652.5696 Z " fill="#000000"/><text fill="#4A5568" font-family="Segoe UI" font-size="15.625" lengthAdjust="spacing" textLength="87.6541" x="733.1375" y="663.4094">SupplierUser</text><line style="stroke:#2B6CB0;stroke-width:2.3438;" x1="655.4688" x2="854.2252" y1="680.3772" y2="680.3772"/><g data-visibility-modifier="PRIVATE_FIELD"><rect fill="none" height="9.375" style="stroke:#C82930;stroke-width:1.5625;" width="9.375" x="666.4063" y="694.6747"/></g><text fill="#4A5568" font-family="Segoe UI" font-size="15.625" lengthAdjust="spacing" textLength="102.684" x="683.5938" y="703.4882">position: string</text><g data-visibility-modifier="PRIVATE_FIELD"><rect fill="none" height="9.375" style="stroke:#C82930;stroke-width:1.5625;" width="9.375" x="666.4063" y="715.4572"/></g><text fill="#4A5568" font-family="Segoe UI" font-size="15.625" lengthAdjust="spacing" textLength="127.8534" x="683.5938" y="724.2706">department: string</text><line style="stroke:#2B6CB0;stroke-width:2.3438;" x1="655.4688" x2="854.2252" y1="734.4421" y2="734.4421"/><g data-visibility-modifier="PUBLIC_METHOD"><ellipse cx="671.0938" cy="753.4271" fill="#84BE84" rx="4.6875" ry="4.6875" style="stroke:#038048;stroke-width:1.5625;"/></g><text fill="#4A5568" font-family="Segoe UI" font-size="15.625" lengthAdjust="spacing" textLength="162.8189" x="683.5938" y="757.5531">manageProducts(): void</text><g data-visibility-modifier="PUBLIC_METHOD"><ellipse cx="671.0938" cy="774.2096" fill="#84BE84" rx="4.6875" ry="4.6875" style="stroke:#038048;stroke-width:1.5625;"/></g><text fill="#4A5568" font-family="Segoe UI" font-size="15.625" lengthAdjust="spacing" textLength="149.437" x="683.5938" y="778.3356">respondToRFQ(): void</text></g><!--class AccountManager--><g class="entity" data-qualified-name="Utilisateurs et roles.AccountManager" data-source-line="53" id="ent0005"><rect fill="#FFFFFF" height="155.0049" rx="7.8125" ry="7.8125" style="stroke:#2B6CB0;stroke-width:2.3438;" width="223.2285" x="910.1563" y="633.5022"/><rect fill="#EBF8FF" height="46.875" rx="7.8125" ry="7.8125" style="stroke:#EBF8FF;stroke-width:2.3438;" width="223.2285" x="910.1563" y="633.5022"/><rect fill="#EBF8FF" height="7.8125" style="stroke:#EBF8FF;stroke-width:2.3438;" width="223.2285" x="910.1563" y="672.5647"/><rect fill="none" height="155.0049" rx="7.8125" ry="7.8125" style="stroke:#2B6CB0;stroke-width:2.3438;" width="223.2285" x="910.1563" y="633.5022"/><ellipse cx="958.189" cy="656.9397" fill="#ADD1B2" rx="15.625" ry="15.625" style="stroke:#181818;stroke-width:1.5625;"/><path d="M960.5083,652.5696 Q960.6792,652.3254 960.8746,652.2034 Q961.0943,652.0813 961.3384,652.0813 Q961.7535,652.0813 961.9976,652.3743 Q962.2662,652.6672 962.2662,653.3264 L962.2662,654.9377 Q962.2662,655.5969 961.9976,655.8899 Q961.7535,656.1829 961.3384,656.1829 Q960.9478,656.1829 960.7281,655.9631 Q960.5083,655.7678 960.3863,655.1819 Q960.3374,654.7913 960.1421,654.5959 Q959.7515,654.1809 959.0679,653.9368 Q958.4087,653.6926 957.7251,653.6926 Q956.8951,653.6926 956.1871,654.0588 Q955.479,654.425 954.9419,655.2551 Q954.4048,656.0608 954.4048,657.2083 L954.4048,658.429 Q954.4048,659.7717 955.3814,660.675 Q956.3824,661.5784 958.1158,661.5784 Q959.1656,661.5784 959.898,661.3098 Q960.313,661.1389 960.7769,660.6506 Q961.0699,660.3577 961.2408,660.2844 Q961.4117,660.1868 961.607,660.1868 Q961.9976,660.1868 962.2662,660.4797 Q962.5591,660.7483 962.5591,661.1389 Q962.5591,661.5295 962.1685,661.969 Q961.607,662.6038 960.7281,662.97 Q959.5562,663.4583 958.1402,663.4583 Q956.4556,663.4583 955.1373,662.7747 Q954.0386,662.2375 953.2818,661.0413 Q952.5249,659.845 952.5249,658.4534 L952.5249,657.1838 Q952.5249,655.719 953.2085,654.4495 Q953.8921,653.1799 955.0884,652.4963 Q956.3091,651.8127 957.6519,651.8127 Q958.482,651.8127 959.19,652.0081 Q959.898,652.179 960.5083,652.5696 Z " fill="#000000"/><text fill="#4A5568" font-family="Segoe UI" font-size="15.625" lengthAdjust="spacing" textLength="118.2251" x="984.3143" y="663.4094">AccountManager</text><line style="stroke:#2B6CB0;stroke-width:2.3438;" x1="911.7188" x2="1131.8222" y1="680.3772" y2="680.3772"/><g data-visibility-modifier="PRIVATE_FIELD"><rect fill="none" height="9.375" style="stroke:#C82930;stroke-width:1.5625;" width="9.375" x="922.6563" y="694.6747"/></g><text fill="#4A5568" font-family="Segoe UI" font-size="15.625" lengthAdjust="spacing" textLength="150.7111" x="939.8438" y="703.4882">employeeCode: string</text><g data-visibility-modifier="PRIVATE_FIELD"><rect fill="none" height="9.375" style="stroke:#C82930;stroke-width:1.5625;" width="9.375" x="922.6563" y="715.4572"/></g><text fill="#4A5568" font-family="Segoe UI" font-size="15.625" lengthAdjust="spacing" textLength="102.4094" x="939.8438" y="724.2706">territory: string</text><line style="stroke:#2B6CB0;stroke-width:2.3438;" x1="911.7188" x2="1131.8222" y1="734.4421" y2="734.4421"/><g data-visibility-modifier="PUBLIC_METHOD"><ellipse cx="927.3438" cy="753.4271" fill="#84BE84" rx="4.6875" ry="4.6875" style="stroke:#038048;stroke-width:1.5625;"/></g><text fill="#4A5568" font-family="Segoe UI" font-size="15.625" lengthAdjust="spacing" textLength="157.0282" x="939.8438" y="757.5531">validateSupplier(): void</text><g data-visibility-modifier="PUBLIC_METHOD"><ellipse cx="927.3438" cy="774.2096" fill="#84BE84" rx="4.6875" ry="4.6875" style="stroke:#038048;stroke-width:1.5625;"/></g><text fill="#4A5568" font-family="Segoe UI" font-size="15.625" lengthAdjust="spacing" textLength="184.166" x="939.8438" y="778.3356">followOpportunities(): void</text></g><!--class PlatformAdmin--><g class="entity" data-qualified-name="Utilisateurs et roles.PlatformAdmin" data-source-line="60" id="ent0006"><rect fill="#FFFFFF" height="134.2224" rx="7.8125" ry="7.8125" style="stroke:#2B6CB0;stroke-width:2.3438;" width="233.1314" x="35.1563" y="643.6584"/><rect fill="#EBF8FF" height="46.875" rx="7.8125" ry="7.8125" style="stroke:#EBF8FF;stroke-width:2.3438;" width="233.1314" x="35.1563" y="643.6584"/><rect fill="#EBF8FF" height="7.8125" style="stroke:#EBF8FF;stroke-width:2.3438;" width="233.1314" x="35.1563" y="682.7209"/><rect fill="none" height="134.2224" rx="7.8125" ry="7.8125" style="stroke:#2B6CB0;stroke-width:2.3438;" width="233.1314" x="35.1563" y="643.6584"/><ellipse cx="94.0105" cy="667.0959" fill="#ADD1B2" rx="15.625" ry="15.625" style="stroke:#181818;stroke-width:1.5625;"/><path d="M96.3299,662.7258 Q96.5008,662.4817 96.6961,662.3596 Q96.9158,662.2375 97.16,662.2375 Q97.575,662.2375 97.8191,662.5305 Q98.0877,662.8235 98.0877,663.4827 L98.0877,665.094 Q98.0877,665.7532 97.8191,666.0461 Q97.575,666.3391 97.16,666.3391 Q96.7693,666.3391 96.5496,666.1194 Q96.3299,665.9241 96.2078,665.3381 Q96.159,664.9475 95.9637,664.7522 Q95.573,664.3372 94.8895,664.093 Q94.2303,663.8489 93.5467,663.8489 Q92.7166,663.8489 92.0086,664.2151 Q91.3006,664.5813 90.7635,665.4114 Q90.2264,666.217 90.2264,667.3645 L90.2264,668.5852 Q90.2264,669.928 91.2029,670.8313 Q92.2039,671.7346 93.9373,671.7346 Q94.9871,671.7346 95.7195,671.4661 Q96.1346,671.2952 96.5984,670.8069 Q96.8914,670.5139 97.0623,670.4407 Q97.2332,670.343 97.4285,670.343 Q97.8191,670.343 98.0877,670.636 Q98.3807,670.9045 98.3807,671.2952 Q98.3807,671.6858 97.99,672.1252 Q97.4285,672.76 96.5496,673.1262 Q95.3777,673.6145 93.9617,673.6145 Q92.2771,673.6145 90.9588,672.9309 Q89.8602,672.3938 89.1033,671.1975 Q88.3465,670.0012 88.3465,668.6096 L88.3465,667.3401 Q88.3465,665.8752 89.0301,664.6057 Q89.7137,663.3362 90.91,662.6526 Q92.1307,661.969 93.4734,661.969 Q94.3035,661.969 95.0115,662.1643 Q95.7195,662.3352 96.3299,662.7258 Z " fill="#000000"/><text fill="#4A5568" font-family="Segoe UI" font-size="15.625" lengthAdjust="spacing" textLength="104.0802" x="122.5407" y="673.5657">PlatformAdmin</text><line style="stroke:#2B6CB0;stroke-width:2.3438;" x1="36.7188" x2="266.7252" y1="690.5334" y2="690.5334"/><g data-visibility-modifier="PRIVATE_FIELD"><rect fill="none" height="9.375" style="stroke:#C82930;stroke-width:1.5625;" width="9.375" x="47.6563" y="704.8309"/></g><text fill="#4A5568" font-family="Segoe UI" font-size="15.625" lengthAdjust="spacing" textLength="125.0534" x="64.8438" y="713.6444">adminLevel: string</text><line style="stroke:#2B6CB0;stroke-width:2.3438;" x1="36.7188" x2="266.7252" y1="723.8159" y2="723.8159"/><g data-visibility-modifier="PUBLIC_METHOD"><ellipse cx="52.3438" cy="742.8009" fill="#84BE84" rx="4.6875" ry="4.6875" style="stroke:#038048;stroke-width:1.5625;"/></g><text fill="#4A5568" font-family="Segoe UI" font-size="15.625" lengthAdjust="spacing" textLength="168.8309" x="64.8438" y="746.9269">moderateContent(): void</text><g data-visibility-modifier="PUBLIC_METHOD"><ellipse cx="52.3438" cy="763.5834" fill="#84BE84" rx="4.6875" ry="4.6875" style="stroke:#038048;stroke-width:1.5625;"/></g><text fill="#4A5568" font-family="Segoe UI" font-size="15.625" lengthAdjust="spacing" textLength="194.0689" x="64.8438" y="767.7094">manageSponsorships(): void</text></g><!--class SuperAdmin--><g class="entity" data-qualified-name="Utilisateurs et roles.SuperAdmin" data-source-line="66" id="ent0007"><rect fill="#FFFFFF" height="121.7224" rx="7.8125" ry="7.8125" style="stroke:#2B6CB0;stroke-width:2.3438;" width="200.737" x="51.5625" y="910.8459"/><rect fill="#EBF8FF" height="46.875" rx="7.8125" ry="7.8125" style="stroke:#EBF8FF;stroke-width:2.3438;" width="200.737" x="51.5625" y="910.8459"/><rect fill="#EBF8FF" height="7.8125" style="stroke:#EBF8FF;stroke-width:2.3438;" width="200.737" x="51.5625" y="949.9084"/><rect fill="none" height="121.7224" rx="7.8125" ry="7.8125" style="stroke:#2B6CB0;stroke-width:2.3438;" width="200.737" x="51.5625" y="910.8459"/><ellipse cx="104.2919" cy="934.2834" fill="#ADD1B2" rx="15.625" ry="15.625" style="stroke:#181818;stroke-width:1.5625;"/><path d="M106.6113,929.9133 Q106.7822,929.6692 106.9775,929.5471 Q107.1972,929.425 107.4413,929.425 Q107.8564,929.425 108.1005,929.718 Q108.3691,930.011 108.3691,930.6702 L108.3691,932.2815 Q108.3691,932.9407 108.1005,933.2336 Q107.8564,933.5266 107.4413,933.5266 Q107.0507,933.5266 106.831,933.3069 Q106.6113,933.1116 106.4892,932.5256 Q106.4404,932.135 106.245,931.9397 Q105.8544,931.5247 105.1708,931.2805 Q104.5116,931.0364 103.828,931.0364 Q102.998,931.0364 102.29,931.4026 Q101.582,931.7688 101.0448,932.5989 Q100.5077,933.4045 100.5077,934.552 L100.5077,935.7727 Q100.5077,937.1155 101.4843,938.0188 Q102.4853,938.9221 104.2187,938.9221 Q105.2685,938.9221 106.0009,938.6536 Q106.4159,938.4827 106.8798,937.9944 Q107.1728,937.7014 107.3437,937.6282 Q107.5146,937.5305 107.7099,937.5305 Q108.1005,937.5305 108.3691,937.8235 Q108.662,938.092 108.662,938.4827 Q108.662,938.8733 108.2714,939.3127 Q107.7099,939.9475 106.831,940.3137 Q105.6591,940.802 104.2431,940.802 Q102.5585,940.802 101.2402,940.1184 Q100.1415,939.5813 99.3847,938.385 Q98.6279,937.1887 98.6279,935.7971 L98.6279,934.5276 Q98.6279,933.0627 99.3114,931.7932 Q99.995,930.5237 101.1913,929.8401 Q102.412,929.1565 103.7548,929.1565 Q104.5849,929.1565 105.2929,929.3518 Q106.0009,929.5227 106.6113,929.9133 Z " fill="#000000"/><text fill="#4A5568" font-family="Segoe UI" font-size="15.625" lengthAdjust="spacing" textLength="85.2966" x="131.461" y="940.7532">SuperAdmin</text><line style="stroke:#2B6CB0;stroke-width:2.3438;" x1="53.125" x2="250.737" y1="957.7209" y2="957.7209"/><g data-visibility-modifier="PUBLIC_METHOD"><ellipse cx="68.75" cy="976.7059" fill="#84BE84" rx="4.6875" ry="4.6875" style="stroke:#038048;stroke-width:1.5625;"/></g><text fill="#4A5568" font-family="Segoe UI" font-size="15.625" lengthAdjust="spacing" textLength="139.3814" x="81.25" y="980.8319">manageRoles(): void</text><g data-visibility-modifier="PUBLIC_METHOD"><ellipse cx="68.75" cy="997.4884" fill="#84BE84" rx="4.6875" ry="4.6875" style="stroke:#038048;stroke-width:1.5625;"/></g><text fill="#4A5568" font-family="Segoe UI" font-size="15.625" lengthAdjust="spacing" textLength="161.6745" x="81.25" y="1001.6144">configureSystem(): void</text><g data-visibility-modifier="PUBLIC_METHOD"><ellipse cx="68.75" cy="1018.2709" fill="#84BE84" rx="4.6875" ry="4.6875" style="stroke:#038048;stroke-width:1.5625;"/></g><text fill="#4A5568" font-family="Segoe UI" font-size="15.625" lengthAdjust="spacing" textLength="140.5106" x="81.25" y="1022.3969">auditPlatform(): void</text></g><!--class SupplierCompany--><g class="entity" data-qualified-name="Entites liees.SupplierCompany" data-source-line="74" id="ent0009"><rect fill="#FFFFFF" height="121.7224" rx="7.8125" ry="7.8125" style="stroke:#2B6CB0;stroke-width:2.3438;" width="324.7223" x="1473.4375" y="910.8459"/><rect fill="#EBF8FF" height="46.875" rx="7.8125" ry="7.8125" style="stroke:#EBF8FF;stroke-width:2.3438;" width="324.7223" x="1473.4375" y="910.8459"/><rect fill="#EBF8FF" height="7.8125" style="stroke:#EBF8FF;stroke-width:2.3438;" width="324.7223" x="1473.4375" y="949.9084"/><rect fill="none" height="121.7224" rx="7.8125" ry="7.8125" style="stroke:#2B6CB0;stroke-width:2.3438;" width="324.7223" x="1473.4375" y="910.8459"/><ellipse cx="1568.2922" cy="934.2834" fill="#ADD1B2" rx="15.625" ry="15.625" style="stroke:#181818;stroke-width:1.5625;"/><path d="M1570.6116,929.9133 Q1570.7825,929.6692 1570.9778,929.5471 Q1571.1975,929.425 1571.4417,929.425 Q1571.8567,929.425 1572.1008,929.718 Q1572.3694,930.011 1572.3694,930.6702 L1572.3694,932.2815 Q1572.3694,932.9407 1572.1008,933.2336 Q1571.8567,933.5266 1571.4417,933.5266 Q1571.051,933.5266 1570.8313,933.3069 Q1570.6116,933.1116 1570.4895,932.5256 Q1570.4407,932.135 1570.2454,931.9397 Q1569.8547,931.5247 1569.1711,931.2805 Q1568.512,931.0364 1567.8284,931.0364 Q1566.9983,931.0364 1566.2903,931.4026 Q1565.5823,931.7688 1565.0452,932.5989 Q1564.5081,933.4045 1564.5081,934.552 L1564.5081,935.7727 Q1564.5081,937.1155 1565.4846,938.0188 Q1566.4856,938.9221 1568.219,938.9221 Q1569.2688,938.9221 1570.0012,938.6536 Q1570.4163,938.4827 1570.8801,937.9944 Q1571.1731,937.7014 1571.344,937.6282 Q1571.5149,937.5305 1571.7102,937.5305 Q1572.1008,937.5305 1572.3694,937.8235 Q1572.6624,938.092 1572.6624,938.4827 Q1572.6624,938.8733 1572.2717,939.3127 Q1571.7102,939.9475 1570.8313,940.3137 Q1569.6594,940.802 1568.2434,940.802 Q1566.5588,940.802 1565.2405,940.1184 Q1564.1418,939.5813 1563.385,938.385 Q1562.6282,937.1887 1562.6282,935.7971 L1562.6282,934.5276 Q1562.6282,933.0627 1563.3118,931.7932 Q1563.9954,930.5237 1565.1917,929.8401 Q1566.4124,929.1565 1567.7551,929.1565 Q1568.5852,929.1565 1569.2932,929.3518 Q1570.0012,929.5227 1570.6116,929.9133 Z " fill="#000000"/><text fill="#4A5568" font-family="Segoe UI" font-size="15.625" lengthAdjust="spacing" textLength="122.5128" x="1597.9797" y="940.7532">SupplierCompany</text><line style="stroke:#2B6CB0;stroke-width:2.3438;" x1="1475" x2="1796.5973" y1="957.7209" y2="957.7209"/><g data-visibility-modifier="PRIVATE_FIELD"><rect fill="none" height="9.375" style="stroke:#C82930;stroke-width:1.5625;" width="9.375" x="1485.9375" y="972.0184"/></g><text fill="#4A5568" font-family="Segoe UI" font-size="15.625" lengthAdjust="spacing" textLength="57.2357" x="1503.125" y="980.8319">id: UUID</text><g data-visibility-modifier="PRIVATE_FIELD"><rect fill="none" height="9.375" style="stroke:#C82930;stroke-width:1.5625;" width="9.375" x="1485.9375" y="992.8009"/></g><text fill="#4A5568" font-family="Segoe UI" font-size="15.625" lengthAdjust="spacing" textLength="151.4893" x="1503.125" y="1001.6144">companyName: string</text><g data-visibility-modifier="PRIVATE_FIELD"><rect fill="none" height="9.375" style="stroke:#C82930;stroke-width:1.5625;" width="9.375" x="1485.9375" y="1013.5834"/></g><text fill="#4A5568" font-family="Segoe UI" font-size="15.625" lengthAdjust="spacing" textLength="285.6598" x="1503.125" y="1022.3969">validationStatus: SupplierValidationStatus</text></g><!--class RequestForQuotation--><g class="entity" data-qualified-name="Entites liees.RequestForQuotation" data-source-line="80" id="ent0010"><rect fill="#FFFFFF" height="46.875" rx="7.8125" ry="7.8125" style="stroke:#2B6CB0;stroke-width:2.3438;" width="194.8471" x="1222.6563" y="948.3459"/><rect fill="#EBF8FF" height="46.875" rx="7.8125" ry="7.8125" style="stroke:#EBF8FF;stroke-width:2.3438;" width="194.8471" x="1222.6563" y="948.3459"/><rect fill="#EBF8FF" height="7.8125" style="stroke:#EBF8FF;stroke-width:2.3438;" width="194.8471" x="1222.6563" y="987.4084"/><rect fill="none" height="46.875" rx="7.8125" ry="7.8125" style="stroke:#2B6CB0;stroke-width:2.3438;" width="194.8471" x="1222.6563" y="948.3459"/><ellipse cx="1244.5313" cy="971.7834" fill="#ADD1B2" rx="15.625" ry="15.625" style="stroke:#181818;stroke-width:1.5625;"/><path d="M1246.8506,967.4133 Q1247.0215,967.1692 1247.2168,967.0471 Q1247.4365,966.925 1247.6807,966.925 Q1248.0957,966.925 1248.3398,967.218 Q1248.6084,967.511 1248.6084,968.1702 L1248.6084,969.7815 Q1248.6084,970.4407 1248.3398,970.7336 Q1248.0957,971.0266 1247.6807,971.0266 Q1247.29,971.0266 1247.0703,970.8069 Q1246.8506,970.6116 1246.7285,970.0256 Q1246.6797,969.635 1246.4844,969.4397 Q1246.0938,969.0247 1245.4102,968.7805 Q1244.751,968.5364 1244.0674,968.5364 Q1243.2373,968.5364 1242.5293,968.9026 Q1241.8213,969.2688 1241.2842,970.0989 Q1240.7471,970.9045 1240.7471,972.052 L1240.7471,973.2727 Q1240.7471,974.6155 1241.7236,975.5188 Q1242.7246,976.4221 1244.458,976.4221 Q1245.5078,976.4221 1246.2402,976.1536 Q1246.6553,975.9827 1247.1191,975.4944 Q1247.4121,975.2014 1247.583,975.1282 Q1247.7539,975.0305 1247.9492,975.0305 Q1248.3398,975.0305 1248.6084,975.3235 Q1248.9014,975.592 1248.9014,975.9827 Q1248.9014,976.3733 1248.5107,976.8127 Q1247.9492,977.4475 1247.0703,977.8137 Q1245.8984,978.302 1244.4824,978.302 Q1242.7979,978.302 1241.4795,977.6184 Q1240.3809,977.0813 1239.624,975.885 Q1238.8672,974.6887 1238.8672,973.2971 L1238.8672,972.0276 Q1238.8672,970.5627 1239.5508,969.2932 Q1240.2344,968.0237 1241.4307,967.3401 Q1242.6514,966.6565 1243.9941,966.6565 Q1244.8242,966.6565 1245.5322,966.8518 Q1246.2402,967.0227 1246.8506,967.4133 Z " fill="#000000"/><text fill="#4A5568" font-family="Segoe UI" font-size="15.625" lengthAdjust="spacing" textLength="147.9721" x="1264.8438" y="978.2532">RequestForQuotation</text></g><g class="entity" data-qualified-name="GMN19" data-source-line="94" id="ent0020"><path d="M1853.9063,950.6897 L1853.9063,965.5334 L1798.5937,971.7834 L1853.9063,978.0334 L1853.9063,992.2546 A7.8125,7.8125 0 0 0 1861.7188,1000.0671 L2145.0577,1000.0671 A7.8125,7.8125 0 0 0 2152.8702,992.2546 L2152.8702,958.5022 L2137.2452,942.8772 L1861.7188,942.8772 A7.8125,7.8125 0 0 0 1853.9063,950.6897" fill="#FFFFF0" style="stroke:#D69E2E;stroke-width:0.7813;"/><path d="M2137.2452,942.8772 L2137.2452,954.5959 A3.9063,3.9063 0 0 0 2141.1514,958.5022 L2152.8702,958.5022 L2137.2452,942.8772" fill="#FFFFF0" style="stroke:#D69E2E;stroke-width:0.7813;"/><text fill="#744210" font-family="Segoe UI" font-size="15.625" lengthAdjust="spacing" textLength="247.2916" x="1863.2813" y="967.5507">La societe fournisseur est une entite</text><text fill="#744210" font-family="Segoe UI" font-size="15.625" lengthAdjust="spacing" textLength="44.3115" x="1863.2813" y="988.3331">metier</text><text fill="#744210" font-family="Segoe UI" font-size="15.625" font-weight="700" lengthAdjust="spacing" textLength="62.9959" x="1911.8729" y="988.3331">distincte</text><text fill="#744210" font-family="Segoe UI" font-size="15.625" lengthAdjust="spacing" textLength="150.2838" x="1979.1489" y="988.3331">du compte utilisateur.</text></g><g class="entity" data-qualified-name="GMN22" data-source-line="99" id="ent0023"><path d="M1188.2813,689.7522 L1188.2813,731.3171 A7.8125,7.8125 0 0 0 1196.0938,739.1296 L1553.2394,739.1296 A7.8125,7.8125 0 0 0 1561.0519,731.3171 L1561.0519,697.5647 L1545.4269,681.9397 L1196.0938,681.9397 A7.8125,7.8125 0 0 0 1188.2813,689.7522" fill="#FFFFF0" style="stroke:#D69E2E;stroke-width:0.7813;"/><path d="M1545.4269,681.9397 L1545.4269,693.6584 A3.9063,3.9063 0 0 0 1549.3332,697.5647 L1561.0519,697.5647 L1545.4269,681.9397" fill="#FFFFF0" style="stroke:#D69E2E;stroke-width:1.5625;"/><text fill="#744210" font-family="Segoe UI" font-size="15.625" lengthAdjust="spacing" textLength="15.5258" x="1197.6563" y="706.6132">Le</text><text fill="#744210" font-family="Segoe UI" font-size="15.625" font-weight="700" lengthAdjust="spacing" textLength="56.3812" x="1217.4622" y="706.6132">Visiteur</text><text fill="#744210" font-family="Segoe UI" font-size="15.625" lengthAdjust="spacing" textLength="218.4296" x="1278.1235" y="706.6132">n'est pas une classe persistante.</text><text fill="#744210" font-family="Segoe UI" font-size="15.625" lengthAdjust="spacing" textLength="339.9582" x="1197.6563" y="727.3956">Il reste un acteur non authentifie des cas d'usage.</text></g><!--reverse link User to BuyerUser--><g class="link" data-entity-1="ent0002" data-entity-2="ent0003" data-link-type="extension" data-source-line="83" id="lnk11"><path codeLine="83" d="M648.4375,547.0334 C648.4375,603.5959 648.4375,623.3459 648.4375,623.3459 C648.4375,623.3459 627.0313,623.3459 598.6875,623.3459" fill="none" id="User-backto-BuyerUser" style="stroke:#2B6CB0;stroke-width:2.3438;"/><polygon fill="none" points="648.4375,518.9084,639.0625,547.0334,657.8125,547.0334,648.4375,518.9084" style="stroke:#2B6CB0;stroke-width:2.3438;stroke-linejoin:miter;stroke-miterlimit:10;"/></g><!--reverse link User to SupplierUser--><g class="link" data-entity-1="ent0002" data-entity-2="ent0004" data-link-type="extension" data-source-line="84" id="lnk12"><path codeLine="84" d="M754.6875,547.3303 C754.6875,587.5803 754.6875,600.0178 754.6875,633.3928" fill="none" id="User-backto-SupplierUser" style="stroke:#2B6CB0;stroke-width:2.3438;"/><polygon fill="none" points="754.6875,519.2053,745.3125,547.3303,764.0625,547.3303,754.6875,519.2053" style="stroke:#2B6CB0;stroke-width:2.3438;stroke-linejoin:miter;stroke-miterlimit:10;"/></g><!--reverse link User to AccountManager--><g class="link" data-entity-1="ent0002" data-entity-2="ent0005" data-link-type="extension" data-source-line="85" id="lnk13"><path codeLine="85" d="M860.9375,547.3303 C860.9375,642.2991 860.9375,710.8459 860.9375,710.8459 C860.9375,710.8459 882.6406,710.8459 910.0938,710.8459" fill="none" id="User-backto-AccountManager" style="stroke:#2B6CB0;stroke-width:2.3438;"/><polygon fill="none" points="860.9375,519.2053,851.5625,547.3303,870.3125,547.3303,860.9375,519.2053" style="stroke:#2B6CB0;stroke-width:2.3438;stroke-linejoin:miter;stroke-miterlimit:10;"/></g><!--reverse link User to PlatformAdmin--><g class="link" data-entity-1="ent0002" data-entity-2="ent0006" data-link-type="extension" data-source-line="86" id="lnk14"><path codeLine="86" d="M614.5313,337.4084 C440.1094,337.4084 151.5625,337.4084 151.5625,337.4084 C151.5625,337.4084 151.5625,536.1428 151.5625,643.6584" fill="none" id="User-backto-PlatformAdmin" style="stroke:#2B6CB0;stroke-width:2.3438;"/><polygon fill="none" points="642.6563,337.4084,614.5313,328.0334,614.5313,346.7834,642.6563,337.4084" style="stroke:#2B6CB0;stroke-width:2.3438;stroke-linejoin:miter;stroke-miterlimit:10;"/></g><!--reverse link PlatformAdmin to SuperAdmin--><g class="link" data-entity-1="ent0006" data-entity-2="ent0007" data-link-type="extension" data-source-line="87" id="lnk15"><path codeLine="87" d="M151.5625,806.1741 C151.5625,847.0959 151.5625,870.8459 151.5625,910.6116" fill="none" id="PlatformAdmin-backto-SuperAdmin" style="stroke:#2B6CB0;stroke-width:2.3438;"/><polygon fill="none" points="151.5625,778.0491,142.1875,806.1741,160.9375,806.1741,151.5625,778.0491" style="stroke:#2B6CB0;stroke-width:2.3438;stroke-linejoin:miter;stroke-miterlimit:10;"/></g><!--link SupplierCompany to SupplierUser--><g class="link" data-entity-1="ent0009" data-entity-2="ent0004" data-link-type="association" data-source-line="89" id="lnk16"><path codeLine="89" d="M1473.2813,929.5959 C1218.6406,929.5959 754.6875,929.5959 754.6875,929.5959 C754.6875,929.5959 754.6875,851.4553 754.6875,788.5803" fill="none" id="SupplierCompany-SupplierUser" style="stroke:#2B6CB0;stroke-width:2.3438;"/><text fill="#4A5568" font-family="Segoe UI" font-size="15.625" lengthAdjust="spacing" textLength="61.0199" x="980.9688" y="924.5819">hasUsers</text><text fill="#4A5568" font-family="Segoe UI" font-size="15.625" lengthAdjust="spacing" textLength="8.4229" x="1452.7503" y="922.1607">1</text><text fill="#4A5568" font-family="Segoe UI" font-size="15.625" lengthAdjust="spacing" textLength="21.7133" x="733.0228" y="817.8116">1..*</text></g><!--link BuyerUser to RequestForQuotation--><g class="link" data-entity-1="ent0003" data-entity-2="ent0010" data-link-type="association" data-source-line="90" id="lnk17"><path codeLine="90" d="M598.5313,799.9084 C841.3125,799.9084 1320.3125,799.9084 1320.3125,799.9084 C1320.3125,799.9084 1320.3125,900.6584 1320.3125,947.8772" fill="none" id="BuyerUser-RequestForQuotation" style="stroke:#2B6CB0;stroke-width:2.3438;"/><text fill="#4A5568" font-family="Segoe UI" font-size="15.625" lengthAdjust="spacing" textLength="48.8663" x="983.4063" y="818.3319">creates</text><text fill="#4A5568" font-family="Segoe UI" font-size="15.625" lengthAdjust="spacing" textLength="8.4229" x="611.1553" y="803.519">1</text><text fill="#4A5568" font-family="Segoe UI" font-size="15.625" lengthAdjust="spacing" textLength="21.7133" x="1296.599" y="931.9518">0..*</text></g><!--link AccountManager to SupplierCompany--><g class="link" data-entity-1="ent0005" data-entity-2="ent0009" data-link-type="association" data-source-line="91" id="lnk18"><path codeLine="91" d="M1133.7344,763.9709 C1279.9375,763.9709 1517.5781,763.9709 1517.5781,763.9709 C1517.5781,763.9709 1517.5781,849.2522 1517.5781,910.5491" fill="none" id="AccountManager-SupplierCompany" style="stroke:#2B6CB0;stroke-width:2.3438;"/><text fill="#4A5568" font-family="Segoe UI" font-size="15.625" lengthAdjust="spacing" textLength="61.7523" x="1336.4531" y="758.9569">monitors</text><text fill="#4A5568" font-family="Segoe UI" font-size="15.625" lengthAdjust="spacing" textLength="8.4229" x="1145.715" y="764.9584">1</text><text fill="#4A5568" font-family="Segoe UI" font-size="15.625" lengthAdjust="spacing" textLength="21.7133" x="1474.5233" y="894.4365">0..*</text></g><!--link User to GMN22--><g class="link" data-entity-1="ent0002" data-entity-2="ent0023" data-link-type="association" data-source-line="99" id="lnk24"><path d="M867.0156,337.4084 C1045.7813,337.4084 1375,337.4084 1375,337.4084 C1375,337.4084 1375,593.5022 1375,681.5491" fill="none" id="User-GMN22" style="stroke:#2B6CB0;stroke-width:2.3438;stroke-dasharray:10.9375,10.9375;"/></g><?plantuml-src TLNRRXit47tVhvYg3sbbM4aGj7048u1kYnXDMiUg0-IHMeuamhniEQJJJPf_xt2rihMKzBOx5vwPCxUVbArqb0YZqSlA6UFiImgDnb4TZIuAUb2s5buOg4Nr83PuVNqZqGOLcdVlu7i1C6NvnhjevSnfv-7dSbB-LfQiUOz2eZ_IBzxEhyfvydIUzPrq_ljqLawA7oSX5_y6z5Reiv0bWxuw3rak5jFPLGvPJkTlhkO9ajFH27CbDWnh49YEIWiY9BY4Bby43E2THYg2go4uMBaGd06fF5P1ELji5JkYgKC31iqAFHL5bmCCxeFIYaJ0wEdfgG4SyIbM5BoemYu2k2VqhHmu52N7S7z_C-z-ryfJ-5CO70FxABlfvEnuIen6A9t9QiRuogIy5xJDLLjdyoSeY11ft4QrRB-V8EqcSfwt7jVeqLQvPnLz4ZTd3O8o-EqOiVB8dCb968FaZsJLQM8jJsekGCImJPnMBFxbrp4NYhaMjjFk_6wzMolTgX-TagpZFe2Ez6biqFUOvz6eXMrEi5fndmNVPD9L96MHQCcjuNocV6YgPKVa7rzc1pnU0CMLKO6b1u4b-Ow6k_9Jaj_XFn4fbCv_YewzK-_rub_6kjOgIw5sf99f5en47hPWcA-UuWACi6r1dOnLe2mUZrGxA_zsNKZ774wgbfcFxIlFKV1uQDSWpfmywW3qNZ5RJHR8ez0gbMoVLHRAscdjllvLryw7Q3b5fDCHtMeHriwRYJJAFWKaqjy7V4ITvyyHUeQTEHkOdGnrnywIII3dQQlgCw0SDFf3nBthNPh_lChEhjKcUbms5D1aMX6b2liaUcW_3lRCebrM1CpKRhzaoxFV8RDTNv_RCEVRlYiAzzE-bVTFViuqVJvEzIwhsqwz_k_oydds3cI7_NmWxhVOWQ9NwQ9Vz_s3NLMA8gTYy7e0R39uFHeD1_rH6iDMKFgYudb5xErVjVOdycEttVXIaGr5tpKFPCmjQDD0y1cnZW-GLvjj0BVEBPdS3mB8LGhPQksYjugFL_J0aK2qV9JQfc0xmtkIWOT3gIZmwGyu78ACRQ7PDpuVgL61LaB2xT2xSyVmRHaO4_cTpugt2flpC_P5WkEBqaBk3YWmpyHGWcTen3utEgsEX6I1ZroAqJ93-uszLkdu4bJyY7mHYLawYED_?></g></svg>