<svg xmlns="http://www.w3.org/2000/svg" xmlns:xlink="http://www.w3.org/1999/xlink" contentStyleType="text/css" data-diagram-type="DESCRIPTION" height="1212.5px" preserveAspectRatio="none" style="width:1215px;height:1212px;background:#FFFFFF;" version="1.1" viewBox="0 0 1215 1212" width="1215.625px" zoomAndPan="magnify"><?plantuml 1.2026.4?><defs/><g><!--cluster Plateforme B2B FMCG Export--><g class="cluster" data-qualified-name="Plateforme B2B FMCG Export" data-source-line="16" id="ent0002"><rect fill="#EBF8FF" height="1179.6875" rx="7.8125" ry="7.8125" style="stroke:#2B6CB0;stroke-width:3.125;" width="940.625" x="253.125" y="10.9375"/><text fill="#1A365D" font-family="Segoe UI" font-size="25" font-weight="700" lengthAdjust="spacing" textLength="345.4102" x="550.7324" y="41.04">Plateforme B2B FMCG Export</text></g><!--entity UC_Login--><g class="entity" data-qualified-name="Plateforme B2B FMCG Export.UC_Login" data-source-line="17" id="ent0003"><ellipse cx="399.8193" cy="355.9158" fill="#FFFFFF" rx="80.288" ry="22.322" style="stroke:#319795;stroke-width:0.7813;"/><text fill="#2D3748" font-family="Segoe UI" font-size="18.75" lengthAdjust="spacing" textLength="106.9153" x="346.3616" y="362.9165">Se connecter</text></g><!--entity UC_Catalog--><g class="entity" data-qualified-name="Plateforme B2B FMCG Export.UC_Catalog" data-source-line="18" id="ent0004"><ellipse cx="727.6524" cy="1128.4842" fill="#FFFFFF" rx="57.3399" ry="37.078" style="stroke:#319795;stroke-width:0.7813;"/><text fill="#2D3748" font-family="Segoe UI" font-size="18.75" lengthAdjust="spacing" textLength="45.5109" x="704.897" y="1118.7452">Gerer</text><text fill="#2D3748" font-family="Segoe UI" font-size="18.75" lengthAdjust="spacing" textLength="81.0791" x="687.1128" y="1143.6841">catalogue</text></g><!--entity UC_Products--><g class="entity" data-qualified-name="Plateforme B2B FMCG Export.UC_Products" data-source-line="19" id="ent0005"><ellipse cx="1050.9624" cy="865.6838" fill="#FFFFFF" rx="50.1811" ry="37.5588" style="stroke:#319795;stroke-width:0.7813;"/><text fill="#2D3748" font-family="Segoe UI" font-size="18.75" lengthAdjust="spacing" textLength="45.5109" x="1028.2069" y="856.6902">Gerer</text><text fill="#2D3748" font-family="Segoe UI" font-size="18.75" lengthAdjust="spacing" textLength="69.0308" x="1016.447" y="881.6292">produits</text></g><!--entity UC_Suppliers--><g class="entity" data-qualified-name="Plateforme B2B FMCG Export.UC_Suppliers" data-source-line="20" id="ent0006"><ellipse cx="399.9873" cy="470.2475" fill="#FFFFFF" rx="68.7373" ry="36.6537" style="stroke:#319795;stroke-width:0.7813;"/><text fill="#2D3748" font-family="Segoe UI" font-size="18.75" lengthAdjust="spacing" textLength="45.5109" x="377.2318" y="459.8369">Gerer</text><text fill="#2D3748" font-family="Segoe UI" font-size="18.75" lengthAdjust="spacing" textLength="99.939" x="350.0178" y="484.7759">fournisseurs</text></g><!--entity UC_Brands--><g class="entity" data-qualified-name="Plateforme B2B FMCG Export.UC_Brands" data-source-line="21" id="ent0007"><ellipse cx="1050.9278" cy="1128.0587" fill="#FFFFFF" rx="51.709" ry="37.4337" style="stroke:#319795;stroke-width:0.7813;"/><text fill="#2D3748" font-family="Segoe UI" font-size="18.75" lengthAdjust="spacing" textLength="45.5109" x="1028.1723" y="1118.8726">Gerer</text><text fill="#2D3748" font-family="Segoe UI" font-size="18.75" lengthAdjust="spacing" textLength="71.6217" x="1015.1169" y="1143.8116">marques</text></g><!--entity UC_Categories--><g class="entity" data-qualified-name="Plateforme B2B FMCG Export.UC_Categories" data-source-line="22" id="ent0008"><ellipse cx="1050.4624" cy="997.01" fill="#FFFFFF" rx="96.5561" ry="38.4162" style="stroke:#319795;stroke-width:0.7813;"/><text fill="#2D3748" font-family="Segoe UI" font-size="18.75" lengthAdjust="spacing" textLength="135.8551" x="982.5348" y="993.7717">Gerer categories</text><text fill="#2D3748" font-family="Segoe UI" font-size="18.75" lengthAdjust="spacing" textLength="108.8745" x="996.0251" y="1018.7107">et taxonomie</text></g><!--entity UC_ConfigCategories--><g class="entity" data-qualified-name="Plateforme B2B FMCG Export.UC_ConfigCategories" data-source-line="23" id="ent0009"><ellipse cx="1051.0682" cy="335.6485" fill="#FFFFFF" rx="118.2557" ry="36.4297" style="stroke:#319795;stroke-width:0.7813;"/><text fill="#2D3748" font-family="Segoe UI" font-size="18.75" lengthAdjust="spacing" textLength="178.4546" x="961.8409" y="335.4816">Configurer categories</text><text fill="#2D3748" font-family="Segoe UI" font-size="18.75" lengthAdjust="spacing" textLength="69.0308" x="1016.5528" y="360.4205">produits</text></g><!--entity UC_ConfigAttributes--><g class="entity" data-qualified-name="Plateforme B2B FMCG Export.UC_ConfigAttributes" data-source-line="24" id="ent0010"><ellipse cx="727.6577" cy="242.3243" fill="#FFFFFF" rx="112.0327" ry="37.6368" style="stroke:#319795;stroke-width:0.7813;"/><text fill="#2D3748" font-family="Segoe UI" font-size="18.75" lengthAdjust="spacing" textLength="162.4969" x="646.4092" y="240.2607">Configurer attributs</text><text fill="#2D3748" font-family="Segoe UI" font-size="18.75" lengthAdjust="spacing" textLength="109.4696" x="672.9229" y="265.1997">par categorie</text></g><!--entity UC_ImportTemplates--><g class="entity" data-qualified-name="Plateforme B2B FMCG Export.UC_ImportTemplates" data-source-line="25" id="ent0011"><ellipse cx="399.711" cy="241.9566" fill="#FFFFFF" rx="116.1172" ry="36.4879" style="stroke:#319795;stroke-width:0.7813;"/><text fill="#2D3748" font-family="Segoe UI" font-size="18.75" lengthAdjust="spacing" textLength="174.7742" x="312.3239" y="241.6958">Configurer templates</text><text fill="#2D3748" font-family="Segoe UI" font-size="18.75" lengthAdjust="spacing" textLength="70.9259" x="364.248" y="266.6348">d'import</text></g><!--entity UC_SuperviseImports--><g class="entity" data-qualified-name="Plateforme B2B FMCG Export.UC_SuperviseImports" data-source-line="26" id="ent0012"><ellipse cx="727.3304" cy="998.4329" fill="#FFFFFF" rx="106.2367" ry="37.4954" style="stroke:#319795;stroke-width:0.7813;"/><text fill="#2D3748" font-family="Segoe UI" font-size="18.75" lengthAdjust="spacing" textLength="154.3854" x="650.1377" y="996.5863">Superviser imports</text><text fill="#2D3748" font-family="Segoe UI" font-size="18.75" lengthAdjust="spacing" textLength="99.939" x="677.361" y="1021.5253">fournisseurs</text></g><!--entity UC_ImportErrors--><g class="entity" data-qualified-name="Plateforme B2B FMCG Export.UC_ImportErrors" data-source-line="27" id="ent0013"><ellipse cx="1050.7665" cy="736.0392" fill="#FFFFFF" rx="96.079" ry="36.8205" style="stroke:#319795;stroke-width:0.7813;"/><text fill="#2D3748" font-family="Segoe UI" font-size="18.75" lengthAdjust="spacing" textLength="141.861" x="979.836" y="735.2468">Consulter erreurs</text><text fill="#2D3748" font-family="Segoe UI" font-size="18.75" lengthAdjust="spacing" textLength="70.9259" x="1015.3035" y="760.1857">d'import</text></g><!--entity UC_FoodNonFood--><g class="entity" data-qualified-name="Plateforme B2B FMCG Export.UC_FoodNonFood" data-source-line="28" id="ent0014"><ellipse cx="727.6094" cy="867.5621" fill="#FFFFFF" rx="105.7344" ry="39.4371" style="stroke:#319795;stroke-width:0.7813;"/><text fill="#2D3748" font-family="Segoe UI" font-size="18.75" lengthAdjust="spacing" textLength="136.1572" x="659.5308" y="861.3532">Valider structure</text><text fill="#2D3748" font-family="Segoe UI" font-size="18.75" lengthAdjust="spacing" textLength="145.0378" x="655.0905" y="886.2922">Food / Non-Food</text></g><!--entity UC_DataQuality--><g class="entity" data-qualified-name="Plateforme B2B FMCG Export.UC_DataQuality" data-source-line="29" id="ent0015"><ellipse cx="399.8323" cy="993.8093" fill="#FFFFFF" rx="121.7073" ry="38.3406" style="stroke:#319795;stroke-width:0.7813;"/><text fill="#2D3748" font-family="Segoe UI" font-size="18.75" lengthAdjust="spacing" textLength="173.4375" x="313.1136" y="990.6836">Controler qualite des</text><text fill="#2D3748" font-family="Segoe UI" font-size="18.75" lengthAdjust="spacing" textLength="137.027" x="331.3188" y="1015.6225">donnees produit</text></g><!--entity UC_ExportRules--><g class="entity" data-qualified-name="Plateforme B2B FMCG Export.UC_ExportRules" data-source-line="30" id="ent0016"><ellipse cx="400.1886" cy="732.7594" fill="#FFFFFF" rx="107.2198" ry="39.7906" style="stroke:#319795;stroke-width:0.7813;"/><text fill="#2D3748" font-family="Segoe UI" font-size="18.75" lengthAdjust="spacing" textLength="142.9138" x="328.7317" y="727.0555">Configurer regles</text><text fill="#2D3748" font-family="Segoe UI" font-size="18.75" lengthAdjust="spacing" textLength="145.6879" x="327.3446" y="751.9944">d'export acheteur</text></g><!--entity UC_ExportFields--><g class="entity" data-qualified-name="Plateforme B2B FMCG Export.UC_ExportFields" data-source-line="31" id="ent0017"><ellipse cx="727.2388" cy="601.5219" fill="#FFFFFF" rx="88.1763" ry="38.2407" style="stroke:#319795;stroke-width:0.7813;"/><text fill="#2D3748" font-family="Segoe UI" font-size="18.75" lengthAdjust="spacing" textLength="124.1089" x="665.1843" y="598.5452">Definir champs</text><text fill="#2D3748" font-family="Segoe UI" font-size="18.75" lengthAdjust="spacing" textLength="96.1578" x="679.1598" y="623.4842">exportables</text></g><!--entity UC_BulkImport--><g class="entity" data-qualified-name="Plateforme B2B FMCG Export.UC_BulkImport" data-source-line="32" id="ent0018"><ellipse cx="400.1568" cy="864.2665" fill="#FFFFFF" rx="99.3756" ry="36.9228" style="stroke:#319795;stroke-width:0.7813;"/><text fill="#2D3748" font-family="Segoe UI" font-size="18.75" lengthAdjust="spacing" textLength="146.5118" x="326.9009" y="863.3122">Importer produits</text><text fill="#2D3748" font-family="Segoe UI" font-size="18.75" lengthAdjust="spacing" textLength="76.9592" x="361.6772" y="888.2512">en masse</text></g><!--entity UC_EAN--><g class="entity" data-qualified-name="Plateforme B2B FMCG Export.UC_EAN" data-source-line="33" id="ent0019"><ellipse cx="727.0079" cy="734.7368" fill="#FFFFFF" rx="77.7891" ry="39.4243" style="stroke:#319795;stroke-width:0.7813;"/><text fill="#2D3748" font-family="Segoe UI" font-size="18.75" lengthAdjust="spacing" textLength="98.3734" x="677.8212" y="728.5096">Valider EAN</text><text fill="#2D3748" font-family="Segoe UI" font-size="18.75" lengthAdjust="spacing" textLength="104.9652" x="674.5253" y="753.4485">et anomalies</text></g><!--entity UC_Content--><g class="entity" data-qualified-name="Plateforme B2B FMCG Export.UC_Content" data-source-line="34" id="ent0020"><ellipse cx="400.1251" cy="1126.6284" fill="#FFFFFF" rx="79.0313" ry="39.1284" style="stroke:#319795;stroke-width:0.7813;"/><text fill="#2D3748" font-family="Segoe UI" font-size="18.75" lengthAdjust="spacing" textLength="107.666" x="346.2921" y="1122.3452">Moderer avis</text><text fill="#2D3748" font-family="Segoe UI" font-size="18.75" lengthAdjust="spacing" textLength="96.8903" x="351.6799" y="1147.2842">et contenus</text></g><!--entity UC_Sponsoring--><g class="entity" data-qualified-name="Plateforme B2B FMCG Export.UC_Sponsoring" data-source-line="35" id="ent0021"><ellipse cx="399.8778" cy="599.9375" fill="#FFFFFF" rx="99.8778" ry="37.4375" style="stroke:#319795;stroke-width:0.7813;"/><text fill="#2D3748" font-family="Segoe UI" font-size="18.75" lengthAdjust="spacing" textLength="144.9738" x="327.3909" y="598.1801">Gerer campagnes</text><text fill="#2D3748" font-family="Segoe UI" font-size="18.75" lengthAdjust="spacing" textLength="92.2302" x="353.7627" y="623.1191">sponsoring</text></g><!--entity UC_Analytics--><g class="entity" data-qualified-name="Plateforme B2B FMCG Export.UC_Analytics" data-source-line="36" id="ent0022"><ellipse cx="727.1586" cy="468.7895" fill="#FFFFFF" rx="59.1898" ry="39.102" style="stroke:#319795;stroke-width:0.7813;"/><text fill="#2D3748" font-family="Segoe UI" font-size="18.75" lengthAdjust="spacing" textLength="78.9917" x="687.6627" y="464.5446">Consulter</text><text fill="#2D3748" font-family="Segoe UI" font-size="18.75" lengthAdjust="spacing" textLength="70.816" x="691.7506" y="489.4836">analytics</text></g><!--entity UC_CMS--><g class="entity" data-qualified-name="Plateforme B2B FMCG Export.UC_CMS" data-source-line="37" id="ent0023"><ellipse cx="400.3868" cy="112.3783" fill="#FFFFFF" rx="64.4493" ry="38.1595" style="stroke:#319795;stroke-width:0.7813;"/><text fill="#2D3748" font-family="Segoe UI" font-size="18.75" lengthAdjust="spacing" textLength="89.0533" x="355.8601" y="109.5231">Gerer CMS</text><text fill="#2D3748" font-family="Segoe UI" font-size="18.75" lengthAdjust="spacing" textLength="67.868" x="366.4528" y="134.462">editorial</text></g><!--entity Admin--><g class="entity" data-qualified-name="Admin" data-source-line="14" id="ent0001"><ellipse cx="96.9181" cy="685.9375" fill="#E53E3E" rx="12.5" ry="12.5" style="stroke:#2B6CB0;stroke-width:0.7813;"/><path d="M96.9181,698.4375 L96.9181,740.625 M76.6056,710.9375 L117.2306,710.9375 M96.9181,740.625 L76.6056,764.0625 M96.9181,740.625 L117.2306,764.0625" fill="none" style="stroke:#2B6CB0;stroke-width:0.7813;"/><text fill="#1A365D" font-family="Segoe UI" font-size="20.3125" font-weight="700" lengthAdjust="spacing" textLength="175.0862" x="9.375" y="788.3255">Admin Plateforme</text></g><!--link Admin to UC_Login--><g class="link" data-entity-1="ent0001" data-entity-2="ent0003" data-link-type="dependency" data-source-line="40" id="lnk24"><path d="M96.875,672.3125 C96.875,565.8594 96.875,356.25 96.875,356.25 C96.875,356.25 221.5625,356.25 311.3594,356.25" fill="none" id="Admin-to-UC_Login" style="stroke:#2B6CB0;stroke-width:2.3438;"/><polygon fill="#2B6CB0" points="319.1719,356.25,305.1094,350,311.3594,356.25,305.1094,362.5,319.1719,356.25" style="stroke:#2B6CB0;stroke-width:2.3438;stroke-linejoin:miter;stroke-miterlimit:10;"/></g><!--link Admin to UC_Catalog--><g class="link" data-entity-1="ent0001" data-entity-2="ent0004" data-link-type="dependency" data-source-line="41" id="lnk25"><path d="M184.4531,783.2031 C312.9531,783.2031 537.5,783.2031 537.5,783.2031 C537.5,783.2031 537.5,1115.8906 537.5,1115.8906 C537.5,1115.8906 609.5156,1115.8906 665.6406,1115.8906" fill="none" id="Admin-to-UC_Catalog" style="stroke:#2B6CB0;stroke-width:2.3438;"/><polygon fill="#2B6CB0" points="673.4531,1115.8906,659.3906,1109.6406,665.6406,1115.8906,659.3906,1122.1406,673.4531,1115.8906" style="stroke:#2B6CB0;stroke-width:2.3438;stroke-linejoin:miter;stroke-miterlimit:10;"/></g><!--link Admin to UC_Suppliers--><g class="link" data-entity-1="ent0001" data-entity-2="ent0006" data-link-type="dependency" data-source-line="42" id="lnk26"><path d="M140.625,672.5938 C140.625,595.0938 140.625,470.3125 140.625,470.3125 C140.625,470.3125 246.5156,470.3125 323.3594,470.3125" fill="none" id="Admin-to-UC_Suppliers" style="stroke:#2B6CB0;stroke-width:2.3438;"/><polygon fill="#2B6CB0" points="331.1719,470.3125,317.1094,464.0625,323.3594,470.3125,317.1094,476.5625,331.1719,470.3125" style="stroke:#2B6CB0;stroke-width:2.3438;stroke-linejoin:miter;stroke-miterlimit:10;"/></g><!--link Admin to UC_BulkImport--><g class="link" data-entity-1="ent0001" data-entity-2="ent0018" data-link-type="dependency" data-source-line="43" id="lnk27"><path d="M184.5469,788.0938 C274.0781,788.0938 400,788.0938 400,788.0938 C400,788.0938 400,799.8594 400,819.1563" fill="none" id="Admin-to-UC_BulkImport" style="stroke:#2B6CB0;stroke-width:2.3438;"/><polygon fill="#2B6CB0" points="400,826.9688,406.25,812.9063,400,819.1563,393.75,812.9063,400,826.9688" style="stroke:#2B6CB0;stroke-width:2.3438;stroke-linejoin:miter;stroke-miterlimit:10;"/></g><!--link Admin to UC_Content--><g class="link" data-entity-1="ent0001" data-entity-2="ent0020" data-link-type="dependency" data-source-line="44" id="lnk28"><path d="M96.875,793.0469 C96.875,903.3438 96.875,1126.5625 96.875,1126.5625 C96.875,1126.5625 223.125,1126.5625 312.9375,1126.5625" fill="none" id="Admin-to-UC_Content" style="stroke:#2B6CB0;stroke-width:2.3438;"/><polygon fill="#2B6CB0" points="320.75,1126.5625,306.6875,1120.3125,312.9375,1126.5625,306.6875,1132.8125,320.75,1126.5625" style="stroke:#2B6CB0;stroke-width:2.3438;stroke-linejoin:miter;stroke-miterlimit:10;"/></g><!--link Admin to UC_Sponsoring--><g class="link" data-entity-1="ent0001" data-entity-2="ent0021" data-link-type="dependency" data-source-line="45" id="lnk29"><path d="M184.5469,682.8125 C274.0781,682.8125 400,682.8125 400,682.8125 C400,682.8125 400,667.25 400,645.3438" fill="none" id="Admin-to-UC_Sponsoring" style="stroke:#2B6CB0;stroke-width:2.3438;"/><polygon fill="#2B6CB0" points="400,637.5313,393.75,651.5938,400,645.3438,406.25,651.5938,400,637.5313" style="stroke:#2B6CB0;stroke-width:2.3438;stroke-linejoin:miter;stroke-miterlimit:10;"/></g><!--link Admin to UC_CMS--><g class="link" data-entity-1="ent0001" data-entity-2="ent0023" data-link-type="dependency" data-source-line="46" id="lnk30"><path d="M53.125,672.2031 C53.125,516.125 53.125,112.5 53.125,112.5 C53.125,112.5 227.4375,112.5 327.75,112.5" fill="none" id="Admin-to-UC_CMS" style="stroke:#2B6CB0;stroke-width:2.3438;"/><polygon fill="#2B6CB0" points="335.5625,112.5,321.5,106.25,327.75,112.5,321.5,118.75,335.5625,112.5" style="stroke:#2B6CB0;stroke-width:2.3438;stroke-linejoin:miter;stroke-miterlimit:10;"/></g><!--link Admin to UC_SuperviseImports--><g class="link" data-entity-1="ent0001" data-entity-2="ent0012" data-link-type="dependency" data-source-line="47" id="lnk31"><path d="M184.8438,778.3125 C317.4219,778.3125 553.125,778.3125 553.125,778.3125 C553.125,778.3125 553.125,978.7188 553.125,978.7188 C553.125,978.7188 586.5156,978.7188 628.8438,978.7188" fill="none" id="Admin-to-UC_SuperviseImports" style="stroke:#2B6CB0;stroke-width:2.3438;"/><polygon fill="#2B6CB0" points="636.6563,978.7188,622.5938,972.4688,628.8438,978.7188,622.5938,984.9688,636.6563,978.7188" style="stroke:#2B6CB0;stroke-width:2.3438;stroke-linejoin:miter;stroke-miterlimit:10;"/></g><!--link Admin to UC_ExportRules--><g class="link" data-entity-1="ent0001" data-entity-2="ent0016" data-link-type="dependency" data-source-line="48" id="lnk32"><path d="M184.5469,732.8125 C218.2969,732.8125 249.4063,732.8125 284.7969,732.8125" fill="none" id="Admin-to-UC_ExportRules" style="stroke:#2B6CB0;stroke-width:2.3438;"/><polygon fill="#2B6CB0" points="292.6094,732.8125,278.5469,726.5625,284.7969,732.8125,278.5469,739.0625,292.6094,732.8125" style="stroke:#2B6CB0;stroke-width:2.3438;stroke-linejoin:miter;stroke-miterlimit:10;"/></g><!--link UC_Catalog to UC_Products--><g class="link" data-entity-1="ent0004" data-entity-2="ent0005" data-link-type="dependency" data-source-line="50" id="lnk33"><path d="M773.125,1106.0938 C824.7344,1106.0938 901.5625,1106.0938 901.5625,1106.0938 C901.5625,1106.0938 901.5625,865.625 901.5625,865.625 C901.5625,865.625 949.5156,865.625 992.8594,865.625" fill="none" id="UC_Catalog-to-UC_Products" style="stroke:#2B6CB0;stroke-width:2.3438;stroke-dasharray:10.9375,10.9375;"/><polygon fill="#2B6CB0" points="1000.6719,865.625,986.6094,859.375,992.8594,865.625,986.6094,871.875,1000.6719,865.625" style="stroke:#2B6CB0;stroke-width:2.3438;stroke-linejoin:miter;stroke-miterlimit:10;"/><text fill="#4A5568" font-family="Segoe UI" font-size="15.625" lengthAdjust="spacing" textLength="65.6509" x="834.375" y="1018.9547">&#171;include&#187;</text></g><!--link UC_Catalog to UC_Brands--><g class="link" data-entity-1="ent0004" data-entity-2="ent0007" data-link-type="dependency" data-source-line="51" id="lnk34"><path d="M773,1150.1563 C835.8594,1150.1563 940.3594,1150.1563 1001.1406,1150.1563" fill="none" id="UC_Catalog-to-UC_Brands" style="stroke:#2B6CB0;stroke-width:2.3438;stroke-dasharray:10.9375,10.9375;"/><polygon fill="#2B6CB0" points="1008.9531,1150.1563,994.8906,1143.9063,1001.1406,1150.1563,994.8906,1156.4063,1008.9531,1150.1563" style="stroke:#2B6CB0;stroke-width:2.3438;stroke-linejoin:miter;stroke-miterlimit:10;"/><text fill="#4A5568" font-family="Segoe UI" font-size="15.625" lengthAdjust="spacing" textLength="65.6509" x="823.7813" y="1168.5797">&#171;include&#187;</text></g><!--link UC_Catalog to UC_Categories--><g class="link" data-entity-1="ent0004" data-entity-2="ent0008" data-link-type="dependency" data-source-line="52" id="lnk35"><path d="M783.2656,1135.4688 C856.75,1135.4688 976.5625,1135.4688 976.5625,1135.4688 C976.5625,1135.4688 976.5625,1069.3281 976.5625,1029.4688" fill="none" id="UC_Catalog-to-UC_Categories" style="stroke:#2B6CB0;stroke-width:2.3438;stroke-dasharray:10.9375,10.9375;"/><polygon fill="#2B6CB0" points="976.5625,1021.6563,970.3125,1035.7188,976.5625,1029.4688,982.8125,1035.7188,976.5625,1021.6563" style="stroke:#2B6CB0;stroke-width:2.3438;stroke-linejoin:miter;stroke-miterlimit:10;"/><text fill="#4A5568" font-family="Segoe UI" font-size="15.625" lengthAdjust="spacing" textLength="65.6509" x="869.6406" y="1130.4547">&#171;include&#187;</text></g><!--link UC_Catalog to UC_ConfigCategories--><g class="link" data-entity-1="ent0004" data-entity-2="ent0009" data-link-type="dependency" data-source-line="53" id="lnk36"><path d="M783.6406,1120.7813 C847.75,1120.7813 943.75,1120.7813 943.75,1120.7813 C943.75,1120.7813 943.75,470.0469 943.75,359.4219" fill="none" id="UC_Catalog-to-UC_ConfigCategories" style="stroke:#2B6CB0;stroke-width:2.3438;stroke-dasharray:10.9375,10.9375;"/><polygon fill="#2B6CB0" points="943.75,351.6094,937.5,365.6719,943.75,359.4219,950,365.6719,943.75,351.6094" style="stroke:#2B6CB0;stroke-width:2.3438;stroke-linejoin:miter;stroke-miterlimit:10;"/><text fill="#4A5568" font-family="Segoe UI" font-size="15.625" lengthAdjust="spacing" textLength="65.6509" x="876.5625" y="834.6735">&#171;include&#187;</text></g><!--link UC_BulkImport to UC_EAN--><g class="link" data-entity-1="ent0018" data-entity-2="ent0019" data-link-type="dependency" data-source-line="54" id="lnk37"><path d="M494.3438,852.3438 C539.7031,852.3438 584.375,852.3438 584.375,852.3438 C584.375,852.3438 584.375,746.875 584.375,746.875 C584.375,746.875 610.375,746.875 645.1094,746.875" fill="none" id="UC_BulkImport-to-UC_EAN" style="stroke:#2B6CB0;stroke-width:2.3438;stroke-dasharray:10.9375,10.9375;"/><polygon fill="#2B6CB0" points="652.9219,746.875,638.8594,740.625,645.1094,746.875,638.8594,753.125,652.9219,746.875" style="stroke:#2B6CB0;stroke-width:2.3438;stroke-linejoin:miter;stroke-miterlimit:10;"/><text fill="#4A5568" font-family="Segoe UI" font-size="15.625" lengthAdjust="spacing" textLength="65.6509" x="517.1875" y="828.7672">&#171;include&#187;</text></g><!--link UC_Sponsoring to UC_Analytics--><g class="link" data-entity-1="ent0021" data-entity-2="ent0022" data-link-type="dependency" data-source-line="55" id="lnk38"><path d="M493.75,586.6094 C493.75,553.4688 493.75,470.3125 493.75,470.3125 C493.75,470.3125 590.7656,470.3125 659.9844,470.3125" fill="none" id="UC_Sponsoring-to-UC_Analytics" style="stroke:#2B6CB0;stroke-width:2.3438;stroke-dasharray:10.9375,10.9375;"/><polygon fill="#2B6CB0" points="667.7969,470.3125,653.7344,464.0625,659.9844,470.3125,653.7344,476.5625,667.7969,470.3125" style="stroke:#2B6CB0;stroke-width:2.3438;stroke-linejoin:miter;stroke-miterlimit:10;"/><text fill="#4A5568" font-family="Segoe UI" font-size="15.625" lengthAdjust="spacing" textLength="65.6509" x="524.1875" y="488.736">&#171;include&#187;</text></g><!--link UC_ConfigAttributes to UC_ConfigCategories--><g class="link" data-entity-1="ent0010" data-entity-2="ent0009" data-link-type="dependency" data-source-line="57" id="lnk39"><path d="M825,260.9063 C825,281.1875 825,310.6719 825,310.6719 C825,310.6719 893.1563,310.6719 956.9688,310.6719" fill="none" id="UC_ConfigAttributes-to-UC_ConfigCategories" style="stroke:#2B6CB0;stroke-width:2.3438;stroke-dasharray:10.9375,10.9375;"/><polygon fill="#2B6CB0" points="964.7813,310.6719,950.7188,304.4219,956.9688,310.6719,950.7188,316.9219,964.7813,310.6719" style="stroke:#2B6CB0;stroke-width:2.3438;stroke-linejoin:miter;stroke-miterlimit:10;"/><text fill="#4A5568" font-family="Segoe UI" font-size="15.625" lengthAdjust="spacing" textLength="65.6509" x="802.8125" y="329.0953">&#171;include&#187;</text></g><!--link UC_ImportTemplates to UC_ConfigAttributes--><g class="link" data-entity-1="ent0011" data-entity-2="ent0010" data-link-type="dependency" data-source-line="58" id="lnk40"><path d="M516.7969,242.1875 C548.9219,242.1875 575.875,242.1875 607.7188,242.1875" fill="none" id="UC_ImportTemplates-to-UC_ConfigAttributes" style="stroke:#2B6CB0;stroke-width:2.3438;stroke-dasharray:10.9375,10.9375;"/><polygon fill="#2B6CB0" points="615.5313,242.1875,601.4688,235.9375,607.7188,242.1875,601.4688,248.4375,615.5313,242.1875" style="stroke:#2B6CB0;stroke-width:2.3438;stroke-linejoin:miter;stroke-miterlimit:10;"/><text fill="#4A5568" font-family="Segoe UI" font-size="15.625" lengthAdjust="spacing" textLength="65.6509" x="498.9687" y="260.611">&#171;include&#187;</text></g><!--link UC_ImportTemplates to UC_ConfigCategories--><g class="link" data-entity-1="ent0011" data-entity-2="ent0009" data-link-type="dependency" data-source-line="59" id="lnk41"><path d="M487.5,266.6094 C487.5,290.125 487.5,322.1406 487.5,322.1406 C487.5,322.1406 769.0938,322.1406 933.0313,322.1406" fill="none" id="UC_ImportTemplates-to-UC_ConfigCategories" style="stroke:#2B6CB0;stroke-width:2.3438;stroke-dasharray:10.9375,10.9375;"/><polygon fill="#2B6CB0" points="940.8438,322.1406,926.7813,315.8906,933.0313,322.1406,926.7813,328.3906,940.8438,322.1406" style="stroke:#2B6CB0;stroke-width:2.3438;stroke-linejoin:miter;stroke-miterlimit:10;"/><text fill="#4A5568" font-family="Segoe UI" font-size="15.625" lengthAdjust="spacing" textLength="65.6509" x="619.2188" y="340.5641">&#171;include&#187;</text></g><!--link UC_SuperviseImports to UC_ImportErrors--><g class="link" data-entity-1="ent0012" data-entity-2="ent0013" data-link-type="dependency" data-source-line="60" id="lnk42"><path d="M834.2344,998.0469 C854.9219,998.0469 870.3125,998.0469 870.3125,998.0469 C870.3125,998.0469 870.3125,735.9375 870.3125,735.9375 C870.3125,735.9375 903.4844,735.9375 946.3906,735.9375" fill="none" id="UC_SuperviseImports-to-UC_ImportErrors" style="stroke:#2B6CB0;stroke-width:2.3438;stroke-dasharray:10.9375,10.9375;"/><polygon fill="#2B6CB0" points="954.2031,735.9375,940.1406,729.6875,946.3906,735.9375,940.1406,742.1875,954.2031,735.9375" style="stroke:#2B6CB0;stroke-width:2.3438;stroke-linejoin:miter;stroke-miterlimit:10;"/><text fill="#4A5568" font-family="Segoe UI" font-size="15.625" lengthAdjust="spacing" textLength="65.6509" x="871.875" y="861.5016">&#171;include&#187;</text></g><!--link UC_ExportRules to UC_ExportFields--><g class="link" data-entity-1="ent0016" data-entity-2="ent0017" data-link-type="dependency" data-source-line="61" id="lnk43"><path d="M502.5469,721.0938 C537.875,721.0938 568.75,721.0938 568.75,721.0938 C568.75,721.0938 568.75,600.3906 568.75,600.3906 C568.75,600.3906 594.6406,600.3906 630.9531,600.3906" fill="none" id="UC_ExportRules-to-UC_ExportFields" style="stroke:#2B6CB0;stroke-width:2.3438;stroke-dasharray:10.9375,10.9375;"/><polygon fill="#2B6CB0" points="638.7656,600.3906,624.7031,594.1406,630.9531,600.3906,624.7031,606.6406,638.7656,600.3906" style="stroke:#2B6CB0;stroke-width:2.3438;stroke-linejoin:miter;stroke-miterlimit:10;"/><text fill="#4A5568" font-family="Segoe UI" font-size="15.625" lengthAdjust="spacing" textLength="65.6509" x="501.5625" y="677.2516">&#171;include&#187;</text></g><!--link UC_DataQuality to UC_FoodNonFood--><g class="link" data-entity-1="ent0015" data-entity-2="ent0014" data-link-type="dependency" data-source-line="63" id="lnk44"><path d="M502.9219,1014.25 C551.9375,1014.25 600,1014.25 600,1014.25 C600,1014.25 600,876.5625 600,876.5625 C600,876.5625 602.2656,876.5625 616.7344,876.5625" fill="none" id="UC_DataQuality-to-UC_FoodNonFood" style="stroke:#2B6CB0;stroke-width:2.3438;stroke-dasharray:10.9375,10.9375;"/><polygon fill="#2B6CB0" points="624.5469,876.5625,610.4844,870.3125,616.7344,876.5625,610.4844,882.8125,624.5469,876.5625" style="stroke:#2B6CB0;stroke-width:2.3438;stroke-linejoin:miter;stroke-miterlimit:10;"/><text fill="#4A5568" font-family="Segoe UI" font-size="15.625" lengthAdjust="spacing" textLength="62.6602" x="535.9375" y="976.6578">&#171;extend&#187;</text></g><!--link UC_DataQuality to UC_SuperviseImports--><g class="link" data-entity-1="ent0015" data-entity-2="ent0012" data-link-type="dependency" data-source-line="64" id="lnk45"><path d="M521.8906,996.4844 C554.4219,996.4844 581.5156,996.4844 613.1406,996.4844" fill="none" id="UC_DataQuality-to-UC_SuperviseImports" style="stroke:#2B6CB0;stroke-width:2.3438;stroke-dasharray:10.9375,10.9375;"/><polygon fill="#2B6CB0" points="620.9531,996.4844,606.8906,990.2344,613.1406,996.4844,606.8906,1002.7344,620.9531,996.4844" style="stroke:#2B6CB0;stroke-width:2.3438;stroke-linejoin:miter;stroke-miterlimit:10;"/><text fill="#4A5568" font-family="Segoe UI" font-size="15.625" lengthAdjust="spacing" textLength="62.6602" x="507.3594" y="1014.9078">&#171;extend&#187;</text></g><!--link UC_Content to UC_Catalog--><g class="link" data-entity-1="ent0020" data-entity-2="ent0004" data-link-type="dependency" data-source-line="65" id="lnk46"><path d="M473.875,1140.3594 C534.4063,1140.3594 610.8594,1140.3594 665.2969,1140.3594" fill="none" id="UC_Content-to-UC_Catalog" style="stroke:#2B6CB0;stroke-width:2.3438;stroke-dasharray:10.9375,10.9375;"/><polygon fill="#2B6CB0" points="673.1094,1140.3594,659.0469,1134.1094,665.2969,1140.3594,659.0469,1146.6094,673.1094,1140.3594" style="stroke:#2B6CB0;stroke-width:2.3438;stroke-linejoin:miter;stroke-miterlimit:10;"/><text fill="#4A5568" font-family="Segoe UI" font-size="15.625" lengthAdjust="spacing" textLength="62.6602" x="509.4219" y="1158.7828">&#171;extend&#187;</text></g><?plantuml-src bLLDRzD04BtxLmpf0JYqfQrQ8LHLIjAaGY9L8OLJ9BIr9yugwrrtFr0Buhypwy-rur0u9Hw_UJCxy_Rv5PUnS0d2qT5nhB9CoMDZdmKUvIuJKMIsNEPCimmqnfR9L23yYW0cIYUefqee3GUdaulfv5qJlT_mU2lH63ZrCHPlKwsSJ2hqR39_Fv_JcxcIjegTZCykpg-hs9B_H3Yvg9zyD_2WH1BzZYA1QmjMWURfnaB2VLTSoIXYiIMYqJZ9k8GxmIokbSvm1Cn06JoOdP_DpcPHr9var09XSZg1-M9w0xEdN6axAexf3CRC8BnP8iHAIif4_TPpVfr-_wHIBaFG3MhKAnapouHA7TR0QHaOWEPQ9OvRKoFl_7DipG1qhPoMt1Xqke4lNPuBZde8dp7zwB21JZIJoIuEg5bCbUPeLX9fjEn9IPNniFVgVPWxLNBDKzSdw1-dXBr8mQpL_C5Ppy02nYxDk4BjfR6OvNwVH9EyvfdVOitmiNYwhm6TpReSzGzkYA3CCNjdNU9AhduJnWcI1g3MFcbV1pEjLNTRtvZWT6V0M4sBftEiv5of18xXLib3_xTcyFyfvdzwjQrMWYWU7N5PXAIOW5Sh6gXMKfDSanG_5xZdFLFKI3UZE00M5m5Ol45BXwefollnnOdk7AznpIMdxMrObdin5J3s85eDbfbpZgAhn78sLBlM3sLBo1Wje96l4ziIDZIysVYsK2yZwL8eg3Y-3V4BbHIYPxJ78e7kj4NfGi7Iinsw9bdEKka7OtBQDibJfeqqciYWA5QIIIQUBO-REkCwi5jfkbXIQmadE-DCD8qjbjx-IYSxFBng_QSJgfsc4snTeXCEHjhbg6RGvMYFs0LJN_rYtMlIUHjg9shxfO_FLMX_y04kBwiFqzNL0B1qinTXhVEy3ErPrMv2EwywXzIr2sidLSEQPVV0qO2r_NixFKlh9WQ4_vVujuhzrTQPeRNjPWKhR-OM-C30J0AFgZC2xoiIy8aacfG51k0xdVPpAeq7EYcqq87z0G00?></g></svg>