<svg xmlns="http://www.w3.org/2000/svg" xmlns:xlink="http://www.w3.org/1999/xlink" contentStyleType="text/css" data-diagram-type="CLASS" height="2628.3333px" preserveAspectRatio="none" style="width:3611px;height:2628px;background:#FFFFFF;" version="1.1" viewBox="0 0 3611 2628" width="3611.6667px" zoomAndPan="magnify"><?plantuml 1.2026.4?><defs/><g><g class="title" data-source-line="2"><text fill="#17313B" font-family="Segoe UI" font-size="30" font-weight="700" lengthAdjust="spacing" textLength="790.4004" x="1404.7998" y="49.0397">Diagramme de classes - Noyau metier B2B FMCG Export</text></g><!--cluster Catalogue--><g class="cluster" data-qualified-name="Catalogue" data-source-line="6" id="ent0001"><rect fill="none" height="1991.6667" rx="8.3333" ry="8.3333" style="stroke:#000000;stroke-width:2.5;" width="1010" x="2155" y="86.569"/><text fill="#000000" font-family="Segoe UI" font-size="21.6667" font-weight="700" lengthAdjust="spacing" textLength="102.9167" x="2608.5417" y="113.2829">Catalogue</text></g><!--cluster Commerce et relation--><g class="cluster" data-qualified-name="Commerce et relation" data-source-line="93" id="ent0009"><rect fill="none" height="1295.8333" rx="8.3333" ry="8.3333" style="stroke:#000000;stroke-width:2.5;" width="995" x="1120" y="1089.069"/><text fill="#000000" font-family="Segoe UI" font-size="21.6667" font-weight="700" lengthAdjust="spacing" textLength="220.1367" x="1507.4316" y="1115.7829">Commerce et relation</text></g><!--cluster Validation fournisseur--><g class="cluster" data-qualified-name="Validation fournisseur" data-source-line="139" id="ent0015"><rect fill="none" height="852.5" rx="8.3333" ry="8.3333" style="stroke:#000000;stroke-width:2.5;" width="383.3333" x="3205" y="623.2357"/><text fill="#000000" font-family="Segoe UI" font-size="21.6667" font-weight="700" lengthAdjust="spacing" textLength="225.4793" x="3283.927" y="649.9495">Validation fournisseur</text></g><!--cluster Acteurs relies--><g class="cluster" data-qualified-name="Acteurs relies" data-source-line="157" id="ent0018"><rect fill="none" height="720.8333" rx="8.3333" ry="8.3333" style="stroke:#000000;stroke-width:2.5;" width="1068.3333" x="11.6667" y="689.069"/><text fill="#000000" font-family="Segoe UI" font-size="21.6667" font-weight="700" lengthAdjust="spacing" textLength="136.9401" x="477.3633" y="715.7829">Acteurs relies</text></g><!--class SupplierCompany--><g class="entity" data-qualified-name="Catalogue.SupplierCompany" data-source-line="7" id="ent0002"><rect fill="#FCFEFE" height="422.487" rx="8.3333" ry="8.3333" style="stroke:#335C67;stroke-width:0.8333;" width="424.7795" x="2182.5" y="146.569"/><rect fill="#E6F2F3" height="50" rx="8.3333" ry="8.3333" style="stroke:#E6F2F3;stroke-width:0.8333;" width="424.7795" x="2182.5" y="146.569"/><rect fill="#E6F2F3" height="8.3333" style="stroke:#E6F2F3;stroke-width:0.8333;" width="424.7795" x="2182.5" y="188.2357"/><rect fill="none" height="422.487" rx="8.3333" ry="8.3333" style="stroke:#335C67;stroke-width:0.8333;" width="424.7795" x="2182.5" y="146.569"/><ellipse cx="2303.2808" cy="171.569" fill="#ADD1B2" rx="16.6667" ry="16.6667" style="stroke:#181818;stroke-width:1.6667;"/><path d="M2304.8433,165.9701 Q2305.0517,165.6836 2305.2861,165.5534 Q2305.5204,165.4232 2305.8069,165.4232 Q2306.2756,165.4232 2306.5621,165.7617 Q2306.8746,166.0742 2306.8746,166.8555 L2306.8746,168.7044 Q2306.8746,169.4857 2306.5621,169.8242 Q2306.2756,170.1367 2305.8069,170.1367 Q2305.3642,170.1367 2305.1038,169.9023 Q2304.8433,169.668 2304.7131,168.9909 Q2304.635,168.5482 2304.4267,168.3138 Q2303.984,167.819 2303.2027,167.5326 Q2302.4215,167.2461 2301.6402,167.2461 Q2300.6767,167.2461 2299.8433,167.6888 Q2299.0361,168.1055 2298.4111,169.069 Q2297.7861,170.0065 2297.7861,171.3086 L2297.7861,172.7148 Q2297.7861,174.2773 2298.9319,175.3451 Q2300.0777,176.3867 2302.0829,176.3867 Q2303.3069,176.3867 2304.1402,176.0482 Q2304.609,175.8659 2305.1558,175.293 Q2305.4944,174.9544 2305.6767,174.8763 Q2305.885,174.7721 2306.1194,174.7721 Q2306.5621,174.7721 2306.8746,175.1107 Q2307.2131,175.4232 2307.2131,175.8659 Q2307.2131,176.3086 2306.7704,176.8294 Q2306.1194,177.5586 2305.1038,177.9753 Q2303.7496,178.5482 2302.109,178.5482 Q2300.1819,178.5482 2298.6194,177.7669 Q2297.3694,177.1159 2296.484,175.7617 Q2295.6246,174.3815 2295.6246,172.7669 L2295.6246,171.2826 Q2295.6246,169.5898 2296.4058,168.1315 Q2297.2131,166.6732 2298.5933,165.8919 Q2299.9996,165.0846 2301.5621,165.0846 Q2302.4996,165.0846 2303.3069,165.319 Q2304.1402,165.5273 2304.8433,165.9701 Z " fill="#000000"/><text fill="#000000" font-family="Segoe UI" font-size="21.6667" lengthAdjust="spacing" textLength="169.8844" x="2334.9475" y="180.5404">SupplierCompany</text><line style="stroke:#335C67;stroke-width:0.8333;" x1="2184.1667" x2="2605.6128" y1="196.569" y2="196.569"/><text fill="#000000" font-family="Segoe UI" font-size="21.6667" lengthAdjust="spacing" textLength="88.0314" x="2192.5" y="226.6162">-id: UUID</text><text fill="#000000" font-family="Segoe UI" font-size="21.6667" lengthAdjust="spacing" textLength="218.7297" x="2192.5" y="255.4346">-companyName: string</text><text fill="#000000" font-family="Segoe UI" font-size="21.6667" lengthAdjust="spacing" textLength="146.2183" x="2192.5" y="284.2529">-country: string</text><text fill="#000000" font-family="Segoe UI" font-size="21.6667" lengthAdjust="spacing" textLength="169.8315" x="2192.5" y="313.0713">-address: Address</text><text fill="#000000" font-family="Segoe UI" font-size="21.6667" lengthAdjust="spacing" textLength="280.048" x="2192.5" y="341.8896">-tradeRegisterNumber: string</text><text fill="#000000" font-family="Segoe UI" font-size="21.6667" lengthAdjust="spacing" textLength="146.4722" x="2192.5" y="370.708">-website: string</text><text fill="#000000" font-family="Segoe UI" font-size="21.6667" lengthAdjust="spacing" textLength="122.5098" x="2192.5" y="399.5264">-logo: Media</text><text fill="#000000" font-family="Segoe UI" font-size="21.6667" lengthAdjust="spacing" textLength="253.9274" x="2192.5" y="428.3447">-description: LocalizedText</text><text fill="#000000" font-family="Segoe UI" font-size="21.6667" lengthAdjust="spacing" textLength="404.7795" x="2192.5" y="457.1631">-validationStatus: SupplierValidationStatus</text><text fill="#000000" font-family="Segoe UI" font-size="21.6667" lengthAdjust="spacing" textLength="211.0173" x="2192.5" y="485.9814">-qualityScore: decimal</text><text fill="#000000" font-family="Segoe UI" font-size="21.6667" lengthAdjust="spacing" textLength="258.7305" x="2192.5" y="514.7998">-registrationDate: datetime</text><line style="stroke:#335C67;stroke-width:0.8333;" x1="2184.1667" x2="2605.6128" y1="526.9043" y2="526.9043"/><text fill="#000000" font-family="Segoe UI" font-size="21.6667" lengthAdjust="spacing" textLength="221.1523" x="2192.5" y="556.9515">+isValidated(): boolean</text></g><!--class Product--><g class="entity" data-qualified-name="Catalogue.Product" data-source-line="22" id="ent0003"><rect fill="#FCFEFE" height="681.8522" rx="8.3333" ry="8.3333" style="stroke:#335C67;stroke-width:0.8333;" width="445.5363" x="2279.1667" y="1004.9023"/><rect fill="#E6F2F3" height="50" rx="8.3333" ry="8.3333" style="stroke:#E6F2F3;stroke-width:0.8333;" width="445.5363" x="2279.1667" y="1004.9023"/><rect fill="#E6F2F3" height="8.3333" style="stroke:#E6F2F3;stroke-width:0.8333;" width="445.5363" x="2279.1667" y="1046.569"/><rect fill="none" height="681.8522" rx="8.3333" ry="8.3333" style="stroke:#335C67;stroke-width:0.8333;" width="445.5363" x="2279.1667" y="1004.9023"/><ellipse cx="2457.9016" cy="1029.9023" fill="#ADD1B2" rx="16.6667" ry="16.6667" style="stroke:#181818;stroke-width:1.6667;"/><path d="M2459.4641,1024.3034 Q2459.6724,1024.0169 2459.9068,1023.8867 Q2460.1412,1023.7565 2460.4277,1023.7565 Q2460.8964,1023.7565 2461.1829,1024.0951 Q2461.4954,1024.4076 2461.4954,1025.1888 L2461.4954,1027.0378 Q2461.4954,1027.819 2461.1829,1028.1576 Q2460.8964,1028.4701 2460.4277,1028.4701 Q2459.9849,1028.4701 2459.7245,1028.2357 Q2459.4641,1028.0013 2459.3339,1027.3242 Q2459.2558,1026.8815 2459.0474,1026.6471 Q2458.6047,1026.1523 2457.8235,1025.8659 Q2457.0422,1025.5794 2456.261,1025.5794 Q2455.2974,1025.5794 2454.4641,1026.0221 Q2453.6568,1026.4388 2453.0318,1027.4023 Q2452.4068,1028.3398 2452.4068,1029.6419 L2452.4068,1031.0482 Q2452.4068,1032.6107 2453.5527,1033.6784 Q2454.6985,1034.7201 2456.7037,1034.7201 Q2457.9277,1034.7201 2458.761,1034.3815 Q2459.2297,1034.1992 2459.7766,1033.6263 Q2460.1152,1033.2878 2460.2974,1033.2096 Q2460.5058,1033.1055 2460.7402,1033.1055 Q2461.1829,1033.1055 2461.4954,1033.444 Q2461.8339,1033.7565 2461.8339,1034.1992 Q2461.8339,1034.6419 2461.3912,1035.1628 Q2460.7402,1035.8919 2459.7245,1036.3086 Q2458.3704,1036.8815 2456.7297,1036.8815 Q2454.8027,1036.8815 2453.2402,1036.1003 Q2451.9902,1035.4492 2451.1047,1034.0951 Q2450.2454,1032.7148 2450.2454,1031.1003 L2450.2454,1029.6159 Q2450.2454,1027.9232 2451.0266,1026.4648 Q2451.8339,1025.0065 2453.2141,1024.2253 Q2454.6204,1023.418 2456.1829,1023.418 Q2457.1204,1023.418 2457.9277,1023.6523 Q2458.761,1023.8607 2459.4641,1024.3034 Z " fill="#000000"/><text fill="#000000" font-family="Segoe UI" font-size="21.6667" lengthAdjust="spacing" textLength="74.7331" x="2489.5683" y="1038.8737">Product</text><line style="stroke:#335C67;stroke-width:0.8333;" x1="2280.8333" x2="2723.0363" y1="1054.9023" y2="1054.9023"/><text fill="#000000" font-family="Segoe UI" font-size="21.6667" lengthAdjust="spacing" textLength="88.0314" x="2289.1667" y="1084.9495">-id: UUID</text><text fill="#000000" font-family="Segoe UI" font-size="21.6667" lengthAdjust="spacing" textLength="200.8504" x="2289.1667" y="1113.7679">-name: LocalizedText</text><text fill="#000000" font-family="Segoe UI" font-size="21.6667" lengthAdjust="spacing" textLength="113.0941" x="2289.1667" y="1142.5863">-slug: string</text><text fill="#000000" font-family="Segoe UI" font-size="21.6667" lengthAdjust="spacing" textLength="108.2487" x="2289.1667" y="1171.4046">-ean: string</text><text fill="#000000" font-family="Segoe UI" font-size="21.6667" lengthAdjust="spacing" textLength="145.2873" x="2289.1667" y="1200.223">-hsCode: string</text><text fill="#000000" font-family="Segoe UI" font-size="21.6667" lengthAdjust="spacing" textLength="272.9386" x="2289.1667" y="1229.0413">-minimumOrderQuantity: int</text><text fill="#000000" font-family="Segoe UI" font-size="21.6667" lengthAdjust="spacing" textLength="247.8971" x="2289.1667" y="1257.8597">-referenceCurrency: string</text><text fill="#000000" font-family="Segoe UI" font-size="21.6667" lengthAdjust="spacing" textLength="141.8172" x="2289.1667" y="1286.6781">-stockTotal: int</text><text fill="#000000" font-family="Segoe UI" font-size="21.6667" lengthAdjust="spacing" textLength="168.4139" x="2289.1667" y="1315.4964">-shelfLifeDays: int</text><text fill="#000000" font-family="Segoe UI" font-size="21.6667" lengthAdjust="spacing" textLength="228.7166" x="2289.1667" y="1344.3148">-countryOfOrigin: string</text><text fill="#000000" font-family="Segoe UI" font-size="21.6667" lengthAdjust="spacing" textLength="209.0601" x="2289.1667" y="1373.1331">-status: ProductStatus</text><text fill="#000000" font-family="Segoe UI" font-size="21.6667" lengthAdjust="spacing" textLength="154.9251" x="2289.1667" y="1401.9515">-isNew: boolean</text><text fill="#000000" font-family="Segoe UI" font-size="21.6667" lengthAdjust="spacing" textLength="206.8807" x="2289.1667" y="1430.7699">-isPromoted: boolean</text><text fill="#000000" font-family="Segoe UI" font-size="21.6667" lengthAdjust="spacing" textLength="214.445" x="2289.1667" y="1459.5882">-isSponsored: boolean</text><text fill="#000000" font-family="Segoe UI" font-size="21.6667" lengthAdjust="spacing" textLength="230.5469" x="2289.1667" y="1488.4066">-averageRating: decimal</text><text fill="#000000" font-family="Segoe UI" font-size="21.6667" lengthAdjust="spacing" textLength="163.6003" x="2289.1667" y="1517.2249">-reviewCount: int</text><line style="stroke:#335C67;stroke-width:0.8333;" x1="2280.8333" x2="2723.0363" y1="1529.3294" y2="1529.3294"/><text fill="#000000" font-family="Segoe UI" font-size="21.6667" lengthAdjust="spacing" textLength="335.5054" x="2289.1667" y="1559.3766">+getPriceFor(quantity: int): decimal</text><text fill="#000000" font-family="Segoe UI" font-size="21.6667" lengthAdjust="spacing" textLength="287.4642" x="2289.1667" y="1588.195">+getAvailableLots(): List&lt;Lot&gt;</text><text fill="#000000" font-family="Segoe UI" font-size="21.6667" lengthAdjust="spacing" textLength="425.5363" x="2289.1667" y="1617.0133">+getUrgentDLCLots(daysMax: int): List&lt;Lot&gt;</text><text fill="#000000" font-family="Segoe UI" font-size="21.6667" lengthAdjust="spacing" textLength="242.3429" x="2289.1667" y="1645.8317">+isOutOfStock(): boolean</text><text fill="#000000" font-family="Segoe UI" font-size="21.6667" lengthAdjust="spacing" textLength="266.792" x="2289.1667" y="1674.6501">+isPubliclyVisible(): boolean</text></g><!--class Brand--><g class="entity" data-qualified-name="Catalogue.Brand" data-source-line="46" id="ent0004"><rect fill="#FCFEFE" height="207.4251" rx="8.3333" ry="8.3333" style="stroke:#335C67;stroke-width:0.8333;" width="274.2554" x="2182.5" y="683.2357"/><rect fill="#E6F2F3" height="50" rx="8.3333" ry="8.3333" style="stroke:#E6F2F3;stroke-width:0.8333;" width="274.2554" x="2182.5" y="683.2357"/><rect fill="#E6F2F3" height="8.3333" style="stroke:#E6F2F3;stroke-width:0.8333;" width="274.2554" x="2182.5" y="724.9023"/><rect fill="none" height="207.4251" rx="8.3333" ry="8.3333" style="stroke:#335C67;stroke-width:0.8333;" width="274.2554" x="2182.5" y="683.2357"/><ellipse cx="2284.9626" cy="708.2357" fill="#ADD1B2" rx="16.6667" ry="16.6667" style="stroke:#181818;stroke-width:1.6667;"/><path d="M2286.5251,702.6367 Q2286.7334,702.3503 2286.9678,702.2201 Q2287.2021,702.0898 2287.4886,702.0898 Q2287.9574,702.0898 2288.2438,702.4284 Q2288.5563,702.7409 2288.5563,703.5221 L2288.5563,705.3711 Q2288.5563,706.1523 2288.2438,706.4909 Q2287.9574,706.8034 2287.4886,706.8034 Q2287.0459,706.8034 2286.7855,706.569 Q2286.5251,706.3346 2286.3949,705.6576 Q2286.3167,705.2148 2286.1084,704.9805 Q2285.6657,704.4857 2284.8844,704.1992 Q2284.1032,703.9128 2283.3219,703.9128 Q2282.3584,703.9128 2281.5251,704.3555 Q2280.7178,704.7721 2280.0928,705.7357 Q2279.4678,706.6732 2279.4678,707.9753 L2279.4678,709.3815 Q2279.4678,710.944 2280.6136,712.0117 Q2281.7594,713.0534 2283.7646,713.0534 Q2284.9886,713.0534 2285.8219,712.7148 Q2286.2907,712.5326 2286.8376,711.9596 Q2287.1761,711.6211 2287.3584,711.543 Q2287.5667,711.4388 2287.8011,711.4388 Q2288.2438,711.4388 2288.5563,711.7773 Q2288.8949,712.0898 2288.8949,712.5326 Q2288.8949,712.9753 2288.4521,713.4961 Q2287.8011,714.2253 2286.7855,714.6419 Q2285.4313,715.2148 2283.7907,715.2148 Q2281.8636,715.2148 2280.3011,714.4336 Q2279.0511,713.7826 2278.1657,712.4284 Q2277.3063,711.0482 2277.3063,709.4336 L2277.3063,707.9492 Q2277.3063,706.2565 2278.0876,704.7982 Q2278.8949,703.3398 2280.2751,702.5586 Q2281.6813,701.7513 2283.2438,701.7513 Q2284.1813,701.7513 2284.9886,701.9857 Q2285.8219,702.194 2286.5251,702.6367 Z " fill="#000000"/><text fill="#000000" font-family="Segoe UI" font-size="21.6667" lengthAdjust="spacing" textLength="55.9969" x="2316.6292" y="717.207">Brand</text><line style="stroke:#335C67;stroke-width:0.8333;" x1="2184.1667" x2="2455.0887" y1="733.2357" y2="733.2357"/><text fill="#000000" font-family="Segoe UI" font-size="21.6667" lengthAdjust="spacing" textLength="88.0314" x="2192.5" y="763.2829">-id: UUID</text><text fill="#000000" font-family="Segoe UI" font-size="21.6667" lengthAdjust="spacing" textLength="126.9108" x="2192.5" y="792.1012">-name: string</text><text fill="#000000" font-family="Segoe UI" font-size="21.6667" lengthAdjust="spacing" textLength="122.5098" x="2192.5" y="820.9196">-logo: Media</text><text fill="#000000" font-family="Segoe UI" font-size="21.6667" lengthAdjust="spacing" textLength="228.7166" x="2192.5" y="849.738">-countryOfOrigin: string</text><text fill="#000000" font-family="Segoe UI" font-size="21.6667" lengthAdjust="spacing" textLength="254.2554" x="2192.5" y="878.5563">-storytelling: LocalizedText</text></g><!--class Category--><g class="entity" data-qualified-name="Catalogue.Category" data-source-line="54" id="ent0005"><rect fill="#FCFEFE" height="236.2435" rx="8.3333" ry="8.3333" style="stroke:#335C67;stroke-width:0.8333;" width="243.9559" x="2516.6667" y="668.2357"/><rect fill="#E6F2F3" height="50" rx="8.3333" ry="8.3333" style="stroke:#E6F2F3;stroke-width:0.8333;" width="243.9559" x="2516.6667" y="668.2357"/><rect fill="#E6F2F3" height="8.3333" style="stroke:#E6F2F3;stroke-width:0.8333;" width="243.9559" x="2516.6667" y="709.9023"/><rect fill="none" height="236.2435" rx="8.3333" ry="8.3333" style="stroke:#335C67;stroke-width:0.8333;" width="243.9559" x="2516.6667" y="668.2357"/><ellipse cx="2588.6869" cy="693.2357" fill="#ADD1B2" rx="16.6667" ry="16.6667" style="stroke:#181818;stroke-width:1.6667;"/><path d="M2590.2494,687.6367 Q2590.4578,687.3503 2590.6921,687.2201 Q2590.9265,687.0898 2591.213,687.0898 Q2591.6817,687.0898 2591.9682,687.4284 Q2592.2807,687.7409 2592.2807,688.5221 L2592.2807,690.3711 Q2592.2807,691.1523 2591.9682,691.4909 Q2591.6817,691.8034 2591.213,691.8034 Q2590.7703,691.8034 2590.5098,691.569 Q2590.2494,691.3346 2590.1192,690.6576 Q2590.0411,690.2148 2589.8328,689.9805 Q2589.3901,689.4857 2588.6088,689.1992 Q2587.8276,688.9128 2587.0463,688.9128 Q2586.0828,688.9128 2585.2494,689.3555 Q2584.4421,689.7721 2583.8171,690.7357 Q2583.1921,691.6732 2583.1921,692.9753 L2583.1921,694.3815 Q2583.1921,695.944 2584.338,697.0117 Q2585.4838,698.0534 2587.489,698.0534 Q2588.713,698.0534 2589.5463,697.7148 Q2590.0151,697.5326 2590.5619,696.9596 Q2590.9005,696.6211 2591.0828,696.543 Q2591.2911,696.4388 2591.5255,696.4388 Q2591.9682,696.4388 2592.2807,696.7773 Q2592.6192,697.0898 2592.6192,697.5326 Q2592.6192,697.9753 2592.1765,698.4961 Q2591.5255,699.2253 2590.5098,699.6419 Q2589.1557,700.2148 2587.5151,700.2148 Q2585.588,700.2148 2584.0255,699.4336 Q2582.7755,698.7826 2581.8901,697.4284 Q2581.0307,696.0482 2581.0307,694.4336 L2581.0307,692.9492 Q2581.0307,691.2565 2581.8119,689.7982 Q2582.6192,688.3398 2583.9994,687.5586 Q2585.4057,686.7513 2586.9682,686.7513 Q2587.9057,686.7513 2588.713,686.9857 Q2589.5463,687.194 2590.2494,687.6367 Z " fill="#000000"/><text fill="#000000" font-family="Segoe UI" font-size="21.6667" lengthAdjust="spacing" textLength="86.582" x="2620.3536" y="702.207">Category</text><line style="stroke:#335C67;stroke-width:0.8333;" x1="2518.3333" x2="2758.9559" y1="718.2357" y2="718.2357"/><text fill="#000000" font-family="Segoe UI" font-size="21.6667" lengthAdjust="spacing" textLength="88.0314" x="2526.6667" y="748.2829">-id: UUID</text><text fill="#000000" font-family="Segoe UI" font-size="21.6667" lengthAdjust="spacing" textLength="200.8504" x="2526.6667" y="777.1012">-name: LocalizedText</text><text fill="#000000" font-family="Segoe UI" font-size="21.6667" lengthAdjust="spacing" textLength="113.0941" x="2526.6667" y="805.9196">-slug: string</text><text fill="#000000" font-family="Segoe UI" font-size="21.6667" lengthAdjust="spacing" textLength="223.9559" x="2526.6667" y="834.738">-group: CategoryGroup</text><text fill="#000000" font-family="Segoe UI" font-size="21.6667" lengthAdjust="spacing" textLength="87.6823" x="2526.6667" y="863.5563">-level: int</text><text fill="#000000" font-family="Segoe UI" font-size="21.6667" lengthAdjust="spacing" textLength="119.3254" x="2526.6667" y="892.3747">-icon: Media</text></g><!--class Lot--><g class="entity" data-qualified-name="Catalogue.Lot" data-source-line="63" id="ent0006"><rect fill="#FCFEFE" height="265.0618" rx="8.3333" ry="8.3333" style="stroke:#335C67;stroke-width:0.8333;" width="232.181" x="2182.5" y="1786.569"/><rect fill="#E6F2F3" height="50" rx="8.3333" ry="8.3333" style="stroke:#E6F2F3;stroke-width:0.8333;" width="232.181" x="2182.5" y="1786.569"/><rect fill="#E6F2F3" height="8.3333" style="stroke:#E6F2F3;stroke-width:0.8333;" width="232.181" x="2182.5" y="1828.2357"/><rect fill="none" height="265.0618" rx="8.3333" ry="8.3333" style="stroke:#335C67;stroke-width:0.8333;" width="232.181" x="2182.5" y="1786.569"/><ellipse cx="2276.8058" cy="1811.569" fill="#ADD1B2" rx="16.6667" ry="16.6667" style="stroke:#181818;stroke-width:1.6667;"/><path d="M2278.3683,1805.9701 Q2278.5767,1805.6836 2278.811,1805.5534 Q2279.0454,1805.4232 2279.3319,1805.4232 Q2279.8006,1805.4232 2280.0871,1805.7617 Q2280.3996,1806.0742 2280.3996,1806.8555 L2280.3996,1808.7044 Q2280.3996,1809.4857 2280.0871,1809.8242 Q2279.8006,1810.1367 2279.3319,1810.1367 Q2278.8892,1810.1367 2278.6287,1809.9023 Q2278.3683,1809.668 2278.2381,1808.9909 Q2278.16,1808.5482 2277.9517,1808.3138 Q2277.509,1807.819 2276.7277,1807.5326 Q2275.9465,1807.2461 2275.1652,1807.2461 Q2274.2017,1807.2461 2273.3683,1807.6888 Q2272.561,1808.1055 2271.936,1809.069 Q2271.311,1810.0065 2271.311,1811.3086 L2271.311,1812.7148 Q2271.311,1814.2773 2272.4569,1815.3451 Q2273.6027,1816.3867 2275.6079,1816.3867 Q2276.8319,1816.3867 2277.6652,1816.0482 Q2278.134,1815.8659 2278.6808,1815.293 Q2279.0194,1814.9544 2279.2017,1814.8763 Q2279.41,1814.7721 2279.6444,1814.7721 Q2280.0871,1814.7721 2280.3996,1815.1107 Q2280.7381,1815.4232 2280.7381,1815.8659 Q2280.7381,1816.3086 2280.2954,1816.8294 Q2279.6444,1817.5586 2278.6287,1817.9753 Q2277.2746,1818.5482 2275.634,1818.5482 Q2273.7069,1818.5482 2272.1444,1817.7669 Q2270.8944,1817.1159 2270.009,1815.7617 Q2269.1496,1814.3815 2269.1496,1812.7669 L2269.1496,1811.2826 Q2269.1496,1809.5898 2269.9308,1808.1315 Q2270.7381,1806.6732 2272.1183,1805.8919 Q2273.5246,1805.0846 2275.0871,1805.0846 Q2276.0246,1805.0846 2276.8319,1805.319 Q2277.6652,1805.5273 2278.3683,1805.9701 Z " fill="#000000"/><text fill="#000000" font-family="Segoe UI" font-size="21.6667" lengthAdjust="spacing" textLength="30.236" x="2308.4725" y="1820.5404">Lot</text><line style="stroke:#335C67;stroke-width:0.8333;" x1="2184.1667" x2="2413.0143" y1="1836.569" y2="1836.569"/><text fill="#000000" font-family="Segoe UI" font-size="21.6667" lengthAdjust="spacing" textLength="88.0314" x="2192.5" y="1866.6162">-id: UUID</text><text fill="#000000" font-family="Segoe UI" font-size="21.6667" lengthAdjust="spacing" textLength="177.6497" x="2192.5" y="1895.4346">-lotNumber: string</text><text fill="#000000" font-family="Segoe UI" font-size="21.6667" lengthAdjust="spacing" textLength="212.181" x="2192.5" y="1924.2529">-productionDate: date</text><text fill="#000000" font-family="Segoe UI" font-size="21.6667" lengthAdjust="spacing" textLength="202.0036" x="2192.5" y="1953.0713">-expirationDate: date</text><text fill="#000000" font-family="Segoe UI" font-size="21.6667" lengthAdjust="spacing" textLength="122.8695" x="2192.5" y="1981.8896">-quantity: int</text><text fill="#000000" font-family="Segoe UI" font-size="21.6667" lengthAdjust="spacing" textLength="176.9198" x="2192.5" y="2010.708">-warehouse: string</text><text fill="#000000" font-family="Segoe UI" font-size="21.6667" lengthAdjust="spacing" textLength="164.563" x="2192.5" y="2039.5264">-status: LotStatus</text></g><!--class PriceTier--><g class="entity" data-qualified-name="Catalogue.PriceTier" data-source-line="73" id="ent0007"><rect fill="#FCFEFE" height="236.2435" rx="8.3333" ry="8.3333" style="stroke:#335C67;stroke-width:0.8333;" width="250.6209" x="2473.3333" y="1800.7357"/><rect fill="#E6F2F3" height="50" rx="8.3333" ry="8.3333" style="stroke:#E6F2F3;stroke-width:0.8333;" width="250.6209" x="2473.3333" y="1800.7357"/><rect fill="#E6F2F3" height="8.3333" style="stroke:#E6F2F3;stroke-width:0.8333;" width="250.6209" x="2473.3333" y="1842.4023"/><rect fill="none" height="236.2435" rx="8.3333" ry="8.3333" style="stroke:#335C67;stroke-width:0.8333;" width="250.6209" x="2473.3333" y="1800.7357"/><ellipse cx="2551.1194" cy="1825.7357" fill="#ADD1B2" rx="16.6667" ry="16.6667" style="stroke:#181818;stroke-width:1.6667;"/><path d="M2552.6819,1820.1367 Q2552.8902,1819.8503 2553.1246,1819.7201 Q2553.359,1819.5898 2553.6454,1819.5898 Q2554.1142,1819.5898 2554.4006,1819.9284 Q2554.7131,1820.2409 2554.7131,1821.0221 L2554.7131,1822.8711 Q2554.7131,1823.6523 2554.4006,1823.9909 Q2554.1142,1824.3034 2553.6454,1824.3034 Q2553.2027,1824.3034 2552.9423,1824.069 Q2552.6819,1823.8346 2552.5517,1823.1576 Q2552.4736,1822.7148 2552.2652,1822.4805 Q2551.8225,1821.9857 2551.0413,1821.6992 Q2550.26,1821.4128 2549.4788,1821.4128 Q2548.5152,1821.4128 2547.6819,1821.8555 Q2546.8746,1822.2721 2546.2496,1823.2357 Q2545.6246,1824.1732 2545.6246,1825.4753 L2545.6246,1826.8815 Q2545.6246,1828.444 2546.7704,1829.5117 Q2547.9163,1830.5534 2549.9215,1830.5534 Q2551.1454,1830.5534 2551.9788,1830.2148 Q2552.4475,1830.0326 2552.9944,1829.4596 Q2553.3329,1829.1211 2553.5152,1829.043 Q2553.7236,1828.9388 2553.9579,1828.9388 Q2554.4006,1828.9388 2554.7131,1829.2773 Q2555.0517,1829.5898 2555.0517,1830.0326 Q2555.0517,1830.4753 2554.609,1830.9961 Q2553.9579,1831.7253 2552.9423,1832.1419 Q2551.5881,1832.7148 2549.9475,1832.7148 Q2548.0204,1832.7148 2546.4579,1831.9336 Q2545.2079,1831.2826 2544.3225,1829.9284 Q2543.4631,1828.5482 2543.4631,1826.9336 L2543.4631,1825.4492 Q2543.4631,1823.7565 2544.2444,1822.2982 Q2545.0517,1820.8398 2546.4319,1820.0586 Q2547.8381,1819.2513 2549.4006,1819.2513 Q2550.3381,1819.2513 2551.1454,1819.4857 Q2551.9788,1819.694 2552.6819,1820.1367 Z " fill="#000000"/><text fill="#000000" font-family="Segoe UI" font-size="21.6667" lengthAdjust="spacing" textLength="81.7155" x="2582.7861" y="1834.707">PriceTier</text><line style="stroke:#335C67;stroke-width:0.8333;" x1="2475" x2="2722.2876" y1="1850.7357" y2="1850.7357"/><text fill="#000000" font-family="Segoe UI" font-size="21.6667" lengthAdjust="spacing" textLength="88.0314" x="2483.3333" y="1880.7829">-id: UUID</text><text fill="#000000" font-family="Segoe UI" font-size="21.6667" lengthAdjust="spacing" textLength="217.4495" x="2483.3333" y="1909.6012">-minimumQuantity: int</text><text fill="#000000" font-family="Segoe UI" font-size="21.6667" lengthAdjust="spacing" textLength="230.6209" x="2483.3333" y="1938.4196">-maximumQuantity: int?</text><text fill="#000000" font-family="Segoe UI" font-size="21.6667" lengthAdjust="spacing" textLength="176.9409" x="2483.3333" y="1967.238">-unitPrice: decimal</text><text fill="#000000" font-family="Segoe UI" font-size="21.6667" lengthAdjust="spacing" textLength="155.0521" x="2483.3333" y="1996.0563">-currency: string</text><text fill="#000000" font-family="Segoe UI" font-size="21.6667" lengthAdjust="spacing" textLength="158.7126" x="2483.3333" y="2024.8747">-incoterm: string</text></g><!--class SponsorshipCampaign--><g class="entity" data-qualified-name="Catalogue.SponsorshipCampaign" data-source-line="82" id="ent0008"><rect fill="#FCFEFE" height="265.0618" rx="8.3333" ry="8.3333" style="stroke:#335C67;stroke-width:0.8333;" width="356.6479" x="2781.6667" y="1786.569"/><rect fill="#E6F2F3" height="50" rx="8.3333" ry="8.3333" style="stroke:#E6F2F3;stroke-width:0.8333;" width="356.6479" x="2781.6667" y="1786.569"/><rect fill="#E6F2F3" height="8.3333" style="stroke:#E6F2F3;stroke-width:0.8333;" width="356.6479" x="2781.6667" y="1828.2357"/><rect fill="none" height="265.0618" rx="8.3333" ry="8.3333" style="stroke:#335C67;stroke-width:0.8333;" width="356.6479" x="2781.6667" y="1786.569"/><ellipse cx="2846.1533" cy="1811.569" fill="#ADD1B2" rx="16.6667" ry="16.6667" style="stroke:#181818;stroke-width:1.6667;"/><path d="M2847.7158,1805.9701 Q2847.9242,1805.6836 2848.1585,1805.5534 Q2848.3929,1805.4232 2848.6794,1805.4232 Q2849.1481,1805.4232 2849.4346,1805.7617 Q2849.7471,1806.0742 2849.7471,1806.8555 L2849.7471,1808.7044 Q2849.7471,1809.4857 2849.4346,1809.8242 Q2849.1481,1810.1367 2848.6794,1810.1367 Q2848.2367,1810.1367 2847.9762,1809.9023 Q2847.7158,1809.668 2847.5856,1808.9909 Q2847.5075,1808.5482 2847.2992,1808.3138 Q2846.8564,1807.819 2846.0752,1807.5326 Q2845.2939,1807.2461 2844.5127,1807.2461 Q2843.5492,1807.2461 2842.7158,1807.6888 Q2841.9085,1808.1055 2841.2835,1809.069 Q2840.6585,1810.0065 2840.6585,1811.3086 L2840.6585,1812.7148 Q2840.6585,1814.2773 2841.8044,1815.3451 Q2842.9502,1816.3867 2844.9554,1816.3867 Q2846.1794,1816.3867 2847.0127,1816.0482 Q2847.4814,1815.8659 2848.0283,1815.293 Q2848.3669,1814.9544 2848.5492,1814.8763 Q2848.7575,1814.7721 2848.9919,1814.7721 Q2849.4346,1814.7721 2849.7471,1815.1107 Q2850.0856,1815.4232 2850.0856,1815.8659 Q2850.0856,1816.3086 2849.6429,1816.8294 Q2848.9919,1817.5586 2847.9762,1817.9753 Q2846.6221,1818.5482 2844.9814,1818.5482 Q2843.0544,1818.5482 2841.4919,1817.7669 Q2840.2419,1817.1159 2839.3564,1815.7617 Q2838.4971,1814.3815 2838.4971,1812.7669 L2838.4971,1811.2826 Q2838.4971,1809.5898 2839.2783,1808.1315 Q2840.0856,1806.6732 2841.4658,1805.8919 Q2842.8721,1805.0846 2844.4346,1805.0846 Q2845.3721,1805.0846 2846.1794,1805.319 Q2847.0127,1805.5273 2847.7158,1805.9701 Z " fill="#000000"/><text fill="#000000" font-family="Segoe UI" font-size="21.6667" lengthAdjust="spacing" textLength="215.1961" x="2876.9652" y="1820.5404">SponsorshipCampaign</text><line style="stroke:#335C67;stroke-width:0.8333;" x1="2783.3333" x2="3136.6479" y1="1836.569" y2="1836.569"/><text fill="#000000" font-family="Segoe UI" font-size="21.6667" lengthAdjust="spacing" textLength="88.0314" x="2791.6667" y="1866.6162">-id: UUID</text><text fill="#000000" font-family="Segoe UI" font-size="21.6667" lengthAdjust="spacing" textLength="336.6479" x="2791.6667" y="1895.4346">-placement: SponsorshipPlacement</text><text fill="#000000" font-family="Segoe UI" font-size="21.6667" lengthAdjust="spacing" textLength="149.0747" x="2791.6667" y="1924.2529">-startDate: date</text><text fill="#000000" font-family="Segoe UI" font-size="21.6667" lengthAdjust="spacing" textLength="142.9915" x="2791.6667" y="1953.0713">-endDate: date</text><text fill="#000000" font-family="Segoe UI" font-size="21.6667" lengthAdjust="spacing" textLength="157.443" x="2791.6667" y="1981.8896">-impressions: int</text><text fill="#000000" font-family="Segoe UI" font-size="21.6667" lengthAdjust="spacing" textLength="94.6224" x="2791.6667" y="2010.708">-clicks: int</text><text fill="#000000" font-family="Segoe UI" font-size="21.6667" lengthAdjust="spacing" textLength="252.3934" x="2791.6667" y="2039.5264">-status: SponsorshipStatus</text></g><!--class RequestForQuotation--><g class="entity" data-qualified-name="Commerce et relation.RequestForQuotation" data-source-line="94" id="ent0010"><rect fill="#FCFEFE" height="393.6686" rx="8.3333" ry="8.3333" style="stroke:#335C67;stroke-width:0.8333;" width="435.0309" x="1652.5" y="1149.069"/><rect fill="#E6F2F3" height="50" rx="8.3333" ry="8.3333" style="stroke:#E6F2F3;stroke-width:0.8333;" width="435.0309" x="1652.5" y="1149.069"/><rect fill="#E6F2F3" height="8.3333" style="stroke:#E6F2F3;stroke-width:0.8333;" width="435.0309" x="1652.5" y="1190.7357"/><rect fill="none" height="393.6686" rx="8.3333" ry="8.3333" style="stroke:#335C67;stroke-width:0.8333;" width="435.0309" x="1652.5" y="1149.069"/><ellipse cx="1760.7548" cy="1174.069" fill="#ADD1B2" rx="16.6667" ry="16.6667" style="stroke:#181818;stroke-width:1.6667;"/><path d="M1762.3173,1168.4701 Q1762.5256,1168.1836 1762.76,1168.0534 Q1762.9944,1167.9232 1763.2808,1167.9232 Q1763.7496,1167.9232 1764.0361,1168.2617 Q1764.3486,1168.5742 1764.3486,1169.3555 L1764.3486,1171.2044 Q1764.3486,1171.9857 1764.0361,1172.3242 Q1763.7496,1172.6367 1763.2808,1172.6367 Q1762.8381,1172.6367 1762.5777,1172.4023 Q1762.3173,1172.168 1762.1871,1171.4909 Q1762.109,1171.0482 1761.9006,1170.8138 Q1761.4579,1170.319 1760.6767,1170.0326 Q1759.8954,1169.7461 1759.1142,1169.7461 Q1758.1506,1169.7461 1757.3173,1170.1888 Q1756.51,1170.6055 1755.885,1171.569 Q1755.26,1172.5065 1755.26,1173.8086 L1755.26,1175.2148 Q1755.26,1176.7773 1756.4058,1177.8451 Q1757.5517,1178.8867 1759.5569,1178.8867 Q1760.7808,1178.8867 1761.6142,1178.5482 Q1762.0829,1178.3659 1762.6298,1177.793 Q1762.9683,1177.4544 1763.1506,1177.3763 Q1763.359,1177.2721 1763.5933,1177.2721 Q1764.0361,1177.2721 1764.3486,1177.6107 Q1764.6871,1177.9232 1764.6871,1178.3659 Q1764.6871,1178.8086 1764.2444,1179.3294 Q1763.5933,1180.0586 1762.5777,1180.4753 Q1761.2236,1181.0482 1759.5829,1181.0482 Q1757.6558,1181.0482 1756.0933,1180.2669 Q1754.8433,1179.6159 1753.9579,1178.2617 Q1753.0986,1176.8815 1753.0986,1175.2669 L1753.0986,1173.7826 Q1753.0986,1172.0898 1753.8798,1170.6315 Q1754.6871,1169.1732 1756.0673,1168.3919 Q1757.4736,1167.5846 1759.0361,1167.5846 Q1759.9736,1167.5846 1760.7808,1167.819 Q1761.6142,1168.0273 1762.3173,1168.4701 Z " fill="#000000"/><text fill="#000000" font-family="Segoe UI" font-size="21.6667" lengthAdjust="spacing" textLength="205.188" x="1792.4215" y="1183.0404">RequestForQuotation</text><line style="stroke:#335C67;stroke-width:0.8333;" x1="1654.1667" x2="2085.8643" y1="1199.069" y2="1199.069"/><text fill="#000000" font-family="Segoe UI" font-size="21.6667" lengthAdjust="spacing" textLength="88.0314" x="1662.5" y="1229.1162">-id: UUID</text><text fill="#000000" font-family="Segoe UI" font-size="21.6667" lengthAdjust="spacing" textLength="158.7126" x="1662.5" y="1257.9346">-incoterm: string</text><text fill="#000000" font-family="Segoe UI" font-size="21.6667" lengthAdjust="spacing" textLength="220.0415" x="1662.5" y="1286.7529">-destinationPort: string</text><text fill="#000000" font-family="Segoe UI" font-size="21.6667" lengthAdjust="spacing" textLength="155.0521" x="1662.5" y="1315.5713">-currency: string</text><text fill="#000000" font-family="Segoe UI" font-size="21.6667" lengthAdjust="spacing" textLength="283.7508" x="1662.5" y="1344.3896">-expectedDeliveryTime: string</text><text fill="#000000" font-family="Segoe UI" font-size="21.6667" lengthAdjust="spacing" textLength="252.4674" x="1662.5" y="1373.208">-frequency: RFQFrequency</text><text fill="#000000" font-family="Segoe UI" font-size="21.6667" lengthAdjust="spacing" textLength="164.5947" x="1662.5" y="1402.0264">-comment: string</text><text fill="#000000" font-family="Segoe UI" font-size="21.6667" lengthAdjust="spacing" textLength="174.2008" x="1662.5" y="1430.8447">-status: RFQStatus</text><text fill="#000000" font-family="Segoe UI" font-size="21.6667" lengthAdjust="spacing" textLength="196.9784" x="1662.5" y="1459.6631">-createdAt: datetime</text><line style="stroke:#335C67;stroke-width:0.8333;" x1="1654.1667" x2="2085.8643" y1="1471.7676" y2="1471.7676"/><text fill="#000000" font-family="Segoe UI" font-size="21.6667" lengthAdjust="spacing" textLength="243.9616" x="1662.5" y="1501.8148">+calculateTotal(): decimal</text><text fill="#000000" font-family="Segoe UI" font-size="21.6667" lengthAdjust="spacing" textLength="415.0309" x="1662.5" y="1530.6331">+changeStatus(newStatus: RFQStatus): void</text></g><!--class RFQLine--><g class="entity" data-qualified-name="Commerce et relation.RFQLine" data-source-line="108" id="ent0011"><rect fill="#FCFEFE" height="178.6068" rx="8.3333" ry="8.3333" style="stroke:#335C67;stroke-width:0.8333;" width="261.2215" x="1782.5" y="1829.9023"/><rect fill="#E6F2F3" height="50" rx="8.3333" ry="8.3333" style="stroke:#E6F2F3;stroke-width:0.8333;" width="261.2215" x="1782.5" y="1829.9023"/><rect fill="#E6F2F3" height="8.3333" style="stroke:#E6F2F3;stroke-width:0.8333;" width="261.2215" x="1782.5" y="1871.569"/><rect fill="none" height="178.6068" rx="8.3333" ry="8.3333" style="stroke:#335C67;stroke-width:0.8333;" width="261.2215" x="1782.5" y="1829.9023"/><ellipse cx="1866.9881" cy="1854.9023" fill="#ADD1B2" rx="16.6667" ry="16.6667" style="stroke:#181818;stroke-width:1.6667;"/><path d="M1868.5506,1849.3034 Q1868.759,1849.0169 1868.9933,1848.8867 Q1869.2277,1848.7565 1869.5142,1848.7565 Q1869.9829,1848.7565 1870.2694,1849.0951 Q1870.5819,1849.4076 1870.5819,1850.1888 L1870.5819,1852.0378 Q1870.5819,1852.819 1870.2694,1853.1576 Q1869.9829,1853.4701 1869.5142,1853.4701 Q1869.0715,1853.4701 1868.811,1853.2357 Q1868.5506,1853.0013 1868.4204,1852.3242 Q1868.3423,1851.8815 1868.134,1851.6471 Q1867.6912,1851.1523 1866.91,1850.8659 Q1866.1287,1850.5794 1865.3475,1850.5794 Q1864.384,1850.5794 1863.5506,1851.0221 Q1862.7433,1851.4388 1862.1183,1852.4023 Q1861.4933,1853.3398 1861.4933,1854.6419 L1861.4933,1856.0482 Q1861.4933,1857.6107 1862.6392,1858.6784 Q1863.785,1859.7201 1865.7902,1859.7201 Q1867.0142,1859.7201 1867.8475,1859.3815 Q1868.3162,1859.1992 1868.8631,1858.6263 Q1869.2017,1858.2878 1869.384,1858.2096 Q1869.5923,1858.1055 1869.8267,1858.1055 Q1870.2694,1858.1055 1870.5819,1858.444 Q1870.9204,1858.7565 1870.9204,1859.1992 Q1870.9204,1859.6419 1870.4777,1860.1628 Q1869.8267,1860.8919 1868.811,1861.3086 Q1867.4569,1861.8815 1865.8162,1861.8815 Q1863.8892,1861.8815 1862.3267,1861.1003 Q1861.0767,1860.4492 1860.1912,1859.0951 Q1859.3319,1857.7148 1859.3319,1856.1003 L1859.3319,1854.6159 Q1859.3319,1852.9232 1860.1131,1851.4648 Q1860.9204,1850.0065 1862.3006,1849.2253 Q1863.7069,1848.418 1865.2694,1848.418 Q1866.2069,1848.418 1867.0142,1848.6523 Q1867.8475,1848.8607 1868.5506,1849.3034 Z " fill="#000000"/><text fill="#000000" font-family="Segoe UI" font-size="21.6667" lengthAdjust="spacing" textLength="78.9119" x="1898.6548" y="1863.8737">RFQLine</text><line style="stroke:#335C67;stroke-width:0.8333;" x1="1784.1667" x2="2042.0549" y1="1879.9023" y2="1879.9023"/><text fill="#000000" font-family="Segoe UI" font-size="21.6667" lengthAdjust="spacing" textLength="88.0314" x="1792.5" y="1909.9495">-id: UUID</text><text fill="#000000" font-family="Segoe UI" font-size="21.6667" lengthAdjust="spacing" textLength="222.2843" x="1792.5" y="1938.7679">-requestedQuantity: int</text><text fill="#000000" font-family="Segoe UI" font-size="21.6667" lengthAdjust="spacing" textLength="241.2215" x="1792.5" y="1967.5863">-proposedPrice: decimal?</text><text fill="#000000" font-family="Segoe UI" font-size="21.6667" lengthAdjust="spacing" textLength="164.5947" x="1792.5" y="1996.4046">-comment: string</text></g><!--class Conversation--><g class="entity" data-qualified-name="Commerce et relation.Conversation" data-source-line="115" id="ent0012"><rect fill="#FCFEFE" height="178.6068" rx="8.3333" ry="8.3333" style="stroke:#335C67;stroke-width:0.8333;" width="279.7038" x="1336.6667" y="1829.9023"/><rect fill="#E6F2F3" height="50" rx="8.3333" ry="8.3333" style="stroke:#E6F2F3;stroke-width:0.8333;" width="279.7038" x="1336.6667" y="1829.9023"/><rect fill="#E6F2F3" height="8.3333" style="stroke:#E6F2F3;stroke-width:0.8333;" width="279.7038" x="1336.6667" y="1871.569"/><rect fill="none" height="178.6068" rx="8.3333" ry="8.3333" style="stroke:#335C67;stroke-width:0.8333;" width="279.7038" x="1336.6667" y="1829.9023"/><ellipse cx="1407.1635" cy="1854.9023" fill="#ADD1B2" rx="16.6667" ry="16.6667" style="stroke:#181818;stroke-width:1.6667;"/><path d="M1408.726,1849.3034 Q1408.9343,1849.0169 1409.1687,1848.8867 Q1409.4031,1848.7565 1409.6895,1848.7565 Q1410.1583,1848.7565 1410.4447,1849.0951 Q1410.7572,1849.4076 1410.7572,1850.1888 L1410.7572,1852.0378 Q1410.7572,1852.819 1410.4447,1853.1576 Q1410.1583,1853.4701 1409.6895,1853.4701 Q1409.2468,1853.4701 1408.9864,1853.2357 Q1408.726,1853.0013 1408.5958,1852.3242 Q1408.5177,1851.8815 1408.3093,1851.6471 Q1407.8666,1851.1523 1407.0854,1850.8659 Q1406.3041,1850.5794 1405.5229,1850.5794 Q1404.5593,1850.5794 1403.726,1851.0221 Q1402.9187,1851.4388 1402.2937,1852.4023 Q1401.6687,1853.3398 1401.6687,1854.6419 L1401.6687,1856.0482 Q1401.6687,1857.6107 1402.8145,1858.6784 Q1403.9604,1859.7201 1405.9656,1859.7201 Q1407.1895,1859.7201 1408.0229,1859.3815 Q1408.4916,1859.1992 1409.0385,1858.6263 Q1409.377,1858.2878 1409.5593,1858.2096 Q1409.7677,1858.1055 1410.002,1858.1055 Q1410.4447,1858.1055 1410.7572,1858.444 Q1411.0958,1858.7565 1411.0958,1859.1992 Q1411.0958,1859.6419 1410.6531,1860.1628 Q1410.002,1860.8919 1408.9864,1861.3086 Q1407.6322,1861.8815 1405.9916,1861.8815 Q1404.0645,1861.8815 1402.502,1861.1003 Q1401.252,1860.4492 1400.3666,1859.0951 Q1399.5072,1857.7148 1399.5072,1856.1003 L1399.5072,1854.6159 Q1399.5072,1852.9232 1400.2885,1851.4648 Q1401.0958,1850.0065 1402.476,1849.2253 Q1403.8822,1848.418 1405.4447,1848.418 Q1406.3822,1848.418 1407.1895,1848.6523 Q1408.0229,1848.8607 1408.726,1849.3034 Z " fill="#000000"/><text fill="#000000" font-family="Segoe UI" font-size="21.6667" lengthAdjust="spacing" textLength="125.3768" x="1438.8302" y="1863.8737">Conversation</text><line style="stroke:#335C67;stroke-width:0.8333;" x1="1338.3333" x2="1614.7038" y1="1879.9023" y2="1879.9023"/><text fill="#000000" font-family="Segoe UI" font-size="21.6667" lengthAdjust="spacing" textLength="88.0314" x="1346.6667" y="1909.9495">-id: UUID</text><text fill="#000000" font-family="Segoe UI" font-size="21.6667" lengthAdjust="spacing" textLength="141.7537" x="1346.6667" y="1938.7679">-subject: string</text><text fill="#000000" font-family="Segoe UI" font-size="21.6667" lengthAdjust="spacing" textLength="196.9784" x="1346.6667" y="1967.5863">-createdAt: datetime</text><text fill="#000000" font-family="Segoe UI" font-size="21.6667" lengthAdjust="spacing" textLength="259.7038" x="1346.6667" y="1996.4046">-status: ConversationStatus</text></g><!--class Message--><g class="entity" data-qualified-name="Commerce et relation.Message" data-source-line="122" id="ent0013"><rect fill="#FCFEFE" height="207.4251" rx="8.3333" ry="8.3333" style="stroke:#335C67;stroke-width:0.8333;" width="278.5295" x="1274.1667" y="2151.569"/><rect fill="#E6F2F3" height="50" rx="8.3333" ry="8.3333" style="stroke:#E6F2F3;stroke-width:0.8333;" width="278.5295" x="1274.1667" y="2151.569"/><rect fill="#E6F2F3" height="8.3333" style="stroke:#E6F2F3;stroke-width:0.8333;" width="278.5295" x="1274.1667" y="2193.2357"/><rect fill="none" height="207.4251" rx="8.3333" ry="8.3333" style="stroke:#335C67;stroke-width:0.8333;" width="278.5295" x="1274.1667" y="2151.569"/><ellipse cx="1364.6216" cy="2176.569" fill="#ADD1B2" rx="16.6667" ry="16.6667" style="stroke:#181818;stroke-width:1.6667;"/><path d="M1366.1841,2170.9701 Q1366.3924,2170.6836 1366.6268,2170.5534 Q1366.8612,2170.4232 1367.1476,2170.4232 Q1367.6164,2170.4232 1367.9028,2170.7617 Q1368.2153,2171.0742 1368.2153,2171.8555 L1368.2153,2173.7044 Q1368.2153,2174.4857 1367.9028,2174.8242 Q1367.6164,2175.1367 1367.1476,2175.1367 Q1366.7049,2175.1367 1366.4445,2174.9023 Q1366.1841,2174.668 1366.0539,2173.9909 Q1365.9757,2173.5482 1365.7674,2173.3138 Q1365.3247,2172.819 1364.5435,2172.5326 Q1363.7622,2172.2461 1362.981,2172.2461 Q1362.0174,2172.2461 1361.1841,2172.6888 Q1360.3768,2173.1055 1359.7518,2174.069 Q1359.1268,2175.0065 1359.1268,2176.3086 L1359.1268,2177.7148 Q1359.1268,2179.2773 1360.2726,2180.3451 Q1361.4185,2181.3867 1363.4237,2181.3867 Q1364.6476,2181.3867 1365.481,2181.0482 Q1365.9497,2180.8659 1366.4966,2180.293 Q1366.8351,2179.9544 1367.0174,2179.8763 Q1367.2257,2179.7721 1367.4601,2179.7721 Q1367.9028,2179.7721 1368.2153,2180.1107 Q1368.5539,2180.4232 1368.5539,2180.8659 Q1368.5539,2181.3086 1368.1112,2181.8294 Q1367.4601,2182.5586 1366.4445,2182.9753 Q1365.0903,2183.5482 1363.4497,2183.5482 Q1361.5226,2183.5482 1359.9601,2182.7669 Q1358.7101,2182.1159 1357.8247,2180.7617 Q1356.9653,2179.3815 1356.9653,2177.7669 L1356.9653,2176.2826 Q1356.9653,2174.5898 1357.7466,2173.1315 Q1358.5539,2171.6732 1359.9341,2170.8919 Q1361.3403,2170.0846 1362.9028,2170.0846 Q1363.8403,2170.0846 1364.6476,2170.319 Q1365.481,2170.5273 1366.1841,2170.9701 Z " fill="#000000"/><text fill="#000000" font-family="Segoe UI" font-size="21.6667" lengthAdjust="spacing" textLength="84.2863" x="1396.2882" y="2185.5404">Message</text><line style="stroke:#335C67;stroke-width:0.8333;" x1="1275.8333" x2="1551.0295" y1="2201.569" y2="2201.569"/><text fill="#000000" font-family="Segoe UI" font-size="21.6667" lengthAdjust="spacing" textLength="88.0314" x="1284.1667" y="2231.6162">-id: UUID</text><text fill="#000000" font-family="Segoe UI" font-size="21.6667" lengthAdjust="spacing" textLength="146.8742" x="1284.1667" y="2260.4346">-content: string</text><text fill="#000000" font-family="Segoe UI" font-size="21.6667" lengthAdjust="spacing" textLength="258.5295" x="1284.1667" y="2289.2529">-attachments: List&lt;Media&gt;</text><text fill="#000000" font-family="Segoe UI" font-size="21.6667" lengthAdjust="spacing" textLength="139.9341" x="1284.1667" y="2318.0713">-read: boolean</text><text fill="#000000" font-family="Segoe UI" font-size="21.6667" lengthAdjust="spacing" textLength="196.9784" x="1284.1667" y="2346.8896">-createdAt: datetime</text></g><!--class Review--><g class="entity" data-qualified-name="Commerce et relation.Review" data-source-line="130" id="ent0014"><rect fill="#FCFEFE" height="207.4251" rx="8.3333" ry="8.3333" style="stroke:#335C67;stroke-width:0.8333;" width="447.4406" x="1146.6667" y="1242.4023"/><rect fill="#E6F2F3" height="50" rx="8.3333" ry="8.3333" style="stroke:#E6F2F3;stroke-width:0.8333;" width="447.4406" x="1146.6667" y="1242.4023"/><rect fill="#E6F2F3" height="8.3333" style="stroke:#E6F2F3;stroke-width:0.8333;" width="447.4406" x="1146.6667" y="1284.069"/><rect fill="none" height="207.4251" rx="8.3333" ry="8.3333" style="stroke:#335C67;stroke-width:0.8333;" width="447.4406" x="1146.6667" y="1242.4023"/><ellipse cx="1330.2681" cy="1267.4023" fill="#ADD1B2" rx="16.6667" ry="16.6667" style="stroke:#181818;stroke-width:1.6667;"/><path d="M1331.8306,1261.8034 Q1332.039,1261.5169 1332.2734,1261.3867 Q1332.5077,1261.2565 1332.7942,1261.2565 Q1333.2629,1261.2565 1333.5494,1261.5951 Q1333.8619,1261.9076 1333.8619,1262.6888 L1333.8619,1264.5378 Q1333.8619,1265.319 1333.5494,1265.6576 Q1333.2629,1265.9701 1332.7942,1265.9701 Q1332.3515,1265.9701 1332.0911,1265.7357 Q1331.8306,1265.5013 1331.7004,1264.8242 Q1331.6223,1264.3815 1331.414,1264.1471 Q1330.9713,1263.6523 1330.19,1263.3659 Q1329.4088,1263.0794 1328.6275,1263.0794 Q1327.664,1263.0794 1326.8306,1263.5221 Q1326.0234,1263.9388 1325.3984,1264.9023 Q1324.7734,1265.8398 1324.7734,1267.1419 L1324.7734,1268.5482 Q1324.7734,1270.1107 1325.9192,1271.1784 Q1327.065,1272.2201 1329.0702,1272.2201 Q1330.2942,1272.2201 1331.1275,1271.8815 Q1331.5963,1271.6992 1332.1431,1271.1263 Q1332.4817,1270.7878 1332.664,1270.7096 Q1332.8723,1270.6055 1333.1067,1270.6055 Q1333.5494,1270.6055 1333.8619,1270.944 Q1334.2004,1271.2565 1334.2004,1271.6992 Q1334.2004,1272.1419 1333.7577,1272.6628 Q1333.1067,1273.3919 1332.0911,1273.8086 Q1330.7369,1274.3815 1329.0963,1274.3815 Q1327.1692,1274.3815 1325.6067,1273.6003 Q1324.3567,1272.9492 1323.4713,1271.5951 Q1322.6119,1270.2148 1322.6119,1268.6003 L1322.6119,1267.1159 Q1322.6119,1265.4232 1323.3931,1263.9648 Q1324.2004,1262.5065 1325.5806,1261.7253 Q1326.9869,1260.918 1328.5494,1260.918 Q1329.4869,1260.918 1330.2942,1261.1523 Q1331.1275,1261.3607 1331.8306,1261.8034 Z " fill="#000000"/><text fill="#000000" font-family="Segoe UI" font-size="21.6667" lengthAdjust="spacing" textLength="66.9043" x="1361.9348" y="1276.3737">Review</text><line style="stroke:#335C67;stroke-width:0.8333;" x1="1148.3333" x2="1592.4406" y1="1292.4023" y2="1292.4023"/><text fill="#000000" font-family="Segoe UI" font-size="21.6667" lengthAdjust="spacing" textLength="88.0314" x="1156.6667" y="1322.4495">-id: UUID</text><text fill="#000000" font-family="Segoe UI" font-size="21.6667" lengthAdjust="spacing" textLength="100.3141" x="1156.6667" y="1351.2679">-rating: int</text><text fill="#000000" font-family="Segoe UI" font-size="21.6667" lengthAdjust="spacing" textLength="164.5947" x="1156.6667" y="1380.0863">-comment: string</text><text fill="#000000" font-family="Segoe UI" font-size="21.6667" lengthAdjust="spacing" textLength="427.4406" x="1156.6667" y="1408.9046">-moderationStatus: ReviewModerationStatus</text><text fill="#000000" font-family="Segoe UI" font-size="21.6667" lengthAdjust="spacing" textLength="196.9784" x="1156.6667" y="1437.723">-createdAt: datetime</text></g><!--class SupplierValidationFile--><g class="entity" data-qualified-name="Validation fournisseur.SupplierValidationFile" data-source-line="140" id="ent0016"><rect fill="#FCFEFE" height="207.4251" rx="8.3333" ry="8.3333" style="stroke:#335C67;stroke-width:0.8333;" width="329.2367" x="3231.6667" y="683.2357"/><rect fill="#E6F2F3" height="50" rx="8.3333" ry="8.3333" style="stroke:#E6F2F3;stroke-width:0.8333;" width="329.2367" x="3231.6667" y="683.2357"/><rect fill="#E6F2F3" height="8.3333" style="stroke:#E6F2F3;stroke-width:0.8333;" width="329.2367" x="3231.6667" y="724.9023"/><rect fill="none" height="207.4251" rx="8.3333" ry="8.3333" style="stroke:#335C67;stroke-width:0.8333;" width="329.2367" x="3231.6667" y="683.2357"/><ellipse cx="3287.365" cy="708.2357" fill="#ADD1B2" rx="16.6667" ry="16.6667" style="stroke:#181818;stroke-width:1.6667;"/><path d="M3288.9275,702.6367 Q3289.1358,702.3503 3289.3702,702.2201 Q3289.6046,702.0898 3289.891,702.0898 Q3290.3598,702.0898 3290.6462,702.4284 Q3290.9587,702.7409 3290.9587,703.5221 L3290.9587,705.3711 Q3290.9587,706.1523 3290.6462,706.4909 Q3290.3598,706.8034 3289.891,706.8034 Q3289.4483,706.8034 3289.1879,706.569 Q3288.9275,706.3346 3288.7973,705.6576 Q3288.7192,705.2148 3288.5108,704.9805 Q3288.0681,704.4857 3287.2869,704.1992 Q3286.5056,703.9128 3285.7244,703.9128 Q3284.7608,703.9128 3283.9275,704.3555 Q3283.1202,704.7721 3282.4952,705.7357 Q3281.8702,706.6732 3281.8702,707.9753 L3281.8702,709.3815 Q3281.8702,710.944 3283.016,712.0117 Q3284.1619,713.0534 3286.1671,713.0534 Q3287.391,713.0534 3288.2244,712.7148 Q3288.6931,712.5326 3289.24,711.9596 Q3289.5785,711.6211 3289.7608,711.543 Q3289.9692,711.4388 3290.2035,711.4388 Q3290.6462,711.4388 3290.9587,711.7773 Q3291.2973,712.0898 3291.2973,712.5326 Q3291.2973,712.9753 3290.8546,713.4961 Q3290.2035,714.2253 3289.1879,714.6419 Q3287.8337,715.2148 3286.1931,715.2148 Q3284.266,715.2148 3282.7035,714.4336 Q3281.4535,713.7826 3280.5681,712.4284 Q3279.7087,711.0482 3279.7087,709.4336 L3279.7087,707.9492 Q3279.7087,706.2565 3280.49,704.7982 Q3281.2973,703.3398 3282.6775,702.5586 Q3284.0837,701.7513 3285.6462,701.7513 Q3286.5837,701.7513 3287.391,701.9857 Q3288.2244,702.194 3288.9275,702.6367 Z " fill="#000000"/><text fill="#000000" font-family="Segoe UI" font-size="21.6667" lengthAdjust="spacing" textLength="207.3145" x="3316.2239" y="717.207">SupplierValidationFile</text><line style="stroke:#335C67;stroke-width:0.8333;" x1="3233.3333" x2="3559.2367" y1="733.2357" y2="733.2357"/><text fill="#000000" font-family="Segoe UI" font-size="21.6667" lengthAdjust="spacing" textLength="88.0314" x="3241.6667" y="763.2829">-id: UUID</text><text fill="#000000" font-family="Segoe UI" font-size="21.6667" lengthAdjust="spacing" textLength="222.5277" x="3241.6667" y="792.1012">-submittedAt: datetime</text><text fill="#000000" font-family="Segoe UI" font-size="21.6667" lengthAdjust="spacing" textLength="222.4748" x="3241.6667" y="820.9196">-validatedAt: datetime?</text><text fill="#000000" font-family="Segoe UI" font-size="21.6667" lengthAdjust="spacing" textLength="309.2367" x="3241.6667" y="849.738">-status: SupplierValidationStatus</text><text fill="#000000" font-family="Segoe UI" font-size="21.6667" lengthAdjust="spacing" textLength="164.5947" x="3241.6667" y="878.5563">-comment: string</text></g><!--class LegalDocument--><g class="entity" data-qualified-name="Validation fournisseur.LegalDocument" data-source-line="148" id="ent0017"><rect fill="#FCFEFE" height="207.4251" rx="8.3333" ry="8.3333" style="stroke:#335C67;stroke-width:0.8333;" width="277.408" x="3258.3333" y="1242.4023"/><rect fill="#E6F2F3" height="50" rx="8.3333" ry="8.3333" style="stroke:#E6F2F3;stroke-width:0.8333;" width="277.408" x="3258.3333" y="1242.4023"/><rect fill="#E6F2F3" height="8.3333" style="stroke:#E6F2F3;stroke-width:0.8333;" width="277.408" x="3258.3333" y="1284.069"/><rect fill="none" height="207.4251" rx="8.3333" ry="8.3333" style="stroke:#335C67;stroke-width:0.8333;" width="277.408" x="3258.3333" y="1242.4023"/><ellipse cx="3316.3597" cy="1267.4023" fill="#ADD1B2" rx="16.6667" ry="16.6667" style="stroke:#181818;stroke-width:1.6667;"/><path d="M3317.9222,1261.8034 Q3318.1305,1261.5169 3318.3649,1261.3867 Q3318.5992,1261.2565 3318.8857,1261.2565 Q3319.3545,1261.2565 3319.6409,1261.5951 Q3319.9534,1261.9076 3319.9534,1262.6888 L3319.9534,1264.5378 Q3319.9534,1265.319 3319.6409,1265.6576 Q3319.3545,1265.9701 3318.8857,1265.9701 Q3318.443,1265.9701 3318.1826,1265.7357 Q3317.9222,1265.5013 3317.792,1264.8242 Q3317.7138,1264.3815 3317.5055,1264.1471 Q3317.0628,1263.6523 3316.2815,1263.3659 Q3315.5003,1263.0794 3314.719,1263.0794 Q3313.7555,1263.0794 3312.9222,1263.5221 Q3312.1149,1263.9388 3311.4899,1264.9023 Q3310.8649,1265.8398 3310.8649,1267.1419 L3310.8649,1268.5482 Q3310.8649,1270.1107 3312.0107,1271.1784 Q3313.1565,1272.2201 3315.1617,1272.2201 Q3316.3857,1272.2201 3317.219,1271.8815 Q3317.6878,1271.6992 3318.2347,1271.1263 Q3318.5732,1270.7878 3318.7555,1270.7096 Q3318.9638,1270.6055 3319.1982,1270.6055 Q3319.6409,1270.6055 3319.9534,1270.944 Q3320.292,1271.2565 3320.292,1271.6992 Q3320.292,1272.1419 3319.8492,1272.6628 Q3319.1982,1273.3919 3318.1826,1273.8086 Q3316.8284,1274.3815 3315.1878,1274.3815 Q3313.2607,1274.3815 3311.6982,1273.6003 Q3310.4482,1272.9492 3309.5628,1271.5951 Q3308.7034,1270.2148 3308.7034,1268.6003 L3308.7034,1267.1159 Q3308.7034,1265.4232 3309.4847,1263.9648 Q3310.292,1262.5065 3311.6722,1261.7253 Q3313.0784,1260.918 3314.6409,1260.918 Q3315.5784,1260.918 3316.3857,1261.1523 Q3317.219,1261.3607 3317.9222,1261.8034 Z " fill="#000000"/><text fill="#000000" font-family="Segoe UI" font-size="21.6667" lengthAdjust="spacing" textLength="150.3125" x="3345.7359" y="1276.3737">LegalDocument</text><line style="stroke:#335C67;stroke-width:0.8333;" x1="3260" x2="3534.0747" y1="1292.4023" y2="1292.4023"/><text fill="#000000" font-family="Segoe UI" font-size="21.6667" lengthAdjust="spacing" textLength="88.0314" x="3268.3333" y="1322.4495">-id: UUID</text><text fill="#000000" font-family="Segoe UI" font-size="21.6667" lengthAdjust="spacing" textLength="257.408" x="3268.3333" y="1351.2679">-type: LegalDocumentType</text><text fill="#000000" font-family="Segoe UI" font-size="21.6667" lengthAdjust="spacing" textLength="107.7197" x="3268.3333" y="1380.0863">-file: Media</text><text fill="#000000" font-family="Segoe UI" font-size="21.6667" lengthAdjust="spacing" textLength="234.0804" x="3268.3333" y="1408.9046">-status: DocumentStatus</text><text fill="#000000" font-family="Segoe UI" font-size="21.6667" lengthAdjust="spacing" textLength="216.4657" x="3268.3333" y="1437.723">-uploadedAt: datetime</text></g><!--class User--><g class="entity" data-qualified-name="Acteurs relies.User" data-source-line="158" id="ent0019"><rect fill="#FCFEFE" height="50" rx="8.3333" ry="8.3333" style="stroke:#335C67;stroke-width:0.8333;" width="91.7253" x="269.1667" y="761.569"/><rect fill="#E6F2F3" height="50" rx="8.3333" ry="8.3333" style="stroke:#E6F2F3;stroke-width:0.8333;" width="91.7253" x="269.1667" y="761.569"/><rect fill="#E6F2F3" height="8.3333" style="stroke:#E6F2F3;stroke-width:0.8333;" width="91.7253" x="269.1667" y="803.2357"/><rect fill="none" height="50" rx="8.3333" ry="8.3333" style="stroke:#335C67;stroke-width:0.8333;" width="91.7253" x="269.1667" y="761.569"/><ellipse cx="292.5" cy="786.569" fill="#A9DCDF" rx="16.6667" ry="16.6667" style="stroke:#181818;stroke-width:1.6667;"/><path d="M295.8073,788.4961 L290.5469,788.4961 L290.026,789.8242 L290.5469,789.8242 Q291.3281,789.8242 291.6667,790.1367 Q292.0052,790.4232 292.0052,790.918 Q292.0052,791.3867 291.6667,791.6992 Q291.3281,791.9857 290.5469,791.9857 L287.6302,791.9857 Q286.849,791.9857 286.5104,791.6992 Q286.1719,791.3867 286.1719,790.8919 Q286.1719,790.3971 286.5365,790.1107 Q286.875,789.7982 287.6823,789.8242 L291.0938,781.3346 L289.6615,781.3346 Q288.8802,781.3346 288.5417,781.0482 Q288.2292,780.7357 288.2292,780.2409 Q288.2292,779.7461 288.5417,779.4596 Q288.8802,779.1471 289.6615,779.1471 L294.349,779.1732 L298.6719,789.8242 Q299.4271,789.8242 299.6875,789.9805 Q300.1563,790.3451 300.1563,790.918 Q300.1563,791.3867 299.8177,791.6992 Q299.5052,791.9857 298.724,791.9857 L295.8073,791.9857 Q295.026,791.9857 294.6875,791.6992 Q294.349,791.3867 294.349,790.8919 Q294.349,790.4232 294.6875,790.1367 Q295.026,789.8242 295.8073,789.8242 L296.3281,789.8242 L295.8073,788.4961 Z M294.9219,786.3346 L293.1771,782.0378 L291.4063,786.3346 L294.9219,786.3346 Z " fill="#000000"/><text fill="#000000" font-family="Segoe UI" font-size="21.6667" font-style="italic" lengthAdjust="spacing" textLength="41.7253" x="314.1667" y="795.5404">User</text></g><!--class BuyerUser--><g class="entity" data-qualified-name="Acteurs relies.BuyerUser" data-source-line="159" id="ent0020"><rect fill="#FCFEFE" height="50" rx="8.3333" ry="8.3333" style="stroke:#335C67;stroke-width:0.8333;" width="146.971" x="906.6667" y="761.569"/><rect fill="#E6F2F3" height="50" rx="8.3333" ry="8.3333" style="stroke:#E6F2F3;stroke-width:0.8333;" width="146.971" x="906.6667" y="761.569"/><rect fill="#E6F2F3" height="8.3333" style="stroke:#E6F2F3;stroke-width:0.8333;" width="146.971" x="906.6667" y="803.2357"/><rect fill="none" height="50" rx="8.3333" ry="8.3333" style="stroke:#335C67;stroke-width:0.8333;" width="146.971" x="906.6667" y="761.569"/><ellipse cx="930" cy="786.569" fill="#ADD1B2" rx="16.6667" ry="16.6667" style="stroke:#181818;stroke-width:1.6667;"/><path d="M931.5625,780.9701 Q931.7708,780.6836 932.0052,780.5534 Q932.2396,780.4232 932.526,780.4232 Q932.9948,780.4232 933.2813,780.7617 Q933.5938,781.0742 933.5938,781.8555 L933.5938,783.7044 Q933.5938,784.4857 933.2813,784.8242 Q932.9948,785.1367 932.526,785.1367 Q932.0833,785.1367 931.8229,784.9023 Q931.5625,784.668 931.4323,783.9909 Q931.3542,783.5482 931.1458,783.3138 Q930.7031,782.819 929.9219,782.5326 Q929.1406,782.2461 928.3594,782.2461 Q927.3958,782.2461 926.5625,782.6888 Q925.7552,783.1055 925.1302,784.069 Q924.5052,785.0065 924.5052,786.3086 L924.5052,787.7148 Q924.5052,789.2773 925.651,790.3451 Q926.7969,791.3867 928.8021,791.3867 Q930.026,791.3867 930.8594,791.0482 Q931.3281,790.8659 931.875,790.293 Q932.2135,789.9544 932.3958,789.8763 Q932.6042,789.7721 932.8385,789.7721 Q933.2813,789.7721 933.5938,790.1107 Q933.9323,790.4232 933.9323,790.8659 Q933.9323,791.3086 933.4896,791.8294 Q932.8385,792.5586 931.8229,792.9753 Q930.4688,793.5482 928.8281,793.5482 Q926.901,793.5482 925.3385,792.7669 Q924.0885,792.1159 923.2031,790.7617 Q922.3438,789.3815 922.3438,787.7669 L922.3438,786.2826 Q922.3438,784.5898 923.125,783.1315 Q923.9323,781.6732 925.3125,780.8919 Q926.7188,780.0846 928.2813,780.0846 Q929.2188,780.0846 930.026,780.319 Q930.8594,780.5273 931.5625,780.9701 Z " fill="#000000"/><text fill="#000000" font-family="Segoe UI" font-size="21.6667" lengthAdjust="spacing" textLength="96.971" x="951.6667" y="795.5404">BuyerUser</text></g><!--class SupplierUser--><g class="entity" data-qualified-name="Acteurs relies.SupplierUser" data-source-line="160" id="ent0021"><rect fill="#FCFEFE" height="50" rx="8.3333" ry="8.3333" style="stroke:#335C67;stroke-width:0.8333;" width="171.547" x="39.1667" y="761.569"/><rect fill="#E6F2F3" height="50" rx="8.3333" ry="8.3333" style="stroke:#E6F2F3;stroke-width:0.8333;" width="171.547" x="39.1667" y="761.569"/><rect fill="#E6F2F3" height="8.3333" style="stroke:#E6F2F3;stroke-width:0.8333;" width="171.547" x="39.1667" y="803.2357"/><rect fill="none" height="50" rx="8.3333" ry="8.3333" style="stroke:#335C67;stroke-width:0.8333;" width="171.547" x="39.1667" y="761.569"/><ellipse cx="62.5" cy="786.569" fill="#ADD1B2" rx="16.6667" ry="16.6667" style="stroke:#181818;stroke-width:1.6667;"/><path d="M64.0625,780.9701 Q64.2708,780.6836 64.5052,780.5534 Q64.7396,780.4232 65.026,780.4232 Q65.4948,780.4232 65.7813,780.7617 Q66.0938,781.0742 66.0938,781.8555 L66.0938,783.7044 Q66.0938,784.4857 65.7813,784.8242 Q65.4948,785.1367 65.026,785.1367 Q64.5833,785.1367 64.3229,784.9023 Q64.0625,784.668 63.9323,783.9909 Q63.8542,783.5482 63.6458,783.3138 Q63.2031,782.819 62.4219,782.5326 Q61.6406,782.2461 60.8594,782.2461 Q59.8958,782.2461 59.0625,782.6888 Q58.2552,783.1055 57.6302,784.069 Q57.0052,785.0065 57.0052,786.3086 L57.0052,787.7148 Q57.0052,789.2773 58.151,790.3451 Q59.2969,791.3867 61.3021,791.3867 Q62.526,791.3867 63.3594,791.0482 Q63.8281,790.8659 64.375,790.293 Q64.7135,789.9544 64.8958,789.8763 Q65.1042,789.7721 65.3385,789.7721 Q65.7813,789.7721 66.0938,790.1107 Q66.4323,790.4232 66.4323,790.8659 Q66.4323,791.3086 65.9896,791.8294 Q65.3385,792.5586 64.3229,792.9753 Q62.9688,793.5482 61.3281,793.5482 Q59.401,793.5482 57.8385,792.7669 Q56.5885,792.1159 55.7031,790.7617 Q54.8438,789.3815 54.8438,787.7669 L54.8438,786.2826 Q54.8438,784.5898 55.625,783.1315 Q56.4323,781.6732 57.8125,780.8919 Q59.2188,780.0846 60.7813,780.0846 Q61.7188,780.0846 62.526,780.319 Q63.3594,780.5273 64.0625,780.9701 Z " fill="#000000"/><text fill="#000000" font-family="Segoe UI" font-size="21.6667" lengthAdjust="spacing" textLength="121.547" x="84.1667" y="795.5404">SupplierUser</text></g><!--class Address--><g class="entity" data-qualified-name="Acteurs relies.Address" data-source-line="161" id="ent0022"><rect fill="#FCFEFE" height="74.3034" rx="8.3333" ry="8.3333" style="stroke:#335C67;stroke-width:0.8333;" width="185.4468" x="419.1667" y="749.069"/><rect fill="#E6F2F3" height="74.3034" rx="8.3333" ry="8.3333" style="stroke:#E6F2F3;stroke-width:0.8333;" width="185.4468" x="419.1667" y="749.069"/><rect fill="#E6F2F3" height="8.3333" style="stroke:#E6F2F3;stroke-width:0.8333;" width="185.4468" x="419.1667" y="815.0391"/><rect fill="none" height="74.3034" rx="8.3333" ry="8.3333" style="stroke:#335C67;stroke-width:0.8333;" width="185.4468" x="419.1667" y="749.069"/><ellipse cx="442.5" cy="786.2207" fill="#ADD1B2" rx="16.6667" ry="16.6667" style="stroke:#181818;stroke-width:1.6667;"/><path d="M444.0625,780.6217 Q444.2708,780.3353 444.5052,780.2051 Q444.7396,780.0749 445.026,780.0749 Q445.4948,780.0749 445.7813,780.4134 Q446.0938,780.7259 446.0938,781.5072 L446.0938,783.3561 Q446.0938,784.1374 445.7813,784.4759 Q445.4948,784.7884 445.026,784.7884 Q444.5833,784.7884 444.3229,784.554 Q444.0625,784.3197 443.9323,783.6426 Q443.8542,783.1999 443.6458,782.9655 Q443.2031,782.4707 442.4219,782.1842 Q441.6406,781.8978 440.8594,781.8978 Q439.8958,781.8978 439.0625,782.3405 Q438.2552,782.7572 437.6302,783.7207 Q437.0052,784.6582 437.0052,785.9603 L437.0052,787.3665 Q437.0052,788.929 438.151,789.9967 Q439.2969,791.0384 441.3021,791.0384 Q442.526,791.0384 443.3594,790.6999 Q443.8281,790.5176 444.375,789.9447 Q444.7135,789.6061 444.8958,789.528 Q445.1042,789.4238 445.3385,789.4238 Q445.7813,789.4238 446.0938,789.7624 Q446.4323,790.0749 446.4323,790.5176 Q446.4323,790.9603 445.9896,791.4811 Q445.3385,792.2103 444.3229,792.627 Q442.9688,793.1999 441.3281,793.1999 Q439.401,793.1999 437.8385,792.4186 Q436.5885,791.7676 435.7031,790.4134 Q434.8438,789.0332 434.8438,787.4186 L434.8438,785.9342 Q434.8438,784.2415 435.625,782.7832 Q436.4323,781.3249 437.8125,780.5436 Q439.2188,779.7363 440.7813,779.7363 Q441.7188,779.7363 442.526,779.9707 Q443.3594,780.179 444.0625,780.6217 Z " fill="#000000"/><text fill="#000000" font-family="Segoe UI" font-size="21.6667" font-style="italic" lengthAdjust="spacing" textLength="142.1134" x="460.8333" y="780.7829">&#171;Value Object&#187;</text><text fill="#000000" font-family="Segoe UI" font-size="21.6667" lengthAdjust="spacing" textLength="76.7432" x="493.5185" y="809.6012">Address</text></g><!--class Media--><g class="entity" data-qualified-name="Acteurs relies.Media" data-source-line="162" id="ent0023"><rect fill="#FCFEFE" height="74.3034" rx="8.3333" ry="8.3333" style="stroke:#335C67;stroke-width:0.8333;" width="185.4468" x="662.5" y="749.069"/><rect fill="#E6F2F3" height="74.3034" rx="8.3333" ry="8.3333" style="stroke:#E6F2F3;stroke-width:0.8333;" width="185.4468" x="662.5" y="749.069"/><rect fill="#E6F2F3" height="8.3333" style="stroke:#E6F2F3;stroke-width:0.8333;" width="185.4468" x="662.5" y="815.0391"/><rect fill="none" height="74.3034" rx="8.3333" ry="8.3333" style="stroke:#335C67;stroke-width:0.8333;" width="185.4468" x="662.5" y="749.069"/><ellipse cx="685.8333" cy="786.2207" fill="#ADD1B2" rx="16.6667" ry="16.6667" style="stroke:#181818;stroke-width:1.6667;"/><path d="M687.3958,780.6217 Q687.6042,780.3353 687.8385,780.2051 Q688.0729,780.0749 688.3594,780.0749 Q688.8281,780.0749 689.1146,780.4134 Q689.4271,780.7259 689.4271,781.5072 L689.4271,783.3561 Q689.4271,784.1374 689.1146,784.4759 Q688.8281,784.7884 688.3594,784.7884 Q687.9167,784.7884 687.6563,784.554 Q687.3958,784.3197 687.2656,783.6426 Q687.1875,783.1999 686.9792,782.9655 Q686.5365,782.4707 685.7552,782.1842 Q684.974,781.8978 684.1927,781.8978 Q683.2292,781.8978 682.3958,782.3405 Q681.5885,782.7572 680.9635,783.7207 Q680.3385,784.6582 680.3385,785.9603 L680.3385,787.3665 Q680.3385,788.929 681.4844,789.9967 Q682.6302,791.0384 684.6354,791.0384 Q685.8594,791.0384 686.6927,790.6999 Q687.1615,790.5176 687.7083,789.9447 Q688.0469,789.6061 688.2292,789.528 Q688.4375,789.4238 688.6719,789.4238 Q689.1146,789.4238 689.4271,789.7624 Q689.7656,790.0749 689.7656,790.5176 Q689.7656,790.9603 689.3229,791.4811 Q688.6719,792.2103 687.6563,792.627 Q686.3021,793.1999 684.6615,793.1999 Q682.7344,793.1999 681.1719,792.4186 Q679.9219,791.7676 679.0365,790.4134 Q678.1771,789.0332 678.1771,787.4186 L678.1771,785.9342 Q678.1771,784.2415 678.9583,782.7832 Q679.7656,781.3249 681.1458,780.5436 Q682.5521,779.7363 684.1146,779.7363 Q685.0521,779.7363 685.8594,779.9707 Q686.6927,780.179 687.3958,780.6217 Z " fill="#000000"/><text fill="#000000" font-family="Segoe UI" font-size="21.6667" font-style="italic" lengthAdjust="spacing" textLength="142.1134" x="704.1667" y="780.7829">&#171;Value Object&#187;</text><text fill="#000000" font-family="Segoe UI" font-size="21.6667" lengthAdjust="spacing" textLength="59.8161" x="745.3153" y="809.6012">Media</text></g><!--class LocalizedText--><g class="entity" data-qualified-name="Acteurs relies.LocalizedText" data-source-line="163" id="ent0024"><rect fill="#FCFEFE" height="74.3034" rx="8.3333" ry="8.3333" style="stroke:#335C67;stroke-width:0.8333;" width="185.4468" x="419.1667" y="1308.2357"/><rect fill="#E6F2F3" height="74.3034" rx="8.3333" ry="8.3333" style="stroke:#E6F2F3;stroke-width:0.8333;" width="185.4468" x="419.1667" y="1308.2357"/><rect fill="#E6F2F3" height="8.3333" style="stroke:#E6F2F3;stroke-width:0.8333;" width="185.4468" x="419.1667" y="1374.2057"/><rect fill="none" height="74.3034" rx="8.3333" ry="8.3333" style="stroke:#335C67;stroke-width:0.8333;" width="185.4468" x="419.1667" y="1308.2357"/><ellipse cx="442.5" cy="1345.3874" fill="#ADD1B2" rx="16.6667" ry="16.6667" style="stroke:#181818;stroke-width:1.6667;"/><path d="M444.0625,1339.7884 Q444.2708,1339.502 444.5052,1339.3717 Q444.7396,1339.2415 445.026,1339.2415 Q445.4948,1339.2415 445.7813,1339.5801 Q446.0938,1339.8926 446.0938,1340.6738 L446.0938,1342.5228 Q446.0938,1343.304 445.7813,1343.6426 Q445.4948,1343.9551 445.026,1343.9551 Q444.5833,1343.9551 444.3229,1343.7207 Q444.0625,1343.4863 443.9323,1342.8092 Q443.8542,1342.3665 443.6458,1342.1322 Q443.2031,1341.6374 442.4219,1341.3509 Q441.6406,1341.0645 440.8594,1341.0645 Q439.8958,1341.0645 439.0625,1341.5072 Q438.2552,1341.9238 437.6302,1342.8874 Q437.0052,1343.8249 437.0052,1345.127 L437.0052,1346.5332 Q437.0052,1348.0957 438.151,1349.1634 Q439.2969,1350.2051 441.3021,1350.2051 Q442.526,1350.2051 443.3594,1349.8665 Q443.8281,1349.6842 444.375,1349.1113 Q444.7135,1348.7728 444.8958,1348.6947 Q445.1042,1348.5905 445.3385,1348.5905 Q445.7813,1348.5905 446.0938,1348.929 Q446.4323,1349.2415 446.4323,1349.6842 Q446.4323,1350.127 445.9896,1350.6478 Q445.3385,1351.377 444.3229,1351.7936 Q442.9688,1352.3665 441.3281,1352.3665 Q439.401,1352.3665 437.8385,1351.5853 Q436.5885,1350.9342 435.7031,1349.5801 Q434.8438,1348.1999 434.8438,1346.5853 L434.8438,1345.1009 Q434.8438,1343.4082 435.625,1341.9499 Q436.4323,1340.4915 437.8125,1339.7103 Q439.2188,1338.903 440.7813,1338.903 Q441.7188,1338.903 442.526,1339.1374 Q443.3594,1339.3457 444.0625,1339.7884 Z " fill="#000000"/><text fill="#000000" font-family="Segoe UI" font-size="21.6667" font-style="italic" lengthAdjust="spacing" textLength="142.1134" x="460.8333" y="1339.9495">&#171;Value Object&#187;</text><text fill="#000000" font-family="Segoe UI" font-size="21.6667" lengthAdjust="spacing" textLength="128.2756" x="467.7523" y="1368.7679">LocalizedText</text></g><!--link SupplierCompany to Product--><g class="link" data-entity-1="ent0002" data-entity-2="ent0003" data-link-type="association" data-source-line="166" id="lnk25"><path codeLine="166" d="M2487.0833,568.819 C2487.0833,695.5523 2487.0833,859.6857 2487.0833,1004.419" fill="none" id="SupplierCompany-Product" style="stroke:#4C5B61;stroke-width:1.6667;"/><text fill="#000000" font-family="Segoe UI" font-size="21.6667" lengthAdjust="spacing" textLength="88.116" x="2443.75" y="811.6662">proposes</text><text fill="#000000" font-family="Segoe UI" font-size="21.6667" lengthAdjust="spacing" textLength="11.6797" x="2480.6796" y="605.9358">1</text><text fill="#000000" font-family="Segoe UI" font-size="21.6667" lengthAdjust="spacing" textLength="30.109" x="2455.9194" y="985.586">0..*</text></g><!--link SupplierCompany to SupplierUser--><g class="link" data-entity-1="ent0002" data-entity-2="ent0021" data-link-type="association" data-source-line="167" id="lnk26"><path codeLine="167" d="M2182.4667,288.2357 C1618.15,288.2357 125,288.2357 125,288.2357 C125,288.2357 125,659.619 125,761.169" fill="none" id="SupplierCompany-SupplierUser" style="stroke:#4C5B61;stroke-width:1.6667;"/><text fill="#000000" font-family="Segoe UI" font-size="21.6667" lengthAdjust="spacing" textLength="84.6143" x="832.2667" y="281.6162">hasUsers</text><text fill="#000000" font-family="Segoe UI" font-size="21.6667" lengthAdjust="spacing" textLength="11.6797" x="2157.5004" y="278.1945">1</text><text fill="#000000" font-family="Segoe UI" font-size="21.6667" lengthAdjust="spacing" textLength="30.109" x="89.8831" y="742.6985">1..*</text></g><!--link SupplierCompany to SupplierValidationFile--><g class="link" data-entity-1="ent0002" data-entity-2="ent0016" data-link-type="association" data-source-line="168" id="lnk27"><path codeLine="168" d="M2608.0333,358.2357 C2902.15,358.2357 3396.6667,358.2357 3396.6667,358.2357 C3396.6667,358.2357 3396.6667,556.119 3396.6667,682.8857" fill="none" id="SupplierCompany-SupplierValidationFile" style="stroke:#4C5B61;stroke-width:1.6667;"/><text fill="#000000" font-family="Segoe UI" font-size="21.6667" lengthAdjust="spacing" textLength="125.6307" x="3038.0167" y="351.6162">validationFile</text><text fill="#000000" font-family="Segoe UI" font-size="21.6667" lengthAdjust="spacing" textLength="11.6797" x="2620.6933" y="352.5024">1</text><text fill="#000000" font-family="Segoe UI" font-size="21.6667" lengthAdjust="spacing" textLength="11.6797" x="3384.3704" y="664.2907">1</text></g><!--reverse link SupplierValidationFile to LegalDocument--><g class="link" data-entity-1="ent0016" data-entity-2="ent0017" data-link-type="composition" data-source-line="169" id="lnk28"><path codeLine="169" d="M3396.6667,910.4357 C3396.6667,1010.719 3396.6667,1141.7023 3396.6667,1241.9523" fill="none" id="SupplierValidationFile-backto-LegalDocument" style="stroke:#4C5B61;stroke-width:1.6667;"/><polygon fill="#4C5B61" points="3396.6667,890.4357,3390,900.4357,3396.6667,910.4357,3403.3333,900.4357,3396.6667,890.4357" style="stroke:#4C5B61;stroke-width:1.6667;stroke-linejoin:miter;stroke-miterlimit:10;"/><text fill="#000000" font-family="Segoe UI" font-size="21.6667" lengthAdjust="spacing" textLength="106.5137" x="3290" y="1059.5662">documents</text><text fill="#000000" font-family="Segoe UI" font-size="21.6667" lengthAdjust="spacing" textLength="11.6797" x="3384.3704" y="927.448">1</text><text fill="#000000" font-family="Segoe UI" font-size="21.6667" lengthAdjust="spacing" textLength="30.109" x="3364.8957" y="1223.3458">1..*</text></g><!--link SupplierCompany to Brand--><g class="link" data-entity-1="ent0002" data-entity-2="ent0004" data-link-type="association" data-source-line="171" id="lnk29"><path codeLine="171" d="M2320,568.8357 C2320,608.619 2320,648.5357 2320,683.1357" fill="none" id="SupplierCompany-Brand" style="stroke:#4C5B61;stroke-width:1.6667;"/><text fill="#000000" font-family="Segoe UI" font-size="21.6667" lengthAdjust="spacing" textLength="170.3076" x="2321.6667" y="651.0329">owns / distributes</text><text fill="#000000" font-family="Segoe UI" font-size="21.6667" lengthAdjust="spacing" textLength="30.109" x="2284.5257" y="605.9535">0..*</text><text fill="#000000" font-family="Segoe UI" font-size="21.6667" lengthAdjust="spacing" textLength="30.109" x="2288.315" y="664.5696">0..*</text></g><!--link Brand to Product--><g class="link" data-entity-1="ent0004" data-entity-2="ent0003" data-link-type="association" data-source-line="172" id="lnk30"><path codeLine="172" d="M2368.3333,890.4357 C2368.3333,924.069 2368.3333,963.419 2368.3333,1004.6357" fill="none" id="Brand-Product" style="stroke:#4C5B61;stroke-width:1.6667;"/><text fill="#000000" font-family="Segoe UI" font-size="21.6667" lengthAdjust="spacing" textLength="67.1794" x="2370" y="940.9162">groups</text><text fill="#000000" font-family="Segoe UI" font-size="21.6667" lengthAdjust="spacing" textLength="11.6797" x="2361.6245" y="927.448">1</text><text fill="#000000" font-family="Segoe UI" font-size="21.6667" lengthAdjust="spacing" textLength="30.109" x="2332.5307" y="985.8111">0..*</text></g><!--link Category to Product--><g class="link" data-entity-1="ent0005" data-entity-2="ent0003" data-link-type="association" data-source-line="173" id="lnk31"><path codeLine="173" d="M2620.4167,905.1523 C2620.4167,935.2857 2620.4167,969.2023 2620.4167,1004.5023" fill="none" id="Category-Product" style="stroke:#4C5B61;stroke-width:1.6667;"/><text fill="#000000" font-family="Segoe UI" font-size="21.6667" lengthAdjust="spacing" textLength="133.7769" x="2622.0833" y="948.2162">mainCategory</text><text fill="#000000" font-family="Segoe UI" font-size="21.6667" lengthAdjust="spacing" textLength="11.6797" x="2606.4573" y="941.2289">1</text><text fill="#000000" font-family="Segoe UI" font-size="21.6667" lengthAdjust="spacing" textLength="30.109" x="2594.4611" y="985.6726">0..*</text></g><!--link Category to Category--><g class="link" data-entity-1="ent0005" data-entity-2="ent0005" data-link-type="association" data-source-line="174" id="lnk32"><path codeLine="174" d="M2683.75,667.8357 C2683.75,639.969 2683.75,618.2357 2683.75,618.2357 C2683.75,618.2357 2770.8333,618.2357 2770.8333,618.2357 C2770.8333,618.2357 2770.8333,954.9023 2770.8333,954.9023 C2770.8333,954.9023 2742.0833,954.9023 2742.0833,954.9023 C2742.0833,954.9023 2742.0833,933.169 2742.0833,905.3023" fill="none" id="Category-Category" style="stroke:#4C5B61;stroke-width:1.6667;"/><text fill="#000000" font-family="Segoe UI" font-size="21.6667" lengthAdjust="spacing" textLength="159.1886" x="2780.8333" y="742.4495">parent / children</text><text fill="#000000" font-family="Segoe UI" font-size="21.6667" lengthAdjust="spacing" textLength="32.7539" x="2655.1581" y="649.2244">0..1</text><text fill="#000000" font-family="Segoe UI" font-size="21.6667" lengthAdjust="spacing" textLength="30.109" x="2753.3772" y="941.3932">0..*</text></g><!--reverse link Product to Lot--><g class="link" data-entity-1="ent0003" data-entity-2="ent0006" data-link-type="composition" data-source-line="176" id="lnk33"><path codeLine="176" d="M2346.6667,1706.7023 C2346.6667,1741.8023 2346.6667,1755.7857 2346.6667,1786.4357" fill="none" id="Product-backto-Lot" style="stroke:#4C5B61;stroke-width:1.6667;"/><polygon fill="#4C5B61" points="2346.6667,1686.7023,2340,1696.7023,2346.6667,1706.7023,2353.3333,1696.7023,2346.6667,1686.7023" style="stroke:#4C5B61;stroke-width:1.6667;stroke-linejoin:miter;stroke-miterlimit:10;"/><text fill="#000000" font-family="Segoe UI" font-size="21.6667" lengthAdjust="spacing" textLength="34.4784" x="2348.3333" y="1729.9495">lots</text><text fill="#000000" font-family="Segoe UI" font-size="21.6667" lengthAdjust="spacing" textLength="11.6797" x="2328.7072" y="1723.9611">1</text><text fill="#000000" font-family="Segoe UI" font-size="21.6667" lengthAdjust="spacing" textLength="30.109" x="2319.7209" y="1767.9693">0..*</text></g><!--reverse link Product to PriceTier--><g class="link" data-entity-1="ent0003" data-entity-2="ent0007" data-link-type="composition" data-source-line="177" id="lnk34"><path codeLine="177" d="M2556.6667,1706.7023 C2556.6667,1747.3357 2556.6667,1766.469 2556.6667,1800.6523" fill="none" id="Product-backto-PriceTier" style="stroke:#4C5B61;stroke-width:1.6667;"/><polygon fill="#4C5B61" points="2556.6667,1686.7023,2550,1696.7023,2556.6667,1706.7023,2563.3333,1696.7023,2556.6667,1686.7023" style="stroke:#4C5B61;stroke-width:1.6667;stroke-linejoin:miter;stroke-miterlimit:10;"/><text fill="#000000" font-family="Segoe UI" font-size="21.6667" lengthAdjust="spacing" textLength="91.512" x="2558.3333" y="1737.0495">priceTiers</text><text fill="#000000" font-family="Segoe UI" font-size="21.6667" lengthAdjust="spacing" textLength="11.6797" x="2546.9104" y="1723.9611">1</text><text fill="#000000" font-family="Segoe UI" font-size="21.6667" lengthAdjust="spacing" textLength="30.109" x="2520.7965" y="1782.0737">0..*</text></g><!--link Product to Review--><g class="link" data-entity-1="ent0003" data-entity-2="ent0014" data-link-type="association" data-source-line="178" id="lnk35"><path codeLine="178" d="M2278.6333,1591.569 C1973.9667,1591.569 1465,1591.569 1465,1591.569 C1465,1591.569 1465,1516.469 1465,1449.2857" fill="none" id="Product-Review" style="stroke:#4C5B61;stroke-width:1.6667;"/><text fill="#000000" font-family="Segoe UI" font-size="21.6667" lengthAdjust="spacing" textLength="70.6706" x="1729" y="1584.9495">reviews</text><text fill="#000000" font-family="Segoe UI" font-size="21.6667" lengthAdjust="spacing" textLength="11.6797" x="2254.4362" y="1599.2937">1</text><text fill="#000000" font-family="Segoe UI" font-size="21.6667" lengthAdjust="spacing" textLength="30.109" x="1444.2116" y="1486.2614">0..*</text></g><!--link Product to SponsorshipCampaign--><g class="link" data-entity-1="ent0003" data-entity-2="ent0008" data-link-type="association" data-source-line="179" id="lnk36"><path codeLine="179" d="M2640,1686.7523 C2640,1749.1023 2640,1794.9023 2640,1794.9023 C2640,1794.9023 2707.9833,1794.9023 2781.2833,1794.9023" fill="none" id="Product-SponsorshipCampaign" style="stroke:#4C5B61;stroke-width:1.6667;"/><text fill="#000000" font-family="Segoe UI" font-size="21.6667" lengthAdjust="spacing" textLength="102.9167" x="2553.2333" y="1788.2829">campaigns</text><text fill="#000000" font-family="Segoe UI" font-size="21.6667" lengthAdjust="spacing" textLength="11.6797" x="2645.6213" y="1724.0131">1</text><text fill="#000000" font-family="Segoe UI" font-size="21.6667" lengthAdjust="spacing" textLength="30.109" x="2738.2723" y="1780.6695">0..*</text></g><!--link BuyerUser to RequestForQuotation--><g class="link" data-entity-1="ent0020" data-entity-2="ent0010" data-link-type="association" data-source-line="181" id="lnk37"><path codeLine="181" d="M980,811.6023 C980,900.619 980,1196.569 980,1196.569 C980,1196.569 1388.8,1196.569 1652.2833,1196.569" fill="none" id="BuyerUser-RequestForQuotation" style="stroke:#4C5B61;stroke-width:1.6667;"/><text fill="#000000" font-family="Segoe UI" font-size="21.6667" lengthAdjust="spacing" textLength="67.7612" x="1055.3167" y="1189.9495">creates</text><text fill="#000000" font-family="Segoe UI" font-size="21.6667" lengthAdjust="spacing" textLength="11.6797" x="966.3528" y="848.0482">1</text><text fill="#000000" font-family="Segoe UI" font-size="21.6667" lengthAdjust="spacing" textLength="30.109" x="1608.8317" y="1182.1778">0..*</text></g><!--link SupplierCompany to RequestForQuotation--><g class="link" data-entity-1="ent0002" data-entity-2="ent0010" data-link-type="association" data-source-line="182" id="lnk38"><path codeLine="182" d="M2182.2167,428.2357 C2036.6833,428.2357 1870,428.2357 1870,428.2357 C1870,428.2357 1870,879.319 1870,1148.9023" fill="none" id="SupplierCompany-RequestForQuotation" style="stroke:#4C5B61;stroke-width:1.6667;"/><text fill="#000000" font-family="Segoe UI" font-size="21.6667" lengthAdjust="spacing" textLength="76.3517" x="1793.3333" y="625.8495">receives</text><text fill="#000000" font-family="Segoe UI" font-size="21.6667" lengthAdjust="spacing" textLength="11.6797" x="2157.2352" y="426.7258">1</text><text fill="#000000" font-family="Segoe UI" font-size="21.6667" lengthAdjust="spacing" textLength="30.109" x="1839.0416" y="1130.4372">0..*</text></g><!--reverse link RequestForQuotation to RFQLine--><g class="link" data-entity-1="ent0010" data-entity-2="ent0011" data-link-type="composition" data-source-line="183" id="lnk39"><path codeLine="183" d="M1869.7167,1563.0523 C1869.7167,1660.5357 1869.7167,1753.369 1869.7167,1829.8023" fill="none" id="RequestForQuotation-backto-RFQLine" style="stroke:#4C5B61;stroke-width:1.6667;"/><polygon fill="#4C5B61" points="1869.7167,1543.0523,1863.05,1553.0523,1869.7167,1563.0523,1876.3833,1553.0523,1869.7167,1543.0523" style="stroke:#4C5B61;stroke-width:1.6667;stroke-linejoin:miter;stroke-miterlimit:10;"/><text fill="#000000" font-family="Segoe UI" font-size="21.6667" lengthAdjust="spacing" textLength="43.2804" x="1826.3833" y="1679.7995">lines</text><text fill="#000000" font-family="Segoe UI" font-size="21.6667" lengthAdjust="spacing" textLength="11.6797" x="1857.6767" y="1579.3247">1</text><text fill="#000000" font-family="Segoe UI" font-size="21.6667" lengthAdjust="spacing" textLength="30.109" x="1831.8773" y="1810.9649">1..*</text></g><!--link RFQLine to Product--><g class="link" data-entity-1="ent0011" data-entity-2="ent0003" data-link-type="association" data-source-line="184" id="lnk40"><path codeLine="184" d="M1956.95,1829.2023 C1956.95,1747.5857 1956.95,1639.9023 1956.95,1639.9023 C1956.95,1639.9023 2128.1,1639.9023 2278.5333,1639.9023" fill="none" id="RFQLine-Product" style="stroke:#4C5B61;stroke-width:1.6667;"/><text fill="#000000" font-family="Segoe UI" font-size="21.6667" lengthAdjust="spacing" textLength="75.3361" x="1946.4167" y="1633.2829">product</text><text fill="#000000" font-family="Segoe UI" font-size="21.6667" lengthAdjust="spacing" textLength="30.109" x="1930.652" y="1810.9338">0..*</text><text fill="#000000" font-family="Segoe UI" font-size="21.6667" lengthAdjust="spacing" textLength="11.6797" x="2254.3307" y="1650.2702">1</text></g><!--link RequestForQuotation to Conversation--><g class="link" data-entity-1="ent0010" data-entity-2="ent0012" data-link-type="association" data-source-line="186" id="lnk41"><path codeLine="186" d="M1652.3833,1496.569 C1624.25,1496.569 1605,1496.569 1605,1496.569 C1605,1496.569 1605,1705.4523 1605,1829.469" fill="none" id="RequestForQuotation-Conversation" style="stroke:#4C5B61;stroke-width:1.6667;"/><text fill="#000000" font-family="Segoe UI" font-size="21.6667" lengthAdjust="spacing" textLength="98.0607" x="1506.6667" y="1632.7162">discussion</text><text fill="#000000" font-family="Segoe UI" font-size="21.6667" lengthAdjust="spacing" textLength="11.6797" x="1627.7979" y="1499.5216">1</text><text fill="#000000" font-family="Segoe UI" font-size="21.6667" lengthAdjust="spacing" textLength="32.7539" x="1587.836" y="1811.2347">0..1</text></g><!--reverse link Conversation to Message--><g class="link" data-entity-1="ent0012" data-entity-2="ent0013" data-link-type="composition" data-source-line="187" id="lnk42"><path codeLine="187" d="M1444.5833,2028.619 C1444.5833,2072.5357 1444.5833,2105.669 1444.5833,2151.319" fill="none" id="Conversation-backto-Message" style="stroke:#4C5B61;stroke-width:1.6667;"/><polygon fill="#4C5B61" points="1444.5833,2008.619,1437.9167,2018.619,1444.5833,2028.619,1451.25,2018.619,1444.5833,2008.619" style="stroke:#4C5B61;stroke-width:1.6667;stroke-linejoin:miter;stroke-miterlimit:10;"/><text fill="#000000" font-family="Segoe UI" font-size="21.6667" lengthAdjust="spacing" textLength="92.6864" x="1351.25" y="2073.3495">messages</text><text fill="#000000" font-family="Segoe UI" font-size="21.6667" lengthAdjust="spacing" textLength="11.6797" x="1428.0784" y="2045.3018">1</text><text fill="#000000" font-family="Segoe UI" font-size="21.6667" lengthAdjust="spacing" textLength="30.109" x="1416.4572" y="2132.7356">0..*</text></g><!--link User to Message--><g class="link" data-entity-1="ent0019" data-entity-2="ent0013" data-link-type="association" data-source-line="188" id="lnk43"><path codeLine="188" d="M299.7167,812.0523 C299.7167,1007.0357 299.7167,2254.9023 299.7167,2254.9023 C299.7167,2254.9023 975.1833,2254.9023 1273.9833,2254.9023" fill="none" id="User-Message" style="stroke:#4C5B61;stroke-width:1.6667;"/><text fill="#000000" font-family="Segoe UI" font-size="21.6667" lengthAdjust="spacing" textLength="54.738" x="244.7167" y="2013.9829">sends</text><text fill="#000000" font-family="Segoe UI" font-size="21.6667" lengthAdjust="spacing" textLength="11.6797" x="281.3118" y="848.1486">1</text><text fill="#000000" font-family="Segoe UI" font-size="21.6667" lengthAdjust="spacing" textLength="30.109" x="1230.7151" y="2248.7203">0..*</text></g><!--link User to Review--><g class="link" data-entity-1="ent0019" data-entity-2="ent0014" data-link-type="association" data-source-line="189" id="lnk44"><path codeLine="189" d="M330.2833,812.219 C330.2833,913.0523 330.2833,1276.569 330.2833,1276.569 C330.2833,1276.569 840.7333,1276.569 1146.3167,1276.569" fill="none" id="User-Review" style="stroke:#4C5B61;stroke-width:1.6667;"/><text fill="#000000" font-family="Segoe UI" font-size="21.6667" lengthAdjust="spacing" textLength="56.3037" x="449.45" y="1269.9495">writes</text><text fill="#000000" font-family="Segoe UI" font-size="21.6667" lengthAdjust="spacing" textLength="11.6797" x="321.6216" y="848.3684">1</text><text fill="#000000" font-family="Segoe UI" font-size="21.6667" lengthAdjust="spacing" textLength="30.109" x="1103.2455" y="1267.0514">0..*</text></g><g class="legend" data-source-line="191"><rect fill="#F8FCFC" height="178.5091" rx="8.3333" ry="8.3333" style="stroke:#9CB7BE;stroke-width:1.6667;" width="412.7181" x="3167.2819" y="2418.2357"/><text fill="#000000" font-family="Segoe UI" font-size="23.3333" font-weight="700" lengthAdjust="spacing" textLength="98.4261" x="3182.0524" y="2455.0814">Notation</text><text fill="#000000" font-family="Segoe UI" font-size="23.3333" font-weight="700" lengthAdjust="spacing" textLength="50.0846" x="3332.6937" y="2455.0814">Sens</text><text fill="#000000" font-family="Segoe UI" font-size="23.3333" lengthAdjust="spacing" textLength="22.2168" x="3182.0068" y="2486.1165">`&lt;</text><text fill="#000000" font-family="Segoe UI" font-size="23.3333" lengthAdjust="spacing" textLength="24.917" x="3326.2565" y="2486.1165">--`</text><text fill="#000000" font-family="Segoe UI" font-size="23.3333" lengthAdjust="spacing" textLength="88.252" x="3477.0231" y="2486.1165">Heritage</text><text fill="#000000" font-family="Segoe UI" font-size="23.3333" lengthAdjust="spacing" textLength="31.1719" x="3182.0068" y="2517.1517">`--`</text><text fill="#000000" font-family="Segoe UI" font-size="23.3333" lengthAdjust="spacing" textLength="117.2591" x="3332.6481" y="2517.1517">Association</text><text fill="#000000" font-family="Segoe UI" font-size="23.3333" lengthAdjust="spacing" textLength="40.9017" x="3182.0068" y="2548.1868">`*--`</text><text fill="#000000" font-family="Segoe UI" font-size="23.3333" lengthAdjust="spacing" textLength="131.5918" x="3332.6481" y="2548.1868">Composition</text><text fill="#000000" font-family="Segoe UI" font-size="23.3333" lengthAdjust="spacing" textLength="137.8581" x="3182.0068" y="2579.222">`1`, `0..*`, `1..*`</text><text fill="#000000" font-family="Segoe UI" font-size="23.3333" lengthAdjust="spacing" textLength="120.21" x="3332.6481" y="2579.222">Cardinalites</text><line style="stroke:#000000;stroke-width:1.6667;" x1="3175.6152" x2="3571.6667" y1="2429.9023" y2="2429.9023"/><line style="stroke:#000000;stroke-width:1.6667;" x1="3175.6152" x2="3571.6667" y1="2460.9375" y2="2460.9375"/><line style="stroke:#000000;stroke-width:1.6667;" x1="3175.6152" x2="3571.6667" y1="2491.9727" y2="2491.9727"/><line style="stroke:#000000;stroke-width:1.6667;" x1="3175.6152" x2="3571.6667" y1="2523.0078" y2="2523.0078"/><line style="stroke:#000000;stroke-width:1.6667;" x1="3175.6152" x2="3571.6667" y1="2554.043" y2="2554.043"/><line style="stroke:#000000;stroke-width:1.6667;" x1="3175.6152" x2="3571.6667" y1="2585.0781" y2="2585.0781"/><line style="stroke:#000000;stroke-width:1.6667;" x1="3175.6152" x2="3175.6152" y1="2429.9023" y2="2585.0781"/><line style="stroke:#000000;stroke-width:1.6667;" x1="3326.2565" x2="3326.2565" y1="2429.9023" y2="2585.0781"/><line style="stroke:#000000;stroke-width:1.6667;" x1="3470.6315" x2="3470.6315" y1="2429.9023" y2="2585.0781"/><line style="stroke:#000000;stroke-width:1.6667;" x1="3571.6667" x2="3571.6667" y1="2429.9023" y2="2585.0781"/></g><?plantuml-src hLT9Tzis4BxpLw0wEKbjrptokSwpfJhjU_8IoyxP43YYK8C0WqMoKkU_Ty1513VvqfEWMO2PRrR-mYKJBW5oSdBAL9OfUMhiJi19xZ8HMMu5a1cdgQPP1WJbcA36W277v5Rjg2CPM0wQNFr-HQvlfb_8dw-vqZQoAYTMaQMoLcKauHgOvKf6QuvtG9RR7MfcIz0cYdBANcWAP3AbbWgLEfYGVoDIFaKMBiy5FZ5LMKxbhk0GV9udCNbw-djM_MKb-vPc41DZDPVfdkEarRiEbIQ91cDYSbaUAhBLD847IBcne6-Tjx2Zk8MbuRRx29gjOd832QSL9G73DC-zrp6PAqO5_m798xpQIc23b8Hw_i9Iwz2KsjLl7KwbyDqXtUuMJ6byFW76CoegdYvCreNIZ7hpy08CJGQ5m2V2JNKh94SVOWoC4a0bCdz6UwZljKeSisCGomBR8LUCS6a74BoyGrcRgKgwk6LSyinbTpe1_TLHYHc7aUBIxlrQWGR9OEgq_-s6qLZ5NXuLvasePTOWLdE-WXdTcP1HvSBTwaxpbClUPMKSAXnQu7Dp2ziGjvA8efb2JFkSHQwamKZrM7G36jFz0MCbqtuSDnosKszcO_SdaeAzrvp1jT97tqEOFhGlA2GlDvGBkXGmLzRuOCynDSxnpqKZywHJa7OsdnOo2S9qGr_h6xlotDmvUxTQUApRoLDoxzrIS2PstxZX-EneVbrfAfF3sVLEKRqNFwLt5eGeWEqcQc08DXf8KVP_oVHKAvV7-pk_-B-r0x21Lc9ovhj1xL5W4Q8zPenGTh0HvMMMjWg-BhxNd7TxGTD4UaMsfHhMoXaOgGSqRbyBhNQ16Vdek_-8vLLn3zLrHbzxhCyLpqbUPdktEDXm3y0HXYMeiu0SM5dLeLdpV4fnHl1KZjcR2yeW0rzwWTPzJMrGqROFkKnwD9xbVhHW6DfD28lbfKMfWGvU3G3_6Ov8dD6W6SvGYxr2534Ef-K3V7TWBFQ9hmwxecUFUJi0MpMti34LclSuoRl3T3W4c70uu26PWU3OtdQFl5VCA-rDArGVhhzUr_-QyLq2FvY0gD1gnao37sINjZVci6APGrYWc0b7lVR8rbIcK5vs966xwBw06Xl5atOE8NVE9OmXgKlG8HdAT2pJN1b8sXdzUTJli4qfYM2QWr4qRlaFGjyDqmX03QJXtKF5VOE9wpDkTDsIjXylQYrbQ--GgQP8qUekzZZHtZGSjZJ4lfY8ez1NKpGSyKEPbE7geLlBLddlJOV-ZbLXAJPR6baffoN7lTZfeTMraRpc0Wv4CkDsE6gRUdSBUP-xtUFm-dWmrUQGKZ5Jp7cHCGljBlTZCHHzH59TuEXRUrhNXjN2BNDSBXJkseSnliIcuhJnhOw3AR6bIx_euffQMlvaG3SRXjk1Rb5gK5h4QkSdv-U8bGDoLzJGnKMG_UZ5EBkr6VJ5q8FkLylaR4AEZydajvEJZvFzeXtNtS6CAfmL2g4NgBMcnfyEQ4t6aYyElZiy8HgHyrTyR0nevmT6h3gQ0LTB7njloxKl9ceh3Jd5Zq6VW4jdqUkIDGPEiLcPQB-jZSbbbCjQA916iPR2deEmuyQ3VfpYFE02Sq56KNtTtl5IoIzciT_1p9X4imRvS5RdjdGZN7Mpk5hqnyI6bfOOXrjvHD3tYTwxlp__uwgTcNUoSbWNlzm1Pxg9XjYTBAdd90A6FwXI_GzIugoJ_VuKZTvT6OUdrYoCVH8nLwnMKOlJYKqznJ17ofE91a1hf0okSOCY-xXjDVT8HWBm0oeX-1cozfFdxGzoMnkEvmLWghzvEda-Vpi-ViR3Nu2g_fcANb8lZL6CLuebusF9yK5IXeUSi-TVoRCtoFzwo0ivgXDSs8It2mNHgjAsw3y0?></g></svg>