<svg xmlns="http://www.w3.org/2000/svg" xmlns:xlink="http://www.w3.org/1999/xlink" contentStyleType="text/css" data-diagram-type="SEQUENCE" height="2133.3333px" preserveAspectRatio="none" style="width:2571px;height:2133px;background:#FFFFFF;" version="1.1" viewBox="0 0 2571 2133" width="2571.6667px" zoomAndPan="magnify"><?plantuml 1.2026.4?><defs/><g><g class="title" data-source-line="2"><text fill="#17313B" font-family="Segoe UI" font-size="30" font-weight="700" lengthAdjust="spacing" textLength="1095.5713" x="732.9016" y="57.373">Diagramme de sequence - Acheteur envoie une RFQ groupee a un fournisseur</text></g><rect fill="none" height="1370.2474" rx="8.3333" ry="8.3333" style="stroke:#000000;stroke-width:2.5;" width="2529.7078" x="16.6667" y="596.6309"/><rect fill="none" height="818.2454" rx="8.3333" ry="8.3333" style="stroke:#000000;stroke-width:2.5;" width="2496.3745" x="33.3333" y="1136.9661"/><rect fill="none" height="183.6068" rx="8.3333" ry="8.3333" style="stroke:#000000;stroke-width:2.5;" width="608.6137" x="1008.387" y="1394.8763"/><g class="participant-lifeline" data-entity-uid="part1" data-qualified-name="Acheteur" data-source-line="5" id="part1-lifeline"><g><title>Acheteur</title><rect fill="#000000" fill-opacity="0.00000" height="1783.1576" width="13.3333" x="91.3546" y="212.054"/><line style="stroke:#335C67;stroke-width:0.8333;stroke-dasharray:8.3333,8.3333;" x1="96.6667" x2="96.6667" y1="212.054" y2="1995.2116"/></g></g><g class="participant-lifeline" data-entity-uid="part2" data-qualified-name="Frontend" data-source-line="6" id="part2-lifeline"><g><title>Frontend</title><rect fill="#000000" fill-opacity="0.00000" height="1783.1576" width="13.3333" x="511.6972" y="212.054"/><line style="stroke:#335C67;stroke-width:0.8333;stroke-dasharray:8.3333,8.3333;" x1="518.3162" x2="518.3162" y1="212.054" y2="1995.2116"/></g></g><g class="participant-lifeline" data-entity-uid="part3" data-qualified-name="RFQController" data-source-line="7" id="part3-lifeline"><g><title>RFQController</title><rect fill="#000000" fill-opacity="0.00000" height="1783.1576" width="13.3333" x="846.8966" y="212.054"/><line style="stroke:#335C67;stroke-width:0.8333;stroke-dasharray:8.3333,8.3333;" x1="852.6432" x2="852.6432" y1="212.054" y2="1995.2116"/></g></g><g class="participant-lifeline" data-entity-uid="part4" data-qualified-name="CreateGroupedRFQUseCase" data-source-line="8" id="part4-lifeline"><g><title>CreateGroupedRFQUseCase</title><rect fill="#000000" fill-opacity="0.00000" height="1783.1576" width="13.3333" x="1163.254" y="212.054"/><line style="stroke:#335C67;stroke-width:0.8333;stroke-dasharray:8.3333,8.3333;" x1="1168.387" x2="1168.387" y1="212.054" y2="1995.2116"/></g></g><g class="participant-lifeline" data-entity-uid="part5" data-qualified-name="ProductRepository" data-source-line="9" id="part5-lifeline"><g><title>ProductRepository</title><rect fill="#000000" fill-opacity="0.00000" height="1783.1576" width="13.3333" x="1602.0007" y="212.054"/><line style="stroke:#335C67;stroke-width:0.8333;stroke-dasharray:8.3333,8.3333;" x1="1608.525" x2="1608.525" y1="212.054" y2="1995.2116"/></g></g><g class="participant-lifeline" data-entity-uid="part6" data-qualified-name="SupplierRepository" data-source-line="10" id="part6-lifeline"><g><title>SupplierRepository</title><rect fill="#000000" fill-opacity="0.00000" height="1783.1576" width="13.3333" x="1807.5549" y="212.054"/><line style="stroke:#335C67;stroke-width:0.8333;stroke-dasharray:8.3333,8.3333;" x1="1813.8098" x2="1813.8098" y1="212.054" y2="1995.2116"/></g></g><g class="participant-lifeline" data-entity-uid="part7" data-qualified-name="RFQRepository" data-source-line="11" id="part7-lifeline"><g><title>RFQRepository</title><rect fill="#000000" fill-opacity="0.00000" height="1783.1576" width="13.3333" x="1995.6795" y="212.054"/><line style="stroke:#335C67;stroke-width:0.8333;stroke-dasharray:8.3333,8.3333;" x1="2001.3" x2="2001.3" y1="212.054" y2="1995.2116"/></g></g><g class="participant-lifeline" data-entity-uid="part8" data-qualified-name="NotificationService" data-source-line="12" id="part8-lifeline"><g><title>NotificationService</title><rect fill="#000000" fill-opacity="0.00000" height="1783.1576" width="13.3333" x="2189.7778" y="212.054"/><line style="stroke:#335C67;stroke-width:0.8333;stroke-dasharray:8.3333,8.3333;" x1="2195.059" x2="2195.059" y1="212.054" y2="1995.2116"/></g></g><g class="participant-lifeline" data-entity-uid="part9" data-qualified-name="Fournisseur" data-source-line="13" id="part9-lifeline"><g><title>Fournisseur</title><rect fill="#000000" fill-opacity="0.00000" height="1783.1576" width="13.3333" x="2446.3298" y="212.054"/><line style="stroke:#335C67;stroke-width:0.8333;stroke-dasharray:8.3333,8.3333;" x1="2452.9517" x2="2452.9517" y1="212.054" y2="1995.2116"/></g></g><g class="participant participant-head" data-entity-uid="part1" data-qualified-name="Acheteur" data-source-line="5" id="part1-head"><text fill="#000000" font-family="Segoe UI" font-size="21.6667" lengthAdjust="spacing" textLength="86.0425" x="50" y="206.6162">Acheteur</text><ellipse cx="98.0212" cy="97.4023" fill="#F5FBFB" rx="13.3333" ry="13.3333" style="stroke:#335C67;stroke-width:0.8333;"/><path d="M98.0212,110.7357 L98.0212,155.7357 M76.3546,124.069 L119.6879,124.069 M98.0212,155.7357 L76.3546,180.7357 M98.0212,155.7357 L119.6879,180.7357" fill="none" style="stroke:#335C67;stroke-width:0.8333;"/></g><g class="participant participant-tail" data-entity-uid="part1" data-qualified-name="Acheteur" data-source-line="5" id="part1-tail"><text fill="#000000" font-family="Segoe UI" font-size="21.6667" lengthAdjust="spacing" textLength="86.0425" x="50" y="2016.9255">Acheteur</text><ellipse cx="98.0212" cy="2036.5299" fill="#F5FBFB" rx="13.3333" ry="13.3333" style="stroke:#335C67;stroke-width:0.8333;"/><path d="M98.0212,2049.8633 L98.0212,2094.8633 M76.3546,2063.1966 L119.6879,2063.1966 M98.0212,2094.8633 L76.3546,2119.8633 M98.0212,2094.8633 L119.6879,2119.8633" fill="none" style="stroke:#335C67;stroke-width:0.8333;"/></g><g class="participant participant-head" data-entity-uid="part2" data-qualified-name="Frontend" data-source-line="6" id="part2-head"><rect fill="#FCFEFE" height="52.1517" rx="8.3333" ry="8.3333" style="stroke:#335C67;stroke-width:0.8333;" width="110.0952" x="463.3162" y="158.2357"/><text fill="#000000" font-family="Segoe UI" font-size="21.6667" lengthAdjust="spacing" textLength="86.7619" x="474.9829" y="193.2829">Frontend</text></g><g class="participant participant-tail" data-entity-uid="part2" data-qualified-name="Frontend" data-source-line="6" id="part2-tail"><rect fill="#FCFEFE" height="52.1517" rx="8.3333" ry="8.3333" style="stroke:#335C67;stroke-width:0.8333;" width="110.0952" x="463.3162" y="1993.5449"/><text fill="#000000" font-family="Segoe UI" font-size="21.6667" lengthAdjust="spacing" textLength="86.7619" x="474.9829" y="2028.5921">Frontend</text></g><g class="participant participant-head" data-entity-uid="part3" data-qualified-name="RFQController" data-source-line="7" id="part3-head"><rect fill="#FCFEFE" height="52.1517" rx="8.3333" ry="8.3333" style="stroke:#335C67;stroke-width:0.8333;" width="158.5067" x="774.3099" y="158.2357"/><text fill="#000000" font-family="Segoe UI" font-size="21.6667" lengthAdjust="spacing" textLength="135.1733" x="785.9766" y="193.2829">RFQController</text></g><g class="participant participant-tail" data-entity-uid="part3" data-qualified-name="RFQController" data-source-line="7" id="part3-tail"><rect fill="#FCFEFE" height="52.1517" rx="8.3333" ry="8.3333" style="stroke:#335C67;stroke-width:0.8333;" width="158.5067" x="774.3099" y="1993.5449"/><text fill="#000000" font-family="Segoe UI" font-size="21.6667" lengthAdjust="spacing" textLength="135.1733" x="785.9766" y="2028.5921">RFQController</text></g><g class="participant participant-head" data-entity-uid="part4" data-qualified-name="CreateGroupedRFQUseCase" data-source-line="8" id="part4-head"><rect fill="#FCFEFE" height="52.1517" rx="8.3333" ry="8.3333" style="stroke:#335C67;stroke-width:0.8333;" width="289.7339" x="1025.0537" y="158.2357"/><text fill="#000000" font-family="Segoe UI" font-size="21.6667" lengthAdjust="spacing" textLength="266.4006" x="1036.7204" y="193.2829">CreateGroupedRFQUseCase</text></g><g class="participant participant-tail" data-entity-uid="part4" data-qualified-name="CreateGroupedRFQUseCase" data-source-line="8" id="part4-tail"><rect fill="#FCFEFE" height="52.1517" rx="8.3333" ry="8.3333" style="stroke:#335C67;stroke-width:0.8333;" width="289.7339" x="1025.0537" y="1993.5449"/><text fill="#000000" font-family="Segoe UI" font-size="21.6667" lengthAdjust="spacing" textLength="266.4006" x="1036.7204" y="2028.5921">CreateGroupedRFQUseCase</text></g><g class="participant participant-head" data-entity-uid="part5" data-qualified-name="ProductRepository" data-source-line="9" id="part5-head"><text fill="#000000" font-family="Segoe UI" font-size="21.6667" lengthAdjust="spacing" textLength="176.9515" x="1515.1917" y="206.6162">ProductRepository</text><path d="M1578.6674,123.2357 C1578.6674,106.569 1608.6674,106.569 1608.6674,106.569 C1608.6674,106.569 1638.6674,106.569 1638.6674,123.2357 L1638.6674,166.569 C1638.6674,183.2357 1608.6674,183.2357 1608.6674,183.2357 C1608.6674,183.2357 1578.6674,183.2357 1578.6674,166.569 L1578.6674,123.2357" fill="#E2E2F0" style="stroke:#181818;stroke-width:0.8333;"/><path d="M1578.6674,123.2357 C1578.6674,139.9023 1608.6674,139.9023 1608.6674,139.9023 C1608.6674,139.9023 1638.6674,139.9023 1638.6674,123.2357" fill="none" style="stroke:#181818;stroke-width:0.8333;"/></g><g class="participant participant-tail" data-entity-uid="part5" data-qualified-name="ProductRepository" data-source-line="9" id="part5-tail"><text fill="#000000" font-family="Segoe UI" font-size="21.6667" lengthAdjust="spacing" textLength="176.9515" x="1515.1917" y="2016.9255">ProductRepository</text><path d="M1578.6674,2039.0299 C1578.6674,2022.3633 1608.6674,2022.3633 1608.6674,2022.3633 C1608.6674,2022.3633 1638.6674,2022.3633 1638.6674,2039.0299 L1638.6674,2082.3633 C1638.6674,2099.0299 1608.6674,2099.0299 1608.6674,2099.0299 C1608.6674,2099.0299 1578.6674,2099.0299 1578.6674,2082.3633 L1578.6674,2039.0299" fill="#E2E2F0" style="stroke:#181818;stroke-width:0.8333;"/><path d="M1578.6674,2039.0299 C1578.6674,2055.6966 1608.6674,2055.6966 1608.6674,2055.6966 C1608.6674,2055.6966 1638.6674,2055.6966 1638.6674,2039.0299" fill="none" style="stroke:#181818;stroke-width:0.8333;"/></g><g class="participant participant-head" data-entity-uid="part6" data-qualified-name="SupplierRepository" data-source-line="10" id="part6-head"><text fill="#000000" font-family="Segoe UI" font-size="21.6667" lengthAdjust="spacing" textLength="180.8236" x="1718.8098" y="206.6162">SupplierRepository</text><path d="M1784.2216,123.2357 C1784.2216,106.569 1814.2216,106.569 1814.2216,106.569 C1814.2216,106.569 1844.2216,106.569 1844.2216,123.2357 L1844.2216,166.569 C1844.2216,183.2357 1814.2216,183.2357 1814.2216,183.2357 C1814.2216,183.2357 1784.2216,183.2357 1784.2216,166.569 L1784.2216,123.2357" fill="#E2E2F0" style="stroke:#181818;stroke-width:0.8333;"/><path d="M1784.2216,123.2357 C1784.2216,139.9023 1814.2216,139.9023 1814.2216,139.9023 C1814.2216,139.9023 1844.2216,139.9023 1844.2216,123.2357" fill="none" style="stroke:#181818;stroke-width:0.8333;"/></g><g class="participant participant-tail" data-entity-uid="part6" data-qualified-name="SupplierRepository" data-source-line="10" id="part6-tail"><text fill="#000000" font-family="Segoe UI" font-size="21.6667" lengthAdjust="spacing" textLength="180.8236" x="1718.8098" y="2016.9255">SupplierRepository</text><path d="M1784.2216,2039.0299 C1784.2216,2022.3633 1814.2216,2022.3633 1814.2216,2022.3633 C1814.2216,2022.3633 1844.2216,2022.3633 1844.2216,2039.0299 L1844.2216,2082.3633 C1844.2216,2099.0299 1814.2216,2099.0299 1814.2216,2099.0299 C1814.2216,2099.0299 1784.2216,2099.0299 1784.2216,2082.3633 L1784.2216,2039.0299" fill="#E2E2F0" style="stroke:#181818;stroke-width:0.8333;"/><path d="M1784.2216,2039.0299 C1784.2216,2055.6966 1814.2216,2055.6966 1814.2216,2055.6966 C1814.2216,2055.6966 1844.2216,2055.6966 1844.2216,2039.0299" fill="none" style="stroke:#181818;stroke-width:0.8333;"/></g><g class="participant participant-head" data-entity-uid="part7" data-qualified-name="RFQRepository" data-source-line="11" id="part7-head"><text fill="#000000" font-family="Segoe UI" font-size="21.6667" lengthAdjust="spacing" textLength="142.0923" x="1926.3" y="206.6162">RFQRepository</text><path d="M1972.3462,123.2357 C1972.3462,106.569 2002.3462,106.569 2002.3462,106.569 C2002.3462,106.569 2032.3462,106.569 2032.3462,123.2357 L2032.3462,166.569 C2032.3462,183.2357 2002.3462,183.2357 2002.3462,183.2357 C2002.3462,183.2357 1972.3462,183.2357 1972.3462,166.569 L1972.3462,123.2357" fill="#E2E2F0" style="stroke:#181818;stroke-width:0.8333;"/><path d="M1972.3462,123.2357 C1972.3462,139.9023 2002.3462,139.9023 2002.3462,139.9023 C2002.3462,139.9023 2032.3462,139.9023 2032.3462,123.2357" fill="none" style="stroke:#181818;stroke-width:0.8333;"/></g><g class="participant participant-tail" data-entity-uid="part7" data-qualified-name="RFQRepository" data-source-line="11" id="part7-tail"><text fill="#000000" font-family="Segoe UI" font-size="21.6667" lengthAdjust="spacing" textLength="142.0923" x="1926.3" y="2016.9255">RFQRepository</text><path d="M1972.3462,2039.0299 C1972.3462,2022.3633 2002.3462,2022.3633 2002.3462,2022.3633 C2002.3462,2022.3633 2032.3462,2022.3633 2032.3462,2039.0299 L2032.3462,2082.3633 C2032.3462,2099.0299 2002.3462,2099.0299 2002.3462,2099.0299 C2002.3462,2099.0299 1972.3462,2099.0299 1972.3462,2082.3633 L1972.3462,2039.0299" fill="#E2E2F0" style="stroke:#181818;stroke-width:0.8333;"/><path d="M1972.3462,2039.0299 C1972.3462,2055.6966 2002.3462,2055.6966 2002.3462,2055.6966 C2002.3462,2055.6966 2032.3462,2055.6966 2032.3462,2039.0299" fill="none" style="stroke:#181818;stroke-width:0.8333;"/></g><g class="participant participant-head" data-entity-uid="part8" data-qualified-name="NotificationService" data-source-line="12" id="part8-head"><rect fill="#FCFEFE" height="52.1517" rx="8.3333" ry="8.3333" style="stroke:#335C67;stroke-width:0.8333;" width="202.771" x="2095.059" y="158.2357"/><text fill="#000000" font-family="Segoe UI" font-size="21.6667" lengthAdjust="spacing" textLength="179.4377" x="2106.7257" y="193.2829">NotificationService</text></g><g class="participant participant-tail" data-entity-uid="part8" data-qualified-name="NotificationService" data-source-line="12" id="part8-tail"><rect fill="#FCFEFE" height="52.1517" rx="8.3333" ry="8.3333" style="stroke:#335C67;stroke-width:0.8333;" width="202.771" x="2095.059" y="1993.5449"/><text fill="#000000" font-family="Segoe UI" font-size="21.6667" lengthAdjust="spacing" textLength="179.4377" x="2106.7257" y="2028.5921">NotificationService</text></g><g class="participant participant-head" data-entity-uid="part9" data-qualified-name="Fournisseur" data-source-line="13" id="part9-head"><text fill="#000000" font-family="Segoe UI" font-size="21.6667" lengthAdjust="spacing" textLength="110.0895" x="2392.9517" y="206.6162">Fournisseur</text><ellipse cx="2452.9964" cy="97.4023" fill="#F5FBFB" rx="13.3333" ry="13.3333" style="stroke:#335C67;stroke-width:0.8333;"/><path d="M2452.9964,110.7357 L2452.9964,155.7357 M2431.3298,124.069 L2474.6631,124.069 M2452.9964,155.7357 L2431.3298,180.7357 M2452.9964,155.7357 L2474.6631,180.7357" fill="none" style="stroke:#335C67;stroke-width:0.8333;"/></g><g class="participant participant-tail" data-entity-uid="part9" data-qualified-name="Fournisseur" data-source-line="13" id="part9-tail"><text fill="#000000" font-family="Segoe UI" font-size="21.6667" lengthAdjust="spacing" textLength="110.0895" x="2392.9517" y="2016.9255">Fournisseur</text><ellipse cx="2452.9964" cy="2036.5299" fill="#F5FBFB" rx="13.3333" ry="13.3333" style="stroke:#335C67;stroke-width:0.8333;"/><path d="M2452.9964,2049.8633 L2452.9964,2094.8633 M2431.3298,2063.1966 L2474.6631,2063.1966 M2452.9964,2094.8633 L2431.3298,2119.8633 M2452.9964,2094.8633 L2474.6631,2119.8633" fill="none" style="stroke:#335C67;stroke-width:0.8333;"/></g><g class="message" data-entity-1="part1" data-entity-2="part2" data-source-line="15" id="msg1"><polygon fill="#4C5B61" points="498.3639,260.8724,515.0305,267.5391,498.3639,274.2057,505.0305,267.5391" style="stroke:#4C5B61;stroke-width:1.6667;stroke-linejoin:miter;stroke-miterlimit:10;"/><line style="stroke:#4C5B61;stroke-width:1.6667;" x1="98.0212" x2="508.3639" y1="267.5391" y2="267.5391"/><text fill="#000000" font-family="Segoe UI" font-size="21.6667" font-weight="700" lengthAdjust="spacing" textLength="12.4626" x="109.6879" y="258.7679">1</text><text fill="#000000" font-family="Segoe UI" font-size="21.6667" lengthAdjust="spacing" textLength="361.2134" x="128.8171" y="258.7679">selectionner plusieurs produits favoris</text></g><g class="message" data-entity-1="part1" data-entity-2="part2" data-source-line="16" id="msg2"><polygon fill="#4C5B61" points="498.3639,313.0241,515.0305,319.6908,498.3639,326.3574,505.0305,319.6908" style="stroke:#4C5B61;stroke-width:1.6667;stroke-linejoin:miter;stroke-miterlimit:10;"/><line style="stroke:#4C5B61;stroke-width:1.6667;" x1="98.0212" x2="508.3639" y1="319.6908" y2="319.6908"/><text fill="#000000" font-family="Segoe UI" font-size="21.6667" font-weight="700" lengthAdjust="spacing" textLength="12.4626" x="109.6879" y="310.9196">2</text><text fill="#000000" font-family="Segoe UI" font-size="21.6667" lengthAdjust="spacing" textLength="305.7666" x="128.8171" y="310.9196">cliquer sur "Creer RFQ groupee"</text></g><g class="message" data-entity-1="part2" data-entity-2="part3" data-source-line="17" id="msg3"><polygon fill="#4C5B61" points="833.5632,365.1758,850.2299,371.8424,833.5632,378.5091,840.2299,371.8424" style="stroke:#4C5B61;stroke-width:1.6667;stroke-linejoin:miter;stroke-miterlimit:10;"/><line style="stroke:#4C5B61;stroke-width:1.6667;" x1="518.3639" x2="843.5632" y1="371.8424" y2="371.8424"/><text fill="#000000" font-family="Segoe UI" font-size="21.6667" font-weight="700" lengthAdjust="spacing" textLength="12.4626" x="530.0305" y="363.0713">3</text><text fill="#000000" font-family="Segoe UI" font-size="21.6667" lengthAdjust="spacing" textLength="267.4479" x="549.1597" y="363.0713">createGroupedRFQ(request)</text></g><g class="message" data-entity-1="part3" data-entity-2="part4" data-source-line="18" id="msg4"><polygon fill="#4C5B61" points="1149.9207,417.3275,1166.5873,423.9941,1149.9207,430.6608,1156.5873,423.9941" style="stroke:#4C5B61;stroke-width:1.6667;stroke-linejoin:miter;stroke-miterlimit:10;"/><line style="stroke:#4C5B61;stroke-width:1.6667;" x1="853.5632" x2="1159.9207" y1="423.9941" y2="423.9941"/><text fill="#000000" font-family="Segoe UI" font-size="21.6667" font-weight="700" lengthAdjust="spacing" textLength="12.4626" x="865.2299" y="415.223">4</text><text fill="#000000" font-family="Segoe UI" font-size="21.6667" lengthAdjust="spacing" textLength="158.374" x="884.3591" y="415.223">execute(request)</text></g><g class="message" data-entity-1="part4" data-entity-2="part4" data-source-line="19" id="msg5"><line style="stroke:#4C5B61;stroke-width:1.6667;" x1="1169.9207" x2="1239.9207" y1="476.1458" y2="476.1458"/><line style="stroke:#4C5B61;stroke-width:1.6667;" x1="1239.9207" x2="1239.9207" y1="476.1458" y2="497.8125"/><line style="stroke:#4C5B61;stroke-width:1.6667;" x1="1171.5873" x2="1239.9207" y1="497.8125" y2="497.8125"/><polygon fill="#4C5B61" points="1188.254,491.1458,1171.5873,497.8125,1188.254,504.4792,1181.5873,497.8125" style="stroke:#4C5B61;stroke-width:1.6667;stroke-linejoin:miter;stroke-miterlimit:10;"/><text fill="#000000" font-family="Segoe UI" font-size="21.6667" font-weight="700" lengthAdjust="spacing" textLength="12.4626" x="1181.5873" y="467.3747">5</text><text fill="#000000" font-family="Segoe UI" font-size="21.6667" lengthAdjust="spacing" textLength="247.5798" x="1200.7166" y="467.3747">verifier acheteur connecte</text></g><g class="message" data-entity-1="part4" data-entity-2="part4" data-source-line="20" id="msg6"><line style="stroke:#4C5B61;stroke-width:1.6667;" x1="1169.9207" x2="1239.9207" y1="549.9642" y2="549.9642"/><line style="stroke:#4C5B61;stroke-width:1.6667;" x1="1239.9207" x2="1239.9207" y1="549.9642" y2="571.6309"/><line style="stroke:#4C5B61;stroke-width:1.6667;" x1="1171.5873" x2="1239.9207" y1="571.6309" y2="571.6309"/><polygon fill="#4C5B61" points="1188.254,564.9642,1171.5873,571.6309,1188.254,578.2975,1181.5873,571.6309" style="stroke:#4C5B61;stroke-width:1.6667;stroke-linejoin:miter;stroke-miterlimit:10;"/><text fill="#000000" font-family="Segoe UI" font-size="21.6667" font-weight="700" lengthAdjust="spacing" textLength="12.4626" x="1181.5873" y="541.193">6</text><text fill="#000000" font-family="Segoe UI" font-size="21.6667" lengthAdjust="spacing" textLength="171.1963" x="1200.7166" y="541.193">verifier KYC valide</text></g><path d="M25,596.6309 L117.9142,596.6309 L117.9142,612.1159 L101.2476,628.7826 L16.6667,628.7826 L16.6667,604.9642 A8.3333,8.3333 0 0 1 25,596.6309" fill="#EEEEEE" style="stroke:#000000;stroke-width:2.5;"/><rect fill="none" height="1370.2474" rx="8.3333" ry="8.3333" style="stroke:#000000;stroke-width:2.5;" width="2529.7078" x="16.6667" y="596.6309"/><text fill="#000000" font-family="Segoe UI" font-size="21.6667" font-weight="700" lengthAdjust="spacing" textLength="26.2476" x="41.6667" y="621.6781">alt</text><text fill="#000000" font-family="Segoe UI" font-size="21.6667" font-weight="700" lengthAdjust="spacing" textLength="142.8223" x="142.9142" y="623.3447">[KYC invalide]</text><g class="message" data-entity-1="part4" data-entity-2="part3" data-source-line="23" id="msg7"><polygon fill="#4C5B61" points="871.8966,664.7526,855.2299,671.4193,871.8966,678.0859,865.2299,671.4193" style="stroke:#4C5B61;stroke-width:1.6667;stroke-linejoin:miter;stroke-miterlimit:10;"/><line style="stroke:#4C5B61;stroke-width:1.6667;stroke-dasharray:3.3333,3.3333;" x1="861.8966" x2="1168.254" y1="671.4193" y2="671.4193"/><text fill="#000000" font-family="Segoe UI" font-size="21.6667" font-weight="700" lengthAdjust="spacing" textLength="12.4626" x="881.8966" y="662.6481">7</text><text fill="#000000" font-family="Segoe UI" font-size="21.6667" lengthAdjust="spacing" textLength="202.8817" x="901.0258" y="662.6481">erreur KYC incomplet</text></g><g class="message" data-entity-1="part3" data-entity-2="part2" data-source-line="24" id="msg8"><polygon fill="#4C5B61" points="536.6972,716.9043,520.0305,723.571,536.6972,730.2376,530.0305,723.571" style="stroke:#4C5B61;stroke-width:1.6667;stroke-linejoin:miter;stroke-miterlimit:10;"/><line style="stroke:#4C5B61;stroke-width:1.6667;stroke-dasharray:3.3333,3.3333;" x1="526.6972" x2="851.8966" y1="723.571" y2="723.571"/><text fill="#000000" font-family="Segoe UI" font-size="21.6667" font-weight="700" lengthAdjust="spacing" textLength="12.4626" x="546.6972" y="714.7998">8</text><text fill="#000000" font-family="Segoe UI" font-size="21.6667" lengthAdjust="spacing" textLength="263.3431" x="565.8264" y="714.7998">demander finalisation profil</text></g><line style="stroke:#000000;stroke-width:1.6667;stroke-dasharray:3.3333,3.3333;" x1="16.6667" x2="2546.3745" y1="738.571" y2="738.571"/><text fill="#000000" font-family="Segoe UI" font-size="21.6667" font-weight="700" lengthAdjust="spacing" textLength="123.5571" x="25" y="761.9515">[KYC valide]</text><g class="message" data-entity-1="part4" data-entity-2="part5" data-source-line="26" id="msg9"><polygon fill="#4C5B61" points="1588.6674,801.2077,1605.3341,807.8743,1588.6674,814.541,1595.3341,807.8743" style="stroke:#4C5B61;stroke-width:1.6667;stroke-linejoin:miter;stroke-miterlimit:10;"/><line style="stroke:#4C5B61;stroke-width:1.6667;" x1="1169.9207" x2="1598.6674" y1="807.8743" y2="807.8743"/><text fill="#000000" font-family="Segoe UI" font-size="21.6667" font-weight="700" lengthAdjust="spacing" textLength="12.4626" x="1181.5873" y="799.1032">9</text><text fill="#000000" font-family="Segoe UI" font-size="21.6667" lengthAdjust="spacing" textLength="317.9647" x="1200.7166" y="799.1032">findSelectedProducts(productIds)</text></g><g class="message" data-entity-1="part5" data-entity-2="part4" data-source-line="27" id="msg10"><polygon fill="#4C5B61" points="1188.254,853.3594,1171.5873,860.026,1188.254,866.6927,1181.5873,860.026" style="stroke:#4C5B61;stroke-width:1.6667;stroke-linejoin:miter;stroke-miterlimit:10;"/><line style="stroke:#4C5B61;stroke-width:1.6667;stroke-dasharray:3.3333,3.3333;" x1="1178.254" x2="1607.0007" y1="860.026" y2="860.026"/><text fill="#000000" font-family="Segoe UI" font-size="21.6667" font-weight="700" lengthAdjust="spacing" textLength="24.9251" x="1198.254" y="851.2549">10</text><text fill="#000000" font-family="Segoe UI" font-size="21.6667" lengthAdjust="spacing" textLength="84.5296" x="1229.8458" y="851.2549">products</text></g><g class="message" data-entity-1="part4" data-entity-2="part6" data-source-line="28" id="msg11"><polygon fill="#4C5B61" points="1794.2216,905.5111,1810.8883,912.1777,1794.2216,918.8444,1800.8883,912.1777" style="stroke:#4C5B61;stroke-width:1.6667;stroke-linejoin:miter;stroke-miterlimit:10;"/><line style="stroke:#4C5B61;stroke-width:1.6667;" x1="1169.9207" x2="1804.2216" y1="912.1777" y2="912.1777"/><text fill="#000000" font-family="Segoe UI" font-size="21.6667" font-weight="700" lengthAdjust="spacing" textLength="24.9251" x="1181.5873" y="903.4066">11</text><text fill="#000000" font-family="Segoe UI" font-size="21.6667" lengthAdjust="spacing" textLength="186.3672" x="1213.1791" y="903.4066">findById(supplierId)</text></g><g class="message" data-entity-1="part6" data-entity-2="part4" data-source-line="29" id="msg12"><polygon fill="#4C5B61" points="1188.254,957.6628,1171.5873,964.3294,1188.254,970.9961,1181.5873,964.3294" style="stroke:#4C5B61;stroke-width:1.6667;stroke-linejoin:miter;stroke-miterlimit:10;"/><line style="stroke:#4C5B61;stroke-width:1.6667;stroke-dasharray:3.3333,3.3333;" x1="1178.254" x2="1812.5549" y1="964.3294" y2="964.3294"/><text fill="#000000" font-family="Segoe UI" font-size="21.6667" font-weight="700" lengthAdjust="spacing" textLength="24.9251" x="1198.254" y="955.5583">12</text><text fill="#000000" font-family="Segoe UI" font-size="21.6667" lengthAdjust="spacing" textLength="76.2882" x="1229.8458" y="955.5583">supplier</text></g><g class="message" data-entity-1="part4" data-entity-2="part4" data-source-line="30" id="msg13"><line style="stroke:#4C5B61;stroke-width:1.6667;" x1="1169.9207" x2="1239.9207" y1="1016.4811" y2="1016.4811"/><line style="stroke:#4C5B61;stroke-width:1.6667;" x1="1239.9207" x2="1239.9207" y1="1016.4811" y2="1038.1478"/><line style="stroke:#4C5B61;stroke-width:1.6667;" x1="1171.5873" x2="1239.9207" y1="1038.1478" y2="1038.1478"/><polygon fill="#4C5B61" points="1188.254,1031.4811,1171.5873,1038.1478,1188.254,1044.8145,1181.5873,1038.1478" style="stroke:#4C5B61;stroke-width:1.6667;stroke-linejoin:miter;stroke-miterlimit:10;"/><text fill="#000000" font-family="Segoe UI" font-size="21.6667" font-weight="700" lengthAdjust="spacing" textLength="24.9251" x="1181.5873" y="1007.71">13</text><text fill="#000000" font-family="Segoe UI" font-size="21.6667" lengthAdjust="spacing" textLength="361.097" x="1213.1791" y="1007.71">verifier meme fournisseur destinataire</text></g><g class="message" data-entity-1="part4" data-entity-2="part4" data-source-line="31" id="msg14"><line style="stroke:#4C5B61;stroke-width:1.6667;" x1="1169.9207" x2="1239.9207" y1="1090.2995" y2="1090.2995"/><line style="stroke:#4C5B61;stroke-width:1.6667;" x1="1239.9207" x2="1239.9207" y1="1090.2995" y2="1111.9661"/><line style="stroke:#4C5B61;stroke-width:1.6667;" x1="1171.5873" x2="1239.9207" y1="1111.9661" y2="1111.9661"/><polygon fill="#4C5B61" points="1188.254,1105.2995,1171.5873,1111.9661,1188.254,1118.6328,1181.5873,1111.9661" style="stroke:#4C5B61;stroke-width:1.6667;stroke-linejoin:miter;stroke-miterlimit:10;"/><text fill="#000000" font-family="Segoe UI" font-size="21.6667" font-weight="700" lengthAdjust="spacing" textLength="24.9251" x="1181.5873" y="1081.5283">14</text><text fill="#000000" font-family="Segoe UI" font-size="21.6667" lengthAdjust="spacing" textLength="370.6714" x="1213.1791" y="1081.5283">verifier quantites, MOQ et disponibilite</text></g><path d="M41.6667,1136.9661 L134.5809,1136.9661 L134.5809,1152.4512 L117.9142,1169.1178 L33.3333,1169.1178 L33.3333,1145.2995 A8.3333,8.3333 0 0 1 41.6667,1136.9661" fill="#EEEEEE" style="stroke:#000000;stroke-width:2.5;"/><rect fill="none" height="818.2454" rx="8.3333" ry="8.3333" style="stroke:#000000;stroke-width:2.5;" width="2496.3745" x="33.3333" y="1136.9661"/><text fill="#000000" font-family="Segoe UI" font-size="21.6667" font-weight="700" lengthAdjust="spacing" textLength="26.2476" x="58.3333" y="1162.0133">alt</text><text fill="#000000" font-family="Segoe UI" font-size="21.6667" font-weight="700" lengthAdjust="spacing" textLength="297.5675" x="159.5809" y="1163.68">[quantite inferieure au MOQ]</text><g class="message" data-entity-1="part4" data-entity-2="part3" data-source-line="34" id="msg15"><polygon fill="#4C5B61" points="871.8966,1205.0879,855.2299,1211.7546,871.8966,1218.4212,865.2299,1211.7546" style="stroke:#4C5B61;stroke-width:1.6667;stroke-linejoin:miter;stroke-miterlimit:10;"/><line style="stroke:#4C5B61;stroke-width:1.6667;stroke-dasharray:3.3333,3.3333;" x1="861.8966" x2="1168.254" y1="1211.7546" y2="1211.7546"/><text fill="#000000" font-family="Segoe UI" font-size="21.6667" font-weight="700" lengthAdjust="spacing" textLength="24.9251" x="881.8966" y="1202.9834">15</text><text fill="#000000" font-family="Segoe UI" font-size="21.6667" lengthAdjust="spacing" textLength="244.7656" x="913.4884" y="1202.9834">erreur de validation MOQ</text></g><g class="message" data-entity-1="part3" data-entity-2="part2" data-source-line="35" id="msg16"><polygon fill="#4C5B61" points="536.6972,1257.2396,520.0305,1263.9063,536.6972,1270.5729,530.0305,1263.9063" style="stroke:#4C5B61;stroke-width:1.6667;stroke-linejoin:miter;stroke-miterlimit:10;"/><line style="stroke:#4C5B61;stroke-width:1.6667;stroke-dasharray:3.3333,3.3333;" x1="526.6972" x2="851.8966" y1="1263.9063" y2="1263.9063"/><text fill="#000000" font-family="Segoe UI" font-size="21.6667" font-weight="700" lengthAdjust="spacing" textLength="24.9251" x="546.6972" y="1255.1351">16</text><text fill="#000000" font-family="Segoe UI" font-size="21.6667" lengthAdjust="spacing" textLength="263.6076" x="578.289" y="1255.1351">afficher erreur de validation</text></g><line style="stroke:#000000;stroke-width:1.6667;stroke-dasharray:3.3333,3.3333;" x1="33.3333" x2="2529.7078" y1="1278.9063" y2="1278.9063"/><text fill="#000000" font-family="Segoe UI" font-size="21.6667" font-weight="700" lengthAdjust="spacing" textLength="177.7132" x="41.6667" y="1302.2868">[demande valide]</text><g class="message" data-entity-1="part4" data-entity-2="part4" data-source-line="37" id="msg17"><line style="stroke:#4C5B61;stroke-width:1.6667;" x1="1169.9207" x2="1239.9207" y1="1348.2096" y2="1348.2096"/><line style="stroke:#4C5B61;stroke-width:1.6667;" x1="1239.9207" x2="1239.9207" y1="1348.2096" y2="1369.8763"/><line style="stroke:#4C5B61;stroke-width:1.6667;" x1="1171.5873" x2="1239.9207" y1="1369.8763" y2="1369.8763"/><polygon fill="#4C5B61" points="1188.254,1363.2096,1171.5873,1369.8763,1188.254,1376.543,1181.5873,1369.8763" style="stroke:#4C5B61;stroke-width:1.6667;stroke-linejoin:miter;stroke-miterlimit:10;"/><text fill="#000000" font-family="Segoe UI" font-size="21.6667" font-weight="700" lengthAdjust="spacing" textLength="24.9251" x="1181.5873" y="1339.4385">17</text><text fill="#000000" font-family="Segoe UI" font-size="21.6667" lengthAdjust="spacing" textLength="258.8574" x="1213.1791" y="1339.4385">creer RequestForQuotation</text></g><path d="M1016.7204,1394.8763 L1129.471,1394.8763 L1129.471,1410.3613 L1112.8044,1427.028 L1008.387,1427.028 L1008.387,1403.2096 A8.3333,8.3333 0 0 1 1016.7204,1394.8763" fill="#EEEEEE" style="stroke:#000000;stroke-width:2.5;"/><rect fill="none" height="183.6068" rx="8.3333" ry="8.3333" style="stroke:#000000;stroke-width:2.5;" width="608.6137" x="1008.387" y="1394.8763"/><text fill="#000000" font-family="Segoe UI" font-size="21.6667" font-weight="700" lengthAdjust="spacing" textLength="46.084" x="1033.387" y="1419.9235">loop</text><text fill="#000000" font-family="Segoe UI" font-size="21.6667" font-weight="700" lengthAdjust="spacing" textLength="347.4072" x="1154.471" y="1421.5902">[pour chaque produit selectionne]</text><g class="message" data-entity-1="part4" data-entity-2="part4" data-source-line="39" id="msg18"><line style="stroke:#4C5B61;stroke-width:1.6667;" x1="1169.9207" x2="1239.9207" y1="1469.6647" y2="1469.6647"/><line style="stroke:#4C5B61;stroke-width:1.6667;" x1="1239.9207" x2="1239.9207" y1="1469.6647" y2="1491.3314"/><line style="stroke:#4C5B61;stroke-width:1.6667;" x1="1171.5873" x2="1239.9207" y1="1491.3314" y2="1491.3314"/><polygon fill="#4C5B61" points="1188.254,1484.6647,1171.5873,1491.3314,1188.254,1497.998,1181.5873,1491.3314" style="stroke:#4C5B61;stroke-width:1.6667;stroke-linejoin:miter;stroke-miterlimit:10;"/><text fill="#000000" font-family="Segoe UI" font-size="21.6667" font-weight="700" lengthAdjust="spacing" textLength="24.9251" x="1181.5873" y="1460.8936">18</text><text fill="#000000" font-family="Segoe UI" font-size="21.6667" lengthAdjust="spacing" textLength="132.5814" x="1213.1791" y="1460.8936">creer RFQLine</text></g><g class="message" data-entity-1="part4" data-entity-2="part4" data-source-line="40" id="msg19"><line style="stroke:#4C5B61;stroke-width:1.6667;" x1="1169.9207" x2="1239.9207" y1="1543.4831" y2="1543.4831"/><line style="stroke:#4C5B61;stroke-width:1.6667;" x1="1239.9207" x2="1239.9207" y1="1543.4831" y2="1565.1497"/><line style="stroke:#4C5B61;stroke-width:1.6667;" x1="1171.5873" x2="1239.9207" y1="1565.1497" y2="1565.1497"/><polygon fill="#4C5B61" points="1188.254,1558.4831,1171.5873,1565.1497,1188.254,1571.8164,1181.5873,1565.1497" style="stroke:#4C5B61;stroke-width:1.6667;stroke-linejoin:miter;stroke-miterlimit:10;"/><text fill="#000000" font-family="Segoe UI" font-size="21.6667" font-weight="700" lengthAdjust="spacing" textLength="24.9251" x="1181.5873" y="1534.7119">19</text><text fill="#000000" font-family="Segoe UI" font-size="21.6667" lengthAdjust="spacing" textLength="383.8216" x="1213.1791" y="1534.7119">associer Product, quantite, commentaire</text></g><g class="message" data-entity-1="part4" data-entity-2="part7" data-source-line="42" id="msg20"><polygon fill="#4C5B61" points="1982.3462,1622.3014,1999.0129,1628.9681,1982.3462,1635.6348,1989.0129,1628.9681" style="stroke:#4C5B61;stroke-width:1.6667;stroke-linejoin:miter;stroke-miterlimit:10;"/><line style="stroke:#4C5B61;stroke-width:1.6667;" x1="1169.9207" x2="1992.3462" y1="1628.9681" y2="1628.9681"/><text fill="#000000" font-family="Segoe UI" font-size="21.6667" font-weight="700" lengthAdjust="spacing" textLength="24.9251" x="1181.5873" y="1620.1969">20</text><text fill="#000000" font-family="Segoe UI" font-size="21.6667" lengthAdjust="spacing" textLength="82.0752" x="1213.1791" y="1620.1969">save(rfq)</text></g><g class="message" data-entity-1="part7" data-entity-2="part4" data-source-line="43" id="msg21"><polygon fill="#4C5B61" points="1188.254,1674.4531,1171.5873,1681.1198,1188.254,1687.7865,1181.5873,1681.1198" style="stroke:#4C5B61;stroke-width:1.6667;stroke-linejoin:miter;stroke-miterlimit:10;"/><line style="stroke:#4C5B61;stroke-width:1.6667;stroke-dasharray:3.3333,3.3333;" x1="1178.254" x2="2000.6795" y1="1681.1198" y2="1681.1198"/><text fill="#000000" font-family="Segoe UI" font-size="21.6667" font-weight="700" lengthAdjust="spacing" textLength="24.9251" x="1198.254" y="1672.3486">21</text><text fill="#000000" font-family="Segoe UI" font-size="21.6667" lengthAdjust="spacing" textLength="84.0747" x="1229.8458" y="1672.3486">rfqSaved</text></g><g class="message" data-entity-1="part4" data-entity-2="part8" data-source-line="44" id="msg22"><polygon fill="#4C5B61" points="2176.4445,1726.6048,2193.1112,1733.2715,2176.4445,1739.9382,2183.1112,1733.2715" style="stroke:#4C5B61;stroke-width:1.6667;stroke-linejoin:miter;stroke-miterlimit:10;"/><line style="stroke:#4C5B61;stroke-width:1.6667;" x1="1169.9207" x2="2186.4445" y1="1733.2715" y2="1733.2715"/><text fill="#000000" font-family="Segoe UI" font-size="21.6667" font-weight="700" lengthAdjust="spacing" textLength="24.9251" x="1181.5873" y="1724.5003">22</text><text fill="#000000" font-family="Segoe UI" font-size="21.6667" lengthAdjust="spacing" textLength="230.568" x="1213.1791" y="1724.5003">notifySupplier(rfqSaved)</text></g><g class="message" data-entity-1="part8" data-entity-2="part9" data-source-line="45" id="msg23"><polygon fill="#4C5B61" points="2432.9964,1778.7565,2449.6631,1785.4232,2432.9964,1792.0898,2439.6631,1785.4232" style="stroke:#4C5B61;stroke-width:1.6667;stroke-linejoin:miter;stroke-miterlimit:10;"/><line style="stroke:#4C5B61;stroke-width:1.6667;" x1="2196.4445" x2="2442.9964" y1="1785.4232" y2="1785.4232"/><text fill="#000000" font-family="Segoe UI" font-size="21.6667" font-weight="700" lengthAdjust="spacing" textLength="24.9251" x="2208.1112" y="1776.652">23</text><text fill="#000000" font-family="Segoe UI" font-size="21.6667" lengthAdjust="spacing" textLength="184.9601" x="2239.703" y="1776.652">nouvelle RFQ recue</text></g><g class="message" data-entity-1="part4" data-entity-2="part3" data-source-line="46" id="msg24"><polygon fill="#4C5B61" points="871.8966,1830.9082,855.2299,1837.5749,871.8966,1844.2415,865.2299,1837.5749" style="stroke:#4C5B61;stroke-width:1.6667;stroke-linejoin:miter;stroke-miterlimit:10;"/><line style="stroke:#4C5B61;stroke-width:1.6667;stroke-dasharray:3.3333,3.3333;" x1="861.8966" x2="1168.254" y1="1837.5749" y2="1837.5749"/><text fill="#000000" font-family="Segoe UI" font-size="21.6667" font-weight="700" lengthAdjust="spacing" textLength="24.9251" x="881.8966" y="1828.8037">24</text><text fill="#000000" font-family="Segoe UI" font-size="21.6667" lengthAdjust="spacing" textLength="180.4321" x="913.4884" y="1828.8037">confirmation(rfqId)</text></g><g class="message" data-entity-1="part3" data-entity-2="part2" data-source-line="47" id="msg25"><polygon fill="#4C5B61" points="536.6972,1883.0599,520.0305,1889.7266,536.6972,1896.3932,530.0305,1889.7266" style="stroke:#4C5B61;stroke-width:1.6667;stroke-linejoin:miter;stroke-miterlimit:10;"/><line style="stroke:#4C5B61;stroke-width:1.6667;stroke-dasharray:3.3333,3.3333;" x1="526.6972" x2="851.8966" y1="1889.7266" y2="1889.7266"/><text fill="#000000" font-family="Segoe UI" font-size="21.6667" font-weight="700" lengthAdjust="spacing" textLength="24.9251" x="546.6972" y="1880.9554">25</text><text fill="#000000" font-family="Segoe UI" font-size="21.6667" lengthAdjust="spacing" textLength="179.2261" x="578.289" y="1880.9554">creation confirmee</text></g><g class="message" data-entity-1="part2" data-entity-2="part1" data-source-line="48" id="msg26"><polygon fill="#4C5B61" points="116.3546,1935.2116,99.6879,1941.8783,116.3546,1948.5449,109.6879,1941.8783" style="stroke:#4C5B61;stroke-width:1.6667;stroke-linejoin:miter;stroke-miterlimit:10;"/><line style="stroke:#4C5B61;stroke-width:1.6667;stroke-dasharray:3.3333,3.3333;" x1="106.3546" x2="516.6972" y1="1941.8783" y2="1941.8783"/><text fill="#000000" font-family="Segoe UI" font-size="21.6667" font-weight="700" lengthAdjust="spacing" textLength="24.9251" x="126.3546" y="1933.1071">26</text><text fill="#000000" font-family="Segoe UI" font-size="21.6667" lengthAdjust="spacing" textLength="244.4694" x="157.9464" y="1933.1071">afficher confirmation RFQ</text></g><?plantuml-src fLNBRXin3BplLwWvsK2St7i8q3fmOVJf63tqg4ZSX81MskXXr7_VqJxiTM9lqlXWO4rnXXGv8Z-mLIPf4bTNryfLbRFN8MuDNTMfCaNaQ4ZSidpmigf8m2_GKoAhICp49_L8aP8NP3UEIIHBucwn4W_UfPf8I5X4wPAt70By2fcYiwcw9ryKKaNdTnH5BNranRMqKIoyiv6iFZ22U0wpTyRGeVlSaupqfGcguVOxq5m6AhICyXuVufTtEgbuHxKBZAZR_T4wrRLXyiVEG3Km3oF-S95BLZAoislo6rRKtMSnk6sngy_iPdSdyH4LDAGor98NjKc1uHD4dRFa64GfDyvpE0LNXj41Bm9EBd1tV0wAVb7iN04xA5h6FYlLnETkXZWj3Zq1FL5LaD1VKYdI7dlATPHbGnurH2pPNrFbYgX8P_9z_JCN6sbO4qHcOlEVRMSH9nbcHyf5tkV4MWQyZjfG1CMpMXssHrCbhOQzP8kOeH59Rcx9fY23I8C4HzAvUIbRi8DKhnlzaExEmwHkFvOwJC7u4ZORBLo73kF9l7meNJQVjqiz2TtfKkSCZlYEfz33nrDuG-yhmf0QJ1nq8qJq8KhsT3RxKyBZvqZXKdp_kH8KXUPGEyltR60k420BhdU3Paf0aGP6OSeGEBnBW1YxZM1QBVL4epAK9GRK8-p7A01lbDXfTQ_6TrP8jLEedGSBvrV9nJwG4CQvMjGkl_172PT-qWq7OUDuNlJ5wXkVHoH3S2etkdj2bxjMNegy6ydsEaBzi9vU2NImFxBAvGP3itoQzjrxy_i0Q0tmgn6Fx2MWRRPk-qSvwSdQD8v1if86RoWpf0r1PSsYyPZ-zDzAnd0lsLTDd9p2KazV5t6phhBaEpIrSVSR3kwxBJdG_31OZb2q_Sg_Vm00?></g></svg>