<svg xmlns="http://www.w3.org/2000/svg" xmlns:xlink="http://www.w3.org/1999/xlink" contentStyleType="text/css" data-diagram-type="DESCRIPTION" height="725px" preserveAspectRatio="none" style="width:955px;height:725px;background:#FFFFFF;" version="1.1" viewBox="0 0 955 725" width="955px" zoomAndPan="magnify"><?plantuml 1.2026.4?><defs/><g><g class="title" data-source-line="2"><text fill="#17313B" font-family="Segoe UI" font-size="30" font-weight="700" lengthAdjust="spacing" textLength="514.5996" x="214.3669" y="49.0397">Diagramme de cas d'usage - Visiteur</text></g><!--cluster Plateforme B2B FMCG Export--><g class="cluster" data-qualified-name="Plateforme B2B FMCG Export" data-source-line="7" id="ent0002"><rect fill="none" height="616.6667" rx="8.3333" ry="8.3333" style="stroke:#181818;stroke-width:1.6667;" width="776.6667" x="155" y="86.569"/><text fill="#000000" font-family="Segoe UI" font-size="21.6667" font-weight="700" lengthAdjust="spacing" textLength="299.3555" x="393.6556" y="113.2829">Plateforme B2B FMCG Export</text></g><!--entity UC1--><g class="entity" data-qualified-name="Plateforme B2B FMCG Export.UC1" data-source-line="8" id="ent0003"><ellipse cx="753.1492" cy="183.3655" fill="#FCFEFE" rx="151.4825" ry="34.2965" style="stroke:#335C67;stroke-width:0.8333;"/><text fill="#000000" font-family="Segoe UI" font-size="21.6667" lengthAdjust="spacing" textLength="255.0806" x="625.6089" y="191.9414">Consulter catalogue public</text></g><!--entity UC2--><g class="entity" data-qualified-name="Plateforme B2B FMCG Export.UC2" data-source-line="9" id="ent0004"><ellipse cx="341.3745" cy="183.3439" fill="#FCFEFE" rx="159.7078" ry="35.9416" style="stroke:#335C67;stroke-width:0.8333;"/><text fill="#000000" font-family="Segoe UI" font-size="21.6667" lengthAdjust="spacing" textLength="273.8167" x="204.4661" y="191.9198">Rechercher et filtrer produits</text></g><!--entity UC3--><g class="entity" data-qualified-name="Plateforme B2B FMCG Export.UC3" data-source-line="10" id="ent0005"><ellipse cx="753.7236" cy="306.9804" fill="#FCFEFE" rx="136.2236" ry="31.2447" style="stroke:#335C67;stroke-width:0.8333;"/><text fill="#000000" font-family="Segoe UI" font-size="21.6667" lengthAdjust="spacing" textLength="219.3538" x="644.0467" y="315.5562">Consulter fiche produit</text></g><!--entity UC4--><g class="entity" data-qualified-name="Plateforme B2B FMCG Export.UC4" data-source-line="11" id="ent0006"><ellipse cx="341.9311" cy="423.2886" fill="#FCFEFE" rx="130.2645" ry="30.0529" style="stroke:#335C67;stroke-width:0.8333;"/><text fill="#000000" font-family="Segoe UI" font-size="21.6667" lengthAdjust="spacing" textLength="204.9447" x="239.4588" y="431.8644">Voir page fournisseur</text></g><!--entity UC5--><g class="entity" data-qualified-name="Plateforme B2B FMCG Export.UC5" data-source-line="12" id="ent0007"><ellipse cx="341.442" cy="539.8574" fill="#FCFEFE" rx="117.2754" ry="27.4551" style="stroke:#335C67;stroke-width:0.8333;"/><text fill="#000000" font-family="Segoe UI" font-size="21.6667" lengthAdjust="spacing" textLength="172.2225" x="255.3308" y="548.4333">Voir page marque</text></g><!--entity UC6--><g class="entity" data-qualified-name="Plateforme B2B FMCG Export.UC6" data-source-line="13" id="ent0008"><ellipse cx="341.3656" cy="306.3421" fill="#FCFEFE" rx="120.5322" ry="28.1064" style="stroke:#335C67;stroke-width:0.8333;"/><text fill="#000000" font-family="Segoe UI" font-size="21.6667" lengthAdjust="spacing" textLength="180.6331" x="251.049" y="314.918">Comparer produits</text></g><!--entity UC7--><g class="entity" data-qualified-name="Plateforme B2B FMCG Export.UC7" data-source-line="14" id="ent0009"><ellipse cx="341.6626" cy="651.9467" fill="#FCFEFE" rx="64.9959" ry="25.3777" style="stroke:#335C67;stroke-width:0.8333;"/><text fill="#000000" font-family="Segoe UI" font-size="21.6667" lengthAdjust="spacing" textLength="84.847" x="299.2391" y="660.5225">S'inscrire</text></g><!--entity Visiteur--><g class="entity" data-qualified-name="Visiteur" data-source-line="5" id="ent0001"><ellipse cx="45.8061" cy="373.2357" fill="#F5FBFB" rx="13.3333" ry="13.3333" style="stroke:#335C67;stroke-width:0.8333;"/><path d="M45.8061,386.569 L45.8061,431.569 M24.1394,399.9023 L67.4727,399.9023 M45.8061,431.569 L24.1394,456.569 M45.8061,431.569 L67.4727,456.569" fill="none" style="stroke:#335C67;stroke-width:0.8333;"/><text fill="#000000" font-family="Segoe UI" font-size="21.6667" lengthAdjust="spacing" textLength="71.6121" x="10" y="482.4495">Visiteur</text></g><!--link Visiteur to UC1--><g class="link" data-entity-1="ent0001" data-entity-2="ent0003" data-link-type="dependency" data-source-line="17" id="lnk10"><path d="M81.9833,370.4523 C206.5,370.4523 610,370.4523 610,370.4523 C610,370.4523 610,244.269 610,203.2857" fill="none" id="Visiteur-to-UC1" style="stroke:#4C5B61;stroke-width:1.6667;"/><polygon fill="#4C5B61" points="610,194.9523,603.3333,209.9523,610,203.2857,616.6667,209.9523,610,194.9523" style="stroke:#4C5B61;stroke-width:1.6667;stroke-linejoin:miter;stroke-miterlimit:10;"/></g><!--link Visiteur to UC3--><g class="link" data-entity-1="ent0001" data-entity-2="ent0005" data-link-type="dependency" data-source-line="18" id="lnk11"><path d="M81.9167,381.8523 C220.1667,381.8523 708.3333,381.8523 708.3333,381.8523 C708.3333,381.8523 708.3333,365.3523 708.3333,344.219" fill="none" id="Visiteur-to-UC3" style="stroke:#4C5B61;stroke-width:1.6667;"/><polygon fill="#4C5B61" points="708.3333,335.8857,701.6667,350.8857,708.3333,344.219,715,350.8857,708.3333,335.8857" style="stroke:#4C5B61;stroke-width:1.6667;stroke-linejoin:miter;stroke-miterlimit:10;"/></g><!--link Visiteur to UC4--><g class="link" data-entity-1="ent0001" data-entity-2="ent0006" data-link-type="dependency" data-source-line="19" id="lnk12"><path d="M82.1,423.2357 C114.5167,423.2357 155.6667,423.2357 202.7667,423.2357" fill="none" id="Visiteur-to-UC4" style="stroke:#4C5B61;stroke-width:1.6667;"/><polygon fill="#4C5B61" points="211.1,423.2357,196.1,416.569,202.7667,423.2357,196.1,429.9023,211.1,423.2357" style="stroke:#4C5B61;stroke-width:1.6667;stroke-linejoin:miter;stroke-miterlimit:10;"/></g><!--link Visiteur to UC5--><g class="link" data-entity-1="ent0001" data-entity-2="ent0007" data-link-type="dependency" data-source-line="20" id="lnk13"><path d="M58.3333,487.719 C58.3333,514.6857 58.3333,539.9023 58.3333,539.9023 C58.3333,539.9023 137.7833,539.9023 215.6333,539.9023" fill="none" id="Visiteur-to-UC5" style="stroke:#4C5B61;stroke-width:1.6667;"/><polygon fill="#4C5B61" points="223.9667,539.9023,208.9667,533.2357,215.6333,539.9023,208.9667,546.569,223.9667,539.9023" style="stroke:#4C5B61;stroke-width:1.6667;stroke-linejoin:miter;stroke-miterlimit:10;"/></g><!--link Visiteur to UC7--><g class="link" data-entity-1="ent0001" data-entity-2="ent0009" data-link-type="dependency" data-source-line="21" id="lnk14"><path d="M35,487.4523 C35,554.9857 35,651.569 35,651.569 C35,651.569 178.2833,651.569 268.3,651.569" fill="none" id="Visiteur-to-UC7" style="stroke:#4C5B61;stroke-width:1.6667;"/><polygon fill="#4C5B61" points="276.6333,651.569,261.6333,644.9023,268.3,651.569,261.6333,658.2357,276.6333,651.569" style="stroke:#4C5B61;stroke-width:1.6667;stroke-linejoin:miter;stroke-miterlimit:10;"/></g><!--link UC2 to UC1--><g class="link" data-entity-1="ent0004" data-entity-2="ent0003" data-link-type="dependency" data-source-line="23" id="lnk15"><path d="M502,183.2357 C534.75,183.2357 560.7667,183.2357 593.1833,183.2357" fill="none" id="UC2-to-UC1" style="stroke:#4C5B61;stroke-width:1.6667;stroke-dasharray:11.6667,11.6667;"/><polygon fill="#4C5B61" points="601.5167,183.2357,586.5167,176.569,593.1833,183.2357,586.5167,189.9023,601.5167,183.2357" style="stroke:#4C5B61;stroke-width:1.6667;stroke-linejoin:miter;stroke-miterlimit:10;"/><text fill="#000000" font-family="Segoe UI" font-size="21.6667" lengthAdjust="spacing" textLength="86.8888" x="463.4333" y="208.2829">&#171;extend&#187;</text></g><!--link UC6 to UC3--><g class="link" data-entity-1="ent0008" data-entity-2="ent0005" data-link-type="dependency" data-source-line="24" id="lnk16"><path d="M462.95,306.569 C511.3333,306.569 558.9333,306.569 608.7,306.569" fill="none" id="UC6-to-UC3" style="stroke:#4C5B61;stroke-width:1.6667;stroke-dasharray:11.6667,11.6667;"/><polygon fill="#4C5B61" points="617.0333,306.569,602.0333,299.9023,608.7,306.569,602.0333,313.2357,617.0333,306.569" style="stroke:#4C5B61;stroke-width:1.6667;stroke-linejoin:miter;stroke-miterlimit:10;"/><text fill="#000000" font-family="Segoe UI" font-size="21.6667" lengthAdjust="spacing" textLength="86.8888" x="541.6667" y="299.9495">&#171;extend&#187;</text></g><!--link UC7 to UC3--><g class="link" data-entity-1="ent0009" data-entity-2="ent0005" data-link-type="dependency" data-source-line="25" id="lnk17"><path d="M406.85,651.569 C533.3833,651.569 800,651.569 800,651.569 C800,651.569 800,427.7523 800,344.319" fill="none" id="UC7-to-UC3" style="stroke:#4C5B61;stroke-width:1.6667;stroke-dasharray:11.6667,11.6667;"/><polygon fill="#4C5B61" points="800,335.9857,793.3333,350.9857,800,344.319,806.6667,350.9857,800,335.9857" style="stroke:#4C5B61;stroke-width:1.6667;stroke-linejoin:miter;stroke-miterlimit:10;"/><text fill="#000000" font-family="Segoe UI" font-size="21.6667" lengthAdjust="spacing" textLength="86.8888" x="672.8833" y="676.6162">&#171;extend&#187;</text></g><?plantuml-src RPBBQiCm44Nt-effDbabeNb22LaaVQmAfQNPg_BO6P0bTpI2bD9_xoGuD3LU2CIzHtSUw8Q2yxb068ydBjPr39CaNnx7JQwz4HAFS4-sOblN2Cevcw0OvcGhX17iAP5WPkEn5908JDL1e2169nI3CTP9v3_Ed0mRAeqTl7WhM4RMuErq2u_FkoTuE3QHPG3V1Y0dr6eAxc98sGkoLXVhOvKHclpXoGr0stdVtLxJh-WEoAS3A52I5zPhmx789AbzCUtFBqdVNTWMdLsZ-qYQTHg-Z9a3fQHJjU2y7wmjVsPicSN_kdLZUvfRNaDlGmh9iMwqTLVcnvZBGc4qsfmNq15cNM7U5HPTOMMCxaK_mZaGxc2zngDWA3ORDPQjCUiQgtxZ5m00?></g></svg>