<svg xmlns="http://www.w3.org/2000/svg" xmlns:xlink="http://www.w3.org/1999/xlink" contentStyleType="text/css" data-diagram-type="CLASS" height="1483.3333px" preserveAspectRatio="none" style="width:1825px;height:1483px;background:#FFFFFF;" version="1.1" viewBox="0 0 1825 1483" width="1825px" zoomAndPan="magnify"><?plantuml 1.2026.4?><defs/><g><g class="title" data-source-line="2"><text fill="#17313B" font-family="Segoe UI" font-size="30" font-weight="700" lengthAdjust="spacing" textLength="562.8223" x="625.5432" y="49.0397">Diagramme de classes - Identite et roles</text></g><!--class User--><g class="entity" data-qualified-name="User" data-source-line="6" id="ent0001"><rect fill="#FCFEFE" height="480.1237" rx="8.3333" ry="8.3333" style="stroke:#335C67;stroke-width:0.8333;" width="283.8721" x="587.5" y="86.569"/><rect fill="#E6F2F3" height="50" rx="8.3333" ry="8.3333" style="stroke:#E6F2F3;stroke-width:0.8333;" width="283.8721" x="587.5" y="86.569"/><rect fill="#E6F2F3" height="8.3333" style="stroke:#E6F2F3;stroke-width:0.8333;" width="283.8721" x="587.5" y="128.2357"/><rect fill="none" height="480.1237" rx="8.3333" ry="8.3333" style="stroke:#335C67;stroke-width:0.8333;" width="283.8721" x="587.5" y="86.569"/><ellipse cx="701.9067" cy="111.569" fill="#A9DCDF" rx="16.6667" ry="16.6667" style="stroke:#181818;stroke-width:1.6667;"/><path d="M705.214,113.4961 L699.9536,113.4961 L699.4328,114.8242 L699.9536,114.8242 Q700.7349,114.8242 701.0734,115.1367 Q701.4119,115.4232 701.4119,115.918 Q701.4119,116.3867 701.0734,116.6992 Q700.7349,116.9857 699.9536,116.9857 L697.0369,116.9857 Q696.2557,116.9857 695.9172,116.6992 Q695.5786,116.3867 695.5786,115.8919 Q695.5786,115.3971 695.9432,115.1107 Q696.2817,114.7982 697.089,114.8242 L700.5005,106.3346 L699.0682,106.3346 Q698.2869,106.3346 697.9484,106.0482 Q697.6359,105.7357 697.6359,105.2409 Q697.6359,104.7461 697.9484,104.4596 Q698.2869,104.1471 699.0682,104.1471 L703.7557,104.1732 L708.0786,114.8242 Q708.8338,114.8242 709.0942,114.9805 Q709.563,115.3451 709.563,115.918 Q709.563,116.3867 709.2244,116.6992 Q708.9119,116.9857 708.1307,116.9857 L705.214,116.9857 Q704.4328,116.9857 704.0942,116.6992 Q703.7557,116.3867 703.7557,115.8919 Q703.7557,115.4232 704.0942,115.1367 Q704.4328,114.8242 705.214,114.8242 L705.7349,114.8242 L705.214,113.4961 Z M704.3286,111.3346 L702.5838,107.0378 L700.813,111.3346 L704.3286,111.3346 Z " fill="#000000"/><text fill="#000000" font-family="Segoe UI" font-size="21.6667" font-style="italic" lengthAdjust="spacing" textLength="41.7253" x="733.5734" y="120.5404">User</text><line style="stroke:#335C67;stroke-width:0.8333;" x1="589.1667" x2="869.7054" y1="136.569" y2="136.569"/><text fill="#000000" font-family="Segoe UI" font-size="21.6667" lengthAdjust="spacing" textLength="88.0314" x="597.5" y="166.6162">-id: UUID</text><text fill="#000000" font-family="Segoe UI" font-size="21.6667" lengthAdjust="spacing" textLength="166.9539" x="597.5" y="195.4346">-firstName: string</text><text fill="#000000" font-family="Segoe UI" font-size="21.6667" lengthAdjust="spacing" textLength="163.6637" x="597.5" y="224.2529">-lastName: string</text><text fill="#000000" font-family="Segoe UI" font-size="21.6667" lengthAdjust="spacing" textLength="125.144" x="597.5" y="253.0713">-email: string</text><text fill="#000000" font-family="Segoe UI" font-size="21.6667" lengthAdjust="spacing" textLength="212.2868" x="597.5" y="281.8896">-passwordHash: string</text><text fill="#000000" font-family="Segoe UI" font-size="21.6667" lengthAdjust="spacing" textLength="134.9194" x="597.5" y="310.708">-phone: string</text><text fill="#000000" font-family="Segoe UI" font-size="21.6667" lengthAdjust="spacing" textLength="177.2689" x="597.5" y="339.5264">-status: UserStatus</text><text fill="#000000" font-family="Segoe UI" font-size="21.6667" lengthAdjust="spacing" textLength="263.8721" x="597.5" y="368.3447">-languagePreference: string</text><text fill="#000000" font-family="Segoe UI" font-size="21.6667" lengthAdjust="spacing" textLength="256.6252" x="597.5" y="397.1631">-currencyPreference: string</text><text fill="#000000" font-family="Segoe UI" font-size="21.6667" lengthAdjust="spacing" textLength="162.299" x="597.5" y="425.9814">-timezone: string</text><text fill="#000000" font-family="Segoe UI" font-size="21.6667" lengthAdjust="spacing" textLength="196.9784" x="597.5" y="454.7998">-createdAt: datetime</text><text fill="#000000" font-family="Segoe UI" font-size="21.6667" lengthAdjust="spacing" textLength="205.8651" x="597.5" y="483.6182">-updatedAt: datetime</text><line style="stroke:#335C67;stroke-width:0.8333;" x1="589.1667" x2="869.7054" y1="495.7227" y2="495.7227"/><text fill="#000000" font-family="Segoe UI" font-size="21.6667" lengthAdjust="spacing" textLength="235.297" x="597.5" y="525.7699">+authenticate(): boolean</text><text fill="#000000" font-family="Segoe UI" font-size="21.6667" lengthAdjust="spacing" textLength="208.0339" x="597.5" y="554.5882">+updateProfile(): void</text></g><!--class BuyerUser--><g class="entity" data-qualified-name="BuyerUser" data-source-line="23" id="ent0002"><rect fill="#FCFEFE" height="249.5768" rx="8.3333" ry="8.3333" style="stroke:#335C67;stroke-width:0.8333;" width="362.1598" x="11.6667" y="666.569"/><rect fill="#E6F2F3" height="50" rx="8.3333" ry="8.3333" style="stroke:#E6F2F3;stroke-width:0.8333;" width="362.1598" x="11.6667" y="666.569"/><rect fill="#E6F2F3" height="8.3333" style="stroke:#E6F2F3;stroke-width:0.8333;" width="362.1598" x="11.6667" y="708.2357"/><rect fill="none" height="249.5768" rx="8.3333" ry="8.3333" style="stroke:#335C67;stroke-width:0.8333;" width="362.1598" x="11.6667" y="666.569"/><ellipse cx="137.5944" cy="691.569" fill="#ADD1B2" rx="16.6667" ry="16.6667" style="stroke:#181818;stroke-width:1.6667;"/><path d="M139.1569,685.9701 Q139.3652,685.6836 139.5996,685.5534 Q139.834,685.4232 140.1204,685.4232 Q140.5892,685.4232 140.8757,685.7617 Q141.1882,686.0742 141.1882,686.8555 L141.1882,688.7044 Q141.1882,689.4857 140.8757,689.8242 Q140.5892,690.1367 140.1204,690.1367 Q139.6777,690.1367 139.4173,689.9023 Q139.1569,689.668 139.0267,688.9909 Q138.9486,688.5482 138.7402,688.3138 Q138.2975,687.819 137.5163,687.5326 Q136.735,687.2461 135.9538,687.2461 Q134.9902,687.2461 134.1569,687.6888 Q133.3496,688.1055 132.7246,689.069 Q132.0996,690.0065 132.0996,691.3086 L132.0996,692.7148 Q132.0996,694.2773 133.2454,695.3451 Q134.3913,696.3867 136.3965,696.3867 Q137.6204,696.3867 138.4538,696.0482 Q138.9225,695.8659 139.4694,695.293 Q139.8079,694.9544 139.9902,694.8763 Q140.1986,694.7721 140.4329,694.7721 Q140.8757,694.7721 141.1882,695.1107 Q141.5267,695.4232 141.5267,695.8659 Q141.5267,696.3086 141.084,696.8294 Q140.4329,697.5586 139.4173,697.9753 Q138.0632,698.5482 136.4225,698.5482 Q134.4954,698.5482 132.9329,697.7669 Q131.6829,697.1159 130.7975,695.7617 Q129.9382,694.3815 129.9382,692.7669 L129.9382,691.2826 Q129.9382,689.5898 130.7194,688.1315 Q131.5267,686.6732 132.9069,685.8919 Q134.3132,685.0846 135.8757,685.0846 Q136.8132,685.0846 137.6204,685.319 Q138.4538,685.5273 139.1569,685.9701 Z " fill="#000000"/><text fill="#000000" font-family="Segoe UI" font-size="21.6667" lengthAdjust="spacing" textLength="96.971" x="169.2611" y="700.5404">BuyerUser</text><line style="stroke:#335C67;stroke-width:0.8333;" x1="13.3333" x2="372.1598" y1="716.569" y2="716.569"/><text fill="#000000" font-family="Segoe UI" font-size="21.6667" lengthAdjust="spacing" textLength="218.7297" x="21.6667" y="746.6162">-companyName: string</text><text fill="#000000" font-family="Segoe UI" font-size="21.6667" lengthAdjust="spacing" textLength="146.2183" x="21.6667" y="775.4346">-country: string</text><text fill="#000000" font-family="Segoe UI" font-size="21.6667" lengthAdjust="spacing" textLength="215.4712" x="21.6667" y="804.2529">-businessSector: string</text><text fill="#000000" font-family="Segoe UI" font-size="21.6667" lengthAdjust="spacing" textLength="205.8651" x="21.6667" y="833.0713">-kycStatus: KYCStatus</text><line style="stroke:#335C67;stroke-width:0.8333;" x1="13.3333" x2="372.1598" y1="845.1758" y2="845.1758"/><text fill="#000000" font-family="Segoe UI" font-size="21.6667" lengthAdjust="spacing" textLength="183.0135" x="21.6667" y="875.223">+submitKYC(): void</text><text fill="#000000" font-family="Segoe UI" font-size="21.6667" lengthAdjust="spacing" textLength="342.1598" x="21.6667" y="904.0413">+createRFQ(): RequestForQuotation</text></g><!--class SupplierUser--><g class="entity" data-qualified-name="SupplierUser" data-source-line="32" id="ent0003"><rect fill="#FCFEFE" height="191.9401" rx="8.3333" ry="8.3333" style="stroke:#335C67;stroke-width:0.8333;" width="260.5973" x="482.5" y="1266.569"/><rect fill="#E6F2F3" height="50" rx="8.3333" ry="8.3333" style="stroke:#E6F2F3;stroke-width:0.8333;" width="260.5973" x="482.5" y="1266.569"/><rect fill="#E6F2F3" height="8.3333" style="stroke:#E6F2F3;stroke-width:0.8333;" width="260.5973" x="482.5" y="1308.2357"/><rect fill="none" height="191.9401" rx="8.3333" ry="8.3333" style="stroke:#335C67;stroke-width:0.8333;" width="260.5973" x="482.5" y="1266.569"/><ellipse cx="545.906" cy="1291.569" fill="#ADD1B2" rx="16.6667" ry="16.6667" style="stroke:#181818;stroke-width:1.6667;"/><path d="M547.4685,1285.9701 Q547.6768,1285.6836 547.9112,1285.5534 Q548.1455,1285.4232 548.432,1285.4232 Q548.9008,1285.4232 549.1872,1285.7617 Q549.4997,1286.0742 549.4997,1286.8555 L549.4997,1288.7044 Q549.4997,1289.4857 549.1872,1289.8242 Q548.9008,1290.1367 548.432,1290.1367 Q547.9893,1290.1367 547.7289,1289.9023 Q547.4685,1289.668 547.3383,1288.9909 Q547.2601,1288.5482 547.0518,1288.3138 Q546.6091,1287.819 545.8278,1287.5326 Q545.0466,1287.2461 544.2653,1287.2461 Q543.3018,1287.2461 542.4685,1287.6888 Q541.6612,1288.1055 541.0362,1289.069 Q540.4112,1290.0065 540.4112,1291.3086 L540.4112,1292.7148 Q540.4112,1294.2773 541.557,1295.3451 Q542.7028,1296.3867 544.708,1296.3867 Q545.932,1296.3867 546.7653,1296.0482 Q547.2341,1295.8659 547.781,1295.293 Q548.1195,1294.9544 548.3018,1294.8763 Q548.5101,1294.7721 548.7445,1294.7721 Q549.1872,1294.7721 549.4997,1295.1107 Q549.8383,1295.4232 549.8383,1295.8659 Q549.8383,1296.3086 549.3955,1296.8294 Q548.7445,1297.5586 547.7289,1297.9753 Q546.3747,1298.5482 544.7341,1298.5482 Q542.807,1298.5482 541.2445,1297.7669 Q539.9945,1297.1159 539.1091,1295.7617 Q538.2497,1294.3815 538.2497,1292.7669 L538.2497,1291.2826 Q538.2497,1289.5898 539.031,1288.1315 Q539.8383,1286.6732 541.2185,1285.8919 Q542.6247,1285.0846 544.1872,1285.0846 Q545.1247,1285.0846 545.932,1285.319 Q546.7653,1285.5273 547.4685,1285.9701 Z " fill="#000000"/><text fill="#000000" font-family="Segoe UI" font-size="21.6667" lengthAdjust="spacing" textLength="121.547" x="576.4777" y="1300.5404">SupplierUser</text><line style="stroke:#335C67;stroke-width:0.8333;" x1="484.1667" x2="741.4307" y1="1316.569" y2="1316.569"/><text fill="#000000" font-family="Segoe UI" font-size="21.6667" lengthAdjust="spacing" textLength="151.0531" x="492.5" y="1346.6162">-position: string</text><text fill="#000000" font-family="Segoe UI" font-size="21.6667" lengthAdjust="spacing" textLength="185.9546" x="492.5" y="1375.4346">-department: string</text><line style="stroke:#335C67;stroke-width:0.8333;" x1="484.1667" x2="741.4307" y1="1387.5391" y2="1387.5391"/><text fill="#000000" font-family="Segoe UI" font-size="21.6667" lengthAdjust="spacing" textLength="240.5973" x="492.5" y="1417.5863">+manageProducts(): void</text><text fill="#000000" font-family="Segoe UI" font-size="21.6667" lengthAdjust="spacing" textLength="222.041" x="492.5" y="1446.4046">+respondToRFQ(): void</text></g><!--class AccountManager--><g class="entity" data-qualified-name="AccountManager" data-source-line="39" id="ent0004"><rect fill="#FCFEFE" height="191.9401" rx="8.3333" ry="8.3333" style="stroke:#335C67;stroke-width:0.8333;" width="290.1986" x="584.1667" y="695.7357"/><rect fill="#E6F2F3" height="50" rx="8.3333" ry="8.3333" style="stroke:#E6F2F3;stroke-width:0.8333;" width="290.1986" x="584.1667" y="695.7357"/><rect fill="#E6F2F3" height="8.3333" style="stroke:#E6F2F3;stroke-width:0.8333;" width="290.1986" x="584.1667" y="737.4023"/><rect fill="none" height="191.9401" rx="8.3333" ry="8.3333" style="stroke:#335C67;stroke-width:0.8333;" width="290.1986" x="584.1667" y="695.7357"/><ellipse cx="641.8169" cy="720.7357" fill="#ADD1B2" rx="16.6667" ry="16.6667" style="stroke:#181818;stroke-width:1.6667;"/><path d="M643.3794,715.1367 Q643.5877,714.8503 643.8221,714.7201 Q644.0565,714.5898 644.3429,714.5898 Q644.8117,714.5898 645.0981,714.9284 Q645.4106,715.2409 645.4106,716.0221 L645.4106,717.8711 Q645.4106,718.6523 645.0981,718.9909 Q644.8117,719.3034 644.3429,719.3034 Q643.9002,719.3034 643.6398,719.069 Q643.3794,718.8346 643.2492,718.1576 Q643.1711,717.7148 642.9627,717.4805 Q642.52,716.9857 641.7388,716.6992 Q640.9575,716.4128 640.1763,716.4128 Q639.2127,716.4128 638.3794,716.8555 Q637.5721,717.2721 636.9471,718.2357 Q636.3221,719.1732 636.3221,720.4753 L636.3221,721.8815 Q636.3221,723.444 637.4679,724.5117 Q638.6138,725.5534 640.619,725.5534 Q641.8429,725.5534 642.6763,725.2148 Q643.145,725.0326 643.6919,724.4596 Q644.0304,724.1211 644.2127,724.043 Q644.4211,723.9388 644.6554,723.9388 Q645.0981,723.9388 645.4106,724.2773 Q645.7492,724.5898 645.7492,725.0326 Q645.7492,725.4753 645.3065,725.9961 Q644.6554,726.7253 643.6398,727.1419 Q642.2856,727.7148 640.645,727.7148 Q638.7179,727.7148 637.1554,726.9336 Q635.9054,726.2826 635.02,724.9284 Q634.1606,723.5482 634.1606,721.9336 L634.1606,720.4492 Q634.1606,718.7565 634.9419,717.2982 Q635.7492,715.8398 637.1294,715.0586 Q638.5356,714.2513 640.0981,714.2513 Q641.0356,714.2513 641.8429,714.4857 Q642.6763,714.694 643.3794,715.1367 Z " fill="#000000"/><text fill="#000000" font-family="Segoe UI" font-size="21.6667" lengthAdjust="spacing" textLength="163.9388" x="671.1095" y="729.707">AccountManager</text><line style="stroke:#335C67;stroke-width:0.8333;" x1="585.8333" x2="872.6986" y1="745.7357" y2="745.7357"/><text fill="#000000" font-family="Segoe UI" font-size="21.6667" lengthAdjust="spacing" textLength="217.6506" x="594.1667" y="775.7829">-employeeCode: string</text><text fill="#000000" font-family="Segoe UI" font-size="21.6667" lengthAdjust="spacing" textLength="150.6722" x="594.1667" y="804.6012">-territory: string</text><line style="stroke:#335C67;stroke-width:0.8333;" x1="585.8333" x2="872.6986" y1="816.7057" y2="816.7057"/><text fill="#000000" font-family="Segoe UI" font-size="21.6667" lengthAdjust="spacing" textLength="232.5675" x="594.1667" y="846.7529">+validateSupplier(): void</text><text fill="#000000" font-family="Segoe UI" font-size="21.6667" lengthAdjust="spacing" textLength="270.1986" x="594.1667" y="875.5713">+followOpportunities(): void</text></g><!--class PlatformAdmin--><g class="entity" data-qualified-name="PlatformAdmin" data-source-line="46" id="ent0005"><rect fill="#FCFEFE" height="163.1217" rx="8.3333" ry="8.3333" style="stroke:#335C67;stroke-width:0.8333;" width="303.9307" x="932.5" y="709.9023"/><rect fill="#E6F2F3" height="50" rx="8.3333" ry="8.3333" style="stroke:#E6F2F3;stroke-width:0.8333;" width="303.9307" x="932.5" y="709.9023"/><rect fill="#E6F2F3" height="8.3333" style="stroke:#E6F2F3;stroke-width:0.8333;" width="303.9307" x="932.5" y="751.569"/><rect fill="none" height="163.1217" rx="8.3333" ry="8.3333" style="stroke:#335C67;stroke-width:0.8333;" width="303.9307" x="932.5" y="709.9023"/><ellipse cx="1005.6364" cy="734.9023" fill="#ADD1B2" rx="16.6667" ry="16.6667" style="stroke:#181818;stroke-width:1.6667;"/><path d="M1007.1989,729.3034 Q1007.4072,729.0169 1007.6416,728.8867 Q1007.876,728.7565 1008.1624,728.7565 Q1008.6312,728.7565 1008.9176,729.0951 Q1009.2301,729.4076 1009.2301,730.1888 L1009.2301,732.0378 Q1009.2301,732.819 1008.9176,733.1576 Q1008.6312,733.4701 1008.1624,733.4701 Q1007.7197,733.4701 1007.4593,733.2357 Q1007.1989,733.0013 1007.0687,732.3242 Q1006.9906,731.8815 1006.7822,731.6471 Q1006.3395,731.1523 1005.5583,730.8659 Q1004.777,730.5794 1003.9958,730.5794 Q1003.0322,730.5794 1002.1989,731.0221 Q1001.3916,731.4388 1000.7666,732.4023 Q1000.1416,733.3398 1000.1416,734.6419 L1000.1416,736.0482 Q1000.1416,737.6107 1001.2874,738.6784 Q1002.4333,739.7201 1004.4385,739.7201 Q1005.6624,739.7201 1006.4958,739.3815 Q1006.9645,739.1992 1007.5114,738.6263 Q1007.8499,738.2878 1008.0322,738.2096 Q1008.2406,738.1055 1008.4749,738.1055 Q1008.9176,738.1055 1009.2301,738.444 Q1009.5687,738.7565 1009.5687,739.1992 Q1009.5687,739.6419 1009.126,740.1628 Q1008.4749,740.8919 1007.4593,741.3086 Q1006.1051,741.8815 1004.4645,741.8815 Q1002.5374,741.8815 1000.9749,741.1003 Q999.7249,740.4492 998.8395,739.0951 Q997.9801,737.7148 997.9801,736.1003 L997.9801,734.6159 Q997.9801,732.9232 998.7614,731.4648 Q999.5687,730.0065 1000.9489,729.2253 Q1002.3551,728.418 1003.9176,728.418 Q1004.8551,728.418 1005.6624,728.6523 Q1006.4958,728.8607 1007.1989,729.3034 Z " fill="#000000"/><text fill="#000000" font-family="Segoe UI" font-size="21.6667" lengthAdjust="spacing" textLength="144.3245" x="1037.3031" y="743.8737">PlatformAdmin</text><line style="stroke:#335C67;stroke-width:0.8333;" x1="934.1667" x2="1234.764" y1="759.9023" y2="759.9023"/><text fill="#000000" font-family="Segoe UI" font-size="21.6667" lengthAdjust="spacing" textLength="182.0719" x="942.5" y="789.9495">-adminLevel: string</text><line style="stroke:#335C67;stroke-width:0.8333;" x1="934.1667" x2="1234.764" y1="802.054" y2="802.054"/><text fill="#000000" font-family="Segoe UI" font-size="21.6667" lengthAdjust="spacing" textLength="248.9339" x="942.5" y="832.1012">+moderateContent(): void</text><text fill="#000000" font-family="Segoe UI" font-size="21.6667" lengthAdjust="spacing" textLength="283.9307" x="942.5" y="860.9196">+manageSponsorships(): void</text></g><!--class SuperAdmin--><g class="entity" data-qualified-name="SuperAdmin" data-source-line="52" id="ent0006"><rect fill="#FCFEFE" height="149.7884" rx="8.3333" ry="8.3333" style="stroke:#335C67;stroke-width:0.8333;" width="259.0104" x="1491.6667" y="1016.569"/><rect fill="#E6F2F3" height="50" rx="8.3333" ry="8.3333" style="stroke:#E6F2F3;stroke-width:0.8333;" width="259.0104" x="1491.6667" y="1016.569"/><rect fill="#E6F2F3" height="8.3333" style="stroke:#E6F2F3;stroke-width:0.8333;" width="259.0104" x="1491.6667" y="1058.2357"/><rect fill="none" height="149.7884" rx="8.3333" ry="8.3333" style="stroke:#335C67;stroke-width:0.8333;" width="259.0104" x="1491.6667" y="1016.569"/><ellipse cx="1555.8296" cy="1041.569" fill="#ADD1B2" rx="16.6667" ry="16.6667" style="stroke:#181818;stroke-width:1.6667;"/><path d="M1557.3921,1035.9701 Q1557.6004,1035.6836 1557.8348,1035.5534 Q1558.0692,1035.4232 1558.3556,1035.4232 Q1558.8244,1035.4232 1559.1108,1035.7617 Q1559.4233,1036.0742 1559.4233,1036.8555 L1559.4233,1038.7044 Q1559.4233,1039.4857 1559.1108,1039.8242 Q1558.8244,1040.1367 1558.3556,1040.1367 Q1557.9129,1040.1367 1557.6525,1039.9023 Q1557.3921,1039.668 1557.2619,1038.9909 Q1557.1838,1038.5482 1556.9754,1038.3138 Q1556.5327,1037.819 1555.7515,1037.5326 Q1554.9702,1037.2461 1554.189,1037.2461 Q1553.2254,1037.2461 1552.3921,1037.6888 Q1551.5848,1038.1055 1550.9598,1039.069 Q1550.3348,1040.0065 1550.3348,1041.3086 L1550.3348,1042.7148 Q1550.3348,1044.2773 1551.4806,1045.3451 Q1552.6265,1046.3867 1554.6317,1046.3867 Q1555.8556,1046.3867 1556.689,1046.0482 Q1557.1577,1045.8659 1557.7046,1045.293 Q1558.0431,1044.9544 1558.2254,1044.8763 Q1558.4338,1044.7721 1558.6681,1044.7721 Q1559.1108,1044.7721 1559.4233,1045.1107 Q1559.7619,1045.4232 1559.7619,1045.8659 Q1559.7619,1046.3086 1559.3192,1046.8294 Q1558.6681,1047.5586 1557.6525,1047.9753 Q1556.2983,1048.5482 1554.6577,1048.5482 Q1552.7306,1048.5482 1551.1681,1047.7669 Q1549.9181,1047.1159 1549.0327,1045.7617 Q1548.1733,1044.3815 1548.1733,1042.7669 L1548.1733,1041.2826 Q1548.1733,1039.5898 1548.9546,1038.1315 Q1549.7619,1036.6732 1551.1421,1035.8919 Q1552.5483,1035.0846 1554.1108,1035.0846 Q1555.0483,1035.0846 1555.8556,1035.319 Q1556.689,1035.5273 1557.3921,1035.9701 Z " fill="#000000"/><text fill="#000000" font-family="Segoe UI" font-size="21.6667" lengthAdjust="spacing" textLength="118.278" x="1586.5695" y="1050.5404">SuperAdmin</text><line style="stroke:#335C67;stroke-width:0.8333;" x1="1493.3333" x2="1749.0104" y1="1066.569" y2="1066.569"/><text fill="#000000" font-family="Segoe UI" font-size="21.6667" lengthAdjust="spacing" textLength="208.0973" x="1501.6667" y="1096.6162">+manageRoles(): void</text><text fill="#000000" font-family="Segoe UI" font-size="21.6667" lengthAdjust="spacing" textLength="239.0104" x="1501.6667" y="1125.4346">+configureSystem(): void</text><text fill="#000000" font-family="Segoe UI" font-size="21.6667" lengthAdjust="spacing" textLength="209.6631" x="1501.6667" y="1154.2529">+auditPlatform(): void</text></g><!--class SupplierCompany--><g class="entity" data-qualified-name="SupplierCompany" data-source-line="58" id="ent0007"><rect fill="#FCFEFE" height="149.7884" rx="8.3333" ry="8.3333" style="stroke:#335C67;stroke-width:0.8333;" width="424.7795" x="551.6667" y="1016.569"/><rect fill="#E6F2F3" height="50" rx="8.3333" ry="8.3333" style="stroke:#E6F2F3;stroke-width:0.8333;" width="424.7795" x="551.6667" y="1016.569"/><rect fill="#E6F2F3" height="8.3333" style="stroke:#E6F2F3;stroke-width:0.8333;" width="424.7795" x="551.6667" y="1058.2357"/><rect fill="none" height="149.7884" rx="8.3333" ry="8.3333" style="stroke:#335C67;stroke-width:0.8333;" width="424.7795" x="551.6667" y="1016.569"/><ellipse cx="672.4475" cy="1041.569" fill="#ADD1B2" rx="16.6667" ry="16.6667" style="stroke:#181818;stroke-width:1.6667;"/><path d="M674.01,1035.9701 Q674.2183,1035.6836 674.4527,1035.5534 Q674.6871,1035.4232 674.9736,1035.4232 Q675.4423,1035.4232 675.7288,1035.7617 Q676.0413,1036.0742 676.0413,1036.8555 L676.0413,1038.7044 Q676.0413,1039.4857 675.7288,1039.8242 Q675.4423,1040.1367 674.9736,1040.1367 Q674.5308,1040.1367 674.2704,1039.9023 Q674.01,1039.668 673.8798,1038.9909 Q673.8017,1038.5482 673.5933,1038.3138 Q673.1506,1037.819 672.3694,1037.5326 Q671.5881,1037.2461 670.8069,1037.2461 Q669.8433,1037.2461 669.01,1037.6888 Q668.2027,1038.1055 667.5777,1039.069 Q666.9527,1040.0065 666.9527,1041.3086 L666.9527,1042.7148 Q666.9527,1044.2773 668.0986,1045.3451 Q669.2444,1046.3867 671.2496,1046.3867 Q672.4736,1046.3867 673.3069,1046.0482 Q673.7756,1045.8659 674.3225,1045.293 Q674.6611,1044.9544 674.8433,1044.8763 Q675.0517,1044.7721 675.2861,1044.7721 Q675.7288,1044.7721 676.0413,1045.1107 Q676.3798,1045.4232 676.3798,1045.8659 Q676.3798,1046.3086 675.9371,1046.8294 Q675.2861,1047.5586 674.2704,1047.9753 Q672.9163,1048.5482 671.2756,1048.5482 Q669.3486,1048.5482 667.7861,1047.7669 Q666.5361,1047.1159 665.6506,1045.7617 Q664.7913,1044.3815 664.7913,1042.7669 L664.7913,1041.2826 Q664.7913,1039.5898 665.5725,1038.1315 Q666.3798,1036.6732 667.76,1035.8919 Q669.1663,1035.0846 670.7288,1035.0846 Q671.6663,1035.0846 672.4736,1035.319 Q673.3069,1035.5273 674.01,1035.9701 Z " fill="#000000"/><text fill="#000000" font-family="Segoe UI" font-size="21.6667" lengthAdjust="spacing" textLength="169.8844" x="704.1142" y="1050.5404">SupplierCompany</text><line style="stroke:#335C67;stroke-width:0.8333;" x1="553.3333" x2="974.7795" y1="1066.569" y2="1066.569"/><text fill="#000000" font-family="Segoe UI" font-size="21.6667" lengthAdjust="spacing" textLength="88.0314" x="561.6667" y="1096.6162">-id: UUID</text><text fill="#000000" font-family="Segoe UI" font-size="21.6667" lengthAdjust="spacing" textLength="218.7297" x="561.6667" y="1125.4346">-companyName: string</text><text fill="#000000" font-family="Segoe UI" font-size="21.6667" lengthAdjust="spacing" textLength="404.7795" x="561.6667" y="1154.2529">-validationStatus: SupplierValidationStatus</text></g><!--class RequestForQuotation--><g class="entity" data-qualified-name="RequestForQuotation" data-source-line="64" id="ent0008"><rect fill="#FCFEFE" height="50" rx="8.3333" ry="8.3333" style="stroke:#335C67;stroke-width:0.8333;" width="255.188" x="65" y="1066.569"/><rect fill="#E6F2F3" height="50" rx="8.3333" ry="8.3333" style="stroke:#E6F2F3;stroke-width:0.8333;" width="255.188" x="65" y="1066.569"/><rect fill="#E6F2F3" height="8.3333" style="stroke:#E6F2F3;stroke-width:0.8333;" width="255.188" x="65" y="1108.2357"/><rect fill="none" height="50" rx="8.3333" ry="8.3333" style="stroke:#335C67;stroke-width:0.8333;" width="255.188" x="65" y="1066.569"/><ellipse cx="88.3333" cy="1091.569" fill="#ADD1B2" rx="16.6667" ry="16.6667" style="stroke:#181818;stroke-width:1.6667;"/><path d="M89.8958,1085.9701 Q90.1042,1085.6836 90.3385,1085.5534 Q90.5729,1085.4232 90.8594,1085.4232 Q91.3281,1085.4232 91.6146,1085.7617 Q91.9271,1086.0742 91.9271,1086.8555 L91.9271,1088.7044 Q91.9271,1089.4857 91.6146,1089.8242 Q91.3281,1090.1367 90.8594,1090.1367 Q90.4167,1090.1367 90.1563,1089.9023 Q89.8958,1089.668 89.7656,1088.9909 Q89.6875,1088.5482 89.4792,1088.3138 Q89.0365,1087.819 88.2552,1087.5326 Q87.474,1087.2461 86.6927,1087.2461 Q85.7292,1087.2461 84.8958,1087.6888 Q84.0885,1088.1055 83.4635,1089.069 Q82.8385,1090.0065 82.8385,1091.3086 L82.8385,1092.7148 Q82.8385,1094.2773 83.9844,1095.3451 Q85.1302,1096.3867 87.1354,1096.3867 Q88.3594,1096.3867 89.1927,1096.0482 Q89.6615,1095.8659 90.2083,1095.293 Q90.5469,1094.9544 90.7292,1094.8763 Q90.9375,1094.7721 91.1719,1094.7721 Q91.6146,1094.7721 91.9271,1095.1107 Q92.2656,1095.4232 92.2656,1095.8659 Q92.2656,1096.3086 91.8229,1096.8294 Q91.1719,1097.5586 90.1563,1097.9753 Q88.8021,1098.5482 87.1615,1098.5482 Q85.2344,1098.5482 83.6719,1097.7669 Q82.4219,1097.1159 81.5365,1095.7617 Q80.6771,1094.3815 80.6771,1092.7669 L80.6771,1091.2826 Q80.6771,1089.5898 81.4583,1088.1315 Q82.2656,1086.6732 83.6458,1085.8919 Q85.0521,1085.0846 86.6146,1085.0846 Q87.5521,1085.0846 88.3594,1085.319 Q89.1927,1085.5273 89.8958,1085.9701 Z " fill="#000000"/><text fill="#000000" font-family="Segoe UI" font-size="21.6667" lengthAdjust="spacing" textLength="205.188" x="110" y="1100.5404">RequestForQuotation</text></g><g class="entity" data-qualified-name="GMN17" data-source-line="77" id="ent0018"><path d="M1035.8333,1062.4023 L1035.8333,1084.9023 L977.1667,1091.569 L1035.8333,1098.2357 L1035.8333,1120.0391 A8.3333,8.3333 0 0 0 1044.1667,1128.3724 L1424.9406,1128.3724 A8.3333,8.3333 0 0 0 1433.2739,1120.0391 L1433.2739,1070.7357 L1416.6073,1054.069 L1044.1667,1054.069 A8.3333,8.3333 0 0 0 1035.8333,1062.4023" fill="#FFF8E8" style="stroke:#D8BE74;stroke-width:0.8333;"/><path d="M1416.6073,1054.069 L1416.6073,1066.569 A4.1667,4.1667 0 0 0 1420.7739,1070.7357 L1433.2739,1070.7357 L1416.6073,1054.069" fill="#FFF8E8" style="stroke:#D8BE74;stroke-width:0.8333;"/><text fill="#000000" font-family="Segoe UI" font-size="21.6667" lengthAdjust="spacing" textLength="342.911" x="1045.8333" y="1085.7829">La societe fournisseur est une entite</text><text fill="#000000" font-family="Segoe UI" font-size="21.6667" lengthAdjust="spacing" textLength="362.4406" x="1045.8333" y="1114.6012">metier distincte du compte utilisateur.</text></g><g class="entity" data-qualified-name="GMN20" data-source-line="82" id="ent0021"><path d="M1294.1667,762.4023 L1294.1667,820.0391 A8.3333,8.3333 0 0 0 1302.5,828.3724 L1792.242,828.3724 A8.3333,8.3333 0 0 0 1800.5754,820.0391 L1800.5754,770.7357 L1783.9087,754.069 L1302.5,754.069 A8.3333,8.3333 0 0 0 1294.1667,762.4023" fill="#FFF8E8" style="stroke:#D8BE74;stroke-width:0.8333;"/><path d="M1783.9087,754.069 L1783.9087,766.569 A4.1667,4.1667 0 0 0 1788.0754,770.7357 L1800.5754,770.7357 L1783.9087,754.069" fill="#FFF8E8" style="stroke:#D8BE74;stroke-width:1.6667;"/><text fill="#000000" font-family="Segoe UI" font-size="21.6667" lengthAdjust="spacing" textLength="407.9004" x="1304.1667" y="785.7829">Le Visiteur n'est pas une classe persistante.</text><text fill="#000000" font-family="Segoe UI" font-size="21.6667" lengthAdjust="spacing" textLength="471.4087" x="1304.1667" y="814.6012">Il reste un acteur non authentifie des cas d'usage.</text></g><!--reverse link User to BuyerUser--><g class="link" data-entity-1="ent0001" data-entity-2="ent0002" data-link-type="extension" data-source-line="66" id="lnk9"><path codeLine="66" d="M681.95,596.8023 C681.95,660.3357 681.95,681.569 681.95,681.569 C681.95,681.569 512.7833,681.569 373.3667,681.569" fill="none" id="User-backto-BuyerUser" style="stroke:#4C5B61;stroke-width:1.6667;"/><polygon fill="none" points="681.95,566.8023,671.95,596.8023,691.95,596.8023,681.95,566.8023" style="stroke:#4C5B61;stroke-width:1.6667;stroke-linejoin:miter;stroke-miterlimit:10;"/></g><!--reverse link User to SupplierUser--><g class="link" data-entity-1="ent0001" data-entity-2="ent0003" data-link-type="extension" data-source-line="67" id="lnk10"><path codeLine="67" d="M557.1167,326.569 C518.4833,326.569 517.0833,326.569 517.0833,326.569 C517.0833,326.569 517.0833,1009.5523 517.0833,1266.3523" fill="none" id="User-backto-SupplierUser" style="stroke:#4C5B61;stroke-width:1.6667;"/><polygon fill="none" points="587.1167,326.569,557.1167,316.569,557.1167,336.569,587.1167,326.569" style="stroke:#4C5B61;stroke-width:1.6667;stroke-linejoin:miter;stroke-miterlimit:10;"/></g><!--reverse link User to AccountManager--><g class="link" data-entity-1="ent0001" data-entity-2="ent0004" data-link-type="extension" data-source-line="68" id="lnk11"><path codeLine="68" d="M776.3833,597.2357 C776.3833,642.669 776.3833,657.6857 776.3833,695.3357" fill="none" id="User-backto-AccountManager" style="stroke:#4C5B61;stroke-width:1.6667;"/><polygon fill="none" points="776.3833,567.2357,766.3833,597.2357,786.3833,597.2357,776.3833,567.2357" style="stroke:#4C5B61;stroke-width:1.6667;stroke-linejoin:miter;stroke-miterlimit:10;"/></g><!--reverse link User to PlatformAdmin--><g class="link" data-entity-1="ent0001" data-entity-2="ent0005" data-link-type="extension" data-source-line="69" id="lnk12"><path codeLine="69" d="M901,406.569 C999.8833,406.569 1084.1667,406.569 1084.1667,406.569 C1084.1667,406.569 1084.1667,596.3857 1084.1667,709.4523" fill="none" id="User-backto-PlatformAdmin" style="stroke:#4C5B61;stroke-width:1.6667;"/><polygon fill="none" points="871,406.569,901,416.569,901,396.569,871,406.569" style="stroke:#4C5B61;stroke-width:1.6667;stroke-linejoin:miter;stroke-miterlimit:10;"/></g><!--reverse link PlatformAdmin to SuperAdmin--><g class="link" data-entity-1="ent0005" data-entity-2="ent0006" data-link-type="extension" data-source-line="70" id="lnk13"><path codeLine="70" d="M1135.8333,903.8357 C1135.8333,975.0023 1135.8333,1036.569 1135.8333,1036.569 C1135.8333,1036.569 1347.8333,1036.569 1491.5,1036.569" fill="none" id="PlatformAdmin-backto-SuperAdmin" style="stroke:#4C5B61;stroke-width:1.6667;"/><polygon fill="none" points="1135.8333,873.8357,1125.8333,903.8357,1145.8333,903.8357,1135.8333,873.8357" style="stroke:#4C5B61;stroke-width:1.6667;stroke-linejoin:miter;stroke-miterlimit:10;"/></g><!--link SupplierCompany to SupplierUser--><g class="link" data-entity-1="ent0007" data-entity-2="ent0003" data-link-type="association" data-source-line="72" id="lnk14"><path codeLine="72" d="M647.0833,1167.019 C647.0833,1197.8523 647.0833,1233.8857 647.0833,1266.5523" fill="none" id="SupplierCompany-SupplierUser" style="stroke:#4C5B61;stroke-width:1.6667;"/><text fill="#000000" font-family="Segoe UI" font-size="21.6667" lengthAdjust="spacing" textLength="84.6143" x="648.75" y="1210.1662">hasUsers</text><text fill="#000000" font-family="Segoe UI" font-size="21.6667" lengthAdjust="spacing" textLength="11.6797" x="618.1479" y="1203.0509">1</text><text fill="#000000" font-family="Segoe UI" font-size="21.6667" lengthAdjust="spacing" textLength="30.109" x="619.5612" y="1247.5172">1..*</text></g><!--link BuyerUser to RequestForQuotation--><g class="link" data-entity-1="ent0002" data-entity-2="ent0008" data-link-type="association" data-source-line="73" id="lnk15"><path codeLine="73" d="M192.5,916.619 C192.5,972.569 192.5,1033.2857 192.5,1066.4357" fill="none" id="BuyerUser-RequestForQuotation" style="stroke:#4C5B61;stroke-width:1.6667;"/><text fill="#000000" font-family="Segoe UI" font-size="21.6667" lengthAdjust="spacing" textLength="67.7612" x="124.1667" y="984.9162">creates</text><text fill="#000000" font-family="Segoe UI" font-size="21.6667" lengthAdjust="spacing" textLength="11.6797" x="180.2734" y="952.8754">1</text><text fill="#000000" font-family="Segoe UI" font-size="21.6667" lengthAdjust="spacing" textLength="30.109" x="157.1422" y="1047.5686">0..*</text></g><!--link AccountManager to SupplierCompany--><g class="link" data-entity-1="ent0004" data-entity-2="ent0007" data-link-type="association" data-source-line="74" id="lnk16"><path codeLine="74" d="M729.1667,888.1357 C729.1667,929.5857 729.1667,977.3023 729.1667,1016.1023" fill="none" id="AccountManager-SupplierCompany" style="stroke:#4C5B61;stroke-width:1.6667;"/><text fill="#000000" font-family="Segoe UI" font-size="21.6667" lengthAdjust="spacing" textLength="85.6299" x="642.5" y="945.4995">monitors</text><text fill="#000000" font-family="Segoe UI" font-size="21.6667" lengthAdjust="spacing" textLength="11.6797" x="716.8148" y="924.332">1</text><text fill="#000000" font-family="Segoe UI" font-size="21.6667" lengthAdjust="spacing" textLength="30.109" x="691.8471" y="998.0358">0..*</text></g><!--link User to GMN20--><g class="link" data-entity-1="ent0001" data-entity-2="ent0021" data-link-type="association" data-source-line="82" id="lnk22"><path d="M871.25,246.569 C1105.5833,246.569 1547.5,246.569 1547.5,246.569 C1547.5,246.569 1547.5,630.0857 1547.5,753.6857" fill="none" id="User-GMN20" style="stroke:#4C5B61;stroke-width:1.6667;stroke-dasharray:11.6667,11.6667;"/></g><?plantuml-src TLLDRnCn4BtxLvXS2bHDwJNYKb9LL1Ge3Qt4qLdF9XQsP_7OhPQF_yxOsMtYDBtjpeVVcpVZyIlZ6viqoEdqj47dq9zIx2rCk-IiY2PQa1T6hO9o3YJ7DLOH0SaJUQN1Sm18Y3AW1H8HEnbHBZ56T5AR04qqwCNQS2AuBlRIWLj2827Kac9GJTmSAEy8WlmZ99zhz4pUtLrTb9_M18fVb8EPv7ZZLyNAAS-Du9InbQNZanynw8-ArhLZZRvEfgXYebdXiIZV0v1V9RM2cm0j1F1DdTMaa8tz2-ve7FpUHse2g0ZwFCwaveySK-ofqmVinrAbkCv2Dsny_MR6whBMoXVV9kScO6jiSJwWqUAV41jHFwGUmewotE1E-VwPSWqc7qDVsPQ9Z0UY1VSGG-NwsJUBGQvFF-PFQXrBIajd8jkUg6Jhfk3Ros_PUWk_4b2ynF0j8MVcyNZYkqXTPqr5kKCoEQWYeA5J8JfMPSTyB9tofLMeKnEfuX20ElJwEmuqQftEcwB0vv8_8lEyMkm1vgZtkWeX6DQahy0Vb3Mv6MCD5NoBrkBZrwx349FdWe2UixYnAhOOtBbsnWyaLFw-XWUmTQNCAJ3O77ra5IgiZGeBBfSmqDfq1w2O98GjpfXqcszntJlqhLcb08kU8hZAfv8sSIHz4AC8CTyCtQ7B_T8y3bfosySv6m-xt_DiuGuDbYY3zFxloSdsAkpOTiTjnrnFmuwZQf2espKUECWgn7xvaxE9v939sNJwTb9F-aok5UKl4jiREyQ_A_47gkEqpSqYiJU_TUe-aHbFZy_poqlO8w_lO5RhAB7TZ-HMN2j9s1ZWg1PJy8PNVmgIcSZaUQMN_SznZjSL0sj3aTyJZjQfD9U_KZJM4DDCOIh0Qvan1-JXeM3eqWB60tbl-C9d47-KONY55wZDioDPNs8GnMC_vVWhcszsHl6ItvAInigCAxCr-SaYsV0X-YWHgxF3uJy0?></g></svg>