<svg xmlns="http://www.w3.org/2000/svg" xmlns:xlink="http://www.w3.org/1999/xlink" contentStyleType="text/css" data-diagram-type="CLASS" height="1296.6667px" preserveAspectRatio="none" style="width:855px;height:1296px;background:#FFFFFF;" version="1.1" viewBox="0 0 855 1296" width="855px" zoomAndPan="magnify"><?plantuml 1.2026.4?><defs/><g><g class="title" data-source-line="2"><text fill="#17313B" font-family="Segoe UI" font-size="30" font-weight="700" lengthAdjust="spacing" textLength="683.3203" x="80.8341" y="49.0397">Diagramme de classes - Detail catalogue produit</text></g><!--class Product--><g class="entity" data-qualified-name="Product" data-source-line="6" id="ent0001"><rect fill="#FCFEFE" height="293.8802" rx="8.3333" ry="8.3333" style="stroke:#335C67;stroke-width:0.8333;" width="306.9352" x="11.6667" y="295.7357"/><rect fill="#E6F2F3" height="50" rx="8.3333" ry="8.3333" style="stroke:#E6F2F3;stroke-width:0.8333;" width="306.9352" x="11.6667" y="295.7357"/><rect fill="#E6F2F3" height="8.3333" style="stroke:#E6F2F3;stroke-width:0.8333;" width="306.9352" x="11.6667" y="337.4023"/><rect fill="none" height="293.8802" rx="8.3333" ry="8.3333" style="stroke:#335C67;stroke-width:0.8333;" width="306.9352" x="11.6667" y="295.7357"/><ellipse cx="121.1011" cy="320.7357" fill="#ADD1B2" rx="16.6667" ry="16.6667" style="stroke:#181818;stroke-width:1.6667;"/><path d="M122.6636,315.1367 Q122.8719,314.8503 123.1063,314.7201 Q123.3407,314.5898 123.6271,314.5898 Q124.0959,314.5898 124.3823,314.9284 Q124.6948,315.2409 124.6948,316.0221 L124.6948,317.8711 Q124.6948,318.6523 124.3823,318.9909 Q124.0959,319.3034 123.6271,319.3034 Q123.1844,319.3034 122.924,319.069 Q122.6636,318.8346 122.5334,318.1576 Q122.4552,317.7148 122.2469,317.4805 Q121.8042,316.9857 121.0229,316.6992 Q120.2417,316.4128 119.4604,316.4128 Q118.4969,316.4128 117.6636,316.8555 Q116.8563,317.2721 116.2313,318.2357 Q115.6063,319.1732 115.6063,320.4753 L115.6063,321.8815 Q115.6063,323.444 116.7521,324.5117 Q117.8979,325.5534 119.9032,325.5534 Q121.1271,325.5534 121.9604,325.2148 Q122.4292,325.0326 122.9761,324.4596 Q123.3146,324.1211 123.4969,324.043 Q123.7052,323.9388 123.9396,323.9388 Q124.3823,323.9388 124.6948,324.2773 Q125.0334,324.5898 125.0334,325.0326 Q125.0334,325.4753 124.5907,325.9961 Q123.9396,326.7253 122.924,327.1419 Q121.5698,327.7148 119.9292,327.7148 Q118.0021,327.7148 116.4396,326.9336 Q115.1896,326.2826 114.3042,324.9284 Q113.4448,323.5482 113.4448,321.9336 L113.4448,320.4492 Q113.4448,318.7565 114.2261,317.2982 Q115.0334,315.8398 116.4136,315.0586 Q117.8198,314.2513 119.3823,314.2513 Q120.3198,314.2513 121.1271,314.4857 Q121.9604,314.694 122.6636,315.1367 Z " fill="#000000"/><text fill="#000000" font-family="Segoe UI" font-size="21.6667" lengthAdjust="spacing" textLength="74.7331" x="152.7677" y="329.707">Product</text><line style="stroke:#335C67;stroke-width:0.8333;" x1="13.3333" x2="316.9352" y1="345.7357" y2="345.7357"/><text fill="#000000" font-family="Segoe UI" font-size="21.6667" lengthAdjust="spacing" textLength="88.0314" x="21.6667" y="375.7829">-id: UUID</text><text fill="#000000" font-family="Segoe UI" font-size="21.6667" lengthAdjust="spacing" textLength="200.8504" x="21.6667" y="404.6012">-name: LocalizedText</text><text fill="#000000" font-family="Segoe UI" font-size="21.6667" lengthAdjust="spacing" textLength="253.9274" x="21.6667" y="433.4196">-description: LocalizedText</text><text fill="#000000" font-family="Segoe UI" font-size="21.6667" lengthAdjust="spacing" textLength="108.2487" x="21.6667" y="462.238">-ean: string</text><text fill="#000000" font-family="Segoe UI" font-size="21.6667" lengthAdjust="spacing" textLength="145.2873" x="21.6667" y="491.0563">-hsCode: string</text><text fill="#000000" font-family="Segoe UI" font-size="21.6667" lengthAdjust="spacing" textLength="272.9386" x="21.6667" y="519.8747">-minimumOrderQuantity: int</text><text fill="#000000" font-family="Segoe UI" font-size="21.6667" lengthAdjust="spacing" textLength="286.9352" x="21.6667" y="548.693">-packagingUnitsPerCarton: int</text><text fill="#000000" font-family="Segoe UI" font-size="21.6667" lengthAdjust="spacing" textLength="141.8172" x="21.6667" y="577.5114">-stockTotal: int</text></g><!--class SupplierCompany--><g class="entity" data-qualified-name="SupplierCompany" data-source-line="17" id="ent0002"><rect fill="#FCFEFE" height="120.9701" rx="8.3333" ry="8.3333" style="stroke:#335C67;stroke-width:0.8333;" width="238.7297" x="45.8333" y="1121.569"/><rect fill="#E6F2F3" height="50" rx="8.3333" ry="8.3333" style="stroke:#E6F2F3;stroke-width:0.8333;" width="238.7297" x="45.8333" y="1121.569"/><rect fill="#E6F2F3" height="8.3333" style="stroke:#E6F2F3;stroke-width:0.8333;" width="238.7297" x="45.8333" y="1163.2357"/><rect fill="none" height="120.9701" rx="8.3333" ry="8.3333" style="stroke:#335C67;stroke-width:0.8333;" width="238.7297" x="45.8333" y="1121.569"/><ellipse cx="77.647" cy="1146.569" fill="#ADD1B2" rx="16.6667" ry="16.6667" style="stroke:#181818;stroke-width:1.6667;"/><path d="M79.2095,1140.9701 Q79.4178,1140.6836 79.6522,1140.5534 Q79.8866,1140.4232 80.1731,1140.4232 Q80.6418,1140.4232 80.9283,1140.7617 Q81.2408,1141.0742 81.2408,1141.8555 L81.2408,1143.7044 Q81.2408,1144.4857 80.9283,1144.8242 Q80.6418,1145.1367 80.1731,1145.1367 Q79.7303,1145.1367 79.4699,1144.9023 Q79.2095,1144.668 79.0793,1143.9909 Q79.0012,1143.5482 78.7928,1143.3138 Q78.3501,1142.819 77.5689,1142.5326 Q76.7876,1142.2461 76.0064,1142.2461 Q75.0428,1142.2461 74.2095,1142.6888 Q73.4022,1143.1055 72.7772,1144.069 Q72.1522,1145.0065 72.1522,1146.3086 L72.1522,1147.7148 Q72.1522,1149.2773 73.2981,1150.3451 Q74.4439,1151.3867 76.4491,1151.3867 Q77.6731,1151.3867 78.5064,1151.0482 Q78.9751,1150.8659 79.522,1150.293 Q79.8606,1149.9544 80.0428,1149.8763 Q80.2512,1149.7721 80.4856,1149.7721 Q80.9283,1149.7721 81.2408,1150.1107 Q81.5793,1150.4232 81.5793,1150.8659 Q81.5793,1151.3086 81.1366,1151.8294 Q80.4856,1152.5586 79.4699,1152.9753 Q78.1158,1153.5482 76.4751,1153.5482 Q74.5481,1153.5482 72.9856,1152.7669 Q71.7356,1152.1159 70.8501,1150.7617 Q69.9908,1149.3815 69.9908,1147.7669 L69.9908,1146.2826 Q69.9908,1144.5898 70.772,1143.1315 Q71.5793,1141.6732 72.9595,1140.8919 Q74.3658,1140.0846 75.9283,1140.0846 Q76.8658,1140.0846 77.6731,1140.319 Q78.5064,1140.5273 79.2095,1140.9701 Z " fill="#000000"/><text fill="#000000" font-family="Segoe UI" font-size="21.6667" lengthAdjust="spacing" textLength="169.8844" x="101.1982" y="1155.5404">SupplierCompany</text><line style="stroke:#335C67;stroke-width:0.8333;" x1="47.5" x2="282.8963" y1="1171.569" y2="1171.569"/><text fill="#000000" font-family="Segoe UI" font-size="21.6667" lengthAdjust="spacing" textLength="88.0314" x="55.8333" y="1201.6162">-id: UUID</text><text fill="#000000" font-family="Segoe UI" font-size="21.6667" lengthAdjust="spacing" textLength="218.7297" x="55.8333" y="1230.4346">-companyName: string</text></g><!--class Media--><g class="entity" data-qualified-name="Media" data-source-line="22" id="ent0003"><rect fill="#FCFEFE" height="178.6068" rx="8.3333" ry="8.3333" style="stroke:#335C67;stroke-width:0.8333;" width="186.9116" x="531.6667" y="86.569"/><rect fill="#E6F2F3" height="50" rx="8.3333" ry="8.3333" style="stroke:#E6F2F3;stroke-width:0.8333;" width="186.9116" x="531.6667" y="86.569"/><rect fill="#E6F2F3" height="8.3333" style="stroke:#E6F2F3;stroke-width:0.8333;" width="186.9116" x="531.6667" y="128.2357"/><rect fill="none" height="178.6068" rx="8.3333" ry="8.3333" style="stroke:#335C67;stroke-width:0.8333;" width="186.9116" x="531.6667" y="86.569"/><ellipse cx="589.693" cy="111.569" fill="#ADD1B2" rx="16.6667" ry="16.6667" style="stroke:#181818;stroke-width:1.6667;"/><path d="M591.2555,105.9701 Q591.4638,105.6836 591.6982,105.5534 Q591.9326,105.4232 592.219,105.4232 Q592.6878,105.4232 592.9742,105.7617 Q593.2867,106.0742 593.2867,106.8555 L593.2867,108.7044 Q593.2867,109.4857 592.9742,109.8242 Q592.6878,110.1367 592.219,110.1367 Q591.7763,110.1367 591.5159,109.9023 Q591.2555,109.668 591.1253,108.9909 Q591.0472,108.5482 590.8388,108.3138 Q590.3961,107.819 589.6149,107.5326 Q588.8336,107.2461 588.0524,107.2461 Q587.0888,107.2461 586.2555,107.6888 Q585.4482,108.1055 584.8232,109.069 Q584.1982,110.0065 584.1982,111.3086 L584.1982,112.7148 Q584.1982,114.2773 585.344,115.3451 Q586.4899,116.3867 588.4951,116.3867 Q589.719,116.3867 590.5524,116.0482 Q591.0211,115.8659 591.568,115.293 Q591.9065,114.9544 592.0888,114.8763 Q592.2972,114.7721 592.5315,114.7721 Q592.9742,114.7721 593.2867,115.1107 Q593.6253,115.4232 593.6253,115.8659 Q593.6253,116.3086 593.1826,116.8294 Q592.5315,117.5586 591.5159,117.9753 Q590.1617,118.5482 588.5211,118.5482 Q586.594,118.5482 585.0315,117.7669 Q583.7815,117.1159 582.8961,115.7617 Q582.0367,114.3815 582.0367,112.7669 L582.0367,111.2826 Q582.0367,109.5898 582.818,108.1315 Q583.6253,106.6732 585.0055,105.8919 Q586.4117,105.0846 587.9742,105.0846 Q588.9117,105.0846 589.719,105.319 Q590.5524,105.5273 591.2555,105.9701 Z " fill="#000000"/><text fill="#000000" font-family="Segoe UI" font-size="21.6667" lengthAdjust="spacing" textLength="59.8161" x="619.0692" y="120.5404">Media</text><line style="stroke:#335C67;stroke-width:0.8333;" x1="533.3333" x2="716.9116" y1="136.569" y2="136.569"/><text fill="#000000" font-family="Segoe UI" font-size="21.6667" lengthAdjust="spacing" textLength="88.0314" x="541.6667" y="166.6162">-id: UUID</text><text fill="#000000" font-family="Segoe UI" font-size="21.6667" lengthAdjust="spacing" textLength="98.6743" x="541.6667" y="195.4346">-url: string</text><text fill="#000000" font-family="Segoe UI" font-size="21.6667" lengthAdjust="spacing" textLength="166.9116" x="541.6667" y="224.2529">-type: MediaType</text><text fill="#000000" font-family="Segoe UI" font-size="21.6667" lengthAdjust="spacing" textLength="137.2152" x="541.6667" y="253.0713">-altText: string</text></g><!--class LocalizedText--><g class="entity" data-qualified-name="LocalizedText" data-source-line="29" id="ent0004"><rect fill="#FCFEFE" height="149.7884" rx="8.3333" ry="8.3333" style="stroke:#335C67;stroke-width:0.8333;" width="178.2756" x="75.8333" y="87.4023"/><rect fill="#E6F2F3" height="50" rx="8.3333" ry="8.3333" style="stroke:#E6F2F3;stroke-width:0.8333;" width="178.2756" x="75.8333" y="87.4023"/><rect fill="#E6F2F3" height="8.3333" style="stroke:#E6F2F3;stroke-width:0.8333;" width="178.2756" x="75.8333" y="129.069"/><rect fill="none" height="149.7884" rx="8.3333" ry="8.3333" style="stroke:#335C67;stroke-width:0.8333;" width="178.2756" x="75.8333" y="87.4023"/><ellipse cx="99.1667" cy="112.4023" fill="#ADD1B2" rx="16.6667" ry="16.6667" style="stroke:#181818;stroke-width:1.6667;"/><path d="M100.7292,106.8034 Q100.9375,106.5169 101.1719,106.3867 Q101.4063,106.2565 101.6927,106.2565 Q102.1615,106.2565 102.4479,106.5951 Q102.7604,106.9076 102.7604,107.6888 L102.7604,109.5378 Q102.7604,110.319 102.4479,110.6576 Q102.1615,110.9701 101.6927,110.9701 Q101.25,110.9701 100.9896,110.7357 Q100.7292,110.5013 100.599,109.8242 Q100.5208,109.3815 100.3125,109.1471 Q99.8698,108.6523 99.0885,108.3659 Q98.3073,108.0794 97.526,108.0794 Q96.5625,108.0794 95.7292,108.5221 Q94.9219,108.9388 94.2969,109.9023 Q93.6719,110.8398 93.6719,112.1419 L93.6719,113.5482 Q93.6719,115.1107 94.8177,116.1784 Q95.9635,117.2201 97.9688,117.2201 Q99.1927,117.2201 100.026,116.8815 Q100.4948,116.6992 101.0417,116.1263 Q101.3802,115.7878 101.5625,115.7096 Q101.7708,115.6055 102.0052,115.6055 Q102.4479,115.6055 102.7604,115.944 Q103.099,116.2565 103.099,116.6992 Q103.099,117.1419 102.6563,117.6628 Q102.0052,118.3919 100.9896,118.8086 Q99.6354,119.3815 97.9948,119.3815 Q96.0677,119.3815 94.5052,118.6003 Q93.2552,117.9492 92.3698,116.5951 Q91.5104,115.2148 91.5104,113.6003 L91.5104,112.1159 Q91.5104,110.4232 92.2917,108.9648 Q93.099,107.5065 94.4792,106.7253 Q95.8854,105.918 97.4479,105.918 Q98.3854,105.918 99.1927,106.1523 Q100.026,106.3607 100.7292,106.8034 Z " fill="#000000"/><text fill="#000000" font-family="Segoe UI" font-size="21.6667" lengthAdjust="spacing" textLength="128.2756" x="120.8333" y="121.3737">LocalizedText</text><line style="stroke:#335C67;stroke-width:0.8333;" x1="77.5" x2="252.4422" y1="137.4023" y2="137.4023"/><text fill="#000000" font-family="Segoe UI" font-size="21.6667" lengthAdjust="spacing" textLength="87.9468" x="85.8333" y="167.4495">-fr: string</text><text fill="#000000" font-family="Segoe UI" font-size="21.6667" lengthAdjust="spacing" textLength="97.2249" x="85.8333" y="196.2679">-en: string</text><text fill="#000000" font-family="Segoe UI" font-size="21.6667" lengthAdjust="spacing" textLength="92.1891" x="85.8333" y="225.0863">-ar: string</text></g><!--class Dimensions--><g class="entity" data-qualified-name="Dimensions" data-source-line="35" id="ent0005"><rect fill="#FCFEFE" height="236.2435" rx="8.3333" ry="8.3333" style="stroke:#335C67;stroke-width:0.8333;" width="234.1276" x="508.3333" y="324.069"/><rect fill="#E6F2F3" height="50" rx="8.3333" ry="8.3333" style="stroke:#E6F2F3;stroke-width:0.8333;" width="234.1276" x="508.3333" y="324.069"/><rect fill="#E6F2F3" height="8.3333" style="stroke:#E6F2F3;stroke-width:0.8333;" width="234.1276" x="508.3333" y="365.7357"/><rect fill="none" height="236.2435" rx="8.3333" ry="8.3333" style="stroke:#335C67;stroke-width:0.8333;" width="234.1276" x="508.3333" y="324.069"/><ellipse cx="564.4458" cy="349.069" fill="#ADD1B2" rx="16.6667" ry="16.6667" style="stroke:#181818;stroke-width:1.6667;"/><path d="M566.0083,343.4701 Q566.2167,343.1836 566.451,343.0534 Q566.6854,342.9232 566.9719,342.9232 Q567.4406,342.9232 567.7271,343.2617 Q568.0396,343.5742 568.0396,344.3555 L568.0396,346.2044 Q568.0396,346.9857 567.7271,347.3242 Q567.4406,347.6367 566.9719,347.6367 Q566.5292,347.6367 566.2688,347.4023 Q566.0083,347.168 565.8781,346.4909 Q565.8,346.0482 565.5917,345.8138 Q565.149,345.319 564.3677,345.0326 Q563.5865,344.7461 562.8052,344.7461 Q561.8417,344.7461 561.0083,345.1888 Q560.201,345.6055 559.576,346.569 Q558.951,347.5065 558.951,348.8086 L558.951,350.2148 Q558.951,351.7773 560.0969,352.8451 Q561.2427,353.8867 563.2479,353.8867 Q564.4719,353.8867 565.3052,353.5482 Q565.774,353.3659 566.3208,352.793 Q566.6594,352.4544 566.8417,352.3763 Q567.05,352.2721 567.2844,352.2721 Q567.7271,352.2721 568.0396,352.6107 Q568.3781,352.9232 568.3781,353.3659 Q568.3781,353.8086 567.9354,354.3294 Q567.2844,355.0586 566.2688,355.4753 Q564.9146,356.0482 563.274,356.0482 Q561.3469,356.0482 559.7844,355.2669 Q558.5344,354.6159 557.649,353.2617 Q556.7896,351.8815 556.7896,350.2669 L556.7896,348.7826 Q556.7896,347.0898 557.5708,345.6315 Q558.3781,344.1732 559.7583,343.3919 Q561.1646,342.5846 562.7271,342.5846 Q563.6646,342.5846 564.4719,342.819 Q565.3052,343.0273 566.0083,343.4701 Z " fill="#000000"/><text fill="#000000" font-family="Segoe UI" font-size="21.6667" lengthAdjust="spacing" textLength="111.285" x="593.3968" y="358.0404">Dimensions</text><line style="stroke:#335C67;stroke-width:0.8333;" x1="510" x2="740.7943" y1="374.069" y2="374.069"/><text fill="#000000" font-family="Segoe UI" font-size="21.6667" lengthAdjust="spacing" textLength="154.777" x="518.3333" y="404.1162">-length: decimal</text><text fill="#000000" font-family="Segoe UI" font-size="21.6667" lengthAdjust="spacing" textLength="146.8424" x="518.3333" y="432.9346">-width: decimal</text><text fill="#000000" font-family="Segoe UI" font-size="21.6667" lengthAdjust="spacing" textLength="154.777" x="518.3333" y="461.7529">-height: decimal</text><text fill="#000000" font-family="Segoe UI" font-size="21.6667" lengthAdjust="spacing" textLength="214.1276" x="518.3333" y="490.5713">-grossWeight: decimal</text><text fill="#000000" font-family="Segoe UI" font-size="21.6667" lengthAdjust="spacing" textLength="193.6882" x="518.3333" y="519.3896">-netWeight: decimal</text><text fill="#000000" font-family="Segoe UI" font-size="21.6667" lengthAdjust="spacing" textLength="164.1504" x="518.3333" y="548.208">-volume: decimal</text></g><!--class Palletization--><g class="entity" data-qualified-name="Palletization" data-source-line="44" id="ent0006"><rect fill="#FCFEFE" height="149.7884" rx="8.3333" ry="8.3333" style="stroke:#335C67;stroke-width:0.8333;" width="217.5285" x="515.8333" y="619.069"/><rect fill="#E6F2F3" height="50" rx="8.3333" ry="8.3333" style="stroke:#E6F2F3;stroke-width:0.8333;" width="217.5285" x="515.8333" y="619.069"/><rect fill="#E6F2F3" height="8.3333" style="stroke:#E6F2F3;stroke-width:0.8333;" width="217.5285" x="515.8333" y="660.7357"/><rect fill="none" height="149.7884" rx="8.3333" ry="8.3333" style="stroke:#335C67;stroke-width:0.8333;" width="217.5285" x="515.8333" y="619.069"/><ellipse cx="562.3815" cy="644.069" fill="#ADD1B2" rx="16.6667" ry="16.6667" style="stroke:#181818;stroke-width:1.6667;"/><path d="M563.944,638.4701 Q564.1523,638.1836 564.3867,638.0534 Q564.6211,637.9232 564.9076,637.9232 Q565.3763,637.9232 565.6628,638.2617 Q565.9753,638.5742 565.9753,639.3555 L565.9753,641.2044 Q565.9753,641.9857 565.6628,642.3242 Q565.3763,642.6367 564.9076,642.6367 Q564.4648,642.6367 564.2044,642.4023 Q563.944,642.168 563.8138,641.4909 Q563.7357,641.0482 563.5273,640.8138 Q563.0846,640.319 562.3034,640.0326 Q561.5221,639.7461 560.7409,639.7461 Q559.7773,639.7461 558.944,640.1888 Q558.1367,640.6055 557.5117,641.569 Q556.8867,642.5065 556.8867,643.8086 L556.8867,645.2148 Q556.8867,646.7773 558.0326,647.8451 Q559.1784,648.8867 561.1836,648.8867 Q562.4076,648.8867 563.2409,648.5482 Q563.7096,648.3659 564.2565,647.793 Q564.5951,647.4544 564.7773,647.3763 Q564.9857,647.2721 565.2201,647.2721 Q565.6628,647.2721 565.9753,647.6107 Q566.3138,647.9232 566.3138,648.3659 Q566.3138,648.8086 565.8711,649.3294 Q565.2201,650.0586 564.2044,650.4753 Q562.8503,651.0482 561.2096,651.0482 Q559.2826,651.0482 557.7201,650.2669 Q556.4701,649.6159 555.5846,648.2617 Q554.7253,646.8815 554.7253,645.2669 L554.7253,643.7826 Q554.7253,642.0898 555.5065,640.6315 Q556.3138,639.1732 557.694,638.3919 Q559.1003,637.5846 560.6628,637.5846 Q561.6003,637.5846 562.4076,637.819 Q563.2409,638.0273 563.944,638.4701 Z " fill="#000000"/><text fill="#000000" font-family="Segoe UI" font-size="21.6667" lengthAdjust="spacing" textLength="115.9399" x="589.207" y="653.0404">Palletization</text><line style="stroke:#335C67;stroke-width:0.8333;" x1="517.5" x2="731.6951" y1="669.069" y2="669.069"/><text fill="#000000" font-family="Segoe UI" font-size="21.6667" lengthAdjust="spacing" textLength="195.7723" x="525.8333" y="699.1162">-cartonsPerLayer: int</text><text fill="#000000" font-family="Segoe UI" font-size="21.6667" lengthAdjust="spacing" textLength="182.2835" x="525.8333" y="727.9346">-layersPerPallet: int</text><text fill="#000000" font-family="Segoe UI" font-size="21.6667" lengthAdjust="spacing" textLength="197.5285" x="525.8333" y="756.7529">-cartonsPerPallet: int</text></g><!--class Certification--><g class="entity" data-qualified-name="Certification" data-source-line="50" id="ent0007"><rect fill="#FCFEFE" height="178.6068" rx="8.3333" ry="8.3333" style="stroke:#335C67;stroke-width:0.8333;" width="231.7155" x="509.1667" y="1093.2357"/><rect fill="#E6F2F3" height="50" rx="8.3333" ry="8.3333" style="stroke:#E6F2F3;stroke-width:0.8333;" width="231.7155" x="509.1667" y="1093.2357"/><rect fill="#E6F2F3" height="8.3333" style="stroke:#E6F2F3;stroke-width:0.8333;" width="231.7155" x="509.1667" y="1134.9023"/><rect fill="none" height="178.6068" rx="8.3333" ry="8.3333" style="stroke:#335C67;stroke-width:0.8333;" width="231.7155" x="509.1667" y="1093.2357"/><ellipse cx="562.3085" cy="1118.2357" fill="#ADD1B2" rx="16.6667" ry="16.6667" style="stroke:#181818;stroke-width:1.6667;"/><path d="M563.871,1112.6367 Q564.0793,1112.3503 564.3137,1112.2201 Q564.5481,1112.0898 564.8345,1112.0898 Q565.3033,1112.0898 565.5897,1112.4284 Q565.9022,1112.7409 565.9022,1113.5221 L565.9022,1115.3711 Q565.9022,1116.1523 565.5897,1116.4909 Q565.3033,1116.8034 564.8345,1116.8034 Q564.3918,1116.8034 564.1314,1116.569 Q563.871,1116.3346 563.7408,1115.6576 Q563.6626,1115.2148 563.4543,1114.9805 Q563.0116,1114.4857 562.2303,1114.1992 Q561.4491,1113.9128 560.6678,1113.9128 Q559.7043,1113.9128 558.871,1114.3555 Q558.0637,1114.7721 557.4387,1115.7357 Q556.8137,1116.6732 556.8137,1117.9753 L556.8137,1119.3815 Q556.8137,1120.944 557.9595,1122.0117 Q559.1053,1123.0534 561.1106,1123.0534 Q562.3345,1123.0534 563.1678,1122.7148 Q563.6366,1122.5326 564.1835,1121.9596 Q564.522,1121.6211 564.7043,1121.543 Q564.9126,1121.4388 565.147,1121.4388 Q565.5897,1121.4388 565.9022,1121.7773 Q566.2408,1122.0898 566.2408,1122.5326 Q566.2408,1122.9753 565.7981,1123.4961 Q565.147,1124.2253 564.1314,1124.6419 Q562.7772,1125.2148 561.1366,1125.2148 Q559.2095,1125.2148 557.647,1124.4336 Q556.397,1123.7826 555.5116,1122.4284 Q554.6522,1121.0482 554.6522,1119.4336 L554.6522,1117.9492 Q554.6522,1116.2565 555.4335,1114.7982 Q556.2408,1113.3398 557.621,1112.5586 Q559.0272,1111.7513 560.5897,1111.7513 Q561.5272,1111.7513 562.3345,1111.9857 Q563.1678,1112.194 563.871,1112.6367 Z " fill="#000000"/><text fill="#000000" font-family="Segoe UI" font-size="21.6667" lengthAdjust="spacing" textLength="115.4744" x="590.5992" y="1127.207">Certification</text><line style="stroke:#335C67;stroke-width:0.8333;" x1="510.8333" x2="739.2155" y1="1143.2357" y2="1143.2357"/><text fill="#000000" font-family="Segoe UI" font-size="21.6667" lengthAdjust="spacing" textLength="88.0314" x="519.1667" y="1173.2829">-id: UUID</text><text fill="#000000" font-family="Segoe UI" font-size="21.6667" lengthAdjust="spacing" textLength="126.9108" x="519.1667" y="1202.1012">-name: string</text><text fill="#000000" font-family="Segoe UI" font-size="21.6667" lengthAdjust="spacing" textLength="128.3919" x="519.1667" y="1230.9196">-issuer: string</text><text fill="#000000" font-family="Segoe UI" font-size="21.6667" lengthAdjust="spacing" textLength="211.7155" x="519.1667" y="1259.738">-expirationDate: date?</text></g><!--class ProductComplianceInfo--><g class="entity" data-qualified-name="ProductComplianceInfo" data-source-line="57" id="ent0008"><rect fill="#FCFEFE" height="207.4251" rx="8.3333" ry="8.3333" style="stroke:#335C67;stroke-width:0.8333;" width="413.3219" x="418.3333" y="827.4023"/><rect fill="#E6F2F3" height="50" rx="8.3333" ry="8.3333" style="stroke:#E6F2F3;stroke-width:0.8333;" width="413.3219" x="418.3333" y="827.4023"/><rect fill="#E6F2F3" height="8.3333" style="stroke:#E6F2F3;stroke-width:0.8333;" width="413.3219" x="418.3333" y="869.069"/><rect fill="none" height="207.4251" rx="8.3333" ry="8.3333" style="stroke:#335C67;stroke-width:0.8333;" width="413.3219" x="418.3333" y="827.4023"/><ellipse cx="505.8948" cy="852.4023" fill="#ADD1B2" rx="16.6667" ry="16.6667" style="stroke:#181818;stroke-width:1.6667;"/><path d="M507.4573,846.8034 Q507.6656,846.5169 507.9,846.3867 Q508.1344,846.2565 508.4208,846.2565 Q508.8896,846.2565 509.176,846.5951 Q509.4885,846.9076 509.4885,847.6888 L509.4885,849.5378 Q509.4885,850.319 509.176,850.6576 Q508.8896,850.9701 508.4208,850.9701 Q507.9781,850.9701 507.7177,850.7357 Q507.4573,850.5013 507.3271,849.8242 Q507.2489,849.3815 507.0406,849.1471 Q506.5979,848.6523 505.8167,848.3659 Q505.0354,848.0794 504.2542,848.0794 Q503.2906,848.0794 502.4573,848.5221 Q501.65,848.9388 501.025,849.9023 Q500.4,850.8398 500.4,852.1419 L500.4,853.5482 Q500.4,855.1107 501.5458,856.1784 Q502.6917,857.2201 504.6969,857.2201 Q505.9208,857.2201 506.7542,856.8815 Q507.2229,856.6992 507.7698,856.1263 Q508.1083,855.7878 508.2906,855.7096 Q508.4989,855.6055 508.7333,855.6055 Q509.176,855.6055 509.4885,855.944 Q509.8271,856.2565 509.8271,856.6992 Q509.8271,857.1419 509.3844,857.6628 Q508.7333,858.3919 507.7177,858.8086 Q506.3635,859.3815 504.7229,859.3815 Q502.7958,859.3815 501.2333,858.6003 Q499.9833,857.9492 499.0979,856.5951 Q498.2385,855.2148 498.2385,853.6003 L498.2385,852.1159 Q498.2385,850.4232 499.0198,848.9648 Q499.8271,847.5065 501.2073,846.7253 Q502.6135,845.918 504.176,845.918 Q505.1135,845.918 505.9208,846.1523 Q506.7542,846.3607 507.4573,846.8034 Z " fill="#000000"/><text fill="#000000" font-family="Segoe UI" font-size="21.6667" lengthAdjust="spacing" textLength="224.8657" x="537.5614" y="861.3737">ProductComplianceInfo</text><line style="stroke:#335C67;stroke-width:0.8333;" x1="420" x2="829.9886" y1="877.4023" y2="877.4023"/><text fill="#000000" font-family="Segoe UI" font-size="21.6667" lengthAdjust="spacing" textLength="294.8063" x="428.3333" y="907.4495">-ingredientsText: LocalizedText</text><text fill="#000000" font-family="Segoe UI" font-size="21.6667" lengthAdjust="spacing" textLength="269.7331" x="428.3333" y="936.2679">-nutritionText: LocalizedText</text><text fill="#000000" font-family="Segoe UI" font-size="21.6667" lengthAdjust="spacing" textLength="221.1841" x="428.3333" y="965.0863">-allergens: List&lt;string&gt;</text><text fill="#000000" font-family="Segoe UI" font-size="21.6667" lengthAdjust="spacing" textLength="181.1304" x="428.3333" y="993.9046">-diets: List&lt;string&gt;</text><text fill="#000000" font-family="Segoe UI" font-size="21.6667" lengthAdjust="spacing" textLength="393.3219" x="428.3333" y="1022.723">-exportAuthorizedCountries: List&lt;string&gt;</text></g><!--reverse link Product to Media--><g class="link" data-entity-1="ent0001" data-entity-2="ent0003" data-link-type="composition" data-source-line="65" id="lnk9"><path codeLine="65" d="M286.6667,275.5023 C286.6667,249.8357 286.6667,251.1523 286.6667,251.1523 C286.6667,251.1523 431.5167,251.1523 531.65,251.1523" fill="none" id="Product-backto-Media" style="stroke:#4C5B61;stroke-width:1.6667;"/><polygon fill="#4C5B61" points="286.6667,295.5023,293.3333,285.5023,286.6667,275.5023,280,285.5023,286.6667,295.5023" style="stroke:#4C5B61;stroke-width:1.6667;stroke-linejoin:miter;stroke-miterlimit:10;"/><text fill="#000000" font-family="Segoe UI" font-size="21.6667" lengthAdjust="spacing" textLength="148.842" x="236.9833" y="276.1995">photos / videos</text><text fill="#000000" font-family="Segoe UI" font-size="21.6667" lengthAdjust="spacing" textLength="11.6797" x="284.5819" y="277.2087">1</text><text fill="#000000" font-family="Segoe UI" font-size="21.6667" lengthAdjust="spacing" textLength="30.109" x="488.4366" y="285.4637">0..*</text></g><!--reverse link Product to Dimensions--><g class="link" data-entity-1="ent0001" data-entity-2="ent0005" data-link-type="composition" data-source-line="66" id="lnk10"><path codeLine="66" d="M338.8167,501.569 C400.45,501.569 450.3167,501.569 507.7333,501.569" fill="none" id="Product-backto-Dimensions" style="stroke:#4C5B61;stroke-width:1.6667;"/><polygon fill="#4C5B61" points="318.8167,501.569,328.8167,508.2357,338.8167,501.569,328.8167,494.9023,318.8167,501.569" style="stroke:#4C5B61;stroke-width:1.6667;stroke-linejoin:miter;stroke-miterlimit:10;"/><text fill="#000000" font-family="Segoe UI" font-size="21.6667" lengthAdjust="spacing" textLength="148.3976" x="263.2667" y="494.9495">unitDimensions</text><text fill="#000000" font-family="Segoe UI" font-size="21.6667" lengthAdjust="spacing" textLength="11.6797" x="332.0271" y="531.0199">1</text><text fill="#000000" font-family="Segoe UI" font-size="21.6667" lengthAdjust="spacing" textLength="11.6797" x="483.3317" y="532.5589">1</text></g><!--reverse link Product to Dimensions--><g class="link" data-entity-1="ent0001" data-entity-2="ent0005" data-link-type="composition" data-source-line="67" id="lnk11"><path codeLine="67" d="M338.8167,442.4023 C400.45,442.4023 450.3167,442.4023 507.7333,442.4023" fill="none" id="Product-backto-Dimensions-1" style="stroke:#4C5B61;stroke-width:1.6667;"/><polygon fill="#4C5B61" points="318.8167,442.4023,328.8167,449.069,338.8167,442.4023,328.8167,435.7357,318.8167,442.4023" style="stroke:#4C5B61;stroke-width:1.6667;stroke-linejoin:miter;stroke-miterlimit:10;"/><text fill="#000000" font-family="Segoe UI" font-size="21.6667" lengthAdjust="spacing" textLength="172.1484" x="239.9333" y="435.7829">cartonDimensions</text><text fill="#000000" font-family="Segoe UI" font-size="21.6667" lengthAdjust="spacing" textLength="11.6797" x="332.0271" y="466.9535">1</text><text fill="#000000" font-family="Segoe UI" font-size="21.6667" lengthAdjust="spacing" textLength="11.6797" x="483.3317" y="467.2906">1</text></g><!--reverse link Product to Dimensions--><g class="link" data-entity-1="ent0001" data-entity-2="ent0005" data-link-type="composition" data-source-line="68" id="lnk12"><path codeLine="68" d="M338.8167,383.2357 C400.45,383.2357 450.3167,383.2357 507.7333,383.2357" fill="none" id="Product-backto-Dimensions-2" style="stroke:#4C5B61;stroke-width:1.6667;"/><polygon fill="#4C5B61" points="318.8167,383.2357,328.8167,389.9023,338.8167,383.2357,328.8167,376.569,318.8167,383.2357" style="stroke:#4C5B61;stroke-width:1.6667;stroke-linejoin:miter;stroke-miterlimit:10;"/><text fill="#000000" font-family="Segoe UI" font-size="21.6667" lengthAdjust="spacing" textLength="164.2139" x="414.9333" y="376.6162">palletDimensions</text><text fill="#000000" font-family="Segoe UI" font-size="21.6667" lengthAdjust="spacing" textLength="11.6797" x="332.0271" y="372.2074">1</text><text fill="#000000" font-family="Segoe UI" font-size="21.6667" lengthAdjust="spacing" textLength="32.7539" x="462.3558" y="402.0224">0..1</text></g><!--reverse link Product to Palletization--><g class="link" data-entity-1="ent0001" data-entity-2="ent0006" data-link-type="composition" data-source-line="69" id="lnk13"><path codeLine="69" d="M308.3333,609.519 C308.3333,664.6023 308.3333,694.069 308.3333,694.069 C308.3333,694.069 424.05,694.069 515.5833,694.069" fill="none" id="Product-backto-Palletization" style="stroke:#4C5B61;stroke-width:1.6667;"/><polygon fill="#4C5B61" points="308.3333,589.519,301.6667,599.519,308.3333,609.519,315,599.519,308.3333,589.519" style="stroke:#4C5B61;stroke-width:1.6667;stroke-linejoin:miter;stroke-miterlimit:10;"/><text fill="#000000" font-family="Segoe UI" font-size="21.6667" lengthAdjust="spacing" textLength="11.6797" x="308.0428" y="626.2533">1</text><text fill="#000000" font-family="Segoe UI" font-size="21.6667" lengthAdjust="spacing" textLength="32.7539" x="469.544" y="719.1278">0..1</text></g><!--reverse link Product to ProductComplianceInfo--><g class="link" data-entity-1="ent0001" data-entity-2="ent0008" data-link-type="composition" data-source-line="70" id="lnk14"><path codeLine="70" d="M338.5333,574.9023 C411.6333,574.9023 463.3333,574.9023 463.3333,574.9023 C463.3333,574.9023 463.3333,722.269 463.3333,827.3357" fill="none" id="Product-backto-ProductComplianceInfo" style="stroke:#4C5B61;stroke-width:1.6667;"/><polygon fill="#4C5B61" points="318.5333,574.9023,328.5333,581.569,338.5333,574.9023,328.5333,568.2357,318.5333,574.9023" style="stroke:#4C5B61;stroke-width:1.6667;stroke-linejoin:miter;stroke-miterlimit:10;"/><text fill="#000000" font-family="Segoe UI" font-size="21.6667" lengthAdjust="spacing" textLength="11.6797" x="331.7203" y="610.4262">1</text><text fill="#000000" font-family="Segoe UI" font-size="21.6667" lengthAdjust="spacing" textLength="32.7539" x="411.2067" y="808.7734">0..1</text></g><!--link Product to Certification--><g class="link" data-entity-1="ent0001" data-entity-2="ent0007" data-link-type="association" data-source-line="71" id="lnk15"><path codeLine="71" d="M296.6667,589.169 C296.6667,785.0023 296.6667,1107.4023 296.6667,1107.4023 C296.6667,1107.4023 414.3333,1107.4023 508.7833,1107.4023" fill="none" id="Product-Certification" style="stroke:#4C5B61;stroke-width:1.6667;"/><text fill="#000000" font-family="Segoe UI" font-size="21.6667" lengthAdjust="spacing" textLength="30.109" x="276.6859" y="626.3771">0..*</text><text fill="#000000" font-family="Segoe UI" font-size="21.6667" lengthAdjust="spacing" textLength="30.109" x="465.8697" y="1124.805">0..*</text></g><!--link SupplierCompany to Certification--><g class="link" data-entity-1="ent0002" data-entity-2="ent0007" data-link-type="association" data-source-line="72" id="lnk16"><path codeLine="72" d="M284.6667,1182.4023 C353.8667,1182.4023 440.55,1182.4023 509.1167,1182.4023" fill="none" id="SupplierCompany-Certification" style="stroke:#4C5B61;stroke-width:1.6667;"/><text fill="#000000" font-family="Segoe UI" font-size="21.6667" lengthAdjust="spacing" textLength="30.109" x="297.9088" y="1207.2356">0..*</text><text fill="#000000" font-family="Segoe UI" font-size="21.6667" lengthAdjust="spacing" textLength="30.109" x="465.6224" y="1207.2547">0..*</text></g><?plantuml-src XLHDZzem4BtdLxWSLmBQQrIrgk2oqhQbAgXdrncIqVfBzdYxsQh_lUC4287iSY7apNlFy-MyGwjqga0i5albZ75s6QdLiF39w8AGD8WroZf8Oq0mJsaP8qGn5siWYLeeILAxEe7mmLK9gT2m9q5E1AmR4XK6K8JE5Wso7eodLXWmlo74ekZin2Oh5Oc_XM1Zh4gnszslknSh3PJYmIcfyGMgBJnJXrSGLK2VZQV281cE5D3MtNiJLww24MJGeadcUwWW_4ZISh5jAT3s1bwgHrapTsUHuWR2IWRAPnq9aPnwt3ekliV-7OlvcRpNo09dlBJjL56g3tthQZkaTD9_XGhbb2e5FIg0Mi_oZhxblnqcDUKUNBkEMdHmtuUH7unR9iEroneDsCWzZmSB3RQcfkHnA3HITzWVh2wX1l8kZB4wk1X_JGGiq1Jyv7JA_JfYfwGsKciWV95v6GvvgMvQUMuFieKmZ4tdruptgY4mACuZfqDM40ZtgCuFcLZKi_vXZ0akElpiCNGEQqcv5FxzV5P8VmtoucYKLi6ztRlZMROEF6cm5Fi1N--yJNnIDd-DaEiADG-GWnZfOv_Pf_u-8T0KpYcxG5yIDIvaivLBbiDmoUKYZhTuzc4cxkPpCNk_MDpD3ljS2jyuSb4inHD_1royflFpRBzAaVZc3S1jVZ_1jnISqAN8TyE-BHejsQkagG4EvBuVGsT6ErLSVZTkqFy3?></g></svg>