<svg xmlns="http://www.w3.org/2000/svg" xmlns:xlink="http://www.w3.org/1999/xlink" contentStyleType="text/css" data-diagram-type="SEQUENCE" height="2153.125px" preserveAspectRatio="none" style="width:2103px;height:2153px;background:#FFFFFF;" version="1.1" viewBox="0 0 2103 2153" width="2103.125px" zoomAndPan="magnify"><?plantuml 1.2026.4?><defs/><g><g class="title" data-source-line="16"><rect fill="#EBF8FF" height="53.0334" rx="7.8125" ry="7.8125" style="stroke:#CBD5E0;stroke-width:1.5625;" width="1042.7231" x="525.2497" y="15.625"/><text fill="#1A365D" font-family="Segoe UI" font-size="28.125" font-weight="700" lengthAdjust="spacing" textLength="1027.0981" x="533.0622" y="53.7872">Diagramme de sequence - Acheteur envoie une RFQ groupee a un fournisseur</text></g><rect fill="#F7FAFC" height="1382.3486" rx="7.8125" ry="7.8125" style="stroke:#CBD5E0;stroke-width:2.3438;" width="2063.5349" x="15.625" y="521.933"/><path d="M15.625,635.3119 L2079.1599,635.3119 L2079.1599,1896.4691 A7.8125,7.8125 0 0 1 2071.3474,1904.2816 L23.4375,1904.2816 A7.8125,7.8125 0 0 1 15.625,1896.4691 L15.625,635.3119" fill="#F7FAFC" style="stroke:none;stroke-width:1.5625;"/><rect fill="#F7FAFC" height="737.7075" rx="7.8125" ry="7.8125" style="stroke:#CBD5E0;stroke-width:2.3438;" width="2032.2849" x="31.25" y="1155.6366"/><path d="M31.25,1269.0155 L2063.5349,1269.0155 L2063.5349,1885.5316 A7.8125,7.8125 0 0 1 2055.7224,1893.3441 L39.0625,1893.3441 A7.8125,7.8125 0 0 1 31.25,1885.5316 L31.25,1269.0155" fill="#F7FAFC" style="stroke:none;stroke-width:1.5625;"/><rect fill="#F7FAFC" height="216.9739" rx="7.8125" ry="7.8125" style="stroke:#CBD5E0;stroke-width:2.3438;" width="680.1453" x="763.7783" y="1366.8304"/><g class="participant-lifeline" data-entity-uid="part1" data-qualified-name="buyer" data-source-line="5" id="part1-lifeline"><g><title>Acheteur</title><rect fill="#000000" fill-opacity="0.00000" height="1825.6409" width="12.5" x="88.5708" y="198.8007"/><line style="stroke:#2B6CB0;stroke-width:0.7813;stroke-dasharray:7.8125,7.8125;" x1="93.75" x2="93.75" y1="198.8007" y2="2024.4415"/></g></g><g class="participant-lifeline" data-entity-uid="part2" data-qualified-name="supplier" data-source-line="6" id="part2-lifeline"><g><title>Fournisseur</title><rect fill="#000000" fill-opacity="0.00000" height="1825.6409" width="12.5" x="212.1529" y="198.8007"/><line style="stroke:#2B6CB0;stroke-width:0.7813;stroke-dasharray:7.8125,7.8125;" x1="217.7666" x2="217.7666" y1="198.8007" y2="2024.4415"/></g></g><g class="participant-lifeline" data-entity-uid="part3" data-qualified-name="UI" data-source-line="8" id="part3-lifeline"><g><title>Frontend</title><rect fill="#000000" fill-opacity="0.00000" height="1825.6409" width="12.5" x="401.7986" y="198.8007"/><line style="stroke:#2B6CB0;stroke-width:0.7813;stroke-dasharray:7.8125,7.8125;" x1="406.9057" x2="406.9057" y1="198.8007" y2="2024.4415"/></g></g><g class="participant-lifeline" data-entity-uid="part4" data-qualified-name="Ctrl" data-source-line="9" id="part4-lifeline"><g><title>RFQController</title><rect fill="#000000" fill-opacity="0.00000" height="1825.6409" width="12.5" x="653.6251" y="198.8007"/><line style="stroke:#2B6CB0;stroke-width:0.7813;stroke-dasharray:7.8125,7.8125;" x1="659.7759" x2="659.7759" y1="198.8007" y2="2024.4415"/></g></g><g class="participant-lifeline" data-entity-uid="part5" data-qualified-name="UC" data-source-line="10" id="part5-lifeline"><g><title>CreateGroupedRFQUseCase</title><rect fill="#000000" fill-opacity="0.00000" height="1825.6409" width="12.5" x="905.1693" y="198.8007"/><line style="stroke:#2B6CB0;stroke-width:0.7813;stroke-dasharray:7.8125,7.8125;" x1="910.6533" x2="910.6533" y1="198.8007" y2="2024.4415"/></g></g><g class="participant-lifeline" data-entity-uid="part6" data-qualified-name="ProdRepo" data-source-line="11" id="part6-lifeline"><g><title>ProductRepository</title><rect fill="#000000" fill-opacity="0.00000" height="1825.6409" width="12.5" x="1429.8611" y="198.8007"/><line style="stroke:#2B6CB0;stroke-width:0.7813;stroke-dasharray:7.8125,7.8125;" x1="1435.4626" x2="1435.4626" y1="198.8007" y2="2024.4415"/></g></g><g class="participant-lifeline" data-entity-uid="part7" data-qualified-name="SuppRepo" data-source-line="12" id="part7-lifeline"><g><title>SupplierRepository</title><rect fill="#000000" fill-opacity="0.00000" height="1825.6409" width="12.5" x="1607.8449" y="198.8007"/><line style="stroke:#2B6CB0;stroke-width:0.7813;stroke-dasharray:7.8125,7.8125;" x1="1613.3221" x2="1613.3221" y1="198.8007" y2="2024.4415"/></g></g><g class="participant-lifeline" data-entity-uid="part8" data-qualified-name="RFQRepo" data-source-line="13" id="part8-lifeline"><g><title>RFQRepository</title><rect fill="#000000" fill-opacity="0.00000" height="1825.6409" width="12.5" x="1770.4834" y="198.8007"/><line style="stroke:#2B6CB0;stroke-width:0.7813;stroke-dasharray:7.8125,7.8125;" x1="1775.8053" x2="1775.8053" y1="198.8007" y2="2024.4415"/></g></g><g class="participant-lifeline" data-entity-uid="part9" data-qualified-name="Notif" data-source-line="14" id="part9-lifeline"><g><title>NotificationService</title><rect fill="#000000" fill-opacity="0.00000" height="1825.6409" width="12.5" x="1946.3795" y="198.8007"/><line style="stroke:#2B6CB0;stroke-width:0.7813;stroke-dasharray:7.8125,7.8125;" x1="1951.099" x2="1951.099" y1="198.8007" y2="2024.4415"/></g></g><g class="participant participant-head" data-entity-uid="part1" data-qualified-name="buyer" data-source-line="5" id="part1-head"><text fill="#1A365D" font-family="Segoe UI" font-size="20.3125" font-weight="700" lengthAdjust="spacing" textLength="86.5166" x="46.875" y="193.7027">Acheteur</text><ellipse cx="94.8208" cy="91.3147" fill="#FF6B6B" rx="12.5" ry="12.5" style="stroke:#2B6CB0;stroke-width:0.7813;"/><path d="M94.8208,103.8147 L94.8208,146.0022 M74.5083,116.3147 L115.1333,116.3147 M94.8208,146.0022 L74.5083,169.4397 M94.8208,146.0022 L115.1333,169.4397" fill="none" style="stroke:#2B6CB0;stroke-width:0.7813;"/></g><g class="participant participant-tail" data-entity-uid="part1" data-qualified-name="buyer" data-source-line="5" id="part1-tail"><text fill="#1A365D" font-family="Segoe UI" font-size="20.3125" font-weight="700" lengthAdjust="spacing" textLength="86.5166" x="46.875" y="2044.7983">Acheteur</text><ellipse cx="94.8208" cy="2063.1775" fill="#FF6B6B" rx="12.5" ry="12.5" style="stroke:#2B6CB0;stroke-width:0.7813;"/><path d="M94.8208,2075.6775 L94.8208,2117.865 M74.5083,2088.1775 L115.1333,2088.1775 M94.8208,2117.865 L74.5083,2141.3025 M94.8208,2117.865 L115.1333,2141.3025" fill="none" style="stroke:#2B6CB0;stroke-width:0.7813;"/></g><g class="participant participant-head" data-entity-uid="part2" data-qualified-name="supplier" data-source-line="6" id="part2-head"><text fill="#1A365D" font-family="Segoe UI" font-size="20.3125" font-weight="700" lengthAdjust="spacing" textLength="110.6476" x="158.3916" y="193.7027">Fournisseur</text><ellipse cx="218.4029" cy="91.3147" fill="#4ECDC4" rx="12.5" ry="12.5" style="stroke:#2B6CB0;stroke-width:0.7813;"/><path d="M218.4029,103.8147 L218.4029,146.0022 M198.0904,116.3147 L238.7154,116.3147 M218.4029,146.0022 L198.0904,169.4397 M218.4029,146.0022 L238.7154,169.4397" fill="none" style="stroke:#2B6CB0;stroke-width:0.7813;"/></g><g class="participant participant-tail" data-entity-uid="part2" data-qualified-name="supplier" data-source-line="6" id="part2-tail"><text fill="#1A365D" font-family="Segoe UI" font-size="20.3125" font-weight="700" lengthAdjust="spacing" textLength="110.6476" x="158.3916" y="2044.7983">Fournisseur</text><ellipse cx="218.4029" cy="2063.1775" fill="#4ECDC4" rx="12.5" ry="12.5" style="stroke:#2B6CB0;stroke-width:0.7813;"/><path d="M218.4029,2075.6775 L218.4029,2117.865 M198.0904,2088.1775 L238.7154,2088.1775 M218.4029,2117.865 L198.0904,2141.3025 M218.4029,2117.865 L238.7154,2141.3025" fill="none" style="stroke:#2B6CB0;stroke-width:0.7813;"/></g><g class="participant participant-head" data-entity-uid="part3" data-qualified-name="UI" data-source-line="8" id="part3-head"><rect fill="#EDF2F7" height="46.814" rx="7.8125" ry="7.8125" style="stroke:#2B6CB0;stroke-width:0.7813;" width="102.2858" x="356.9057" y="150.4242"/><text fill="#2D3748" font-family="Segoe UI" font-size="18.75" font-weight="700" lengthAdjust="spacing" textLength="80.4108" x="367.8432" y="181.5948">Frontend</text></g><g class="participant participant-tail" data-entity-uid="part3" data-qualified-name="UI" data-source-line="8" id="part3-tail"><rect fill="#EDF2F7" height="46.814" rx="7.8125" ry="7.8125" style="stroke:#2B6CB0;stroke-width:0.7813;" width="102.2858" x="356.9057" y="2022.879"/><text fill="#2D3748" font-family="Segoe UI" font-size="18.75" font-weight="700" lengthAdjust="spacing" textLength="80.4108" x="367.8432" y="2054.0497">Frontend</text></g><g class="participant participant-head" data-entity-uid="part4" data-qualified-name="Ctrl" data-source-line="9" id="part4-head"><rect fill="#B3D4FF" height="46.814" rx="7.8125" ry="7.8125" style="stroke:#2B6CB0;stroke-width:0.7813;" width="147.0734" x="586.3384" y="150.4242"/><text fill="#2D3748" font-family="Segoe UI" font-size="18.75" font-weight="700" lengthAdjust="spacing" textLength="125.1984" x="597.2759" y="181.5948">RFQController</text></g><g class="participant participant-tail" data-entity-uid="part4" data-qualified-name="Ctrl" data-source-line="9" id="part4-tail"><rect fill="#B3D4FF" height="46.814" rx="7.8125" ry="7.8125" style="stroke:#2B6CB0;stroke-width:0.7813;" width="147.0734" x="586.3384" y="2022.879"/><text fill="#2D3748" font-family="Segoe UI" font-size="18.75" font-weight="700" lengthAdjust="spacing" textLength="125.1984" x="597.2759" y="2054.0497">RFQController</text></g><g class="participant participant-head" data-entity-uid="part5" data-qualified-name="UC" data-source-line="10" id="part5-head"><rect fill="#B2F5EA" height="46.814" rx="7.8125" ry="7.8125" style="stroke:#2B6CB0;stroke-width:0.7813;" width="264.032" x="779.4033" y="150.4242"/><text fill="#2D3748" font-family="Segoe UI" font-size="18.75" font-weight="700" lengthAdjust="spacing" textLength="242.157" x="790.3408" y="181.5948">CreateGroupedRFQUseCase</text></g><g class="participant participant-tail" data-entity-uid="part5" data-qualified-name="UC" data-source-line="10" id="part5-tail"><rect fill="#B2F5EA" height="46.814" rx="7.8125" ry="7.8125" style="stroke:#2B6CB0;stroke-width:0.7813;" width="264.032" x="779.4033" y="2022.879"/><text fill="#2D3748" font-family="Segoe UI" font-size="18.75" font-weight="700" lengthAdjust="spacing" textLength="242.157" x="790.3408" y="2054.0497">CreateGroupedRFQUseCase</text></g><g class="participant participant-head" data-entity-uid="part6" data-qualified-name="ProdRepo" data-source-line="11" id="part6-head"><text fill="#2D3748" font-family="Segoe UI" font-size="17.1875" font-weight="700" lengthAdjust="spacing" textLength="151.297" x="1355.7751" y="194.487">ProductRepository</text><path d="M1407.9861,119.6899 C1407.9861,104.0649 1436.1111,104.0649 1436.1111,104.0649 C1436.1111,104.0649 1464.2361,104.0649 1464.2361,119.6899 L1464.2361,160.3149 C1464.2361,175.9399 1436.1111,175.9399 1436.1111,175.9399 C1436.1111,175.9399 1407.9861,175.9399 1407.9861,160.3149 L1407.9861,119.6899" fill="#81E6D9" style="stroke:#319795;stroke-width:0.7813;"/><path d="M1407.9861,119.6899 C1407.9861,135.3149 1436.1111,135.3149 1436.1111,135.3149 C1436.1111,135.3149 1464.2361,135.3149 1464.2361,119.6899" fill="none" style="stroke:#319795;stroke-width:0.7813;"/></g><g class="participant participant-tail" data-entity-uid="part6" data-qualified-name="ProdRepo" data-source-line="11" id="part6-tail"><text fill="#2D3748" font-family="Segoe UI" font-size="17.1875" font-weight="700" lengthAdjust="spacing" textLength="151.297" x="1355.7751" y="2041.4261">ProductRepository</text><path d="M1407.9861,2061.3647 C1407.9861,2045.7397 1436.1111,2045.7397 1436.1111,2045.7397 C1436.1111,2045.7397 1464.2361,2045.7397 1464.2361,2061.3647 L1464.2361,2101.9897 C1464.2361,2117.6147 1436.1111,2117.6147 1436.1111,2117.6147 C1436.1111,2117.6147 1407.9861,2117.6147 1407.9861,2101.9897 L1407.9861,2061.3647" fill="#81E6D9" style="stroke:#319795;stroke-width:0.7813;"/><path d="M1407.9861,2061.3647 C1407.9861,2076.9897 1436.1111,2076.9897 1436.1111,2076.9897 C1436.1111,2076.9897 1464.2361,2076.9897 1464.2361,2061.3647" fill="none" style="stroke:#319795;stroke-width:0.7813;"/></g><g class="participant participant-head" data-entity-uid="part7" data-qualified-name="SuppRepo" data-source-line="12" id="part7-head"><text fill="#2D3748" font-family="Segoe UI" font-size="17.1875" font-weight="700" lengthAdjust="spacing" textLength="154.6707" x="1532.0721" y="194.487">SupplierRepository</text><path d="M1585.9699,119.6899 C1585.9699,104.0649 1614.0949,104.0649 1614.0949,104.0649 C1614.0949,104.0649 1642.2199,104.0649 1642.2199,119.6899 L1642.2199,160.3149 C1642.2199,175.9399 1614.0949,175.9399 1614.0949,175.9399 C1614.0949,175.9399 1585.9699,175.9399 1585.9699,160.3149 L1585.9699,119.6899" fill="#81E6D9" style="stroke:#319795;stroke-width:0.7813;"/><path d="M1585.9699,119.6899 C1585.9699,135.3149 1614.0949,135.3149 1614.0949,135.3149 C1614.0949,135.3149 1642.2199,135.3149 1642.2199,119.6899" fill="none" style="stroke:#319795;stroke-width:0.7813;"/></g><g class="participant participant-tail" data-entity-uid="part7" data-qualified-name="SuppRepo" data-source-line="12" id="part7-tail"><text fill="#2D3748" font-family="Segoe UI" font-size="17.1875" font-weight="700" lengthAdjust="spacing" textLength="154.6707" x="1532.0721" y="2041.4261">SupplierRepository</text><path d="M1585.9699,2061.3647 C1585.9699,2045.7397 1614.0949,2045.7397 1614.0949,2045.7397 C1614.0949,2045.7397 1642.2199,2045.7397 1642.2199,2061.3647 L1642.2199,2101.9897 C1642.2199,2117.6147 1614.0949,2117.6147 1614.0949,2117.6147 C1614.0949,2117.6147 1585.9699,2117.6147 1585.9699,2101.9897 L1585.9699,2061.3647" fill="#81E6D9" style="stroke:#319795;stroke-width:0.7813;"/><path d="M1585.9699,2061.3647 C1585.9699,2076.9897 1614.0949,2076.9897 1614.0949,2076.9897 C1614.0949,2076.9897 1642.2199,2076.9897 1642.2199,2061.3647" fill="none" style="stroke:#319795;stroke-width:0.7813;"/></g><g class="participant participant-head" data-entity-uid="part8" data-qualified-name="RFQRepo" data-source-line="13" id="part8-head"><text fill="#2D3748" font-family="Segoe UI" font-size="17.1875" font-weight="700" lengthAdjust="spacing" textLength="120.6062" x="1711.7428" y="194.487">RFQRepository</text><path d="M1748.6084,119.6899 C1748.6084,104.0649 1776.7334,104.0649 1776.7334,104.0649 C1776.7334,104.0649 1804.8584,104.0649 1804.8584,119.6899 L1804.8584,160.3149 C1804.8584,175.9399 1776.7334,175.9399 1776.7334,175.9399 C1776.7334,175.9399 1748.6084,175.9399 1748.6084,160.3149 L1748.6084,119.6899" fill="#81E6D9" style="stroke:#319795;stroke-width:0.7813;"/><path d="M1748.6084,119.6899 C1748.6084,135.3149 1776.7334,135.3149 1776.7334,135.3149 C1776.7334,135.3149 1804.8584,135.3149 1804.8584,119.6899" fill="none" style="stroke:#319795;stroke-width:0.7813;"/></g><g class="participant participant-tail" data-entity-uid="part8" data-qualified-name="RFQRepo" data-source-line="13" id="part8-tail"><text fill="#2D3748" font-family="Segoe UI" font-size="17.1875" font-weight="700" lengthAdjust="spacing" textLength="120.6062" x="1711.7428" y="2041.4261">RFQRepository</text><path d="M1748.6084,2061.3647 C1748.6084,2045.7397 1776.7334,2045.7397 1776.7334,2045.7397 C1776.7334,2045.7397 1804.8584,2045.7397 1804.8584,2061.3647 L1804.8584,2101.9897 C1804.8584,2117.6147 1776.7334,2117.6147 1776.7334,2117.6147 C1776.7334,2117.6147 1748.6084,2117.6147 1748.6084,2101.9897 L1748.6084,2061.3647" fill="#81E6D9" style="stroke:#319795;stroke-width:0.7813;"/><path d="M1748.6084,2061.3647 C1748.6084,2076.9897 1776.7334,2076.9897 1776.7334,2076.9897 C1776.7334,2076.9897 1804.8584,2076.9897 1804.8584,2061.3647" fill="none" style="stroke:#319795;stroke-width:0.7813;"/></g><g class="participant participant-head" data-entity-uid="part9" data-qualified-name="Notif" data-source-line="14" id="part9-head"><rect fill="#FBD38D" height="46.814" rx="7.8125" ry="7.8125" style="stroke:#2B6CB0;stroke-width:0.7813;" width="190.5609" x="1857.349" y="150.4242"/><text fill="#2D3748" font-family="Segoe UI" font-size="18.75" font-weight="700" lengthAdjust="spacing" textLength="168.6859" x="1868.2865" y="181.5948">NotificationService</text></g><g class="participant participant-tail" data-entity-uid="part9" data-qualified-name="Notif" data-source-line="14" id="part9-tail"><rect fill="#FBD38D" height="46.814" rx="7.8125" ry="7.8125" style="stroke:#2B6CB0;stroke-width:0.7813;" width="190.5609" x="1857.349" y="2022.879"/><text fill="#2D3748" font-family="Segoe UI" font-size="18.75" font-weight="700" lengthAdjust="spacing" textLength="168.6859" x="1868.2865" y="2054.0497">NotificationService</text></g><g class="message" data-entity-1="part1" data-entity-2="part3" data-source-line="19" id="msg1"><polygon fill="#2B6CB0" points="389.2986,238.3331,404.9236,244.5831,389.2986,250.8331,395.5486,244.5831" style="stroke:#2B6CB0;stroke-width:1.5625;stroke-linejoin:miter;stroke-miterlimit:10;"/><line style="stroke:#2B6CB0;stroke-width:2.3438;" x1="94.8208" x2="398.6736" y1="244.5831" y2="244.5831"/><text fill="#4A5568" font-family="Segoe UI" font-size="15.625" font-weight="700" lengthAdjust="spacing" textLength="8.9874" x="105.7583" y="237.5366">1</text><text fill="#4A5568" font-family="Segoe UI" font-size="15.625" lengthAdjust="spacing" textLength="260.4904" x="120.9957" y="237.5366">selectionner plusieurs produits favoris</text></g><g class="message" data-entity-1="part1" data-entity-2="part3" data-source-line="20" id="msg2"><polygon fill="#2B6CB0" points="389.2986,280.9906,404.9236,287.2406,389.2986,293.4906,395.5486,287.2406" style="stroke:#2B6CB0;stroke-width:1.5625;stroke-linejoin:miter;stroke-miterlimit:10;"/><line style="stroke:#2B6CB0;stroke-width:2.3438;" x1="94.8208" x2="398.6736" y1="287.2406" y2="287.2406"/><text fill="#4A5568" font-family="Segoe UI" font-size="15.625" font-weight="700" lengthAdjust="spacing" textLength="8.9874" x="105.7583" y="280.1941">2</text><text fill="#4A5568" font-family="Segoe UI" font-size="15.625" lengthAdjust="spacing" textLength="220.5048" x="120.9957" y="280.1941">cliquer sur "Creer RFQ groupee"</text></g><g class="message" data-entity-1="part3" data-entity-2="part4" data-source-line="21" id="msg3"><polygon fill="#2B6CB0" points="641.1251,323.6481,656.7501,329.8981,641.1251,336.1481,647.3751,329.8981" style="stroke:#2B6CB0;stroke-width:1.5625;stroke-linejoin:miter;stroke-miterlimit:10;"/><line style="stroke:#2B6CB0;stroke-width:2.3438;" x1="408.0486" x2="650.5001" y1="329.8981" y2="329.8981"/><text fill="#4A5568" font-family="Segoe UI" font-size="15.625" font-weight="700" lengthAdjust="spacing" textLength="8.9874" x="418.9861" y="322.8516">3</text><text fill="#4A5568" font-family="Segoe UI" font-size="15.625" lengthAdjust="spacing" textLength="192.8711" x="434.2236" y="322.8516">createGroupedRFQ(request)</text></g><g class="message" data-entity-1="part4" data-entity-2="part5" data-source-line="22" id="msg4"><polygon fill="#2B6CB0" points="892.6693,366.3055,908.2943,372.5555,892.6693,378.8055,898.9193,372.5555" style="stroke:#2B6CB0;stroke-width:1.5625;stroke-linejoin:miter;stroke-miterlimit:10;"/><line style="stroke:#2B6CB0;stroke-width:2.3438;" x1="659.8751" x2="902.0443" y1="372.5555" y2="372.5555"/><text fill="#4A5568" font-family="Segoe UI" font-size="15.625" font-weight="700" lengthAdjust="spacing" textLength="8.9874" x="670.8126" y="365.509">4</text><text fill="#4A5568" font-family="Segoe UI" font-size="15.625" lengthAdjust="spacing" textLength="114.212" x="686.05" y="365.509">execute(request)</text></g><g class="message" data-entity-1="part5" data-entity-2="part5" data-source-line="23" id="msg5"><line style="stroke:#2B6CB0;stroke-width:2.3438;" x1="911.4193" x2="977.0443" y1="415.213" y2="415.213"/><line style="stroke:#2B6CB0;stroke-width:2.3438;" x1="977.0443" x2="977.0443" y1="415.213" y2="435.5255"/><line style="stroke:#2B6CB0;stroke-width:2.3438;" x1="912.9818" x2="977.0443" y1="435.5255" y2="435.5255"/><polygon fill="#2B6CB0" points="928.6068,429.2755,912.9818,435.5255,928.6068,441.7755,922.3568,435.5255" style="stroke:#2B6CB0;stroke-width:1.5625;stroke-linejoin:miter;stroke-miterlimit:10;"/><text fill="#4A5568" font-family="Segoe UI" font-size="15.625" font-weight="700" lengthAdjust="spacing" textLength="8.9874" x="922.3568" y="408.1665">5</text><text fill="#4A5568" font-family="Segoe UI" font-size="15.625" lengthAdjust="spacing" textLength="178.5431" x="937.5942" y="408.1665">verifier acheteur connecte</text></g><g class="message" data-entity-1="part5" data-entity-2="part5" data-source-line="24" id="msg6"><line style="stroke:#2B6CB0;stroke-width:2.3438;" x1="911.4193" x2="977.0443" y1="478.183" y2="478.183"/><line style="stroke:#2B6CB0;stroke-width:2.3438;" x1="977.0443" x2="977.0443" y1="478.183" y2="498.4955"/><line style="stroke:#2B6CB0;stroke-width:2.3438;" x1="912.9818" x2="977.0443" y1="498.4955" y2="498.4955"/><polygon fill="#2B6CB0" points="928.6068,492.2455,912.9818,498.4955,928.6068,504.7455,922.3568,498.4955" style="stroke:#2B6CB0;stroke-width:1.5625;stroke-linejoin:miter;stroke-miterlimit:10;"/><text fill="#4A5568" font-family="Segoe UI" font-size="15.625" font-weight="700" lengthAdjust="spacing" textLength="8.9874" x="922.3568" y="471.1365">6</text><text fill="#4A5568" font-family="Segoe UI" font-size="15.625" lengthAdjust="spacing" textLength="123.4589" x="937.5942" y="471.1365">verifier KYC valide</text></g><path d="M23.4375,521.933 L108.6517,521.933 L108.6517,534.3719 L93.0267,549.9969 L15.625,549.9969 L15.625,529.7455 A7.8125,7.8125 0 0 1 23.4375,521.933" fill="#F7FAFC" style="stroke:#CBD5E0;stroke-width:2.3438;"/><rect fill="none" height="1382.3486" rx="7.8125" ry="7.8125" style="stroke:#CBD5E0;stroke-width:2.3438;" width="2063.5349" x="15.625" y="521.933"/><text fill="#000000" font-family="Segoe UI" font-size="18.75" font-weight="700" lengthAdjust="spacing" textLength="22.7142" x="39.0625" y="543.7286">alt</text><text fill="#2D3748" font-family="Segoe UI" font-size="15.625" font-weight="700" lengthAdjust="spacing" textLength="102.9968" x="132.0892" y="541.9189">[KYC invalide]</text><g class="message" data-entity-1="part5" data-entity-2="part4" data-source-line="27" id="msg7"><polygon fill="#2B6CB0" points="677.0626,573.9044,661.4376,580.1544,677.0626,586.4044,670.8126,580.1544" style="stroke:#2B6CB0;stroke-width:1.5625;stroke-linejoin:miter;stroke-miterlimit:10;"/><line style="stroke:#2B6CB0;stroke-width:2.3438;stroke-dasharray:3.125,3.125;" x1="667.6876" x2="909.8568" y1="580.1544" y2="580.1544"/><text fill="#4A5568" font-family="Segoe UI" font-size="15.625" font-weight="700" lengthAdjust="spacing" textLength="8.9874" x="686.4376" y="573.1079">7</text><text fill="#4A5568" font-family="Segoe UI" font-size="15.625" lengthAdjust="spacing" textLength="146.3089" x="701.675" y="573.1079">erreur KYC incomplet</text></g><g class="message" data-entity-1="part4" data-entity-2="part3" data-source-line="28" id="msg8"><polygon fill="#2B6CB0" points="425.2361,616.5619,409.6111,622.8119,425.2361,629.0619,418.9861,622.8119" style="stroke:#2B6CB0;stroke-width:1.5625;stroke-linejoin:miter;stroke-miterlimit:10;"/><line style="stroke:#2B6CB0;stroke-width:2.3438;stroke-dasharray:3.125,3.125;" x1="415.8611" x2="658.3126" y1="622.8119" y2="622.8119"/><text fill="#4A5568" font-family="Segoe UI" font-size="15.625" font-weight="700" lengthAdjust="spacing" textLength="8.9874" x="434.6111" y="615.7654">8</text><text fill="#4A5568" font-family="Segoe UI" font-size="15.625" lengthAdjust="spacing" textLength="189.9109" x="449.8486" y="615.7654">demander finalisation profil</text></g><line style="stroke:#CBD5E0;stroke-width:1.5625;stroke-dasharray:3.125,3.125;" x1="15.625" x2="2079.1599" y1="636.8744" y2="636.8744"/><text fill="#2D3748" font-family="Segoe UI" font-size="15.625" font-weight="700" lengthAdjust="spacing" textLength="89.1037" x="23.4375" y="653.7354">[KYC valide]</text><g class="message" data-entity-1="part5" data-entity-2="part6" data-source-line="30" id="msg9"><polygon fill="#2B6CB0" points="1417.3611,683.1268,1432.9861,689.3768,1417.3611,695.6268,1423.6111,689.3768" style="stroke:#2B6CB0;stroke-width:1.5625;stroke-linejoin:miter;stroke-miterlimit:10;"/><line style="stroke:#2B6CB0;stroke-width:2.3438;" x1="911.4193" x2="1426.7361" y1="689.3768" y2="689.3768"/><text fill="#4A5568" font-family="Segoe UI" font-size="15.625" font-weight="700" lengthAdjust="spacing" textLength="8.9874" x="922.3568" y="682.3303">9</text><text fill="#4A5568" font-family="Segoe UI" font-size="15.625" lengthAdjust="spacing" textLength="229.3015" x="937.5942" y="682.3303">findSelectedProducts(productIds)</text></g><g class="message" data-entity-1="part6" data-entity-2="part5" data-source-line="31" id="msg10"><polygon fill="#2B6CB0" points="928.6068,725.7843,912.9818,732.0343,928.6068,738.2843,922.3568,732.0343" style="stroke:#2B6CB0;stroke-width:1.5625;stroke-linejoin:miter;stroke-miterlimit:10;"/><line style="stroke:#2B6CB0;stroke-width:2.3438;stroke-dasharray:3.125,3.125;" x1="919.2318" x2="1434.5486" y1="732.0343" y2="732.0343"/><text fill="#4A5568" font-family="Segoe UI" font-size="15.625" font-weight="700" lengthAdjust="spacing" textLength="17.9749" x="937.9818" y="724.9878">10</text><text fill="#4A5568" font-family="Segoe UI" font-size="15.625" lengthAdjust="spacing" textLength="60.9589" x="962.2066" y="724.9878">products</text></g><g class="message" data-entity-1="part5" data-entity-2="part7" data-source-line="32" id="msg11"><polygon fill="#2B6CB0" points="1595.3449,768.4418,1610.9699,774.6918,1595.3449,780.9418,1601.5949,774.6918" style="stroke:#2B6CB0;stroke-width:1.5625;stroke-linejoin:miter;stroke-miterlimit:10;"/><line style="stroke:#2B6CB0;stroke-width:2.3438;" x1="911.4193" x2="1604.7199" y1="774.6918" y2="774.6918"/><text fill="#4A5568" font-family="Segoe UI" font-size="15.625" font-weight="700" lengthAdjust="spacing" textLength="17.9749" x="922.3568" y="767.6453">11</text><text fill="#4A5568" font-family="Segoe UI" font-size="15.625" lengthAdjust="spacing" textLength="134.3994" x="946.5816" y="767.6453">findById(supplierId)</text></g><g class="message" data-entity-1="part7" data-entity-2="part5" data-source-line="33" id="msg12"><polygon fill="#2B6CB0" points="928.6068,811.0992,912.9818,817.3492,928.6068,823.5992,922.3568,817.3492" style="stroke:#2B6CB0;stroke-width:1.5625;stroke-linejoin:miter;stroke-miterlimit:10;"/><line style="stroke:#2B6CB0;stroke-width:2.3438;stroke-dasharray:3.125,3.125;" x1="919.2318" x2="1612.5324" y1="817.3492" y2="817.3492"/><text fill="#4A5568" font-family="Segoe UI" font-size="15.625" font-weight="700" lengthAdjust="spacing" textLength="17.9749" x="937.9818" y="810.3027">12</text><text fill="#4A5568" font-family="Segoe UI" font-size="15.625" lengthAdjust="spacing" textLength="55.0156" x="962.2066" y="810.3027">supplier</text></g><g class="message" data-entity-1="part5" data-entity-2="part5" data-source-line="34" id="msg13"><line style="stroke:#2B6CB0;stroke-width:2.3438;" x1="911.4193" x2="977.0443" y1="860.0067" y2="860.0067"/><line style="stroke:#2B6CB0;stroke-width:2.3438;" x1="977.0443" x2="977.0443" y1="860.0067" y2="880.3192"/><line style="stroke:#2B6CB0;stroke-width:2.3438;" x1="912.9818" x2="977.0443" y1="880.3192" y2="880.3192"/><polygon fill="#2B6CB0" points="928.6068,874.0692,912.9818,880.3192,928.6068,886.5692,922.3568,880.3192" style="stroke:#2B6CB0;stroke-width:1.5625;stroke-linejoin:miter;stroke-miterlimit:10;"/><text fill="#4A5568" font-family="Segoe UI" font-size="15.625" font-weight="700" lengthAdjust="spacing" textLength="17.9749" x="922.3568" y="852.9602">13</text><text fill="#4A5568" font-family="Segoe UI" font-size="15.625" lengthAdjust="spacing" textLength="260.4065" x="946.5816" y="852.9602">verifier meme fournisseur destinataire</text></g><g class="message" data-entity-1="part5" data-entity-2="part5" data-source-line="35" id="msg14"><line style="stroke:#2B6CB0;stroke-width:2.3438;" x1="911.4193" x2="977.0443" y1="922.9767" y2="922.9767"/><line style="stroke:#2B6CB0;stroke-width:2.3438;" x1="977.0443" x2="977.0443" y1="922.9767" y2="943.2892"/><line style="stroke:#2B6CB0;stroke-width:2.3438;" x1="912.9818" x2="977.0443" y1="943.2892" y2="943.2892"/><polygon fill="#2B6CB0" points="928.6068,937.0392,912.9818,943.2892,928.6068,949.5392,922.3568,943.2892" style="stroke:#2B6CB0;stroke-width:1.5625;stroke-linejoin:miter;stroke-miterlimit:10;"/><text fill="#4A5568" font-family="Segoe UI" font-size="15.625" font-weight="700" lengthAdjust="spacing" textLength="17.9749" x="922.3568" y="915.9302">14</text><text fill="#4A5568" font-family="Segoe UI" font-size="15.625" lengthAdjust="spacing" textLength="224.9832" x="946.5816" y="915.9302">verifier chaque produit publiable</text></g><g class="message" data-entity-1="part5" data-entity-2="part5" data-source-line="36" id="msg15"><line style="stroke:#2B6CB0;stroke-width:2.3438;" x1="911.4193" x2="977.0443" y1="985.9467" y2="985.9467"/><line style="stroke:#2B6CB0;stroke-width:2.3438;" x1="977.0443" x2="977.0443" y1="985.9467" y2="1006.2592"/><line style="stroke:#2B6CB0;stroke-width:2.3438;" x1="912.9818" x2="977.0443" y1="1006.2592" y2="1006.2592"/><polygon fill="#2B6CB0" points="928.6068,1000.0092,912.9818,1006.2592,928.6068,1012.5092,922.3568,1006.2592" style="stroke:#2B6CB0;stroke-width:1.5625;stroke-linejoin:miter;stroke-miterlimit:10;"/><text fill="#4A5568" font-family="Segoe UI" font-size="15.625" font-weight="700" lengthAdjust="spacing" textLength="17.9749" x="922.3568" y="978.9001">15</text><text fill="#4A5568" font-family="Segoe UI" font-size="15.625" lengthAdjust="spacing" textLength="176.3611" x="946.5816" y="978.9001">verifier disponibilite stock</text></g><g class="message" data-entity-1="part5" data-entity-2="part5" data-source-line="37" id="msg16"><line style="stroke:#2B6CB0;stroke-width:2.3438;" x1="911.4193" x2="977.0443" y1="1048.9166" y2="1048.9166"/><line style="stroke:#2B6CB0;stroke-width:2.3438;" x1="977.0443" x2="977.0443" y1="1048.9166" y2="1069.2291"/><line style="stroke:#2B6CB0;stroke-width:2.3438;" x1="912.9818" x2="977.0443" y1="1069.2291" y2="1069.2291"/><polygon fill="#2B6CB0" points="928.6068,1062.9791,912.9818,1069.2291,928.6068,1075.4791,922.3568,1069.2291" style="stroke:#2B6CB0;stroke-width:1.5625;stroke-linejoin:miter;stroke-miterlimit:10;"/><text fill="#4A5568" font-family="Segoe UI" font-size="15.625" font-weight="700" lengthAdjust="spacing" textLength="17.9749" x="922.3568" y="1041.8701">16</text><text fill="#4A5568" font-family="Segoe UI" font-size="15.625" lengthAdjust="spacing" textLength="169.9142" x="946.5816" y="1041.8701">verifier contraintes MOQ</text></g><g class="message" data-entity-1="part5" data-entity-2="part5" data-source-line="38" id="msg17"><line style="stroke:#2B6CB0;stroke-width:2.3438;" x1="911.4193" x2="977.0443" y1="1111.8866" y2="1111.8866"/><line style="stroke:#2B6CB0;stroke-width:2.3438;" x1="977.0443" x2="977.0443" y1="1111.8866" y2="1132.1991"/><line style="stroke:#2B6CB0;stroke-width:2.3438;" x1="912.9818" x2="977.0443" y1="1132.1991" y2="1132.1991"/><polygon fill="#2B6CB0" points="928.6068,1125.9491,912.9818,1132.1991,928.6068,1138.4491,922.3568,1132.1991" style="stroke:#2B6CB0;stroke-width:1.5625;stroke-linejoin:miter;stroke-miterlimit:10;"/><text fill="#4A5568" font-family="Segoe UI" font-size="15.625" font-weight="700" lengthAdjust="spacing" textLength="17.9749" x="922.3568" y="1104.8401">17</text><text fill="#4A5568" font-family="Segoe UI" font-size="15.625" lengthAdjust="spacing" textLength="227.2034" x="946.5816" y="1104.8401">verifier stockage si surgeles/froid</text></g><path d="M39.0625,1155.6366 L124.2767,1155.6366 L124.2767,1168.0756 L108.6517,1183.7006 L31.25,1183.7006 L31.25,1163.4491 A7.8125,7.8125 0 0 1 39.0625,1155.6366" fill="#F7FAFC" style="stroke:#CBD5E0;stroke-width:2.3438;"/><rect fill="none" height="737.7075" rx="7.8125" ry="7.8125" style="stroke:#CBD5E0;stroke-width:2.3438;" width="2032.2849" x="31.25" y="1155.6366"/><text fill="#000000" font-family="Segoe UI" font-size="18.75" font-weight="700" lengthAdjust="spacing" textLength="22.7142" x="54.6875" y="1177.4323">alt</text><text fill="#2D3748" font-family="Segoe UI" font-size="15.625" font-weight="700" lengthAdjust="spacing" textLength="151.947" x="147.7142" y="1175.6226">[un produit invalide]</text><g class="message" data-entity-1="part5" data-entity-2="part4" data-source-line="41" id="msg18"><polygon fill="#2B6CB0" points="677.0626,1207.608,661.4376,1213.858,677.0626,1220.108,670.8126,1213.858" style="stroke:#2B6CB0;stroke-width:1.5625;stroke-linejoin:miter;stroke-miterlimit:10;"/><line style="stroke:#2B6CB0;stroke-width:2.3438;stroke-dasharray:3.125,3.125;" x1="667.6876" x2="909.8568" y1="1213.858" y2="1213.858"/><text fill="#4A5568" font-family="Segoe UI" font-size="15.625" font-weight="700" lengthAdjust="spacing" textLength="17.9749" x="686.4376" y="1206.8115">18</text><text fill="#4A5568" font-family="Segoe UI" font-size="15.625" lengthAdjust="spacing" textLength="189.8193" x="710.6625" y="1206.8115">erreur de validation produit</text></g><g class="message" data-entity-1="part4" data-entity-2="part3" data-source-line="42" id="msg19"><polygon fill="#2B6CB0" points="425.2361,1250.2655,409.6111,1256.5155,425.2361,1262.7655,418.9861,1256.5155" style="stroke:#2B6CB0;stroke-width:1.5625;stroke-linejoin:miter;stroke-miterlimit:10;"/><line style="stroke:#2B6CB0;stroke-width:2.3438;stroke-dasharray:3.125,3.125;" x1="415.8611" x2="658.3126" y1="1256.5155" y2="1256.5155"/><text fill="#4A5568" font-family="Segoe UI" font-size="15.625" font-weight="700" lengthAdjust="spacing" textLength="17.9749" x="434.6111" y="1249.469">19</text><text fill="#4A5568" font-family="Segoe UI" font-size="15.625" lengthAdjust="spacing" textLength="190.1016" x="458.836" y="1249.469">afficher erreur de validation</text></g><line style="stroke:#CBD5E0;stroke-width:1.5625;stroke-dasharray:3.125,3.125;" x1="31.25" x2="2063.5349" y1="1270.578" y2="1270.578"/><text fill="#2D3748" font-family="Segoe UI" font-size="15.625" font-weight="700" lengthAdjust="spacing" textLength="188.9343" x="39.0625" y="1287.439">[tous les produits valides]</text><g class="message" data-entity-1="part5" data-entity-2="part5" data-source-line="44" id="msg20"><line style="stroke:#2B6CB0;stroke-width:2.3438;" x1="911.4193" x2="977.0443" y1="1323.0804" y2="1323.0804"/><line style="stroke:#2B6CB0;stroke-width:2.3438;" x1="977.0443" x2="977.0443" y1="1323.0804" y2="1343.3929"/><line style="stroke:#2B6CB0;stroke-width:2.3438;" x1="912.9818" x2="977.0443" y1="1343.3929" y2="1343.3929"/><polygon fill="#2B6CB0" points="928.6068,1337.1429,912.9818,1343.3929,928.6068,1349.6429,922.3568,1343.3929" style="stroke:#2B6CB0;stroke-width:1.5625;stroke-linejoin:miter;stroke-miterlimit:10;"/><text fill="#4A5568" font-family="Segoe UI" font-size="15.625" font-weight="700" lengthAdjust="spacing" textLength="17.9749" x="922.3568" y="1316.0339">20</text><text fill="#4A5568" font-family="Segoe UI" font-size="15.625" lengthAdjust="spacing" textLength="186.676" x="946.5816" y="1316.0339">creer RequestForQuotation</text></g><path d="M771.5908,1366.8304 L873.9712,1366.8304 L873.9712,1379.2694 L858.3462,1394.8944 L763.7783,1394.8944 L763.7783,1374.6429 A7.8125,7.8125 0 0 1 771.5908,1366.8304" fill="#F7FAFC" style="stroke:#CBD5E0;stroke-width:2.3438;"/><rect fill="none" height="216.9739" rx="7.8125" ry="7.8125" style="stroke:#CBD5E0;stroke-width:2.3438;" width="680.1453" x="763.7783" y="1366.8304"/><text fill="#000000" font-family="Segoe UI" font-size="18.75" font-weight="700" lengthAdjust="spacing" textLength="39.8804" x="787.2158" y="1388.6261">loop</text><text fill="#2D3748" font-family="Segoe UI" font-size="15.625" font-weight="700" lengthAdjust="spacing" textLength="250.5341" x="897.4087" y="1386.8164">[pour chaque produit selectionne]</text><g class="message" data-entity-1="part5" data-entity-2="part5" data-source-line="46" id="msg21"><line style="stroke:#2B6CB0;stroke-width:2.3438;" x1="911.4193" x2="977.0443" y1="1425.0519" y2="1425.0519"/><line style="stroke:#2B6CB0;stroke-width:2.3438;" x1="977.0443" x2="977.0443" y1="1425.0519" y2="1445.3644"/><line style="stroke:#2B6CB0;stroke-width:2.3438;" x1="912.9818" x2="977.0443" y1="1445.3644" y2="1445.3644"/><polygon fill="#2B6CB0" points="928.6068,1439.1144,912.9818,1445.3644,928.6068,1451.6144,922.3568,1445.3644" style="stroke:#2B6CB0;stroke-width:1.5625;stroke-linejoin:miter;stroke-miterlimit:10;"/><text fill="#4A5568" font-family="Segoe UI" font-size="15.625" font-weight="700" lengthAdjust="spacing" textLength="17.9749" x="922.3568" y="1418.0054">21</text><text fill="#4A5568" font-family="Segoe UI" font-size="15.625" lengthAdjust="spacing" textLength="215.7516" x="946.5816" y="1418.0054">creer snapshot produit minimal</text></g><g class="message" data-entity-1="part5" data-entity-2="part5" data-source-line="47" id="msg22"><line style="stroke:#2B6CB0;stroke-width:2.3438;" x1="911.4193" x2="977.0443" y1="1488.0219" y2="1488.0219"/><line style="stroke:#2B6CB0;stroke-width:2.3438;" x1="977.0443" x2="977.0443" y1="1488.0219" y2="1508.3344"/><line style="stroke:#2B6CB0;stroke-width:2.3438;" x1="912.9818" x2="977.0443" y1="1508.3344" y2="1508.3344"/><polygon fill="#2B6CB0" points="928.6068,1502.0844,912.9818,1508.3344,928.6068,1514.5844,922.3568,1508.3344" style="stroke:#2B6CB0;stroke-width:1.5625;stroke-linejoin:miter;stroke-miterlimit:10;"/><text fill="#4A5568" font-family="Segoe UI" font-size="15.625" font-weight="700" lengthAdjust="spacing" textLength="17.9749" x="922.3568" y="1480.9753">22</text><text fill="#4A5568" font-family="Segoe UI" font-size="15.625" lengthAdjust="spacing" textLength="478.5919" x="946.5816" y="1480.9753">creer RFQLine(productSnapshot, quantity, packaging, categoryFamily)</text></g><g class="message" data-entity-1="part5" data-entity-2="part5" data-source-line="48" id="msg23"><line style="stroke:#2B6CB0;stroke-width:2.3438;" x1="911.4193" x2="977.0443" y1="1550.9918" y2="1550.9918"/><line style="stroke:#2B6CB0;stroke-width:2.3438;" x1="977.0443" x2="977.0443" y1="1550.9918" y2="1571.3043"/><line style="stroke:#2B6CB0;stroke-width:2.3438;" x1="912.9818" x2="977.0443" y1="1571.3043" y2="1571.3043"/><polygon fill="#2B6CB0" points="928.6068,1565.0543,912.9818,1571.3043,928.6068,1577.5543,922.3568,1571.3043" style="stroke:#2B6CB0;stroke-width:1.5625;stroke-linejoin:miter;stroke-miterlimit:10;"/><text fill="#4A5568" font-family="Segoe UI" font-size="15.625" font-weight="700" lengthAdjust="spacing" textLength="17.9749" x="922.3568" y="1543.9453">23</text><text fill="#4A5568" font-family="Segoe UI" font-size="15.625" lengthAdjust="spacing" textLength="466.9571" x="946.5816" y="1543.9453">associer Product, quantite, conditionnement, contraintes logistiques</text></g><g class="message" data-entity-1="part5" data-entity-2="part8" data-source-line="50" id="msg24"><polygon fill="#2B6CB0" points="1757.9834,1618.6493,1773.6084,1624.8993,1757.9834,1631.1493,1764.2334,1624.8993" style="stroke:#2B6CB0;stroke-width:1.5625;stroke-linejoin:miter;stroke-miterlimit:10;"/><line style="stroke:#2B6CB0;stroke-width:2.3438;" x1="911.4193" x2="1767.3584" y1="1624.8993" y2="1624.8993"/><text fill="#4A5568" font-family="Segoe UI" font-size="15.625" font-weight="700" lengthAdjust="spacing" textLength="17.9749" x="922.3568" y="1617.8528">24</text><text fill="#4A5568" font-family="Segoe UI" font-size="15.625" lengthAdjust="spacing" textLength="59.1888" x="946.5816" y="1617.8528">save(rfq)</text></g><g class="message" data-entity-1="part8" data-entity-2="part5" data-source-line="51" id="msg25"><polygon fill="#2B6CB0" points="928.6068,1661.3068,912.9818,1667.5568,928.6068,1673.8068,922.3568,1667.5568" style="stroke:#2B6CB0;stroke-width:1.5625;stroke-linejoin:miter;stroke-miterlimit:10;"/><line style="stroke:#2B6CB0;stroke-width:2.3438;stroke-dasharray:3.125,3.125;" x1="919.2318" x2="1775.1709" y1="1667.5568" y2="1667.5568"/><text fill="#4A5568" font-family="Segoe UI" font-size="15.625" font-weight="700" lengthAdjust="spacing" textLength="17.9749" x="937.9818" y="1660.5103">25</text><text fill="#4A5568" font-family="Segoe UI" font-size="15.625" lengthAdjust="spacing" textLength="60.6308" x="962.2066" y="1660.5103">rfqSaved</text></g><g class="message" data-entity-1="part5" data-entity-2="part9" data-source-line="52" id="msg26"><polygon fill="#2B6CB0" points="1933.8795,1703.9642,1949.5045,1710.2142,1933.8795,1716.4642,1940.1295,1710.2142" style="stroke:#2B6CB0;stroke-width:1.5625;stroke-linejoin:miter;stroke-miterlimit:10;"/><line style="stroke:#2B6CB0;stroke-width:2.3438;" x1="911.4193" x2="1943.2545" y1="1710.2142" y2="1710.2142"/><text fill="#4A5568" font-family="Segoe UI" font-size="15.625" font-weight="700" lengthAdjust="spacing" textLength="17.9749" x="922.3568" y="1703.1677">26</text><text fill="#4A5568" font-family="Segoe UI" font-size="15.625" lengthAdjust="spacing" textLength="166.275" x="946.5816" y="1703.1677">notifySupplier(rfqSaved)</text></g><g class="message" data-entity-1="part9" data-entity-2="part2" data-source-line="53" id="msg27"><polygon fill="#2B6CB0" points="235.5904,1746.6217,219.9654,1752.8717,235.5904,1759.1217,229.3404,1752.8717" style="stroke:#2B6CB0;stroke-width:1.5625;stroke-linejoin:miter;stroke-miterlimit:10;"/><line style="stroke:#2B6CB0;stroke-width:2.3438;" x1="226.2154" x2="1951.067" y1="1752.8717" y2="1752.8717"/><text fill="#4A5568" font-family="Segoe UI" font-size="15.625" font-weight="700" lengthAdjust="spacing" textLength="17.9749" x="244.9654" y="1745.8252">27</text><text fill="#4A5568" font-family="Segoe UI" font-size="15.625" lengthAdjust="spacing" textLength="133.3847" x="269.1902" y="1745.8252">nouvelle RFQ recue</text></g><g class="message" data-entity-1="part5" data-entity-2="part4" data-source-line="54" id="msg28"><polygon fill="#2B6CB0" points="677.0626,1789.2792,661.4376,1795.5292,677.0626,1801.7792,670.8126,1795.5292" style="stroke:#2B6CB0;stroke-width:1.5625;stroke-linejoin:miter;stroke-miterlimit:10;"/><line style="stroke:#2B6CB0;stroke-width:2.3438;stroke-dasharray:3.125,3.125;" x1="667.6876" x2="909.8568" y1="1795.5292" y2="1795.5292"/><text fill="#4A5568" font-family="Segoe UI" font-size="15.625" font-weight="700" lengthAdjust="spacing" textLength="17.9749" x="686.4376" y="1788.4827">28</text><text fill="#4A5568" font-family="Segoe UI" font-size="15.625" lengthAdjust="spacing" textLength="130.1193" x="710.6625" y="1788.4827">confirmation(rfqId)</text></g><g class="message" data-entity-1="part4" data-entity-2="part3" data-source-line="55" id="msg29"><polygon fill="#2B6CB0" points="425.2361,1831.9366,409.6111,1838.1866,425.2361,1844.4366,418.9861,1838.1866" style="stroke:#2B6CB0;stroke-width:1.5625;stroke-linejoin:miter;stroke-miterlimit:10;"/><line style="stroke:#2B6CB0;stroke-width:2.3438;stroke-dasharray:3.125,3.125;" x1="415.8611" x2="658.3126" y1="1838.1866" y2="1838.1866"/><text fill="#4A5568" font-family="Segoe UI" font-size="15.625" font-weight="700" lengthAdjust="spacing" textLength="17.9749" x="434.6111" y="1831.1401">29</text><text fill="#4A5568" font-family="Segoe UI" font-size="15.625" lengthAdjust="spacing" textLength="129.2496" x="458.836" y="1831.1401">creation confirmee</text></g><g class="message" data-entity-1="part3" data-entity-2="part1" data-source-line="56" id="msg30"><polygon fill="#2B6CB0" points="112.0083,1874.5941,96.3833,1880.8441,112.0083,1887.0941,105.7583,1880.8441" style="stroke:#2B6CB0;stroke-width:1.5625;stroke-linejoin:miter;stroke-miterlimit:10;"/><line style="stroke:#2B6CB0;stroke-width:2.3438;stroke-dasharray:3.125,3.125;" x1="102.6333" x2="406.4861" y1="1880.8441" y2="1880.8441"/><text fill="#4A5568" font-family="Segoe UI" font-size="15.625" font-weight="700" lengthAdjust="spacing" textLength="17.9749" x="121.3833" y="1873.7976">30</text><text fill="#4A5568" font-family="Segoe UI" font-size="15.625" lengthAdjust="spacing" textLength="176.3" x="145.6081" y="1873.7976">afficher confirmation RFQ</text></g><path d="M918.75,1930.8441 L918.75,1991.7816 A7.8125,7.8125 0 0 0 926.5625,1999.5941 L1307.8125,1999.5941 A7.8125,7.8125 0 0 0 1315.625,1991.7816 L1315.625,1938.6566 L1300,1923.0316 L926.5625,1923.0316 A7.8125,7.8125 0 0 0 918.75,1930.8441" fill="#FFFFF0" style="stroke:#D69E2E;stroke-width:0.7813;"/><path d="M1300,1923.0316 L1300,1934.7504 A3.9063,3.9063 0 0 0 1303.9063,1938.6566 L1315.625,1938.6566 L1300,1923.0316" fill="#FFFFF0" style="stroke:#D69E2E;stroke-width:0.7813;"/><text fill="#744210" font-family="Segoe UI" font-size="15.625" lengthAdjust="spacing" textLength="52.681" x="928.125" y="1947.7051">Chaque</text><text fill="#744210" font-family="Segoe UI" font-size="15.625" font-weight="700" lengthAdjust="spacing" textLength="60.5087" x="985.0861" y="1947.7051">RFQLine</text><text fill="#744210" font-family="Segoe UI" font-size="15.625" lengthAdjust="spacing" textLength="216.8884" x="1049.8749" y="1947.7051">conserve un snapshot minimal :</text><text fill="#744210" font-family="Segoe UI" font-size="15.625" lengthAdjust="spacing" textLength="364.3951" x="928.125" y="1968.4875">nom produit, SKU/GTIN, categorie, conditionnement,</text><text fill="#744210" font-family="Segoe UI" font-size="15.625" lengthAdjust="spacing" textLength="315.6128" x="928.125" y="1989.27">quantite demandee et contraintes logistiques.</text><?plantuml-src TLLDSziu3BtpLs2JIv9naccRfjqSEbFRKSVJtRQfDuSzqX9aOqgH2Zyywt-_82d9SceVCad0XqS0xn7wWtIfGeLmStDRcgOn-jRvdSARDZHA2FUBT2kjRE27j9vAQgNstss55ju88KjlB7mkD-WnM90ELc77H-T5SJ-zdtRdXGbMatCTn8MsLHHHTu-p-UnEY7PF3MU5DTgZhiuYzda1vu_puctnuH3qitYQCSmQfT0cvCnR1UVJT_ExeZZ4pYnAZr-i2IrMdFZiS2OTPluPvxmjtZz-5fNqSiLnEFjXJHLA_nDRuuWRs2LeZCOGd7zyytW__tEKiEmwUfKHmoSok8nNu2uoO0zQ-6OyrLHAJqOlqMwfpEMdE4zxEd_tSIw49wyGvYJNB5Y3mAewV0ceIuJhlKoejuOGWiPuAwpJP10aHw3UQoLay4Q7PeLMYAphzQUeo0EpAYnZCPg3hGgE6E-WZOCZxw2MMsF9lSeg5N4nbWrWaohyv-Z-Cy4WXYOX6VnAjGiREt7-KYH0v9mn3F_3CdZSdtAqFzkYvQdnBRBll8mLbnwFehx-EuEjL5GX6rlvz3_fBW8HVBql3wsDX1d3xwPLw1cKQ-iRhh2HEZwLcZJJkAHVd59DIg1Y8upkp3Tyslli8QPLopHgh3fJkeis_x6et2Nd3EZhlf_kt0s4WmqpuNItg2xwDxYe8ic064Zwyu7aS5GDihj6Lk5EdUSUlIIB9tBAZMI9Uez06rQAv4gTWbVaMgDfHOeyszYRyjSfuhW89F7ISF3tzwSJgCGWrqn5qO1h7gkxhQsXId16r3leeRYHx2U4vwUL88EaCI_13oqWQtwt6xx_M1xZamky2Gwudlq3ojUxuVwkcp8_ckprmjYdO7pF1A2CQQ4ruRTPZvvh0XxXT5gsRcFyaDEGfaQgKtX-aN-HnjwDoovz0Y-1DnRvtGHQ6GTEUZq1tbouvarNo8RKxl9tKkcSAQDCdSq77fn4VIlArJUe_UH0S6NMnDQB0qci_E4O3QrVgcnekUKbKR_ak_luu7S-MJ9Yd9jtwmFe-7lNh_YB7fc9CeZHmqSj9eGjydSfBJVBw-cOZRY7ccoJn8kSYuxmq3rf2KQ3TN3ig1O9ahVho6DZqdYxoFE8FuBRGB2qtdWmDHSJbrLsoTLL9-RLLMHm_7s97uUz9Jehm0FdQDFq5fd0yklpxPT_5jy6WUc8N9pKQzalH0JqfrIyYUN6eQFu7m00?></g></svg>