<svg xmlns="http://www.w3.org/2000/svg" xmlns:xlink="http://www.w3.org/1999/xlink" contentStyleType="text/css" data-diagram-type="DESCRIPTION" height="700px" preserveAspectRatio="none" style="width:679px;height:700px;background:#FFFFFF;" version="1.1" viewBox="0 0 679 700" width="679.6875px" zoomAndPan="magnify"><?plantuml 1.2026.4?><defs/><g><!--cluster Plateforme B2B FMCG Export--><g class="cluster" data-qualified-name="Plateforme B2B FMCG Export" data-source-line="15" id="ent0002"><rect fill="#EBF8FF" height="667.1875" rx="7.8125" ry="7.8125" style="stroke:#2B6CB0;stroke-width:3.125;" width="506.25" x="151.5625" y="10.9375"/><text fill="#1A365D" font-family="Segoe UI" font-size="25" font-weight="700" lengthAdjust="spacing" textLength="345.4102" x="231.9824" y="41.04">Plateforme B2B FMCG Export</text></g><!--entity UC1--><g class="entity" data-qualified-name="Plateforme B2B FMCG Export.UC1" data-source-line="16" id="ent0003"><ellipse cx="538.9273" cy="112.1547" fill="#FFFFFF" rx="93.6148" ry="37.1547" style="stroke:#319795;stroke-width:0.7813;"/><text fill="#2D3748" font-family="Segoe UI" font-size="18.75" lengthAdjust="spacing" textLength="78.9917" x="499.4314" y="102.5356">Consulter</text><text fill="#2D3748" font-family="Segoe UI" font-size="18.75" lengthAdjust="spacing" textLength="136.615" x="470.6198" y="127.4746">catalogue public</text></g><!--entity UC2--><g class="entity" data-qualified-name="Plateforme B2B FMCG Export.UC2" data-source-line="17" id="ent0004"><ellipse cx="264.0821" cy="113.8261" fill="#FFFFFF" rx="87.5196" ry="39.6074" style="stroke:#319795;stroke-width:0.7813;"/><text fill="#2D3748" font-family="Segoe UI" font-size="18.75" lengthAdjust="spacing" textLength="113.5071" x="207.3286" y="107.8611">Rechercher et</text><text fill="#2D3748" font-family="Segoe UI" font-size="18.75" lengthAdjust="spacing" textLength="118.3136" x="204.9253" y="132.8">filtrer produits</text></g><!--entity UC3--><g class="entity" data-qualified-name="Plateforme B2B FMCG Export.UC3" data-source-line="18" id="ent0005"><ellipse cx="538.704" cy="248.2232" fill="#FFFFFF" rx="75.4228" ry="38.067" style="stroke:#319795;stroke-width:0.7813;"/><text fill="#2D3748" font-family="Segoe UI" font-size="18.75" lengthAdjust="spacing" textLength="78.9917" x="499.2082" y="240.0019">Consulter</text><text fill="#2D3748" font-family="Segoe UI" font-size="18.75" lengthAdjust="spacing" textLength="105.6976" x="485.8552" y="264.9409">fiche produit</text></g><!--entity UC4--><g class="entity" data-qualified-name="Plateforme B2B FMCG Export.UC4" data-source-line="19" id="ent0006"><ellipse cx="263.9091" cy="381.1062" fill="#FFFFFF" rx="67.8154" ry="38.9187" style="stroke:#319795;stroke-width:0.7813;"/><text fill="#2D3748" font-family="Segoe UI" font-size="18.75" lengthAdjust="spacing" textLength="80.2368" x="223.7907" y="374.1468">Voir page</text><text fill="#2D3748" font-family="Segoe UI" font-size="18.75" lengthAdjust="spacing" textLength="91.983" x="217.9176" y="399.0857">fournisseur</text></g><!--entity UC5--><g class="entity" data-qualified-name="Plateforme B2B FMCG Export.UC5" data-source-line="20" id="ent0007"><ellipse cx="264.3291" cy="514.1444" fill="#FFFFFF" rx="58.8603" ry="38.3632" style="stroke:#319795;stroke-width:0.7813;"/><text fill="#2D3748" font-family="Segoe UI" font-size="18.75" lengthAdjust="spacing" textLength="80.2368" x="224.2107" y="510.985">Voir page</text><text fill="#2D3748" font-family="Segoe UI" font-size="18.75" lengthAdjust="spacing" textLength="63.6658" x="232.4962" y="535.924">marque</text></g><!--entity UC6--><g class="entity" data-qualified-name="Plateforme B2B FMCG Export.UC6" data-source-line="21" id="ent0008"><ellipse cx="263.8082" cy="248.0605" fill="#FFFFFF" rx="60.6832" ry="38.6855" style="stroke:#319795;stroke-width:0.7813;"/><text fill="#2D3748" font-family="Segoe UI" font-size="18.75" lengthAdjust="spacing" textLength="82.1503" x="222.733" y="244.4242">Comparer</text><text fill="#2D3748" font-family="Segoe UI" font-size="18.75" lengthAdjust="spacing" textLength="69.0308" x="229.2928" y="269.3631">produits</text></g><!--entity UC7--><g class="entity" data-qualified-name="Plateforme B2B FMCG Export.UC7" data-source-line="22" id="ent0009"><ellipse cx="264.4195" cy="629.3533" fill="#FFFFFF" rx="56.607" ry="22.322" style="stroke:#319795;stroke-width:0.7813;"/><text fill="#2D3748" font-family="Segoe UI" font-size="18.75" lengthAdjust="spacing" textLength="73.4253" x="227.7069" y="636.354">S'inscrire</text></g><!--entity Visitor--><g class="entity" data-qualified-name="Visitor" data-source-line="13" id="ent0001"><ellipse cx="46.0228" cy="334.375" fill="#FF6B6B" rx="12.5" ry="12.5" style="stroke:#2B6CB0;stroke-width:0.7813;"/><path d="M46.0228,346.875 L46.0228,389.0625 M25.7103,359.375 L66.3353,359.375 M46.0228,389.0625 L25.7103,412.5 M46.0228,389.0625 L66.3353,412.5" fill="none" style="stroke:#2B6CB0;stroke-width:0.7813;"/><text fill="#1A365D" font-family="Segoe UI" font-size="20.3125" font-weight="700" lengthAdjust="spacing" textLength="73.2956" x="9.375" y="436.763">Visiteur</text></g><!--link Visitor to UC1--><g class="link" data-entity-1="ent0001" data-entity-2="ent0003" data-link-type="dependency" data-source-line="25" id="lnk10"><path d="M83.0781,328.125 C183.6563,328.125 454.6875,328.125 454.6875,328.125 C454.6875,328.125 454.6875,188.0625 454.6875,137.2344" fill="none" id="Visitor-to-UC1" style="stroke:#2B6CB0;stroke-width:2.3438;"/><polygon fill="#2B6CB0" points="454.6875,129.4219,448.4375,143.4844,454.6875,137.2344,460.9375,143.4844,454.6875,129.4219" style="stroke:#2B6CB0;stroke-width:2.3438;stroke-linejoin:miter;stroke-miterlimit:10;"/></g><!--link Visitor to UC3--><g class="link" data-entity-1="ent0001" data-entity-2="ent0005" data-link-type="dependency" data-source-line="26" id="lnk11"><path d="M82.8125,335.1563 C193.1406,335.1563 514.0625,335.1563 514.0625,335.1563 C514.0625,335.1563 514.0625,316.2813 514.0625,292.5313" fill="none" id="Visitor-to-UC3" style="stroke:#2B6CB0;stroke-width:2.3438;"/><polygon fill="#2B6CB0" points="514.0625,284.7188,507.8125,298.7813,514.0625,292.5313,520.3125,298.7813,514.0625,284.7188" style="stroke:#2B6CB0;stroke-width:2.3438;stroke-linejoin:miter;stroke-miterlimit:10;"/></g><!--link Visitor to UC4--><g class="link" data-entity-1="ent0001" data-entity-2="ent0006" data-link-type="dependency" data-source-line="27" id="lnk12"><path d="M83.0625,381.25 C113.9219,381.25 150.8906,381.25 188.1875,381.25" fill="none" id="Visitor-to-UC4" style="stroke:#2B6CB0;stroke-width:2.3438;"/><polygon fill="#2B6CB0" points="196,381.25,181.9375,375,188.1875,381.25,181.9375,387.5,196,381.25" style="stroke:#2B6CB0;stroke-width:2.3438;stroke-linejoin:miter;stroke-miterlimit:10;"/></g><!--link Visitor to UC5--><g class="link" data-entity-1="ent0001" data-entity-2="ent0007" data-link-type="dependency" data-source-line="28" id="lnk13"><path d="M83.0625,430.8594 C145.25,430.8594 264.0625,430.8594 264.0625,430.8594 C264.0625,430.8594 264.0625,445.8438 264.0625,467.5781" fill="none" id="Visitor-to-UC5" style="stroke:#2B6CB0;stroke-width:2.3438;"/><polygon fill="#2B6CB0" points="264.0625,475.3906,270.3125,461.3281,264.0625,467.5781,257.8125,461.3281,264.0625,475.3906" style="stroke:#2B6CB0;stroke-width:2.3438;stroke-linejoin:miter;stroke-miterlimit:10;"/></g><!--link Visitor to UC7--><g class="link" data-entity-1="ent0001" data-entity-2="ent0009" data-link-type="dependency" data-source-line="29" id="lnk14"><path d="M46.875,442.0312 C46.875,515.5781 46.875,629.6875 46.875,629.6875 C46.875,629.6875 135.4063,629.6875 199.75,629.6875" fill="none" id="Visitor-to-UC7" style="stroke:#2B6CB0;stroke-width:2.3438;"/><polygon fill="#2B6CB0" points="207.5625,629.6875,193.5,623.4375,199.75,629.6875,193.5,635.9375,207.5625,629.6875" style="stroke:#2B6CB0;stroke-width:2.3438;stroke-linejoin:miter;stroke-miterlimit:10;"/></g><!--link UC2 to UC1--><g class="link" data-entity-1="ent0004" data-entity-2="ent0003" data-link-type="dependency" data-source-line="31" id="lnk15"><path d="M351.8281,112.5 C381.5313,112.5 407.0156,112.5 437.1875,112.5" fill="none" id="UC2-to-UC1" style="stroke:#2B6CB0;stroke-width:2.3438;stroke-dasharray:10.9375,10.9375;"/><polygon fill="#2B6CB0" points="445,112.5,430.9375,106.25,437.1875,112.5,430.9375,118.75,445,112.5" style="stroke:#2B6CB0;stroke-width:2.3438;stroke-linejoin:miter;stroke-miterlimit:10;"/><text fill="#4A5568" font-family="Segoe UI" font-size="15.625" lengthAdjust="spacing" textLength="62.6602" x="334.3594" y="130.9235">&#171;extend&#187;</text></g><!--link UC6 to UC3--><g class="link" data-entity-1="ent0008" data-entity-2="ent0005" data-link-type="dependency" data-source-line="32" id="lnk16"><path d="M325.0938,248.4375 C365.7656,248.4375 411.7031,248.4375 455.1563,248.4375" fill="none" id="UC6-to-UC3" style="stroke:#2B6CB0;stroke-width:2.3438;stroke-dasharray:10.9375,10.9375;"/><polygon fill="#2B6CB0" points="462.9688,248.4375,448.9063,242.1875,455.1563,248.4375,448.9063,254.6875,462.9688,248.4375" style="stroke:#2B6CB0;stroke-width:2.3438;stroke-linejoin:miter;stroke-miterlimit:10;"/><text fill="#4A5568" font-family="Segoe UI" font-size="15.625" lengthAdjust="spacing" textLength="62.6602" x="329.9688" y="266.861">&#171;extend&#187;</text></g><!--link UC7 to UC3--><g class="link" data-entity-1="ent0009" data-entity-2="ent0005" data-link-type="dependency" data-source-line="33" id="lnk17"><path d="M320.7813,629.6875 C408.1406,629.6875 565.625,629.6875 565.625,629.6875 C565.625,629.6875 565.625,387.0313 565.625,292.1094" fill="none" id="UC7-to-UC3" style="stroke:#2B6CB0;stroke-width:2.3438;stroke-dasharray:10.9375,10.9375;"/><polygon fill="#2B6CB0" points="565.625,284.2969,559.375,298.3594,565.625,292.1094,571.875,298.3594,565.625,284.2969" style="stroke:#2B6CB0;stroke-width:2.3438;stroke-linejoin:miter;stroke-miterlimit:10;"/><text fill="#4A5568" font-family="Segoe UI" font-size="15.625" lengthAdjust="spacing" textLength="62.6602" x="501.5625" y="597.8453">&#171;extend&#187;</text></g><?plantuml-src TP9DRnen48Rl_XLJUaXpW1G8IrL5IDqDcrEbA3ISSd6ymsBXzMp7jfGFzR_7YqmBgt9OoU-yZ-VB-qbRPKA5C1fTAMeQibVElneSjQ4nGhYTjgrasG2ZyjBM1k5T0EJ45N91XXW-J_AioB_-ZVxQQhMpw1nCkfXKkvefs2hHoxpyLfRHASdw51l_c6QpsnHRwJU4SNPGNJVmJAOIVuGmkF7W2LZNMm-LxhhIP8LKFkOPhBNJ7WCFG3hOYovxMMPvbWlnRuJ1lP4UDyGDGZx9eVnPtC7ofINsW_rymQ6I3k5BGTO5uv6Vh99U6ge3GXkUZLQNNP77OdoCFw3Q8dSVe7-o6sqyntFBL0NjNReoELDXe-FD0vpOwJ6x9XsJoHeZIu6jTYvEcyZhCsGZ-NV01CrEIpVnSRlAlGQpOsfreQrJ77UTt7dt4eVj3eUB_H9EzRIdhtjwrjDp8U9Qua-uJmRVuUO6NppQQh68HfQCQT-O_z_u0000?></g></svg>