<svg xmlns="http://www.w3.org/2000/svg" xmlns:xlink="http://www.w3.org/1999/xlink" contentStyleType="text/css" data-diagram-type="DESCRIPTION" height="1107.8125px" preserveAspectRatio="none" style="width:1259px;height:1107px;background:#FFFFFF;" version="1.1" viewBox="0 0 1259 1107" width="1259.375px" zoomAndPan="magnify"><?plantuml 1.2026.4?><defs/><g><!--cluster Plateforme B2B FMCG Export--><g class="cluster" data-qualified-name="Plateforme B2B FMCG Export" data-source-line="16" id="ent0002"><rect fill="#EBF8FF" height="957.8125" rx="7.8125" ry="7.8125" style="stroke:#2B6CB0;stroke-width:3.125;" width="954.6875" x="282.8125" y="10.9375"/><text fill="#1A365D" font-family="Segoe UI" font-size="25" font-weight="700" lengthAdjust="spacing" textLength="345.4102" x="587.4512" y="41.04">Plateforme B2B FMCG Export</text></g><!--entity UC_Login--><g class="entity" data-qualified-name="Plateforme B2B FMCG Export.UC_Login" data-source-line="17" id="ent0003"><ellipse cx="886.538" cy="527.7908" fill="#FFFFFF" rx="80.288" ry="22.322" style="stroke:#319795;stroke-width:0.7813;"/><text fill="#2D3748" font-family="Segoe UI" font-size="18.75" lengthAdjust="spacing" textLength="106.9153" x="833.0804" y="534.7915">Se connecter</text></g><!--entity UC_KYC--><g class="entity" data-qualified-name="Plateforme B2B FMCG Export.UC_KYC" data-source-line="18" id="ent0004"><ellipse cx="887.0248" cy="643.391" fill="#FFFFFF" rx="65.931" ry="37.141" style="stroke:#319795;stroke-width:0.7813;"/><text fill="#2D3748" font-family="Segoe UI" font-size="18.75" lengthAdjust="spacing" textLength="94.1254" x="839.9621" y="642.094">Gerer profil</text><text fill="#2D3748" font-family="Segoe UI" font-size="18.75" lengthAdjust="spacing" textLength="54.1443" x="859.9526" y="667.0329">et KYC</text></g><!--entity UC_Catalog--><g class="entity" data-qualified-name="Plateforme B2B FMCG Export.UC_Catalog" data-source-line="19" id="ent0005"><ellipse cx="395.2497" cy="243.6394" fill="#FFFFFF" rx="61.656" ry="39.7332" style="stroke:#319795;stroke-width:0.7813;"/><text fill="#2D3748" font-family="Segoe UI" font-size="18.75" lengthAdjust="spacing" textLength="78.9917" x="355.7539" y="237.8538">Consulter</text><text fill="#2D3748" font-family="Segoe UI" font-size="18.75" lengthAdjust="spacing" textLength="81.0791" x="354.7102" y="262.7927">catalogue</text></g><!--entity UC_Search--><g class="entity" data-qualified-name="Plateforme B2B FMCG Export.UC_Search" data-source-line="20" id="ent0006"><ellipse cx="395.3321" cy="377.8886" fill="#FFFFFF" rx="87.5196" ry="39.6074" style="stroke:#319795;stroke-width:0.7813;"/><text fill="#2D3748" font-family="Segoe UI" font-size="18.75" lengthAdjust="spacing" textLength="113.5071" x="338.5786" y="371.9236">Rechercher et</text><text fill="#2D3748" font-family="Segoe UI" font-size="18.75" lengthAdjust="spacing" textLength="118.3136" x="336.1753" y="396.8625">filtrer produits</text></g><!--entity UC_Product--><g class="entity" data-qualified-name="Plateforme B2B FMCG Export.UC_Product" data-source-line="21" id="ent0007"><ellipse cx="1136.3603" cy="840.4107" fill="#FFFFFF" rx="75.4228" ry="38.067" style="stroke:#319795;stroke-width:0.7813;"/><text fill="#2D3748" font-family="Segoe UI" font-size="18.75" lengthAdjust="spacing" textLength="78.9917" x="1096.8644" y="832.1894">Consulter</text><text fill="#2D3748" font-family="Segoe UI" font-size="18.75" lengthAdjust="spacing" textLength="105.6976" x="1083.5115" y="857.1284">fiche produit</text></g><!--entity UC_Favorite--><g class="entity" data-qualified-name="Plateforme B2B FMCG Export.UC_Favorite" data-source-line="22" id="ent0008"><ellipse cx="886.6713" cy="905.8841" fill="#FFFFFF" rx="66.3588" ry="37.1341" style="stroke:#319795;stroke-width:0.7813;"/><text fill="#2D3748" font-family="Segoe UI" font-size="18.75" lengthAdjust="spacing" textLength="94.8029" x="839.2698" y="904.5978">Ajouter aux</text><text fill="#2D3748" font-family="Segoe UI" font-size="18.75" lengthAdjust="spacing" textLength="54.3915" x="859.4755" y="929.5368">favoris</text></g><!--entity UC_Compare--><g class="entity" data-qualified-name="Plateforme B2B FMCG Export.UC_Compare" data-source-line="23" id="ent0009"><ellipse cx="886.4644" cy="774.623" fill="#FFFFFF" rx="60.6832" ry="38.6855" style="stroke:#319795;stroke-width:0.7813;"/><text fill="#2D3748" font-family="Segoe UI" font-size="18.75" lengthAdjust="spacing" textLength="82.1503" x="845.3893" y="770.9867">Comparer</text><text fill="#2D3748" font-family="Segoe UI" font-size="18.75" lengthAdjust="spacing" textLength="69.0308" x="851.949" y="795.9256">produits</text></g><!--entity UC_RFQ--><g class="entity" data-qualified-name="Plateforme B2B FMCG Export.UC_RFQ" data-source-line="24" id="ent0010"><ellipse cx="644.5869" cy="905.0319" fill="#FFFFFF" rx="61.7744" ry="38.6257" style="stroke:#319795;stroke-width:0.7813;"/><text fill="#2D3748" font-family="Segoe UI" font-size="18.75" lengthAdjust="spacing" textLength="83.8989" x="602.6374" y="901.4837">Creer RFQ</text><text fill="#2D3748" font-family="Segoe UI" font-size="18.75" lengthAdjust="spacing" textLength="69.7906" x="609.6916" y="926.4227">groupee</text></g><!--entity UC_Sample--><g class="entity" data-qualified-name="Plateforme B2B FMCG Export.UC_Sample" data-source-line="25" id="ent0011"><ellipse cx="644.7382" cy="771.5931" fill="#FFFFFF" rx="68.1757" ry="39.5619" style="stroke:#319795;stroke-width:0.7813;"/><text fill="#2D3748" font-family="Segoe UI" font-size="18.75" lengthAdjust="spacing" textLength="86.618" x="601.4292" y="765.563">Demander</text><text fill="#2D3748" font-family="Segoe UI" font-size="18.75" lengthAdjust="spacing" textLength="90.802" x="599.3372" y="790.502">echantillon</text></g><!--entity UC_History--><g class="entity" data-qualified-name="Plateforme B2B FMCG Export.UC_History" data-source-line="26" id="ent0012"><ellipse cx="395.4511" cy="110.9169" fill="#FFFFFF" rx="85.2948" ry="37.4794" style="stroke:#319795;stroke-width:0.7813;"/><text fill="#2D3748" font-family="Segoe UI" font-size="18.75" lengthAdjust="spacing" textLength="78.9917" x="355.9552" y="101.8013">Consulter</text><text fill="#2D3748" font-family="Segoe UI" font-size="18.75" lengthAdjust="spacing" textLength="122.6074" x="334.1474" y="126.7402">historique RFQ</text></g><!--entity UC_Quote--><g class="entity" data-qualified-name="Plateforme B2B FMCG Export.UC_Quote" data-source-line="27" id="ent0013"><ellipse cx="644.7519" cy="637.1943" fill="#FFFFFF" rx="62.7206" ry="39.5381" style="stroke:#319795;stroke-width:0.7813;"/><text fill="#2D3748" font-family="Segoe UI" font-size="18.75" lengthAdjust="spacing" textLength="78.9917" x="605.256" y="631.1302">Consulter</text><text fill="#2D3748" font-family="Segoe UI" font-size="18.75" lengthAdjust="spacing" textLength="83.0566" x="603.2236" y="656.0692">devis recu</text></g><!--entity UC_Message--><g class="entity" data-qualified-name="Plateforme B2B FMCG Export.UC_Message" data-source-line="28" id="ent0014"><ellipse cx="395.2721" cy="775.1131" fill="#FFFFFF" rx="54.6471" ry="39.1756" style="stroke:#319795;stroke-width:0.7813;"/><text fill="#2D3748" font-family="Segoe UI" font-size="18.75" lengthAdjust="spacing" textLength="65.4602" x="362.542" y="768.527">Envoyer</text><text fill="#2D3748" font-family="Segoe UI" font-size="18.75" lengthAdjust="spacing" textLength="72.2534" x="359.1454" y="793.466">message</text></g><!--entity UC_Negotiate--><g class="entity" data-qualified-name="Plateforme B2B FMCG Export.UC_Negotiate" data-source-line="29" id="ent0015"><ellipse cx="395.0563" cy="906.3503" fill="#FFFFFF" rx="54.4313" ry="37.6003" style="stroke:#319795;stroke-width:0.7813;"/><text fill="#2D3748" font-family="Segoe UI" font-size="18.75" lengthAdjust="spacing" textLength="75.3845" x="357.364" y="904.3426">Negocier</text><text fill="#2D3748" font-family="Segoe UI" font-size="18.75" lengthAdjust="spacing" textLength="50.2808" x="369.9159" y="929.2816">deviss</text></g><!--entity UC_Accept--><g class="entity" data-qualified-name="Plateforme B2B FMCG Export.UC_Accept" data-source-line="30" id="ent0016"><ellipse cx="395.1759" cy="511.1624" fill="#FFFFFF" rx="52.9884" ry="37.7249" style="stroke:#319795;stroke-width:0.7813;"/><text fill="#2D3748" font-family="Segoe UI" font-size="18.75" lengthAdjust="spacing" textLength="72.9218" x="358.715" y="508.9642">Accepter</text><text fill="#2D3748" font-family="Segoe UI" font-size="18.75" lengthAdjust="spacing" textLength="50.2808" x="370.0355" y="533.9032">deviss</text></g><!--entity UC_Reject--><g class="entity" data-qualified-name="Plateforme B2B FMCG Export.UC_Reject" data-source-line="31" id="ent0017"><ellipse cx="395.2152" cy="642.2659" fill="#FFFFFF" rx="46.7777" ry="38.3597" style="stroke:#319795;stroke-width:0.7813;"/><text fill="#2D3748" font-family="Segoe UI" font-size="18.75" lengthAdjust="spacing" textLength="61.7798" x="364.3253" y="638.864">Refuser</text><text fill="#2D3748" font-family="Segoe UI" font-size="18.75" lengthAdjust="spacing" textLength="50.2808" x="370.0748" y="663.8029">deviss</text></g><!--entity UC_Review--><g class="entity" data-qualified-name="Plateforme B2B FMCG Export.UC_Review" data-source-line="32" id="ent0018"><ellipse cx="887.0317" cy="413.6879" fill="#FFFFFF" rx="43.2817" ry="35.5629" style="stroke:#319795;stroke-width:0.7813;"/><text fill="#2D3748" font-family="Segoe UI" font-size="18.75" lengthAdjust="spacing" textLength="55.1422" x="859.4606" y="411.5529">Laisser</text><text fill="#2D3748" font-family="Segoe UI" font-size="18.75" lengthAdjust="spacing" textLength="31.0181" x="871.5227" y="436.4919">avis</text></g><!--entity Buyer--><g class="entity" data-qualified-name="Buyer" data-source-line="14" id="ent0001"><ellipse cx="112.1078" cy="979.6875" fill="#FF6B6B" rx="12.5" ry="12.5" style="stroke:#2B6CB0;stroke-width:0.7813;"/><path d="M112.1078,992.1875 L112.1078,1034.375 M91.7953,1004.6875 L132.4203,1004.6875 M112.1078,1034.375 L91.7953,1057.8125 M112.1078,1034.375 L132.4203,1057.8125" fill="none" style="stroke:#2B6CB0;stroke-width:0.7813;"/><text fill="#1A365D" font-family="Segoe UI" font-size="20.3125" font-weight="700" lengthAdjust="spacing" textLength="205.4657" x="9.375" y="1082.0755">Client B2B / Acheteur</text></g><!--link Buyer to UC_Catalog--><g class="link" data-entity-1="ent0001" data-entity-2="ent0005" data-link-type="dependency" data-source-line="35" id="lnk19"><path d="M146.875,965.7813 C146.875,781.8594 146.875,243.75 146.875,243.75 C146.875,243.75 251.8594,243.75 325.4531,243.75" fill="none" id="Buyer-to-UC_Catalog" style="stroke:#2B6CB0;stroke-width:2.3438;"/><polygon fill="#2B6CB0" points="333.2656,243.75,319.2031,237.5,325.4531,243.75,319.2031,250,333.2656,243.75" style="stroke:#2B6CB0;stroke-width:2.3438;stroke-linejoin:miter;stroke-miterlimit:10;"/></g><!--link Buyer to UC_Search--><g class="link" data-entity-1="ent0001" data-entity-2="ent0006" data-link-type="dependency" data-source-line="36" id="lnk20"><path d="M214.6094,986.4531 C269.1563,986.4531 325,986.4531 325,986.4531 C325,986.4531 325,522.25 325,409.7813" fill="none" id="Buyer-to-UC_Search" style="stroke:#2B6CB0;stroke-width:2.3438;"/><polygon fill="#2B6CB0" points="325,401.9688,318.75,416.0313,325,409.7813,331.25,416.0313,325,401.9688" style="stroke:#2B6CB0;stroke-width:2.3438;stroke-linejoin:miter;stroke-miterlimit:10;"/></g><!--link Buyer to UC_Product--><g class="link" data-entity-1="ent0001" data-entity-2="ent0007" data-link-type="dependency" data-source-line="37" id="lnk21"><path d="M214.2969,1066.6719 C474.0938,1066.6719 1137.5,1066.6719 1137.5,1066.6719 C1137.5,1066.6719 1137.5,951.2656 1137.5,886.7813" fill="none" id="Buyer-to-UC_Product" style="stroke:#2B6CB0;stroke-width:2.3438;"/><polygon fill="#2B6CB0" points="1137.5,878.9688,1131.25,893.0313,1137.5,886.7813,1143.75,893.0313,1137.5,878.9688" style="stroke:#2B6CB0;stroke-width:2.3438;stroke-linejoin:miter;stroke-miterlimit:10;"/></g><!--link Buyer to UC_RFQ--><g class="link" data-entity-1="ent0001" data-entity-2="ent0010" data-link-type="dependency" data-source-line="38" id="lnk22"><path d="M214.5938,1046.6094 C369.6563,1046.6094 645.3125,1046.6094 645.3125,1046.6094 C645.3125,1046.6094 645.3125,993.2969 645.3125,951.2812" fill="none" id="Buyer-to-UC_RFQ" style="stroke:#2B6CB0;stroke-width:2.3438;"/><polygon fill="#2B6CB0" points="645.3125,943.4687,639.0625,957.5312,645.3125,951.2812,651.5625,957.5312,645.3125,943.4687" style="stroke:#2B6CB0;stroke-width:2.3438;stroke-linejoin:miter;stroke-miterlimit:10;"/></g><!--link Buyer to UC_Sample--><g class="link" data-entity-1="ent0001" data-entity-2="ent0011" data-link-type="dependency" data-source-line="39" id="lnk23"><path d="M214.4375,1006.5156 C320.8906,1006.5156 471.875,1006.5156 471.875,1006.5156 C471.875,1006.5156 471.875,786.4531 471.875,786.4531 C471.875,786.4531 524.125,786.4531 573.4063,786.4531" fill="none" id="Buyer-to-UC_Sample" style="stroke:#2B6CB0;stroke-width:2.3438;"/><polygon fill="#2B6CB0" points="581.2188,786.4531,567.1563,780.2031,573.4063,786.4531,567.1563,792.7031,581.2188,786.4531" style="stroke:#2B6CB0;stroke-width:2.3438;stroke-linejoin:miter;stroke-miterlimit:10;"/></g><!--link Buyer to UC_History--><g class="link" data-entity-1="ent0001" data-entity-2="ent0012" data-link-type="dependency" data-source-line="40" id="lnk24"><path d="M78.125,965.7813 C78.125,761.2813 78.125,110.9375 78.125,110.9375 C78.125,110.9375 208.1406,110.9375 302.0781,110.9375" fill="none" id="Buyer-to-UC_History" style="stroke:#2B6CB0;stroke-width:2.3438;"/><polygon fill="#2B6CB0" points="309.8906,110.9375,295.8281,104.6875,302.0781,110.9375,295.8281,117.1875,309.8906,110.9375" style="stroke:#2B6CB0;stroke-width:2.3438;stroke-linejoin:miter;stroke-miterlimit:10;"/></g><!--link Buyer to UC_Quote--><g class="link" data-entity-1="ent0001" data-entity-2="ent0013" data-link-type="dependency" data-source-line="41" id="lnk25"><path d="M214.4688,1026.5625 C342.6875,1026.5625 545.3125,1026.5625 545.3125,1026.5625 C545.3125,1026.5625 545.3125,662.6563 545.3125,662.6563 C545.3125,662.6563 562.6875,662.6563 587.6875,662.6563" fill="none" id="Buyer-to-UC_Quote" style="stroke:#2B6CB0;stroke-width:2.3438;"/><polygon fill="#2B6CB0" points="595.5,662.6563,581.4375,656.4063,587.6875,662.6563,581.4375,668.9063,595.5,662.6563" style="stroke:#2B6CB0;stroke-width:2.3438;stroke-linejoin:miter;stroke-miterlimit:10;"/></g><!--link UC_RFQ to UC_Login--><g class="link" data-entity-1="ent0010" data-entity-2="ent0003" data-link-type="dependency" data-source-line="43" id="lnk26"><path d="M706.375,905.8594 C755.9219,905.8594 817.1875,905.8594 817.1875,905.8594 C817.1875,905.8594 817.1875,611.4063 817.1875,547.6563" fill="none" id="UC_RFQ-to-UC_Login" style="stroke:#2B6CB0;stroke-width:2.3438;stroke-dasharray:10.9375,10.9375;"/><polygon fill="#2B6CB0" points="817.1875,539.8438,810.9375,553.9063,817.1875,547.6563,823.4375,553.9063,817.1875,539.8438" style="stroke:#2B6CB0;stroke-width:2.3438;stroke-linejoin:miter;stroke-miterlimit:10;"/><text fill="#4A5568" font-family="Segoe UI" font-size="15.625" lengthAdjust="spacing" textLength="65.6509" x="750" y="796.6735">&#171;include&#187;</text></g><!--link UC_RFQ to UC_Favorite--><g class="link" data-entity-1="ent0010" data-entity-2="ent0008" data-link-type="dependency" data-source-line="44" id="lnk27"><path d="M697.6875,924.4063 C736.3906,924.4063 780.9844,924.4063 820.7969,924.4063" fill="none" id="UC_RFQ-to-UC_Favorite" style="stroke:#2B6CB0;stroke-width:2.3438;stroke-dasharray:10.9375,10.9375;"/><polygon fill="#2B6CB0" points="828.6094,924.4063,814.5469,918.1563,820.7969,924.4063,814.5469,930.6563,828.6094,924.4063" style="stroke:#2B6CB0;stroke-width:2.3438;stroke-linejoin:miter;stroke-miterlimit:10;"/><text fill="#4A5568" font-family="Segoe UI" font-size="15.625" lengthAdjust="spacing" textLength="65.6509" x="695.9531" y="942.8297">&#171;include&#187;</text></g><!--link UC_RFQ to UC_KYC--><g class="link" data-entity-1="ent0010" data-entity-2="ent0004" data-link-type="dependency" data-source-line="45" id="lnk28"><path d="M699.9375,887.3125 C729.2969,887.3125 759.375,887.3125 759.375,887.3125 C759.375,887.3125 759.375,653.6406 759.375,653.6406 C759.375,653.6406 783.4063,653.6406 815.2344,653.6406" fill="none" id="UC_RFQ-to-UC_KYC" style="stroke:#2B6CB0;stroke-width:2.3438;stroke-dasharray:10.9375,10.9375;"/><polygon fill="#2B6CB0" points="823.0469,653.6406,808.9844,647.3906,815.2344,653.6406,808.9844,659.8906,823.0469,653.6406" style="stroke:#2B6CB0;stroke-width:2.3438;stroke-linejoin:miter;stroke-miterlimit:10;"/><text fill="#4A5568" font-family="Segoe UI" font-size="15.625" lengthAdjust="spacing" textLength="65.6509" x="760.9375" y="763.3453">&#171;include&#187;</text></g><!--link UC_Sample to UC_Login--><g class="link" data-entity-1="ent0011" data-entity-2="ent0003" data-link-type="dependency" data-source-line="46" id="lnk29"><path d="M712.5156,773.8281 C759.6719,773.8281 814.0625,773.8281 814.0625,773.8281 C814.0625,773.8281 814.0625,591.8438 814.0625,545.875" fill="none" id="UC_Sample-to-UC_Login" style="stroke:#2B6CB0;stroke-width:2.3438;stroke-dasharray:10.9375,10.9375;"/><polygon fill="#2B6CB0" points="814.0625,538.0625,807.8125,552.125,814.0625,545.875,820.3125,552.125,814.0625,538.0625" style="stroke:#2B6CB0;stroke-width:2.3438;stroke-linejoin:miter;stroke-miterlimit:10;"/><text fill="#4A5568" font-family="Segoe UI" font-size="15.625" lengthAdjust="spacing" textLength="65.6509" x="746.875" y="725.1422">&#171;include&#187;</text></g><!--link UC_Quote to UC_Login--><g class="link" data-entity-1="ent0013" data-entity-2="ent0003" data-link-type="dependency" data-source-line="47" id="lnk30"><path d="M706.0156,629.9531 C753.4219,629.9531 810.9375,629.9531 810.9375,629.9531 C810.9375,629.9531 810.9375,567.9375 810.9375,543.9219" fill="none" id="UC_Quote-to-UC_Login" style="stroke:#2B6CB0;stroke-width:2.3438;stroke-dasharray:10.9375,10.9375;"/><polygon fill="#2B6CB0" points="810.9375,536.1094,804.6875,550.1719,810.9375,543.9219,817.1875,550.1719,810.9375,536.1094" style="stroke:#2B6CB0;stroke-width:2.3438;stroke-linejoin:miter;stroke-miterlimit:10;"/><text fill="#4A5568" font-family="Segoe UI" font-size="15.625" lengthAdjust="spacing" textLength="65.6509" x="738.2031" y="648.3766">&#171;include&#187;</text></g><!--link UC_Favorite to UC_Product--><g class="link" data-entity-1="ent0008" data-entity-2="ent0007" data-link-type="dependency" data-source-line="49" id="lnk31"><path d="M887.5,868.6094 C887.5,853.7812 887.5,840.2344 887.5,840.2344 C887.5,840.2344 979.4844,840.2344 1052.7813,840.2344" fill="none" id="UC_Favorite-to-UC_Product" style="stroke:#2B6CB0;stroke-width:2.3438;stroke-dasharray:10.9375,10.9375;"/><polygon fill="#2B6CB0" points="1060.5938,840.2344,1046.5313,833.9844,1052.7813,840.2344,1046.5313,846.4844,1060.5938,840.2344" style="stroke:#2B6CB0;stroke-width:2.3438;stroke-linejoin:miter;stroke-miterlimit:10;"/><text fill="#4A5568" font-family="Segoe UI" font-size="15.625" lengthAdjust="spacing" textLength="62.6602" x="895.7969" y="858.6578">&#171;extend&#187;</text></g><!--link UC_Compare to UC_Product--><g class="link" data-entity-1="ent0009" data-entity-2="ent0007" data-link-type="dependency" data-source-line="50" id="lnk32"><path d="M918.8906,808.2031 C964.25,808.2031 1039.1875,808.2031 1088.5938,808.2031" fill="none" id="UC_Compare-to-UC_Product" style="stroke:#2B6CB0;stroke-width:2.3438;stroke-dasharray:10.9375,10.9375;"/><polygon fill="#2B6CB0" points="1096.4063,808.2031,1082.3438,801.9531,1088.5938,808.2031,1082.3438,814.4531,1096.4063,808.2031" style="stroke:#2B6CB0;stroke-width:2.3438;stroke-linejoin:miter;stroke-miterlimit:10;"/><text fill="#4A5568" font-family="Segoe UI" font-size="15.625" lengthAdjust="spacing" textLength="62.6602" x="943.5781" y="826.6266">&#171;extend&#187;</text></g><!--link UC_Message to UC_Quote--><g class="link" data-entity-1="ent0014" data-entity-2="ent0013" data-link-type="dependency" data-source-line="51" id="lnk33"><path d="M447.0156,761.2031 C455.1563,761.2031 460.9375,761.2031 460.9375,761.2031 C460.9375,761.2031 460.9375,633.2813 460.9375,633.2813 C460.9375,633.2813 521.2969,633.2813 574.5625,633.2813" fill="none" id="UC_Message-to-UC_Quote" style="stroke:#2B6CB0;stroke-width:2.3438;stroke-dasharray:10.9375,10.9375;"/><polygon fill="#2B6CB0" points="582.375,633.2813,568.3125,627.0313,574.5625,633.2813,568.3125,639.5313,582.375,633.2813" style="stroke:#2B6CB0;stroke-width:2.3438;stroke-linejoin:miter;stroke-miterlimit:10;"/><text fill="#4A5568" font-family="Segoe UI" font-size="15.625" lengthAdjust="spacing" textLength="62.6602" x="462.5" y="661.9078">&#171;extend&#187;</text></g><!--link UC_Negotiate to UC_Quote--><g class="link" data-entity-1="ent0015" data-entity-2="ent0013" data-link-type="dependency" data-source-line="52" id="lnk34"><path d="M450.5156,905.8594 C481.5313,905.8594 514.0625,905.8594 514.0625,905.8594 C514.0625,905.8594 514.0625,647.9688 514.0625,647.9688 C514.0625,647.9688 542,647.9688 576.0625,647.9688" fill="none" id="UC_Negotiate-to-UC_Quote" style="stroke:#2B6CB0;stroke-width:2.3438;stroke-dasharray:10.9375,10.9375;"/><polygon fill="#2B6CB0" points="583.875,647.9688,569.8125,641.7188,576.0625,647.9688,569.8125,654.2188,583.875,647.9688" style="stroke:#2B6CB0;stroke-width:2.3438;stroke-linejoin:miter;stroke-miterlimit:10;"/><text fill="#4A5568" font-family="Segoe UI" font-size="15.625" lengthAdjust="spacing" textLength="62.6602" x="450" y="792.2047">&#171;extend&#187;</text></g><!--link UC_Accept to UC_Quote--><g class="link" data-entity-1="ent0016" data-entity-2="ent0013" data-link-type="dependency" data-source-line="53" id="lnk35"><path d="M443.5156,526.9531 C516.1563,526.9531 645.3125,526.9531 645.3125,526.9531 C645.3125,526.9531 645.3125,558.1094 645.3125,589.7813" fill="none" id="UC_Accept-to-UC_Quote" style="stroke:#2B6CB0;stroke-width:2.3438;stroke-dasharray:10.9375,10.9375;"/><polygon fill="#2B6CB0" points="645.3125,597.5938,651.5625,583.5313,645.3125,589.7813,639.0625,583.5313,645.3125,597.5938" style="stroke:#2B6CB0;stroke-width:2.3438;stroke-linejoin:miter;stroke-miterlimit:10;"/><text fill="#4A5568" font-family="Segoe UI" font-size="15.625" lengthAdjust="spacing" textLength="62.6602" x="515.6719" y="545.3766">&#171;extend&#187;</text></g><!--link UC_Reject to UC_Quote--><g class="link" data-entity-1="ent0017" data-entity-2="ent0013" data-link-type="dependency" data-source-line="54" id="lnk36"><path d="M432.625,618.5938 C474.1719,618.5938 533.9375,618.5938 581.5938,618.5938" fill="none" id="UC_Reject-to-UC_Quote" style="stroke:#2B6CB0;stroke-width:2.3438;stroke-dasharray:10.9375,10.9375;"/><polygon fill="#2B6CB0" points="589.4063,618.5938,575.3438,612.3438,581.5938,618.5938,575.3438,624.8438,589.4063,618.5938" style="stroke:#2B6CB0;stroke-width:2.3438;stroke-linejoin:miter;stroke-miterlimit:10;"/><text fill="#4A5568" font-family="Segoe UI" font-size="15.625" lengthAdjust="spacing" textLength="62.6602" x="446.9531" y="637.0172">&#171;extend&#187;</text></g><!--link UC_Review to UC_Product--><g class="link" data-entity-1="ent0018" data-entity-2="ent0007" data-link-type="dependency" data-source-line="55" id="lnk37"><path d="M929.8281,414.0625 C1001.5313,414.0625 1137.5,414.0625 1137.5,414.0625 C1137.5,414.0625 1137.5,689.2031 1137.5,794.2031" fill="none" id="UC_Review-to-UC_Product" style="stroke:#2B6CB0;stroke-width:2.3438;stroke-dasharray:10.9375,10.9375;"/><polygon fill="#2B6CB0" points="1137.5,802.0156,1143.75,787.9531,1137.5,794.2031,1131.25,787.9531,1137.5,802.0156" style="stroke:#2B6CB0;stroke-width:2.3438;stroke-linejoin:miter;stroke-miterlimit:10;"/><text fill="#4A5568" font-family="Segoe UI" font-size="15.625" lengthAdjust="spacing" textLength="62.6602" x="1073.4375" y="522.6266">&#171;extend&#187;</text></g><?plantuml-src XPHTRzCm58RlyoiEvGOkrh8YAeIcIatM38aDRIrS85L2nZbDlJfsSEpIWlZls7KIubPjBoB5hv_pvRpE2oOeDnb2lp-WiYYa65Hwnx5Vce97KRLceYIA5A2GQY9oZl0d0eYbob0baai5BuVnA8dVjEgN5QDhWLK5GwSHkiwLD2AhwMcSlazJkvDAeMljUl9szEwsrkRiDyBrg5cvRk27v5dqDueuBZLe2OhbAmqPSrqnAQA8K6qJzHBEK6Y8Xp4CO49NgD6e7f0AOhD3MobDH_4eZgB_u_GUET6ubAh0VLpwaDp1T5jAfNlxMKs5b5G8h-O8L0fX8r6zTZc_9j_lPSv45xf3PUkKIYuPNmZKyEbRqi3sjOicKbI6ssGBGOacNEO66pJnGXUVePr7kGTGBuJDh-jIcM6wQYBdI2nqeiwIsVWcf8buT4kgko6JPsbi012pjK5a8nLh2wJxfSQmH65juYeSjbFl1B12ctgMFYs4SqQ9xTHMwuAtM12HkQnsT28quroATavIb1nFpBbYbVK3-sdGrMb2FkxLtOcO33UiSZut3VzaP3ZcL6paph65jJV9sxuV_BABViPSKjRcRS_3wPgHCE-4KYprCUprq0HB-tu4pl0PmozuJ-os0yc6TR0Dmr_k8ldhS7Krxfej46iV1LhZb41q7osCz5ycq9gZ3qH_lf7FOVz0u_P6mGUukQb_JUFn0T4Oy2naxzhnlk_iGgLzL-UOgDj3pTKdioTngr5aFbbj_qjORQ06yoqSGgrrpcFUDESPxvTBZ3FBsSx_0G00?></g></svg>