<svg xmlns="http://www.w3.org/2000/svg" xmlns:xlink="http://www.w3.org/1999/xlink" contentStyleType="text/css" data-diagram-type="CLASS" height="1256.25px" preserveAspectRatio="none" style="width:1650px;height:1256px;background:#FFFFFF;" version="1.1" viewBox="0 0 1650 1256" width="1650px" zoomAndPan="magnify"><?plantuml 1.2026.4?><defs/><g><g class="title" data-source-line="15"><rect fill="#EBF8FF" height="53.0334" rx="7.8125" ry="7.8125" style="stroke:#CBD5E0;stroke-width:1.5625;" width="1031.8466" x="303.7407" y="7.8125"/><text fill="#1A365D" font-family="Segoe UI" font-size="28.125" font-weight="700" lengthAdjust="spacing" textLength="1016.2216" x="311.5532" y="45.9747">Diagramme de classes - Configuration dynamique des attributs par categorie</text></g><!--cluster Configuration--><g class="cluster" data-qualified-name="Configuration" data-source-line="19" id="ent0001"><path d="M63.2813,362.4084 L190.2328,362.4084 A11.7188,11.7188 0 0 1 198.0453,370.2209 L208.9828,398.8007 L1167.1875,398.8007 A7.8125,7.8125 0 0 1 1175,406.6132 L1175,1101.4709 A7.8125,7.8125 0 0 1 1167.1875,1109.2834 L63.2813,1109.2834 A7.8125,7.8125 0 0 1 55.4688,1101.4709 L55.4688,370.2209 A7.8125,7.8125 0 0 1 63.2813,362.4084" fill="#FAF5FF" style="stroke:#D6BCFA;stroke-width:2.3438;"/><line style="stroke:#D6BCFA;stroke-width:2.3438;" x1="55.4688" x2="208.9828" y1="398.8007" y2="398.8007"/><text fill="#2D3748" font-family="Segoe UI" font-size="20.3125" font-weight="700" lengthAdjust="spacing" textLength="133.2016" x="61.7188" y="387.4527">Configuration</text><text fill="#2D3748" font-family="Segoe UI" font-size="15.625" font-weight="700" lengthAdjust="spacing" textLength="67.0166" x="587.9761" y="418.7866">&#171;Config&#187;</text></g><!--cluster Catalogue--><g class="cluster" data-qualified-name="Catalogue" data-source-line="73" id="ent0006"><path d="M471.875,79.5959 L562.1094,79.5959 A11.7188,11.7188 0 0 1 569.9219,87.4084 L580.8594,115.9882 L765.625,115.9882 A7.8125,7.8125 0 0 1 773.4375,123.8007 L773.4375,317.0959 A7.8125,7.8125 0 0 1 765.625,324.9084 L471.875,324.9084 A7.8125,7.8125 0 0 1 464.0625,317.0959 L464.0625,87.4084 A7.8125,7.8125 0 0 1 471.875,79.5959" fill="#EBF8FF" style="stroke:#90CDF4;stroke-width:2.3438;"/><line style="stroke:#90CDF4;stroke-width:2.3438;" x1="464.0625" x2="580.8594" y1="115.9882" y2="115.9882"/><text fill="#2D3748" font-family="Segoe UI" font-size="20.3125" font-weight="700" lengthAdjust="spacing" textLength="96.4844" x="470.3125" y="104.6402">Catalogue</text><text fill="#2D3748" font-family="Segoe UI" font-size="15.625" font-weight="700" lengthAdjust="spacing" textLength="74.4705" x="587.7647" y="135.9741">&#171;Catalog&#187;</text></g><!--class ProductCategory--><g class="entity" data-qualified-name="Configuration.ProductCategory" data-source-line="20" id="ent0002"><rect fill="#FFFFFF" height="267.1997" rx="7.8125" ry="7.8125" style="stroke:#2B6CB0;stroke-width:2.3438;" width="243.2861" x="80.4688" y="467.8772"/><rect fill="#EBF8FF" height="46.875" rx="7.8125" ry="7.8125" style="stroke:#EBF8FF;stroke-width:2.3438;" width="243.2861" x="80.4688" y="467.8772"/><rect fill="#EBF8FF" height="7.8125" style="stroke:#EBF8FF;stroke-width:2.3438;" width="243.2861" x="80.4688" y="506.9397"/><rect fill="none" height="267.1997" rx="7.8125" ry="7.8125" style="stroke:#2B6CB0;stroke-width:2.3438;" width="243.2861" x="80.4688" y="467.8772"/><ellipse cx="138.3789" cy="491.3147" fill="#ADD1B2" rx="15.625" ry="15.625" style="stroke:#181818;stroke-width:1.5625;"/><path d="M140.6982,486.9446 Q140.8691,486.7004 141.0645,486.5784 Q141.2842,486.4563 141.5283,486.4563 Q141.9434,486.4563 142.1875,486.7493 Q142.4561,487.0422 142.4561,487.7014 L142.4561,489.3127 Q142.4561,489.9719 142.1875,490.2649 Q141.9434,490.5579 141.5283,490.5579 Q141.1377,490.5579 140.918,490.3381 Q140.6982,490.1428 140.5762,489.5569 Q140.5273,489.1663 140.332,488.9709 Q139.9414,488.5559 139.2578,488.3118 Q138.5986,488.0676 137.915,488.0676 Q137.085,488.0676 136.377,488.4338 Q135.6689,488.8 135.1318,489.6301 Q134.5947,490.4358 134.5947,491.5833 L134.5947,492.804 Q134.5947,494.1467 135.5713,495.05 Q136.5723,495.9534 138.3057,495.9534 Q139.3555,495.9534 140.0879,495.6848 Q140.5029,495.5139 140.9668,495.0256 Q141.2598,494.7327 141.4307,494.6594 Q141.6016,494.5618 141.7969,494.5618 Q142.1875,494.5618 142.4561,494.8547 Q142.749,495.1233 142.749,495.5139 Q142.749,495.9045 142.3584,496.344 Q141.7969,496.9788 140.918,497.345 Q139.7461,497.8333 138.3301,497.8333 Q136.6455,497.8333 135.3271,497.1497 Q134.2285,496.6125 133.4717,495.4163 Q132.7148,494.22 132.7148,492.8284 L132.7148,491.5588 Q132.7148,490.094 133.3984,488.8245 Q134.082,487.5549 135.2783,486.8713 Q136.499,486.1877 137.8418,486.1877 Q138.6719,486.1877 139.3799,486.3831 Q140.0879,486.554 140.6982,486.9446 Z " fill="#000000"/><text fill="#4A5568" font-family="Segoe UI" font-size="15.625" lengthAdjust="spacing" textLength="116.333" x="166.6992" y="497.7844">ProductCategory</text><line style="stroke:#2B6CB0;stroke-width:2.3438;" x1="82.0313" x2="322.1924" y1="514.7522" y2="514.7522"/><g data-visibility-modifier="PRIVATE_FIELD"><rect fill="none" height="9.375" style="stroke:#C82930;stroke-width:1.5625;" width="9.375" x="92.9688" y="529.0497"/></g><text fill="#4A5568" font-family="Segoe UI" font-size="15.625" lengthAdjust="spacing" textLength="57.2357" x="110.1563" y="537.8632">id: UUID</text><g data-visibility-modifier="PRIVATE_FIELD"><rect fill="none" height="9.375" style="stroke:#C82930;stroke-width:1.5625;" width="9.375" x="92.9688" y="549.8322"/></g><text fill="#4A5568" font-family="Segoe UI" font-size="15.625" lengthAdjust="spacing" textLength="138.5956" x="110.1563" y="558.6456">name: LocalizedText</text><g data-visibility-modifier="PRIVATE_FIELD"><rect fill="none" height="9.375" style="stroke:#C82930;stroke-width:1.5625;" width="9.375" x="92.9688" y="570.6146"/></g><text fill="#4A5568" font-family="Segoe UI" font-size="15.625" lengthAdjust="spacing" textLength="168.8766" x="110.1563" y="579.4281">parent: ProductCategory</text><g data-visibility-modifier="PRIVATE_FIELD"><rect fill="none" height="9.375" style="stroke:#C82930;stroke-width:1.5625;" width="9.375" x="92.9688" y="591.3971"/></g><text fill="#4A5568" font-family="Segoe UI" font-size="15.625" lengthAdjust="spacing" textLength="204.2236" x="110.1563" y="600.2106">productFamily: ProductFamily</text><g data-visibility-modifier="PRIVATE_FIELD"><rect fill="none" height="9.375" style="stroke:#C82930;stroke-width:1.5625;" width="9.375" x="92.9688" y="612.1796"/></g><text fill="#4A5568" font-family="Segoe UI" font-size="15.625" lengthAdjust="spacing" textLength="109.4666" x="110.1563" y="620.993">isFood: boolean</text><g data-visibility-modifier="PRIVATE_FIELD"><rect fill="none" height="9.375" style="stroke:#C82930;stroke-width:1.5625;" width="9.375" x="92.9688" y="632.962"/></g><text fill="#4A5568" font-family="Segoe UI" font-size="15.625" lengthAdjust="spacing" textLength="190.4831" x="110.1563" y="641.7755">requiresColdChain: boolean</text><g data-visibility-modifier="PRIVATE_FIELD"><rect fill="none" height="9.375" style="stroke:#C82930;stroke-width:1.5625;" width="9.375" x="92.9688" y="653.7445"/></g><text fill="#4A5568" font-family="Segoe UI" font-size="15.625" lengthAdjust="spacing" textLength="199.7604" x="110.1563" y="662.558">requiresLotTracking: boolean</text><g data-visibility-modifier="PRIVATE_FIELD"><rect fill="none" height="9.375" style="stroke:#C82930;stroke-width:1.5625;" width="9.375" x="92.9688" y="674.527"/></g><text fill="#4A5568" font-family="Segoe UI" font-size="15.625" lengthAdjust="spacing" textLength="181.694" x="110.1563" y="683.3405">requiresNutrition: boolean</text><g data-visibility-modifier="PRIVATE_FIELD"><rect fill="none" height="9.375" style="stroke:#C82930;stroke-width:1.5625;" width="9.375" x="92.9688" y="695.3094"/></g><text fill="#4A5568" font-family="Segoe UI" font-size="15.625" lengthAdjust="spacing" textLength="204.0863" x="110.1563" y="704.1229">requiresAllergenInfo: boolean</text><g data-visibility-modifier="PRIVATE_FIELD"><rect fill="none" height="9.375" style="stroke:#C82930;stroke-width:1.5625;" width="9.375" x="92.9688" y="716.0919"/></g><text fill="#4A5568" font-family="Segoe UI" font-size="15.625" lengthAdjust="spacing" textLength="147.1329" x="110.1563" y="724.9054">requiresSDS: boolean</text></g><!--class CategoryAttribute--><g class="entity" data-qualified-name="Configuration.CategoryAttribute" data-source-line="33" id="ent0003"><rect fill="#FFFFFF" height="287.9822" rx="7.8125" ry="7.8125" style="stroke:#2B6CB0;stroke-width:2.3438;" width="223.0453" x="507.0313" y="796.7834"/><rect fill="#EBF8FF" height="46.875" rx="7.8125" ry="7.8125" style="stroke:#EBF8FF;stroke-width:2.3438;" width="223.0453" x="507.0313" y="796.7834"/><rect fill="#EBF8FF" height="7.8125" style="stroke:#EBF8FF;stroke-width:2.3438;" width="223.0453" x="507.0313" y="835.8459"/><rect fill="none" height="287.9822" rx="7.8125" ry="7.8125" style="stroke:#2B6CB0;stroke-width:2.3438;" width="223.0453" x="507.0313" y="796.7834"/><ellipse cx="552.4651" cy="820.2209" fill="#ADD1B2" rx="15.625" ry="15.625" style="stroke:#181818;stroke-width:1.5625;"/><path d="M554.7844,815.8508 Q554.9553,815.6067 555.1506,815.4846 Q555.3703,815.3625 555.6145,815.3625 Q556.0295,815.3625 556.2737,815.6555 Q556.5422,815.9485 556.5422,816.6077 L556.5422,818.219 Q556.5422,818.8782 556.2737,819.1711 Q556.0295,819.4641 555.6145,819.4641 Q555.2238,819.4641 555.0041,819.2444 Q554.7844,819.0491 554.6623,818.4631 Q554.6135,818.0725 554.4182,817.8772 Q554.0276,817.4622 553.344,817.218 Q552.6848,816.9739 552.0012,816.9739 Q551.1711,816.9739 550.4631,817.3401 Q549.7551,817.7063 549.218,818.5364 Q548.6809,819.342 548.6809,820.4895 L548.6809,821.7102 Q548.6809,823.053 549.6574,823.9563 Q550.6584,824.8596 552.3918,824.8596 Q553.4416,824.8596 554.174,824.5911 Q554.5891,824.4202 555.0529,823.9319 Q555.3459,823.6389 555.5168,823.5657 Q555.6877,823.468 555.883,823.468 Q556.2737,823.468 556.5422,823.761 Q556.8352,824.0295 556.8352,824.4202 Q556.8352,824.8108 556.4445,825.2502 Q555.883,825.885 555.0041,826.2512 Q553.8322,826.7395 552.4162,826.7395 Q550.7317,826.7395 549.4133,826.0559 Q548.3147,825.5188 547.5578,824.3225 Q546.801,823.1262 546.801,821.7346 L546.801,820.4651 Q546.801,819.0002 547.4846,817.7307 Q548.1682,816.4612 549.3645,815.7776 Q550.5852,815.094 551.9279,815.094 Q552.758,815.094 553.466,815.2893 Q554.174,815.4602 554.7844,815.8508 Z " fill="#000000"/><text fill="#4A5568" font-family="Segoe UI" font-size="15.625" lengthAdjust="spacing" textLength="123.8174" x="578.0128" y="826.6907">CategoryAttribute</text><line style="stroke:#2B6CB0;stroke-width:2.3438;" x1="508.5938" x2="728.5141" y1="843.6584" y2="843.6584"/><g data-visibility-modifier="PRIVATE_FIELD"><rect fill="none" height="9.375" style="stroke:#C82930;stroke-width:1.5625;" width="9.375" x="519.5313" y="857.9559"/></g><text fill="#4A5568" font-family="Segoe UI" font-size="15.625" lengthAdjust="spacing" textLength="57.2357" x="536.7188" y="866.7694">id: UUID</text><g data-visibility-modifier="PRIVATE_FIELD"><rect fill="none" height="9.375" style="stroke:#C82930;stroke-width:1.5625;" width="9.375" x="519.5313" y="878.7384"/></g><text fill="#4A5568" font-family="Segoe UI" font-size="15.625" lengthAdjust="spacing" textLength="183.9828" x="536.7188" y="887.5519">category: ProductCategory</text><g data-visibility-modifier="PRIVATE_FIELD"><rect fill="none" height="9.375" style="stroke:#C82930;stroke-width:1.5625;" width="9.375" x="519.5313" y="899.5209"/></g><text fill="#4A5568" font-family="Segoe UI" font-size="15.625" lengthAdjust="spacing" textLength="85.2737" x="536.7188" y="908.3344">name: string</text><g data-visibility-modifier="PRIVATE_FIELD"><rect fill="none" height="9.375" style="stroke:#C82930;stroke-width:1.5625;" width="9.375" x="519.5313" y="920.3033"/></g><text fill="#4A5568" font-family="Segoe UI" font-size="15.625" lengthAdjust="spacing" textLength="133.049" x="536.7188" y="929.1168">label: LocalizedText</text><g data-visibility-modifier="PRIVATE_FIELD"><rect fill="none" height="9.375" style="stroke:#C82930;stroke-width:1.5625;" width="9.375" x="519.5313" y="941.0858"/></g><text fill="#4A5568" font-family="Segoe UI" font-size="15.625" lengthAdjust="spacing" textLength="132.3624" x="536.7188" y="949.8993">type: AttributeType</text><g data-visibility-modifier="PRIVATE_FIELD"><rect fill="none" height="9.375" style="stroke:#C82930;stroke-width:1.5625;" width="9.375" x="519.5313" y="961.8683"/></g><text fill="#4A5568" font-family="Segoe UI" font-size="15.625" lengthAdjust="spacing" textLength="73.616" x="536.7188" y="970.6818">unit: string</text><g data-visibility-modifier="PRIVATE_FIELD"><rect fill="none" height="9.375" style="stroke:#C82930;stroke-width:1.5625;" width="9.375" x="519.5313" y="982.6508"/></g><text fill="#4A5568" font-family="Segoe UI" font-size="15.625" lengthAdjust="spacing" textLength="122.1466" x="536.7188" y="991.4642">required: boolean</text><g data-visibility-modifier="PRIVATE_FIELD"><rect fill="none" height="9.375" style="stroke:#C82930;stroke-width:1.5625;" width="9.375" x="519.5313" y="1003.4332"/></g><text fill="#4A5568" font-family="Segoe UI" font-size="15.625" lengthAdjust="spacing" textLength="124.3591" x="536.7188" y="1012.2467">filterable: boolean</text><g data-visibility-modifier="PRIVATE_FIELD"><rect fill="none" height="9.375" style="stroke:#C82930;stroke-width:1.5625;" width="9.375" x="519.5313" y="1024.2157"/></g><text fill="#4A5568" font-family="Segoe UI" font-size="15.625" lengthAdjust="spacing" textLength="137.2452" x="536.7188" y="1033.0292">searchable: boolean</text><g data-visibility-modifier="PRIVATE_FIELD"><rect fill="none" height="9.375" style="stroke:#C82930;stroke-width:1.5625;" width="9.375" x="519.5313" y="1044.9982"/></g><text fill="#4A5568" font-family="Segoe UI" font-size="15.625" lengthAdjust="spacing" textLength="145.401" x="536.7188" y="1053.8116">comparable: boolean</text><g data-visibility-modifier="PRIVATE_FIELD"><rect fill="none" height="9.375" style="stroke:#C82930;stroke-width:1.5625;" width="9.375" x="519.5313" y="1065.7806"/></g><text fill="#4A5568" font-family="Segoe UI" font-size="15.625" lengthAdjust="spacing" textLength="144.2261" x="536.7188" y="1074.5941">validationRule: string</text></g><!--class ProductAttributeValue--><g class="entity" data-qualified-name="Configuration.ProductAttributeValue" data-source-line="47" id="ent0004"><rect fill="#FFFFFF" height="225.6348" rx="7.8125" ry="7.8125" style="stroke:#2B6CB0;stroke-width:2.3438;" width="229.7974" x="920.3125" y="634.2834"/><rect fill="#EBF8FF" height="46.875" rx="7.8125" ry="7.8125" style="stroke:#EBF8FF;stroke-width:2.3438;" width="229.7974" x="920.3125" y="634.2834"/><rect fill="#EBF8FF" height="7.8125" style="stroke:#EBF8FF;stroke-width:2.3438;" width="229.7974" x="920.3125" y="673.3459"/><rect fill="none" height="225.6348" rx="7.8125" ry="7.8125" style="stroke:#2B6CB0;stroke-width:2.3438;" width="229.7974" x="920.3125" y="634.2834"/><ellipse cx="955.3265" cy="657.7209" fill="#ADD1B2" rx="15.625" ry="15.625" style="stroke:#181818;stroke-width:1.5625;"/><path d="M957.6458,653.3508 Q957.8167,653.1067 958.012,652.9846 Q958.2317,652.8625 958.4759,652.8625 Q958.8909,652.8625 959.1351,653.1555 Q959.4036,653.4485 959.4036,654.1077 L959.4036,655.719 Q959.4036,656.3782 959.1351,656.6711 Q958.8909,656.9641 958.4759,656.9641 Q958.0853,656.9641 957.8655,656.7444 Q957.6458,656.5491 957.5237,655.9631 Q957.4749,655.5725 957.2796,655.3772 Q956.889,654.9622 956.2054,654.718 Q955.5462,654.4739 954.8626,654.4739 Q954.0325,654.4739 953.3245,654.8401 Q952.6165,655.2063 952.0794,656.0364 Q951.5423,656.842 951.5423,657.9895 L951.5423,659.2102 Q951.5423,660.553 952.5188,661.4563 Q953.5198,662.3596 955.2532,662.3596 Q956.303,662.3596 957.0354,662.0911 Q957.4505,661.9202 957.9144,661.4319 Q958.2073,661.1389 958.3782,661.0657 Q958.5491,660.968 958.7444,660.968 Q959.1351,660.968 959.4036,661.261 Q959.6966,661.5295 959.6966,661.9202 Q959.6966,662.3108 959.306,662.7502 Q958.7444,663.385 957.8655,663.7512 Q956.6936,664.2395 955.2776,664.2395 Q953.5931,664.2395 952.2747,663.5559 Q951.1761,663.0188 950.4192,661.8225 Q949.6624,660.6262 949.6624,659.2346 L949.6624,657.9651 Q949.6624,656.5002 950.346,655.2307 Q951.0296,653.9612 952.2259,653.2776 Q953.4466,652.594 954.7894,652.594 Q955.6194,652.594 956.3274,652.7893 Q957.0354,652.9602 957.6458,653.3508 Z " fill="#000000"/><text fill="#4A5568" font-family="Segoe UI" font-size="15.625" lengthAdjust="spacing" textLength="153.7247" x="978.5587" y="664.1907">ProductAttributeValue</text><line style="stroke:#2B6CB0;stroke-width:2.3438;" x1="921.875" x2="1148.5474" y1="681.1584" y2="681.1584"/><g data-visibility-modifier="PRIVATE_FIELD"><rect fill="none" height="9.375" style="stroke:#C82930;stroke-width:1.5625;" width="9.375" x="932.8125" y="695.4559"/></g><text fill="#4A5568" font-family="Segoe UI" font-size="15.625" lengthAdjust="spacing" textLength="57.2357" x="950" y="704.2694">id: UUID</text><g data-visibility-modifier="PRIVATE_FIELD"><rect fill="none" height="9.375" style="stroke:#C82930;stroke-width:1.5625;" width="9.375" x="932.8125" y="716.2384"/></g><text fill="#4A5568" font-family="Segoe UI" font-size="15.625" lengthAdjust="spacing" textLength="115.8905" x="950" y="725.0519">product: Product</text><g data-visibility-modifier="PRIVATE_FIELD"><rect fill="none" height="9.375" style="stroke:#C82930;stroke-width:1.5625;" width="9.375" x="932.8125" y="737.0209"/></g><text fill="#4A5568" font-family="Segoe UI" font-size="15.625" lengthAdjust="spacing" textLength="190.7349" x="950" y="745.8344">attribute: CategoryAttribute</text><g data-visibility-modifier="PRIVATE_FIELD"><rect fill="none" height="9.375" style="stroke:#C82930;stroke-width:1.5625;" width="9.375" x="932.8125" y="757.8033"/></g><text fill="#4A5568" font-family="Segoe UI" font-size="15.625" lengthAdjust="spacing" textLength="111.908" x="950" y="766.6168">valueText: string</text><g data-visibility-modifier="PRIVATE_FIELD"><rect fill="none" height="9.375" style="stroke:#C82930;stroke-width:1.5625;" width="9.375" x="932.8125" y="778.5858"/></g><text fill="#4A5568" font-family="Segoe UI" font-size="15.625" lengthAdjust="spacing" textLength="154.2435" x="950" y="787.3993">valueNumber: decimal</text><g data-visibility-modifier="PRIVATE_FIELD"><rect fill="none" height="9.375" style="stroke:#C82930;stroke-width:1.5625;" width="9.375" x="932.8125" y="799.3683"/></g><text fill="#4A5568" font-family="Segoe UI" font-size="15.625" lengthAdjust="spacing" textLength="156.1584" x="950" y="808.1818">valueBoolean: boolean</text><g data-visibility-modifier="PRIVATE_FIELD"><rect fill="none" height="9.375" style="stroke:#C82930;stroke-width:1.5625;" width="9.375" x="932.8125" y="820.1508"/></g><text fill="#4A5568" font-family="Segoe UI" font-size="15.625" lengthAdjust="spacing" textLength="106.8878" x="950" y="828.9642">valueDate: date</text><g data-visibility-modifier="PRIVATE_FIELD"><rect fill="none" height="9.375" style="stroke:#C82930;stroke-width:1.5625;" width="9.375" x="932.8125" y="840.9332"/></g><text fill="#4A5568" font-family="Segoe UI" font-size="15.625" lengthAdjust="spacing" textLength="113.2889" x="950" y="849.7467">valueJson: string</text></g><!--class ProductFamily--><g class="entity" data-qualified-name="Configuration.ProductFamily" data-source-line="58" id="ent0005"><rect fill="#FFFFFF" height="302.4536" rx="7.8125" ry="7.8125" style="stroke:#2B6CB0;stroke-width:2.3438;" width="194.0887" x="521.875" y="438.9709"/><rect fill="#EBF8FF" height="61.3464" rx="7.8125" ry="7.8125" style="stroke:#EBF8FF;stroke-width:2.3438;" width="194.0887" x="521.875" y="438.9709"/><rect fill="#EBF8FF" height="7.8125" style="stroke:#EBF8FF;stroke-width:2.3438;" width="194.0887" x="521.875" y="492.5049"/><rect fill="none" height="302.4536" rx="7.8125" ry="7.8125" style="stroke:#2B6CB0;stroke-width:2.3438;" width="194.0887" x="521.875" y="438.9709"/><ellipse cx="557.3882" cy="469.6442" fill="#ADD1B2" rx="15.625" ry="15.625" style="stroke:#181818;stroke-width:1.5625;"/><path d="M559.7075,465.274 Q559.8784,465.0299 560.0737,464.9078 Q560.2934,464.7858 560.5376,464.7858 Q560.9526,464.7858 561.1967,465.0787 Q561.4653,465.3717 561.4653,466.0309 L561.4653,467.6422 Q561.4653,468.3014 561.1967,468.5944 Q560.9526,468.8873 560.5376,468.8873 Q560.1469,468.8873 559.9272,468.6676 Q559.7075,468.4723 559.5854,467.8864 Q559.5366,467.4957 559.3413,467.3004 Q558.9507,466.8854 558.2671,466.6412 Q557.6079,466.3971 556.9243,466.3971 Q556.0942,466.3971 555.3862,466.7633 Q554.6782,467.1295 554.1411,467.9596 Q553.604,468.7653 553.604,469.9127 L553.604,471.1334 Q553.604,472.4762 554.5805,473.3795 Q555.5815,474.2828 557.3149,474.2828 Q558.3647,474.2828 559.0971,474.0143 Q559.5122,473.8434 559.976,473.3551 Q560.269,473.0621 560.4399,472.9889 Q560.6108,472.8912 560.8061,472.8912 Q561.1967,472.8912 561.4653,473.1842 Q561.7583,473.4528 561.7583,473.8434 Q561.7583,474.234 561.3676,474.6735 Q560.8061,475.3082 559.9272,475.6744 Q558.7553,476.1627 557.3393,476.1627 Q555.6548,476.1627 554.3364,475.4791 Q553.2378,474.942 552.4809,473.7457 Q551.7241,472.5494 551.7241,471.1578 L551.7241,469.8883 Q551.7241,468.4235 552.4077,467.1539 Q553.0913,465.8844 554.2876,465.2008 Q555.5083,464.5172 556.851,464.5172 Q557.6811,464.5172 558.3891,464.7125 Q559.0971,464.8834 559.7075,465.274 Z " fill="#000000"/><text fill="#000000" font-family="Segoe UI" font-size="18.75" font-style="italic" lengthAdjust="spacing" textLength="123.1567" x="577.6064" y="467.0166">&#171;Enumeration&#187;</text><text fill="#4A5568" font-family="Segoe UI" font-size="15.625" lengthAdjust="spacing" textLength="98.0606" x="590.1544" y="488.5834">ProductFamily</text><line style="stroke:#2B6CB0;stroke-width:2.3438;" x1="523.4375" x2="714.4012" y1="500.3174" y2="500.3174"/><text fill="#4A5568" font-family="Segoe UI" font-size="15.625" lengthAdjust="spacing" textLength="94.8792" x="531.25" y="523.4283">OIL_AND_FAT</text><text fill="#4A5568" font-family="Segoe UI" font-size="15.625" lengthAdjust="spacing" textLength="128.746" x="531.25" y="544.2108">PRESERVED_FOOD</text><text fill="#4A5568" font-family="Segoe UI" font-size="15.625" lengthAdjust="spacing" textLength="72.5174" x="531.25" y="564.9933">BEVERAGE</text><text fill="#4A5568" font-family="Segoe UI" font-size="15.625" lengthAdjust="spacing" textLength="102.829" x="531.25" y="585.7758">DRY_GROCERY</text><text fill="#4A5568" font-family="Segoe UI" font-size="15.625" lengthAdjust="spacing" textLength="115.2267" x="531.25" y="606.5582">TEA_HERB_SPICE</text><text fill="#4A5568" font-family="Segoe UI" font-size="15.625" lengthAdjust="spacing" textLength="175.3387" x="531.25" y="627.3407">CONFECTIONERY_SNACK</text><text fill="#4A5568" font-family="Segoe UI" font-size="15.625" lengthAdjust="spacing" textLength="43.1747" x="531.25" y="648.1232">DAIRY</text><text fill="#4A5568" font-family="Segoe UI" font-size="15.625" lengthAdjust="spacing" textLength="105.8884" x="531.25" y="668.9056">FROZEN_FOOD</text><text fill="#4A5568" font-family="Segoe UI" font-size="15.625" lengthAdjust="spacing" textLength="119.9036" x="531.25" y="689.6881">FRESH_PRODUCE</text><text fill="#4A5568" font-family="Segoe UI" font-size="15.625" lengthAdjust="spacing" textLength="103.653" x="531.25" y="710.4706">ESSENTIAL_OIL</text><text fill="#4A5568" font-family="Segoe UI" font-size="15.625" lengthAdjust="spacing" textLength="113.4186" x="531.25" y="731.2531">HYGIENE_PAPER</text></g><!--class Product--><g class="entity" data-qualified-name="Catalogue.Product" data-source-line="74" id="ent0007"><rect fill="#FFFFFF" height="142.5049" rx="7.8125" ry="7.8125" style="stroke:#2B6CB0;stroke-width:2.3438;" width="259.5367" x="489.0625" y="156.9397"/><rect fill="#EBF8FF" height="46.875" rx="7.8125" ry="7.8125" style="stroke:#EBF8FF;stroke-width:2.3438;" width="259.5367" x="489.0625" y="156.9397"/><rect fill="#EBF8FF" height="7.8125" style="stroke:#EBF8FF;stroke-width:2.3438;" width="259.5367" x="489.0625" y="196.0022"/><rect fill="none" height="142.5049" rx="7.8125" ry="7.8125" style="stroke:#2B6CB0;stroke-width:2.3438;" width="259.5367" x="489.0625" y="156.9397"/><ellipse cx="585.6339" cy="180.3772" fill="#ADD1B2" rx="15.625" ry="15.625" style="stroke:#181818;stroke-width:1.5625;"/><path d="M587.9532,176.0071 Q588.1241,175.7629 588.3194,175.6409 Q588.5391,175.5188 588.7833,175.5188 Q589.1983,175.5188 589.4424,175.8118 Q589.711,176.1047 589.711,176.7639 L589.711,178.3752 Q589.711,179.0344 589.4424,179.3274 Q589.1983,179.6204 588.7833,179.6204 Q588.3926,179.6204 588.1729,179.4006 Q587.9532,179.2053 587.8311,178.6194 Q587.7823,178.2288 587.587,178.0334 Q587.1964,177.6184 586.5128,177.3743 Q585.8536,177.1301 585.17,177.1301 Q584.3399,177.1301 583.6319,177.4963 Q582.9239,177.8625 582.3868,178.6926 Q581.8497,179.4983 581.8497,180.6458 L581.8497,181.8665 Q581.8497,183.2092 582.8262,184.1125 Q583.8272,185.0159 585.5606,185.0159 Q586.6104,185.0159 587.3428,184.7473 Q587.7579,184.5764 588.2217,184.0881 Q588.5147,183.7952 588.6856,183.7219 Q588.8565,183.6243 589.0518,183.6243 Q589.4424,183.6243 589.711,183.9172 Q590.004,184.1858 590.004,184.5764 Q590.004,184.967 589.6133,185.4065 Q589.0518,186.0413 588.1729,186.4075 Q587.001,186.8958 585.585,186.8958 Q583.9005,186.8958 582.5821,186.2122 Q581.4835,185.675 580.7266,184.4788 Q579.9698,183.2825 579.9698,181.8909 L579.9698,180.6213 Q579.9698,179.1565 580.6534,177.887 Q581.337,176.6174 582.5333,175.9338 Q583.754,175.2502 585.0967,175.2502 Q585.9268,175.2502 586.6348,175.4456 Q587.3428,175.6165 587.9532,176.0071 Z " fill="#000000"/><text fill="#4A5568" font-family="Segoe UI" font-size="15.625" lengthAdjust="spacing" textLength="53.894" x="615.3214" y="186.8469">Product</text><line style="stroke:#2B6CB0;stroke-width:2.3438;" x1="490.625" x2="747.0367" y1="203.8147" y2="203.8147"/><g data-visibility-modifier="PRIVATE_FIELD"><rect fill="none" height="9.375" style="stroke:#C82930;stroke-width:1.5625;" width="9.375" x="501.5625" y="218.1122"/></g><text fill="#4A5568" font-family="Segoe UI" font-size="15.625" lengthAdjust="spacing" textLength="57.2357" x="518.75" y="226.9257">id: UUID</text><g data-visibility-modifier="PRIVATE_FIELD"><rect fill="none" height="9.375" style="stroke:#C82930;stroke-width:1.5625;" width="9.375" x="501.5625" y="238.8947"/></g><text fill="#4A5568" font-family="Segoe UI" font-size="15.625" lengthAdjust="spacing" textLength="70.0912" x="518.75" y="247.7081">sku: string</text><g data-visibility-modifier="PRIVATE_FIELD"><rect fill="none" height="9.375" style="stroke:#C82930;stroke-width:1.5625;" width="9.375" x="501.5625" y="259.6771"/></g><text fill="#4A5568" font-family="Segoe UI" font-size="15.625" lengthAdjust="spacing" textLength="138.5956" x="518.75" y="268.4906">name: LocalizedText</text><g data-visibility-modifier="PRIVATE_FIELD"><rect fill="none" height="9.375" style="stroke:#C82930;stroke-width:1.5625;" width="9.375" x="501.5625" y="280.4596"/></g><text fill="#4A5568" font-family="Segoe UI" font-size="15.625" lengthAdjust="spacing" textLength="220.4742" x="518.75" y="289.2731">mainCategory: ProductCategory</text></g><g class="entity" data-qualified-name="GMN14" data-source-line="90" id="ent0015"><path d="M842.1875,1142.8772 L842.1875,1226.0071 A7.8125,7.8125 0 0 0 850,1233.8196 L1220.3293,1233.8196 A7.8125,7.8125 0 0 0 1228.1418,1226.0071 L1228.1418,1150.6897 L1212.5168,1135.0647 L850,1135.0647 A7.8125,7.8125 0 0 0 842.1875,1142.8772" fill="#FFFFF0" style="stroke:#D69E2E;stroke-width:0.7813;"/><path d="M1212.5168,1135.0647 L1212.5168,1146.7834 A3.9063,3.9063 0 0 0 1216.423,1150.6897 L1228.1418,1150.6897 L1212.5168,1135.0647" fill="#FFFFF0" style="stroke:#D69E2E;stroke-width:1.5625;"/><text fill="#744210" font-family="Segoe UI" font-size="15.625" lengthAdjust="spacing" textLength="220.6726" x="851.5625" y="1159.7382">Les attributs specifiques comme</text><text fill="#744210" font-family="Segoe UI" font-size="15.625" font-weight="700" lengthAdjust="spacing" textLength="124.8016" x="1076.5152" y="1159.7382">cocoaPercentage</text><text fill="#744210" font-family="Segoe UI" font-size="15.625" lengthAdjust="spacing" textLength="3.3875" x="1201.3168" y="1159.7382">,</text><text fill="#744210" font-family="Segoe UI" font-size="15.625" font-weight="700" lengthAdjust="spacing" textLength="86.7157" x="851.5625" y="1180.5206">glazingRate</text><text fill="#744210" font-family="Segoe UI" font-size="15.625" lengthAdjust="spacing" textLength="3.3875" x="938.2782" y="1180.5206">,</text><text fill="#744210" font-family="Segoe UI" font-size="15.625" font-weight="700" lengthAdjust="spacing" textLength="66.8259" x="945.9457" y="1180.5206">plyCount</text><text fill="#744210" font-family="Segoe UI" font-size="15.625" lengthAdjust="spacing" textLength="3.3875" x="1012.7716" y="1180.5206">,</text><text fill="#744210" font-family="Segoe UI" font-size="15.625" font-weight="700" lengthAdjust="spacing" textLength="66.7801" x="1020.4391" y="1180.5206">brixLevel</text><text fill="#744210" font-family="Segoe UI" font-size="15.625" lengthAdjust="spacing" textLength="17.9977" x="1091.4993" y="1180.5206">ou</text><text fill="#744210" font-family="Segoe UI" font-size="15.625" font-weight="700" lengthAdjust="spacing" textLength="82.0923" x="1113.7772" y="1180.5206">acidityRate</text><text fill="#744210" font-family="Segoe UI" font-size="15.625" lengthAdjust="spacing" textLength="295.9518" x="851.5625" y="1201.3031">sont configures par categorie au lieu d'etre</text><text fill="#744210" font-family="Segoe UI" font-size="15.625" lengthAdjust="spacing" textLength="226.1581" x="851.5625" y="1222.0856">codes directement dans Product.</text></g><g class="entity" data-qualified-name="GMN17" data-source-line="97" id="ent0018"><path d="M9.375,267.0959 L9.375,329.4434 A7.8125,7.8125 0 0 0 17.1875,337.2559 L196.875,337.2559 L203.125,467.6272 L209.375,337.2559 L386.7767,337.2559 A7.8125,7.8125 0 0 0 394.5892,329.4434 L394.5892,274.9084 L378.9642,259.2834 L17.1875,259.2834 A7.8125,7.8125 0 0 0 9.375,267.0959" fill="#FFFFF0" style="stroke:#D69E2E;stroke-width:0.7813;"/><path d="M378.9642,259.2834 L378.9642,271.0022 A3.9063,3.9063 0 0 0 382.8705,274.9084 L394.5892,274.9084 L378.9642,259.2834" fill="#FFFFF0" style="stroke:#D69E2E;stroke-width:0.7813;"/><text fill="#744210" font-family="Segoe UI" font-size="15.625" lengthAdjust="spacing" textLength="352.4017" x="18.75" y="283.9569">Cette approche evite une table Product trop lourde</text><text fill="#744210" font-family="Segoe UI" font-size="15.625" lengthAdjust="spacing" textLength="345.5811" x="18.75" y="304.7394">et permet d'ajouter de nouvelles categories FMCG</text><text fill="#744210" font-family="Segoe UI" font-size="15.625" font-weight="700" lengthAdjust="spacing" textLength="98.999" x="18.75" y="325.5219">sans modifier</text><text fill="#744210" font-family="Segoe UI" font-size="15.625" lengthAdjust="spacing" textLength="179.4662" x="122.0291" y="325.5219">toute la structure de base.</text></g><g class="entity" data-qualified-name="GMN20" data-source-line="103" id="ent0021"><path d="M1321.875,705.3772 L1321.875,740.5334 L1150.5156,746.7834 L1321.875,753.0334 L1321.875,788.5071 A7.8125,7.8125 0 0 0 1329.6875,796.3196 L1619.0155,796.3196 A7.8125,7.8125 0 0 0 1626.828,788.5071 L1626.828,713.1897 L1611.203,697.5647 L1329.6875,697.5647 A7.8125,7.8125 0 0 0 1321.875,705.3772" fill="#FFFFF0" style="stroke:#D69E2E;stroke-width:0.7813;"/><path d="M1611.203,697.5647 L1611.203,709.2834 A3.9063,3.9063 0 0 0 1615.1093,713.1897 L1626.828,713.1897 L1611.203,697.5647" fill="#FFFFF0" style="stroke:#D69E2E;stroke-width:0.7813;"/><text fill="#744210" font-family="Segoe UI" font-size="15.625" lengthAdjust="spacing" textLength="272.1405" x="1331.25" y="722.2382">Stocke la valeur d'un attribut specifique</text><text fill="#744210" font-family="Segoe UI" font-size="15.625" lengthAdjust="spacing" textLength="161.6364" x="1331.25" y="743.0206">pour un produit donne.</text><text fill="#744210" font-family="Segoe UI" font-size="15.625" lengthAdjust="spacing" textLength="266.2811" x="1331.25" y="763.8031">Un seul champ est rempli selon le type</text><text fill="#744210" font-family="Segoe UI" font-size="15.625" lengthAdjust="spacing" textLength="238.6246" x="1331.25" y="784.5856">(text, number, boolean, date, json).</text></g><!--link ProductCategory to ProductCategory--><g class="link" data-entity-1="ent0002" data-entity-2="ent0002" data-link-type="association" data-source-line="82" id="lnk8"><path codeLine="82" d="M80.1563,601.4709 C59.8906,601.4709 45.3125,601.4709 45.3125,601.4709 C45.3125,601.4709 45.3125,453.4241 45.3125,453.4241 C45.3125,453.4241 360.9375,453.4241 360.9375,453.4241 C360.9375,453.4241 360.9375,521.3147 360.9375,521.3147 C360.9375,521.3147 345.6406,521.3147 324.5469,521.3147" fill="none" id="ProductCategory-ProductCategory" style="stroke:#2B6CB0;stroke-width:2.3438;"/><text fill="#4A5568" font-family="Segoe UI" font-size="15.625" lengthAdjust="spacing" textLength="114.7995" x="40.375" y="440.5975">parent / children</text><text fill="#4A5568" font-family="Segoe UI" font-size="15.625" lengthAdjust="spacing" textLength="23.6206" x="44.4041" y="619.2893">0..1</text><text fill="#4A5568" font-family="Segoe UI" font-size="15.625" lengthAdjust="spacing" textLength="21.7133" x="336.4182" y="531.9617">0..*</text></g><!--reverse link ProductCategory to CategoryAttribute--><g class="link" data-entity-1="ent0002" data-entity-2="ent0003" data-link-type="composition" data-source-line="83" id="lnk9"><path codeLine="83" d="M343.1094,681.6272 C431.0781,681.6272 515.625,681.6272 515.625,681.6272 C515.625,681.6272 515.625,737.0959 515.625,796.6897" fill="none" id="ProductCategory-backto-CategoryAttribute" style="stroke:#2B6CB0;stroke-width:2.3438;"/><polygon fill="#2B6CB0" points="324.3594,681.6272,333.7344,687.8772,343.1094,681.6272,333.7344,675.3772,324.3594,681.6272" style="stroke:#2B6CB0;stroke-width:2.3438;stroke-linejoin:miter;stroke-miterlimit:10;"/><text fill="#4A5568" font-family="Segoe UI" font-size="15.625" lengthAdjust="spacing" textLength="49.6902" x="427.5313" y="700.0507">defines</text><text fill="#4A5568" font-family="Segoe UI" font-size="15.625" lengthAdjust="spacing" textLength="8.4229" x="336.4125" y="707.1179">1</text><text fill="#4A5568" font-family="Segoe UI" font-size="15.625" lengthAdjust="spacing" textLength="21.7133" x="486.0056" y="780.4845">0..*</text></g><!--link ProductCategory to Product--><g class="link" data-entity-1="ent0002" data-entity-2="ent0007" data-link-type="association" data-source-line="84" id="lnk10"><path codeLine="84" d="M324.4844,574.7522 C406.0469,574.7522 498.4375,574.7522 498.4375,574.7522 C498.4375,574.7522 498.4375,400.9553 498.4375,299.4553" fill="none" id="ProductCategory-Product" style="stroke:#2B6CB0;stroke-width:2.3438;"/><text fill="#4A5568" font-family="Segoe UI" font-size="15.625" lengthAdjust="spacing" textLength="59.4711" x="437.5" y="542.5038">classifies</text><text fill="#4A5568" font-family="Segoe UI" font-size="15.625" lengthAdjust="spacing" textLength="8.4229" x="336.1538" y="590.1074">1</text><text fill="#4A5568" font-family="Segoe UI" font-size="15.625" lengthAdjust="spacing" textLength="21.7133" x="458.2418" y="328.8196">0..*</text></g><!--link ProductCategory to ProductFamily--><g class="link" data-entity-1="ent0002" data-entity-2="ent0005" data-link-type="association" data-source-line="85" id="lnk11"><path codeLine="85" d="M324.4688,628.1897 C387.3438,628.1897 462.9219,628.1897 521.75,628.1897" fill="none" id="ProductCategory-ProductFamily" style="stroke:#2B6CB0;stroke-width:2.3438;"/><text fill="#4A5568" font-family="Segoe UI" font-size="15.625" lengthAdjust="spacing" textLength="41.4276" x="380.9219" y="646.6132">family</text><text fill="#4A5568" font-family="Segoe UI" font-size="15.625" lengthAdjust="spacing" textLength="8.4229" x="336.1368" y="648.4712">1</text><text fill="#4A5568" font-family="Segoe UI" font-size="15.625" lengthAdjust="spacing" textLength="8.4229" x="501.0263" y="651.2498">1</text></g><!--reverse link Product to ProductAttributeValue--><g class="link" data-entity-1="ent0007" data-entity-2="ent0004" data-link-type="composition" data-source-line="86" id="lnk12"><path codeLine="86" d="M740.625,318.1741 C740.625,447.4241 740.625,688.1897 740.625,688.1897 C740.625,688.1897 837.4063,688.1897 920.0156,688.1897" fill="none" id="Product-backto-ProductAttributeValue" style="stroke:#2B6CB0;stroke-width:2.3438;"/><polygon fill="#2B6CB0" points="740.625,299.4241,734.375,308.7991,740.625,318.1741,746.875,308.7991,740.625,299.4241" style="stroke:#2B6CB0;stroke-width:2.3438;stroke-linejoin:miter;stroke-miterlimit:10;"/><text fill="#4A5568" font-family="Segoe UI" font-size="15.625" lengthAdjust="spacing" textLength="68.5043" x="742.1875" y="601.9257">hasValues</text><text fill="#4A5568" font-family="Segoe UI" font-size="15.625" lengthAdjust="spacing" textLength="8.4229" x="750.9108" y="328.7836">1</text><text fill="#4A5568" font-family="Segoe UI" font-size="15.625" lengthAdjust="spacing" textLength="21.7133" x="886.0694" y="699.7438">0..*</text></g><!--link CategoryAttribute to ProductAttributeValue--><g class="link" data-entity-1="ent0003" data-entity-2="ent0004" data-link-type="association" data-source-line="87" id="lnk13"><path codeLine="87" d="M730.8906,828.0334 C789.4219,828.0334 860.9375,828.0334 919.9219,828.0334" fill="none" id="CategoryAttribute-ProductAttributeValue" style="stroke:#2B6CB0;stroke-width:2.3438;"/><text fill="#4A5568" font-family="Segoe UI" font-size="15.625" lengthAdjust="spacing" textLength="41.3132" x="783.2188" y="846.4569">stores</text><text fill="#4A5568" font-family="Segoe UI" font-size="15.625" lengthAdjust="spacing" textLength="8.4229" x="742.9097" y="834.3396">1</text><text fill="#4A5568" font-family="Segoe UI" font-size="15.625" lengthAdjust="spacing" textLength="21.7133" x="885.9654" y="854.883">0..*</text></g><!--link CategoryAttribute to GMN14--><g class="link" data-entity-1="ent0003" data-entity-2="ent0015" data-link-type="association" data-source-line="90" id="lnk16"><path d="M730.8281,971.7834 C802.1875,971.7834 881.25,971.7834 881.25,971.7834 C881.25,971.7834 881.25,1072.2209 881.25,1135.0022" fill="none" id="CategoryAttribute-GMN14" style="stroke:#2B6CB0;stroke-width:2.3438;stroke-dasharray:10.9375,10.9375;"/></g><?plantuml-src VLPjR-983FwUN-7ZFlGMjNHNzw8kMgqKGj9onm4Aj5Bl2neI0xETp6JdfLfsjV_zF4cWb9T-Wh4zjf_7Opk_S9a9boDqEjUPAWebhutT2EoKhX11O9wuB9bc1PGiUs8h_FGfKdB9Lvy_muy0e4VIbLPEvf4IIiElIPZycIIakKEMepxInn_xDqdVtrIQz8sq_rSlIiBWv-c0p3AXpaQCUydDMn5xSVnxSdCOyUFxg9_yuIDQRWL2dxCLHIqGY8jCC6FGm1NKO9rcbYi9-KQoWdzrtiW0irRpXRE6KjMGCOihfJa60fSMh0BDLsiBETUO-Tl1cfDhB4gxWGAB1MeJ10r8QBqAr883cgk4OA9LxZ8RrP4sbGOeIPvtuVv-q6-Eb2DsOQWo9lXtp6VupJOQoXEbxHuwscfhQK8GnMPdL1-taKoY54LRA2MGoKQgyQiZb8QepQCru_ASmL3PcIR4NAxEcOmSaUevE6SG2e5wXN8Wb-gSpRG_tLTHaRSKRY67JUtm78bDEJVdoAf9DkH5hXgHO0iKfuctcvAiTq5dT6mqJd9xuAT1SKJpaWkBcYq47ceCCfsjJscefNqtdT0yKv9vzTfI9_QXxB7LGD_b_S24EyjOytnsX3NYRPTGY2FoNr9nwDaw8AAIZvnlbIvrNCOB9lPLlHhG2MGE-yn7982lWlnj_CDw0shzsgdzOkaAhBknwK60yM0u3qVzUHBEglCaZQTn-X2JP3okQUZ53t4QtiRLePy-pc_JSHIdZzLv5eVpkpZjpQUJGLIRHEDH4aUpmNX4HlFfA8p-gQ-6W-PIaex_YqSl4H8AUZUVfEF-VUCZdaxZqMmG3kUKO2MvUxmTnADuFWadSLhX_Ba_Qkfvwh0QCw-6woikpXNQFBc3GfsVE0LDW-YDLgeoEvnhhVUTpeSMN5rL_zgjey7NRIOPN4EsvYAd_yTEo4FxnSLnu_idjUGIpSchHy79lcA7B_aRLpwq3bvI5vRr0DswESZhT8jrOSrCzTS4nvcVpE_8Wx6AHc4GI4LNwbsabYTxSFXgcPcIEctfjvpnuuCsOhkTgKon2UgCIAStr6vVqhLsUoNOTte5AVaa4GbAiObezThwjD3ysn2VKRJRe1m9MCPpRZUrFNcWRhGKezvyUB17WJaG71ta5sYrppDJVktM2nKBN_-SoTrpxGGeS_1e6ymBPQqgFEZZTnUX9GjMqj3ArhILdpaTdKImVbRkQcwrAa4eHnyET0ajbAWB-ials1T5v6d_jI2L8up2qxNDtK3oRtHRSMHyYeNA_RlHH8JrzsXN-0wY48JR-rWmWqS0TaKxMMBoFhKgUwgSqNH3HzbSEBahvLuboROa58Im7jES82WfAIJ0lQJzuGHr4YjAG6Df0HMbu2GLzCr3RDXwNVrcgQylGLO3-N8xT2-h8Ni9NwYOx_OW_0y0?></g></svg>