<svg xmlns="http://www.w3.org/2000/svg" xmlns:xlink="http://www.w3.org/1999/xlink" contentStyleType="text/css" data-diagram-type="DESCRIPTION" height="1070px" preserveAspectRatio="none" style="width:1761px;height:1070px;background:#FFFFFF;" version="1.1" viewBox="0 0 1761 1070" width="1761.6667px" zoomAndPan="magnify"><?plantuml 1.2026.4?><defs/><g><g class="title" data-source-line="2"><text fill="#17313B" font-family="Segoe UI" font-size="30" font-weight="700" lengthAdjust="spacing" textLength="709.8047" x="520.0977" y="49.0397">Diagramme de cas d'usage - Client B2B / Acheteur</text></g><!--cluster Plateforme B2B FMCG Export--><g class="cluster" data-qualified-name="Plateforme B2B FMCG Export" data-source-line="7" id="ent0002"><rect fill="none" height="836.6667" rx="8.3333" ry="8.3333" style="stroke:#181818;stroke-width:1.6667;" width="1451.6667" x="286.6667" y="86.569"/><text fill="#000000" font-family="Segoe UI" font-size="21.6667" font-weight="700" lengthAdjust="spacing" textLength="299.3555" x="862.8223" y="113.2829">Plateforme B2B FMCG Export</text></g><!--entity UC_Login--><g class="entity" data-qualified-name="Plateforme B2B FMCG Export.UC_Login" data-source-line="8" id="ent0003"><ellipse cx="1219.0273" cy="526.9467" fill="#FCFEFE" rx="92.3606" ry="25.3777" style="stroke:#335C67;stroke-width:0.8333;"/><text fill="#000000" font-family="Segoe UI" font-size="21.6667" lengthAdjust="spacing" textLength="123.5465" x="1157.254" y="535.5225">Se connecter</text></g><!--entity UC_KYC--><g class="entity" data-qualified-name="Plateforme B2B FMCG Export.UC_KYC" data-source-line="9" id="ent0004"><ellipse cx="1219.222" cy="638.5801" fill="#FCFEFE" rx="119.222" ry="27.8444" style="stroke:#335C67;stroke-width:0.8333;"/><text fill="#000000" font-family="Segoe UI" font-size="21.6667" lengthAdjust="spacing" textLength="177.2689" x="1130.5876" y="647.1559">Gerer profil et KYC</text></g><!--entity UC_Catalog--><g class="entity" data-qualified-name="Plateforme B2B FMCG Export.UC_Catalog" data-source-line="10" id="ent0005"><ellipse cx="472.9237" cy="299.6538" fill="#FCFEFE" rx="124.5904" ry="28.9181" style="stroke:#335C67;stroke-width:0.8333;"/><text fill="#000000" font-family="Segoe UI" font-size="21.6667" lengthAdjust="spacing" textLength="190.9058" x="377.4709" y="308.2296">Consulter catalogue</text></g><!--entity UC_Search--><g class="entity" data-qualified-name="Plateforme B2B FMCG Export.UC_Search" data-source-line="11" id="ent0006"><ellipse cx="473.0412" cy="423.3439" fill="#FCFEFE" rx="159.7078" ry="35.9416" style="stroke:#335C67;stroke-width:0.8333;"/><text fill="#000000" font-family="Segoe UI" font-size="21.6667" lengthAdjust="spacing" textLength="273.8167" x="336.1328" y="431.9198">Rechercher et filtrer produits</text></g><!--entity UC_Product--><g class="entity" data-qualified-name="Plateforme B2B FMCG Export.UC_Product" data-source-line="12" id="ent0007"><ellipse cx="1576.2236" cy="810.3137" fill="#FCFEFE" rx="136.2236" ry="31.2447" style="stroke:#335C67;stroke-width:0.8333;"/><text fill="#000000" font-family="Segoe UI" font-size="21.6667" lengthAdjust="spacing" textLength="219.3538" x="1466.5467" y="818.8896">Consulter fiche produit</text></g><!--entity UC_Favorite--><g class="entity" data-qualified-name="Plateforme B2B FMCG Export.UC_Favorite" data-source-line="13" id="ent0008"><ellipse cx="1218.8038" cy="867.8298" fill="#FCFEFE" rx="119.6371" ry="27.9274" style="stroke:#335C67;stroke-width:0.8333;"/><text fill="#000000" font-family="Segoe UI" font-size="21.6667" lengthAdjust="spacing" textLength="178.3374" x="1129.6351" y="876.4056">Ajouter aux favoris</text></g><!--entity UC_Compare--><g class="entity" data-qualified-name="Plateforme B2B FMCG Export.UC_Compare" data-source-line="14" id="ent0009"><ellipse cx="1218.8656" cy="753.0088" fill="#FCFEFE" rx="120.5322" ry="28.1064" style="stroke:#335C67;stroke-width:0.8333;"/><text fill="#000000" font-family="Segoe UI" font-size="21.6667" lengthAdjust="spacing" textLength="180.6331" x="1128.549" y="761.5846">Comparer produits</text></g><!--entity UC_RFQ--><g class="entity" data-qualified-name="Plateforme B2B FMCG Export.UC_RFQ" data-source-line="15" id="ent0010"><ellipse cx="865.8354" cy="868.2361" fill="#FCFEFE" rx="121.6688" ry="28.3338" style="stroke:#335C67;stroke-width:0.8333;"/><text fill="#000000" font-family="Segoe UI" font-size="21.6667" lengthAdjust="spacing" textLength="183.5319" x="774.0695" y="876.8119">Creer RFQ groupee</text></g><!--entity UC_Sample--><g class="entity" data-qualified-name="Plateforme B2B FMCG Export.UC_Sample" data-source-line="16" id="ent0011"><ellipse cx="866.0674" cy="749.6158" fill="#FCFEFE" rx="132.734" ry="30.5468" style="stroke:#335C67;stroke-width:0.8333;"/><text fill="#000000" font-family="Segoe UI" font-size="21.6667" lengthAdjust="spacing" textLength="210.9538" x="760.5905" y="758.1917">Demander echantillon</text></g><!--entity UC_History--><g class="entity" data-qualified-name="Plateforme B2B FMCG Export.UC_History" data-source-line="17" id="ent0012"><ellipse cx="473.6593" cy="180.3009" fill="#FCFEFE" rx="144.4927" ry="32.8985" style="stroke:#335C67;stroke-width:0.8333;"/><text fill="#000000" font-family="Segoe UI" font-size="21.6667" lengthAdjust="spacing" textLength="238.894" x="354.2123" y="188.8767">Consulter historique RFQ</text></g><!--entity UC_Quote--><g class="entity" data-qualified-name="Plateforme B2B FMCG Export.UC_Quote" data-source-line="18" id="ent0013"><ellipse cx="865.5043" cy="631.5032" fill="#FCFEFE" rx="125.5043" ry="29.1009" style="stroke:#335C67;stroke-width:0.8333;"/><text fill="#000000" font-family="Segoe UI" font-size="21.6667" lengthAdjust="spacing" textLength="193.1909" x="768.9089" y="640.0791">Consulter devis recu</text></g><!--entity UC_Message--><g class="entity" data-qualified-name="Plateforme B2B FMCG Export.UC_Message" data-source-line="19" id="ent0014"><ellipse cx="473.7235" cy="761.8137" fill="#FCFEFE" rx="114.5569" ry="26.9114" style="stroke:#335C67;stroke-width:0.8333;"/><text fill="#000000" font-family="Segoe UI" font-size="21.6667" lengthAdjust="spacing" textLength="165.0708" x="391.1881" y="770.3896">Envoyer message</text></g><!--entity UC_Negotiate--><g class="entity" data-qualified-name="Plateforme B2B FMCG Export.UC_Negotiate" data-source-line="20" id="ent0015"><ellipse cx="473.7105" cy="871.9467" fill="#FCFEFE" rx="105.3772" ry="25.3777" style="stroke:#335C67;stroke-width:0.8333;"/><text fill="#000000" font-family="Segoe UI" font-size="21.6667" lengthAdjust="spacing" textLength="141.9548" x="402.7331" y="880.5225">Negocier devis</text></g><!--entity UC_Accept--><g class="entity" data-qualified-name="Plateforme B2B FMCG Export.UC_Accept" data-source-line="21" id="ent0016"><ellipse cx="473.3648" cy="543.6133" fill="#FCFEFE" rx="103.3648" ry="25.3777" style="stroke:#335C67;stroke-width:0.8333;"/><text fill="#000000" font-family="Segoe UI" font-size="21.6667" lengthAdjust="spacing" textLength="139.1089" x="403.8104" y="552.1892">Accepter devis</text></g><!--entity UC_Reject--><g class="entity" data-qualified-name="Plateforme B2B FMCG Export.UC_Reject" data-source-line="22" id="ent0017"><ellipse cx="473.4274" cy="651.9467" fill="#FCFEFE" rx="94.2607" ry="25.3777" style="stroke:#335C67;stroke-width:0.8333;"/><text fill="#000000" font-family="Segoe UI" font-size="21.6667" lengthAdjust="spacing" textLength="126.2337" x="410.3105" y="660.5225">Refuser devis</text></g><!--entity UC_Review--><g class="entity" data-qualified-name="Plateforme B2B FMCG Export.UC_Review" data-source-line="23" id="ent0018"><ellipse cx="1218.7651" cy="418.6133" fill="#FCFEFE" rx="79.5984" ry="25.3777" style="stroke:#335C67;stroke-width:0.8333;"/><text fill="#000000" font-family="Segoe UI" font-size="21.6667" lengthAdjust="spacing" textLength="105.498" x="1166.016" y="427.1892">Laisser avis</text></g><!--entity Buyer--><g class="entity" data-qualified-name="Buyer" data-source-line="5" id="ent0001"><ellipse cx="111.827" cy="934.9023" fill="#F5FBFB" rx="13.3333" ry="13.3333" style="stroke:#335C67;stroke-width:0.8333;"/><path d="M111.827,948.2357 L111.827,993.2357 M90.1603,961.569 L133.4937,961.569 M111.827,993.2357 L90.1603,1018.2357 M111.827,993.2357 L133.4937,1018.2357" fill="none" style="stroke:#335C67;stroke-width:0.8333;"/><text fill="#000000" font-family="Segoe UI" font-size="21.6667" lengthAdjust="spacing" textLength="203.654" x="10" y="1044.1162">Client B2B / Acheteur</text></g><!--link Buyer to UC_Catalog--><g class="link" data-entity-1="ent0001" data-entity-2="ent0005" data-link-type="dependency" data-source-line="26" id="lnk19"><path d="M78.3333,920.4523 C78.3333,749.9357 78.3333,299.9023 78.3333,299.9023 C78.3333,299.9023 223.8167,299.9023 339.4833,299.9023" fill="none" id="Buyer-to-UC_Catalog" style="stroke:#4C5B61;stroke-width:1.6667;"/><polygon fill="#4C5B61" points="347.8167,299.9023,332.8167,293.2357,339.4833,299.9023,332.8167,306.569,347.8167,299.9023" style="stroke:#4C5B61;stroke-width:1.6667;stroke-linejoin:miter;stroke-miterlimit:10;"/></g><!--link Buyer to UC_Search--><g class="link" data-entity-1="ent0001" data-entity-2="ent0006" data-link-type="dependency" data-source-line="27" id="lnk20"><path d="M213.6333,963.519 C273.1667,963.519 336.6667,963.519 336.6667,963.519 C336.6667,963.519 336.6667,547.0357 336.6667,450.8023" fill="none" id="Buyer-to-UC_Search" style="stroke:#4C5B61;stroke-width:1.6667;"/><polygon fill="#4C5B61" points="336.6667,442.469,330,457.469,336.6667,450.8023,343.3333,457.469,336.6667,442.469" style="stroke:#4C5B61;stroke-width:1.6667;stroke-linejoin:miter;stroke-miterlimit:10;"/></g><!--link Buyer to UC_Product--><g class="link" data-entity-1="ent0001" data-entity-2="ent0007" data-link-type="dependency" data-source-line="28" id="lnk21"><path d="M180,920.319 C180,871.9357 180,814.069 180,814.069 C180,814.069 1082.1,814.069 1432.4,814.069" fill="none" id="Buyer-to-UC_Product" style="stroke:#4C5B61;stroke-width:1.6667;"/><polygon fill="#4C5B61" points="1440.7333,814.069,1425.7333,807.4023,1432.4,814.069,1425.7333,820.7357,1440.7333,814.069" style="stroke:#4C5B61;stroke-width:1.6667;stroke-linejoin:miter;stroke-miterlimit:10;"/></g><!--link Buyer to UC_RFQ--><g class="link" data-entity-1="ent0001" data-entity-2="ent0010" data-link-type="dependency" data-source-line="29" id="lnk22"><path d="M213.4833,1006.2857 C419.5667,1006.2857 866.6667,1006.2857 866.6667,1006.2857 C866.6667,1006.2857 866.6667,945.619 866.6667,905.169" fill="none" id="Buyer-to-UC_RFQ" style="stroke:#4C5B61;stroke-width:1.6667;"/><polygon fill="#4C5B61" points="866.6667,896.8357,860,911.8357,866.6667,905.169,873.3333,911.8357,866.6667,896.8357" style="stroke:#4C5B61;stroke-width:1.6667;stroke-linejoin:miter;stroke-miterlimit:10;"/></g><!--link Buyer to UC_Sample--><g class="link" data-entity-1="ent0001" data-entity-2="ent0011" data-link-type="dependency" data-source-line="30" id="lnk23"><path d="M146.6667,920.4857 C146.6667,844.0857 146.6667,726.9857 146.6667,726.9857 C146.6667,726.9857 576.1833,726.9857 768.6,726.9857" fill="none" id="Buyer-to-UC_Sample" style="stroke:#4C5B61;stroke-width:1.6667;"/><polygon fill="#4C5B61" points="776.9333,726.9857,761.9333,720.319,768.6,726.9857,761.9333,733.6523,776.9333,726.9857" style="stroke:#4C5B61;stroke-width:1.6667;stroke-linejoin:miter;stroke-miterlimit:10;"/></g><!--link Buyer to UC_History--><g class="link" data-entity-1="ent0001" data-entity-2="ent0012" data-link-type="dependency" data-source-line="31" id="lnk24"><path d="M45,920.3857 C45,729.369 45,179.9023 45,179.9023 C45,179.9023 196.2333,179.9023 320.5833,179.9023" fill="none" id="Buyer-to-UC_History" style="stroke:#4C5B61;stroke-width:1.6667;"/><polygon fill="#4C5B61" points="328.9167,179.9023,313.9167,173.2357,320.5833,179.9023,313.9167,186.569,328.9167,179.9023" style="stroke:#4C5B61;stroke-width:1.6667;stroke-linejoin:miter;stroke-miterlimit:10;"/></g><!--link Buyer to UC_Quote--><g class="link" data-entity-1="ent0001" data-entity-2="ent0013" data-link-type="dependency" data-source-line="32" id="lnk25"><path d="M111.6667,920.669 C111.6667,815.5857 111.6667,618.519 111.6667,618.519 C111.6667,618.519 534.2,618.519 744.6,618.519" fill="none" id="Buyer-to-UC_Quote" style="stroke:#4C5B61;stroke-width:1.6667;"/><polygon fill="#4C5B61" points="752.9333,618.519,737.9333,611.8523,744.6,618.519,737.9333,625.1857,752.9333,618.519" style="stroke:#4C5B61;stroke-width:1.6667;stroke-linejoin:miter;stroke-miterlimit:10;"/></g><!--link UC_RFQ to UC_Login--><g class="link" data-entity-1="ent0010" data-entity-2="ent0003" data-link-type="dependency" data-source-line="34" id="lnk26"><path d="M971.4667,854.069 C1011.8167,854.069 1048.3333,854.069 1048.3333,854.069 C1048.3333,854.069 1048.3333,543.2357 1048.3333,543.2357 C1048.3333,543.2357 1094.4333,543.2357 1141.8333,543.2357" fill="none" id="UC_RFQ-to-UC_Login" style="stroke:#4C5B61;stroke-width:1.6667;stroke-dasharray:11.6667,11.6667;"/><polygon fill="#4C5B61" points="1150.1667,543.2357,1135.1667,536.569,1141.8333,543.2357,1135.1667,549.9023,1150.1667,543.2357" style="stroke:#4C5B61;stroke-width:1.6667;stroke-linejoin:miter;stroke-miterlimit:10;"/><text fill="#000000" font-family="Segoe UI" font-size="21.6667" lengthAdjust="spacing" textLength="91.036" x="956.6667" y="711.2162">&#171;include&#187;</text></g><!--link UC_RFQ to UC_Favorite--><g class="link" data-entity-1="ent0010" data-entity-2="ent0008" data-link-type="dependency" data-source-line="35" id="lnk27"><path d="M971.3667,882.4023 C1016.7167,882.4023 1061.2333,882.4023 1106.45,882.4023" fill="none" id="UC_RFQ-to-UC_Favorite" style="stroke:#4C5B61;stroke-width:1.6667;stroke-dasharray:11.6667,11.6667;"/><polygon fill="#4C5B61" points="1114.7833,882.4023,1099.7833,875.7357,1106.45,882.4023,1099.7833,889.069,1114.7833,882.4023" style="stroke:#4C5B61;stroke-width:1.6667;stroke-linejoin:miter;stroke-miterlimit:10;"/><text fill="#000000" font-family="Segoe UI" font-size="21.6667" lengthAdjust="spacing" textLength="91.036" x="1044.75" y="907.4495">&#171;include&#187;</text></g><!--link UC_RFQ to UC_KYC--><g class="link" data-entity-1="ent0010" data-entity-2="ent0004" data-link-type="dependency" data-source-line="36" id="lnk28"><path d="M987.7333,868.2357 C1032.9,868.2357 1073.3333,868.2357 1073.3333,868.2357 C1073.3333,868.2357 1073.3333,635.7357 1073.3333,635.7357 C1073.3333,635.7357 1075.9,635.7357 1091.75,635.7357" fill="none" id="UC_RFQ-to-UC_KYC" style="stroke:#4C5B61;stroke-width:1.6667;stroke-dasharray:11.6667,11.6667;"/><polygon fill="#4C5B61" points="1100.0833,635.7357,1085.0833,629.069,1091.75,635.7357,1085.0833,642.4023,1100.0833,635.7357" style="stroke:#4C5B61;stroke-width:1.6667;stroke-linejoin:miter;stroke-miterlimit:10;"/><text fill="#000000" font-family="Segoe UI" font-size="21.6667" lengthAdjust="spacing" textLength="91.036" x="981.6667" y="806.4495">&#171;include&#187;</text></g><!--link UC_Sample to UC_Login--><g class="link" data-entity-1="ent0011" data-entity-2="ent0003" data-link-type="dependency" data-source-line="37" id="lnk29"><path d="M998.0333,752.819 C1013.1833,752.819 1023.3333,752.819 1023.3333,752.819 C1023.3333,752.819 1023.3333,534.9023 1023.3333,534.9023 C1023.3333,534.9023 1071.0833,534.9023 1123.2333,534.9023" fill="none" id="UC_Sample-to-UC_Login" style="stroke:#4C5B61;stroke-width:1.6667;stroke-dasharray:11.6667,11.6667;"/><polygon fill="#4C5B61" points="1131.5667,534.9023,1116.5667,528.2357,1123.2333,534.9023,1116.5667,541.569,1131.5667,534.9023" style="stroke:#4C5B61;stroke-width:1.6667;stroke-linejoin:miter;stroke-miterlimit:10;"/><text fill="#000000" font-family="Segoe UI" font-size="21.6667" lengthAdjust="spacing" textLength="91.036" x="931.6667" y="595.7829">&#171;include&#187;</text></g><!--link UC_Quote to UC_Login--><g class="link" data-entity-1="ent0013" data-entity-2="ent0003" data-link-type="dependency" data-source-line="38" id="lnk30"><path d="M866.6667,602.319 C866.6667,571.2523 866.6667,526.569 866.6667,526.569 C866.6667,526.569 1013.7833,526.569 1118.2167,526.569" fill="none" id="UC_Quote-to-UC_Login" style="stroke:#4C5B61;stroke-width:1.6667;stroke-dasharray:11.6667,11.6667;"/><polygon fill="#4C5B61" points="1126.55,526.569,1111.55,519.9023,1118.2167,526.569,1111.55,533.2357,1126.55,526.569" style="stroke:#4C5B61;stroke-width:1.6667;stroke-linejoin:miter;stroke-miterlimit:10;"/><text fill="#000000" font-family="Segoe UI" font-size="21.6667" lengthAdjust="spacing" textLength="91.036" x="867.0667" y="551.6162">&#171;include&#187;</text></g><!--link UC_Favorite to UC_Product--><g class="link" data-entity-1="ent0008" data-entity-2="ent0007" data-link-type="dependency" data-source-line="40" id="lnk31"><path d="M1260,841.419 C1260,833.5357 1260,826.9857 1260,826.9857 C1260,826.9857 1363.75,826.9857 1454.3667,826.9857" fill="none" id="UC_Favorite-to-UC_Product" style="stroke:#4C5B61;stroke-width:1.6667;stroke-dasharray:11.6667,11.6667;"/><polygon fill="#4C5B61" points="1462.7,826.9857,1447.7,820.319,1454.3667,826.9857,1447.7,833.6523,1462.7,826.9857" style="stroke:#4C5B61;stroke-width:1.6667;stroke-linejoin:miter;stroke-miterlimit:10;"/><text fill="#000000" font-family="Segoe UI" font-size="21.6667" lengthAdjust="spacing" textLength="86.8888" x="1265.8" y="820.3662">&#171;extend&#187;</text></g><!--link UC_Compare to UC_Product--><g class="link" data-entity-1="ent0009" data-entity-2="ent0007" data-link-type="dependency" data-source-line="41" id="lnk32"><path d="M1180,780.5523 C1180,791.319 1180,801.1523 1180,801.1523 C1180,801.1523 1321.5,801.1523 1436.8,801.1523" fill="none" id="UC_Compare-to-UC_Product" style="stroke:#4C5B61;stroke-width:1.6667;stroke-dasharray:11.6667,11.6667;"/><polygon fill="#4C5B61" points="1445.1333,801.1523,1430.1333,794.4857,1436.8,801.1523,1430.1333,807.819,1445.1333,801.1523" style="stroke:#4C5B61;stroke-width:1.6667;stroke-linejoin:miter;stroke-miterlimit:10;"/><text fill="#000000" font-family="Segoe UI" font-size="21.6667" lengthAdjust="spacing" textLength="86.8888" x="1303.9333" y="794.5329">&#171;extend&#187;</text></g><!--link UC_Message to UC_Quote--><g class="link" data-entity-1="ent0014" data-entity-2="ent0013" data-link-type="dependency" data-source-line="42" id="lnk33"><path d="M586.9333,757.819 C636.4167,757.819 683.3333,757.819 683.3333,757.819 C683.3333,757.819 683.3333,652.2023 683.3333,652.2023 C683.3333,652.2023 722.0667,652.2023 768.3833,652.2023" fill="none" id="UC_Message-to-UC_Quote" style="stroke:#4C5B61;stroke-width:1.6667;stroke-dasharray:11.6667,11.6667;"/><polygon fill="#4C5B61" points="776.7167,652.2023,761.7167,645.5357,768.3833,652.2023,761.7167,658.869,776.7167,652.2023" style="stroke:#4C5B61;stroke-width:1.6667;stroke-linejoin:miter;stroke-miterlimit:10;"/><text fill="#000000" font-family="Segoe UI" font-size="21.6667" lengthAdjust="spacing" textLength="86.8888" x="595" y="731.5495">&#171;extend&#187;</text></g><!--link UC_Negotiate to UC_Quote--><g class="link" data-entity-1="ent0015" data-entity-2="ent0013" data-link-type="dependency" data-source-line="43" id="lnk34"><path d="M578.8833,871.569 C597.8167,871.569 611.6667,871.569 611.6667,871.569 C611.6667,871.569 611.6667,643.6523 611.6667,643.6523 C611.6667,643.6523 675.0667,643.6523 742.3167,643.6523" fill="none" id="UC_Negotiate-to-UC_Quote" style="stroke:#4C5B61;stroke-width:1.6667;stroke-dasharray:11.6667,11.6667;"/><polygon fill="#4C5B61" points="750.65,643.6523,735.65,636.9857,742.3167,643.6523,735.65,650.319,750.65,643.6523" style="stroke:#4C5B61;stroke-width:1.6667;stroke-linejoin:miter;stroke-miterlimit:10;"/><text fill="#000000" font-family="Segoe UI" font-size="21.6667" lengthAdjust="spacing" textLength="86.8888" x="613.3333" y="697.8995">&#171;extend&#187;</text></g><!--link UC_Accept to UC_Quote--><g class="link" data-entity-1="ent0016" data-entity-2="ent0013" data-link-type="dependency" data-source-line="44" id="lnk35"><path d="M473.3333,568.269 C473.3333,587.3857 473.3333,610.4523 473.3333,610.4523 C473.3333,610.4523 654.75,610.4523 770.3833,610.4523" fill="none" id="UC_Accept-to-UC_Quote" style="stroke:#4C5B61;stroke-width:1.6667;stroke-dasharray:11.6667,11.6667;"/><polygon fill="#4C5B61" points="778.7167,610.4523,763.7167,603.7857,770.3833,610.4523,763.7167,617.119,778.7167,610.4523" style="stroke:#4C5B61;stroke-width:1.6667;stroke-linejoin:miter;stroke-miterlimit:10;"/><text fill="#000000" font-family="Segoe UI" font-size="21.6667" lengthAdjust="spacing" textLength="86.8888" x="516.6" y="603.8329">&#171;extend&#187;</text></g><!--link UC_Reject to UC_Quote--><g class="link" data-entity-1="ent0017" data-entity-2="ent0013" data-link-type="dependency" data-source-line="45" id="lnk36"><path d="M544.4167,635.1023 C598.9833,635.1023 667.3667,635.1023 732.1667,635.1023" fill="none" id="UC_Reject-to-UC_Quote" style="stroke:#4C5B61;stroke-width:1.6667;stroke-dasharray:11.6667,11.6667;"/><polygon fill="#4C5B61" points="740.5,635.1023,725.5,628.4357,732.1667,635.1023,725.5,641.769,740.5,635.1023" style="stroke:#4C5B61;stroke-width:1.6667;stroke-linejoin:miter;stroke-miterlimit:10;"/><text fill="#000000" font-family="Segoe UI" font-size="21.6667" lengthAdjust="spacing" textLength="86.8888" x="644.1167" y="660.1495">&#171;extend&#187;</text></g><!--link UC_Review to UC_Product--><g class="link" data-entity-1="ent0018" data-entity-2="ent0007" data-link-type="dependency" data-source-line="46" id="lnk37"><path d="M1299.4,418.2357 C1404.8,418.2357 1576.6667,418.2357 1576.6667,418.2357 C1576.6667,418.2357 1576.6667,677.2357 1576.6667,770.1857" fill="none" id="UC_Review-to-UC_Product" style="stroke:#4C5B61;stroke-width:1.6667;stroke-dasharray:11.6667,11.6667;"/><polygon fill="#4C5B61" points="1576.6667,778.519,1583.3333,763.519,1576.6667,770.1857,1570,763.519,1576.6667,778.519" style="stroke:#4C5B61;stroke-width:1.6667;stroke-linejoin:miter;stroke-miterlimit:10;"/><text fill="#000000" font-family="Segoe UI" font-size="21.6667" lengthAdjust="spacing" textLength="86.8888" x="1488.3333" y="484.7829">&#171;extend&#187;</text></g><?plantuml-src XPHDZzem48Rl_XLJBZq1Ke_L2WcoorRgRhNBgeUUAYkP1AySEtN655JrltUCOnHJ18T8yUHvvyD-um_AbDfN2BFPlBHjQysyfuF6MUTRBKYHHhXNid6oRH6OAsKFrKVVomPX2eLMQ0XMdrOmXsMvHKBlXCQQW2murMm9AkMm96MD4B8aws1oKJK1phpo1tH2184q3TUUl6X9M5l7rGE_VYuUuM7VMKSJ-2C0V8_S4eDlt9irXfKOStqlVZxPHfanz8WE7NJErae34dpzKIIMNyTaOKtlDUVYYKbgstXCP143Otg3F8KBJyZAoMceKtb5VHA-eMJcSfLQiJefak0bB4iQAvRlrWTU-ZtKScUTEgLV7vU4UO6savTw6Jvah4C6D-jNQ9pr7Pu6vj2OkyTMcYgCMcwb8QMrDQSHPTjfl3pYLlLy_EgNnr0aARuSeuVBaWftgWUsWq_ugxVvX0zcPzaqq68VJ9cuvxWSaz-miQLAMHCOegHaddHPbjZHEHgZ-RdN_7w6RV0TyqDxageFcCoedSBVugyGHzF3TBeOcoiB3iR9OiaRMJ2SLAwCvv75qevdmRYl8kRWss1n-d_WCzpT3TV4Od569CzTXVZN-lzxxEn6fMDNrnWnxc7WXfqvahWdD5LCDbZ-5ZOu9s6nXNFev9hhM7JCTIRQvHOJp7Aryty0?></g></svg>