<svg xmlns="http://www.w3.org/2000/svg" xmlns:xlink="http://www.w3.org/1999/xlink" contentStyleType="text/css" data-diagram-type="DESCRIPTION" height="860px" preserveAspectRatio="none" style="width:1481px;height:860px;background:#FFFFFF;" version="1.1" viewBox="0 0 1481 860" width="1481.6667px" zoomAndPan="magnify"><?plantuml 1.2026.4?><defs/><g><g class="title" data-source-line="2"><text fill="#17313B" font-family="Segoe UI" font-size="30" font-weight="700" lengthAdjust="spacing" textLength="664.9365" x="402.5317" y="49.0397">Diagramme de cas d'usage - Admin Plateforme</text></g><!--cluster Plateforme B2B FMCG Export--><g class="cluster" data-qualified-name="Plateforme B2B FMCG Export" data-source-line="7" id="ent0002"><rect fill="none" height="751.6667" rx="8.3333" ry="8.3333" style="stroke:#181818;stroke-width:1.6667;" width="1201.6667" x="256.6667" y="86.569"/><text fill="#000000" font-family="Segoe UI" font-size="21.6667" font-weight="700" lengthAdjust="spacing" textLength="299.3555" x="707.8223" y="113.2829">Plateforme B2B FMCG Export</text></g><!--entity UC_Login--><g class="entity" data-qualified-name="Plateforme B2B FMCG Export.UC_Login" data-source-line="8" id="ent0003"><ellipse cx="445.6939" cy="171.9467" fill="#FCFEFE" rx="92.3606" ry="25.3777" style="stroke:#335C67;stroke-width:0.8333;"/><text fill="#000000" font-family="Segoe UI" font-size="21.6667" lengthAdjust="spacing" textLength="123.5465" x="383.9207" y="180.5225">Se connecter</text></g><!--entity UC_Catalog--><g class="entity" data-qualified-name="Plateforme B2B FMCG Export.UC_Catalog" data-source-line="9" id="ent0004"><ellipse cx="853.1336" cy="671.6957" fill="#FCFEFE" rx="109.8003" ry="25.9601" style="stroke:#335C67;stroke-width:0.8333;"/><text fill="#000000" font-family="Segoe UI" font-size="21.6667" lengthAdjust="spacing" textLength="152.2168" x="777.0252" y="680.2716">Gerer catalogue</text></g><!--entity UC_Products--><g class="entity" data-qualified-name="Plateforme B2B FMCG Export.UC_Products" data-source-line="10" id="ent0005"><ellipse cx="1265.2888" cy="780.28" fill="#FCFEFE" rx="102.7888" ry="25.3777" style="stroke:#335C67;stroke-width:0.8333;"/><text fill="#000000" font-family="Segoe UI" font-size="21.6667" lengthAdjust="spacing" textLength="138.2943" x="1196.1417" y="788.8558">Gerer produits</text></g><!--entity UC_Suppliers--><g class="entity" data-qualified-name="Plateforme B2B FMCG Export.UC_Suppliers" data-source-line="11" id="ent0006"><ellipse cx="445.4625" cy="283.3282" fill="#FCFEFE" rx="117.9625" ry="27.5925" style="stroke:#335C67;stroke-width:0.8333;"/><text fill="#000000" font-family="Segoe UI" font-size="21.6667" lengthAdjust="spacing" textLength="174.0104" x="358.4573" y="291.904">Gerer fournisseurs</text></g><!--entity UC_Brands--><g class="entity" data-qualified-name="Plateforme B2B FMCG Export.UC_Brands" data-source-line="12" id="ent0007"><ellipse cx="1264.9059" cy="671.9467" fill="#FCFEFE" rx="104.9059" ry="25.3777" style="stroke:#335C67;stroke-width:0.8333;"/><text fill="#000000" font-family="Segoe UI" font-size="21.6667" lengthAdjust="spacing" textLength="141.2882" x="1194.2618" y="680.5225">Gerer marques</text></g><!--entity UC_Categories--><g class="entity" data-qualified-name="Plateforme B2B FMCG Export.UC_Categories" data-source-line="13" id="ent0008"><ellipse cx="1264.6789" cy="549.6715" fill="#FCFEFE" rx="166.3456" ry="37.2691" style="stroke:#335C67;stroke-width:0.8333;"/><text fill="#000000" font-family="Segoe UI" font-size="21.6667" lengthAdjust="spacing" textLength="288.7337" x="1120.3121" y="558.2473">Gerer categories et taxonomie</text></g><!--entity UC_BulkImport--><g class="entity" data-qualified-name="Plateforme B2B FMCG Export.UC_BulkImport" data-source-line="14" id="ent0009"><ellipse cx="445.4554" cy="404.9934" fill="#FCFEFE" rx="155.4554" ry="35.0911" style="stroke:#335C67;stroke-width:0.8333;"/><text fill="#000000" font-family="Segoe UI" font-size="21.6667" lengthAdjust="spacing" textLength="264.1683" x="313.3713" y="413.5693">Importer produits en masse</text></g><!--entity UC_EAN--><g class="entity" data-qualified-name="Plateforme B2B FMCG Export.UC_EAN" data-source-line="15" id="ent0010"><ellipse cx="853.6876" cy="404.6399" fill="#FCFEFE" rx="145.3542" ry="33.0708" style="stroke:#335C67;stroke-width:0.8333;"/><text fill="#000000" font-family="Segoe UI" font-size="21.6667" lengthAdjust="spacing" textLength="240.9041" x="733.2355" y="413.2157">Valider EAN et anomalies</text></g><!--entity UC_Content--><g class="entity" data-qualified-name="Plateforme B2B FMCG Export.UC_Content" data-source-line="16" id="ent0011"><ellipse cx="445.9585" cy="663.094" fill="#FCFEFE" rx="145.9585" ry="33.1917" style="stroke:#335C67;stroke-width:0.8333;"/><text fill="#000000" font-family="Segoe UI" font-size="21.6667" lengthAdjust="spacing" textLength="242.3112" x="324.8029" y="671.6699">Moderer avis et contenus</text></g><!--entity UC_Sponsoring--><g class="entity" data-qualified-name="Plateforme B2B FMCG Export.UC_Sponsoring" data-source-line="17" id="ent0012"><ellipse cx="445.8003" cy="534.7291" fill="#FCFEFE" rx="162.467" ry="36.4934" style="stroke:#335C67;stroke-width:0.8333;"/><text fill="#000000" font-family="Segoe UI" font-size="21.6667" lengthAdjust="spacing" textLength="280.0374" x="305.7816" y="543.3049">Gerer campagnes sponsoring</text></g><!--entity UC_Analytics--><g class="entity" data-qualified-name="Plateforme B2B FMCG Export.UC_Analytics" data-source-line="18" id="ent0013"><ellipse cx="853.2463" cy="534.5516" fill="#FCFEFE" rx="119.913" ry="27.9826" style="stroke:#335C67;stroke-width:0.8333;"/><text fill="#000000" font-family="Segoe UI" font-size="21.6667" lengthAdjust="spacing" textLength="179.0462" x="763.7232" y="543.1275">Consulter analytics</text></g><!--entity UC_CMS--><g class="entity" data-qualified-name="Plateforme B2B FMCG Export.UC_CMS" data-source-line="19" id="ent0014"><ellipse cx="445.6431" cy="783.531" fill="#FCFEFE" rx="123.1431" ry="28.6286" style="stroke:#335C67;stroke-width:0.8333;"/><text fill="#000000" font-family="Segoe UI" font-size="21.6667" lengthAdjust="spacing" textLength="187.2664" x="352.0099" y="792.1068">Gerer CMS editorial</text></g><!--entity Admin--><g class="entity" data-qualified-name="Admin" data-source-line="5" id="ent0001"><ellipse cx="96.4604" cy="484.9023" fill="#F5FBFB" rx="13.3333" ry="13.3333" style="stroke:#335C67;stroke-width:0.8333;"/><path d="M96.4604,498.2357 L96.4604,543.2357 M74.7937,511.569 L118.127,511.569 M96.4604,543.2357 L74.7937,568.2357 M96.4604,543.2357 L118.127,568.2357" fill="none" style="stroke:#335C67;stroke-width:0.8333;"/><text fill="#000000" font-family="Segoe UI" font-size="21.6667" lengthAdjust="spacing" textLength="172.9207" x="10" y="594.1162">Admin Plateforme</text></g><!--link Admin to UC_Login--><g class="link" data-entity-1="ent0001" data-entity-2="ent0003" data-link-type="dependency" data-source-line="22" id="lnk15"><path d="M53.3333,470.369 C53.3333,365.9523 53.3333,171.569 53.3333,171.569 C53.3333,171.569 228.9333,171.569 344.9833,171.569" fill="none" id="Admin-to-UC_Login" style="stroke:#4C5B61;stroke-width:1.6667;"/><polygon fill="#4C5B61" points="353.3167,171.569,338.3167,164.9023,344.9833,171.569,338.3167,178.2357,353.3167,171.569" style="stroke:#4C5B61;stroke-width:1.6667;stroke-linejoin:miter;stroke-miterlimit:10;"/></g><!--link Admin to UC_Catalog--><g class="link" data-entity-1="ent0001" data-entity-2="ent0004" data-link-type="dependency" data-source-line="23" id="lnk16"><path d="M183.4667,593.2357 C382.2167,593.2357 853.3333,593.2357 853.3333,593.2357 C853.3333,593.2357 853.3333,614.369 853.3333,637.1523" fill="none" id="Admin-to-UC_Catalog" style="stroke:#4C5B61;stroke-width:1.6667;"/><polygon fill="#4C5B61" points="853.3333,645.4857,860,630.4857,853.3333,637.1523,846.6667,630.4857,853.3333,645.4857" style="stroke:#4C5B61;stroke-width:1.6667;stroke-linejoin:miter;stroke-miterlimit:10;"/></g><!--link Admin to UC_Suppliers--><g class="link" data-entity-1="ent0001" data-entity-2="ent0006" data-link-type="dependency" data-source-line="24" id="lnk17"><path d="M96.6667,470.0857 C96.6667,395.519 96.6667,283.2357 96.6667,283.2357 C96.6667,283.2357 217.5833,283.2357 318.8,283.2357" fill="none" id="Admin-to-UC_Suppliers" style="stroke:#4C5B61;stroke-width:1.6667;"/><polygon fill="#4C5B61" points="327.1333,283.2357,312.1333,276.569,318.8,283.2357,312.1333,289.9023,327.1333,283.2357" style="stroke:#4C5B61;stroke-width:1.6667;stroke-linejoin:miter;stroke-miterlimit:10;"/></g><!--link Admin to UC_BulkImport--><g class="link" data-entity-1="ent0001" data-entity-2="ent0009" data-link-type="dependency" data-source-line="25" id="lnk18"><path d="M140,470.669 C140,437.919 140,404.9023 140,404.9023 C140,404.9023 206.05,404.9023 281.45,404.9023" fill="none" id="Admin-to-UC_BulkImport" style="stroke:#4C5B61;stroke-width:1.6667;"/><polygon fill="#4C5B61" points="289.7833,404.9023,274.7833,398.2357,281.45,404.9023,274.7833,411.569,289.7833,404.9023" style="stroke:#4C5B61;stroke-width:1.6667;stroke-linejoin:miter;stroke-miterlimit:10;"/></g><!--link Admin to UC_Content--><g class="link" data-entity-1="ent0001" data-entity-2="ent0011" data-link-type="dependency" data-source-line="26" id="lnk19"><path d="M126.6667,599.819 C126.6667,631.6523 126.6667,663.2357 126.6667,663.2357 C126.6667,663.2357 207.4167,663.2357 291.4667,663.2357" fill="none" id="Admin-to-UC_Content" style="stroke:#4C5B61;stroke-width:1.6667;"/><polygon fill="#4C5B61" points="299.8,663.2357,284.8,656.569,291.4667,663.2357,284.8,669.9023,299.8,663.2357" style="stroke:#4C5B61;stroke-width:1.6667;stroke-linejoin:miter;stroke-miterlimit:10;"/></g><!--link Admin to UC_Sponsoring--><g class="link" data-entity-1="ent0001" data-entity-2="ent0012" data-link-type="dependency" data-source-line="27" id="lnk20"><path d="M183.4333,534.9023 C213.7167,534.9023 240.45,534.9023 274.9,534.9023" fill="none" id="Admin-to-UC_Sponsoring" style="stroke:#4C5B61;stroke-width:1.6667;"/><polygon fill="#4C5B61" points="283.2333,534.9023,268.2333,528.2357,274.9,534.9023,268.2333,541.569,283.2333,534.9023" style="stroke:#4C5B61;stroke-width:1.6667;stroke-linejoin:miter;stroke-miterlimit:10;"/></g><!--link Admin to UC_CMS--><g class="link" data-entity-1="ent0001" data-entity-2="ent0014" data-link-type="dependency" data-source-line="28" id="lnk21"><path d="M68.3333,599.5023 C68.3333,673.0857 68.3333,783.2357 68.3333,783.2357 C68.3333,783.2357 203.8,783.2357 313.9,783.2357" fill="none" id="Admin-to-UC_CMS" style="stroke:#4C5B61;stroke-width:1.6667;"/><polygon fill="#4C5B61" points="322.2333,783.2357,307.2333,776.569,313.9,783.2357,307.2333,789.9023,322.2333,783.2357" style="stroke:#4C5B61;stroke-width:1.6667;stroke-linejoin:miter;stroke-miterlimit:10;"/></g><!--link UC_Catalog to UC_Products--><g class="link" data-entity-1="ent0004" data-entity-2="ent0005" data-link-type="dependency" data-source-line="30" id="lnk22"><path d="M853.3333,697.7857 C853.3333,729.8523 853.3333,779.9023 853.3333,779.9023 C853.3333,779.9023 1031.9167,779.9023 1153.85,779.9023" fill="none" id="UC_Catalog-to-UC_Products" style="stroke:#4C5B61;stroke-width:1.6667;stroke-dasharray:11.6667,11.6667;"/><polygon fill="#4C5B61" points="1162.1833,779.9023,1147.1833,773.2357,1153.85,779.9023,1147.1833,786.569,1162.1833,779.9023" style="stroke:#4C5B61;stroke-width:1.6667;stroke-linejoin:miter;stroke-miterlimit:10;"/><text fill="#000000" font-family="Segoe UI" font-size="21.6667" lengthAdjust="spacing" textLength="91.036" x="875.0333" y="804.9495">&#171;include&#187;</text></g><!--link UC_Catalog to UC_Brands--><g class="link" data-entity-1="ent0004" data-entity-2="ent0007" data-link-type="dependency" data-source-line="31" id="lnk23"><path d="M957.75,679.9023 C1021.5833,679.9023 1094.45,679.9023 1157.3333,679.9023" fill="none" id="UC_Catalog-to-UC_Brands" style="stroke:#4C5B61;stroke-width:1.6667;stroke-dasharray:11.6667,11.6667;"/><polygon fill="#4C5B61" points="1165.6667,679.9023,1150.6667,673.2357,1157.3333,679.9023,1150.6667,686.569,1165.6667,679.9023" style="stroke:#4C5B61;stroke-width:1.6667;stroke-linejoin:miter;stroke-miterlimit:10;"/><text fill="#000000" font-family="Segoe UI" font-size="21.6667" lengthAdjust="spacing" textLength="91.036" x="970.0333" y="704.9495">&#171;include&#187;</text></g><!--link UC_Catalog to UC_Categories--><g class="link" data-entity-1="ent0004" data-entity-2="ent0008" data-link-type="dependency" data-source-line="32" id="lnk24"><path d="M957.9333,663.2357 C1036.2833,663.2357 1130,663.2357 1130,663.2357 C1130,663.2357 1130,613.6523 1130,580.619" fill="none" id="UC_Catalog-to-UC_Categories" style="stroke:#4C5B61;stroke-width:1.6667;stroke-dasharray:11.6667,11.6667;"/><polygon fill="#4C5B61" points="1130,572.2857,1123.3333,587.2857,1130,580.619,1136.6667,587.2857,1130,572.2857" style="stroke:#4C5B61;stroke-width:1.6667;stroke-linejoin:miter;stroke-miterlimit:10;"/><text fill="#000000" font-family="Segoe UI" font-size="21.6667" lengthAdjust="spacing" textLength="91.036" x="997.7667" y="656.6162">&#171;include&#187;</text></g><!--link UC_BulkImport to UC_EAN--><g class="link" data-entity-1="ent0009" data-entity-2="ent0010" data-link-type="dependency" data-source-line="33" id="lnk25"><path d="M602.2167,404.9023 C637,404.9023 665.4167,404.9023 699.7333,404.9023" fill="none" id="UC_BulkImport-to-UC_EAN" style="stroke:#4C5B61;stroke-width:1.6667;stroke-dasharray:11.6667,11.6667;"/><polygon fill="#4C5B61" points="708.0667,404.9023,693.0667,398.2357,699.7333,404.9023,693.0667,411.569,708.0667,404.9023" style="stroke:#4C5B61;stroke-width:1.6667;stroke-linejoin:miter;stroke-miterlimit:10;"/><text fill="#000000" font-family="Segoe UI" font-size="21.6667" lengthAdjust="spacing" textLength="91.036" x="563.4833" y="429.9495">&#171;include&#187;</text></g><!--link UC_Sponsoring to UC_Analytics--><g class="link" data-entity-1="ent0012" data-entity-2="ent0013" data-link-type="dependency" data-source-line="34" id="lnk26"><path d="M608.65,534.9023 C650.1,534.9023 685.5833,534.9023 724.5,534.9023" fill="none" id="UC_Sponsoring-to-UC_Analytics" style="stroke:#4C5B61;stroke-width:1.6667;stroke-dasharray:11.6667,11.6667;"/><polygon fill="#4C5B61" points="732.8333,534.9023,717.8333,528.2357,724.5,534.9023,717.8333,541.569,732.8333,534.9023" style="stroke:#4C5B61;stroke-width:1.6667;stroke-linejoin:miter;stroke-miterlimit:10;"/><text fill="#000000" font-family="Segoe UI" font-size="21.6667" lengthAdjust="spacing" textLength="91.036" x="672.4" y="559.9495">&#171;include&#187;</text></g><!--link UC_Content to UC_Catalog--><g class="link" data-entity-1="ent0011" data-entity-2="ent0004" data-link-type="dependency" data-source-line="36" id="lnk27"><path d="M587.7833,671.1523 C638.7833,671.1523 687.1333,671.1523 735,671.1523" fill="none" id="UC_Content-to-UC_Catalog" style="stroke:#4C5B61;stroke-width:1.6667;stroke-dasharray:11.6667,11.6667;"/><polygon fill="#4C5B61" points="743.3333,671.1523,728.3333,664.4857,735,671.1523,728.3333,677.819,743.3333,671.1523" style="stroke:#4C5B61;stroke-width:1.6667;stroke-linejoin:miter;stroke-miterlimit:10;"/><text fill="#000000" font-family="Segoe UI" font-size="21.6667" lengthAdjust="spacing" textLength="86.8888" x="667.2333" y="664.5329">&#171;extend&#187;</text></g><?plantuml-src XPDDQzj048Rl-okcllHa1t8imM2hIIZK9M3QQncqOtNfVgZxKHnA_tj7ihMxYWmzwjKpyxup6hrJjjL94cmsTwqpnjcx45yrRVfaj8WgQeAF2ZkFnX0mrs80-Ju5x0ZMi9D6MNZH6Edal26XwHGXEl2g-n51AazjLCuAWMrq7bPl2rR0_KPHY855sx7ZgW2mlz_3qw5vXiTpxtnSmHy1a09n40QFdCXPovNanrvVc--VNSVjAkYPF7bE7b6xBj74DHTXIVRUoQHYcC2NuRcDOKcUNF9MXK39P_gO-buhyZTmW_vNeapkFLePRYQbpdb50OYtYMTddL5rxklhklIJ6TPJfGUoRCZPibtIFozKNVSDjP9SzhZxChWXMx5IGh9UumSdnupuMutfUFkHRCfuCpx7MqEP7ZlBCuNUsS3vRPTNbfMwZbk5f8UHqA9-ZQhDBhj9MFeqXoEGL7nj2dLETJYAlq9Shc-ztfOpcKdJHSp4yZrdShNDUO_h0kOzoe1pc7E9Oin_uRO-EFW03m_NFtIxlG5UBkY_MBcO9LhccEZX4XPOcM32yZTu0ukoXCf_Z3E0TEOtahb_?></g></svg>